<svg width="512" height="512" viewBox="0 0 512 512" fill="none" xmlns="http://www.w3.org/2000/svg">
<path d="M139.17 34.8142C140.011 34.8075 140.852 34.8008 141.719 34.7939C142.637 34.7919 143.556 34.79 144.502 34.7879C145.482 34.7818 146.462 34.7756 147.472 34.7692C150.764 34.75 154.057 34.7385 157.349 34.727C159.706 34.7151 162.064 34.7029 164.421 34.6903C172.169 34.6514 179.917 34.6246 187.665 34.6003C188.982 34.5961 190.3 34.5919 191.658 34.5876C204.084 34.5489 216.509 34.5153 228.935 34.4928C231.811 34.4876 234.688 34.4822 237.564 34.4767C238.279 34.4754 238.994 34.474 239.731 34.4726C251.312 34.4499 262.893 34.3978 274.474 34.334C286.369 34.2689 298.265 34.2321 310.16 34.2222C316.837 34.2155 323.513 34.1962 330.19 34.1463C336.471 34.0999 342.752 34.0887 349.033 34.1044C351.337 34.1041 353.642 34.091 355.946 34.0642C359.095 34.0295 362.241 34.0408 365.39 34.0635C366.299 34.0426 367.209 34.0216 368.146 34C374.361 34.113 377.435 35.9381 381.851 40.495C382.425 41.1271 382.999 41.7592 383.59 42.4104C384.668 43.5012 385.748 44.5895 386.833 45.6734C387.888 46.7735 388.941 47.8764 389.992 48.9817C390.867 49.8962 390.867 49.8962 391.761 50.8292C393.658 52.813 395.552 54.8005 397.446 56.7884C398.774 58.1796 400.102 59.5707 401.431 60.9616C404.199 63.8604 406.965 66.7612 409.73 69.6633C413.278 73.3874 416.831 77.1066 420.385 80.8245C423.121 83.6882 425.855 86.5544 428.589 89.4214C429.899 90.7947 431.209 92.1673 432.521 93.5391C434.345 95.448 436.166 97.3603 437.986 99.2736C438.53 99.841 439.073 100.408 439.633 100.993C443.766 105.349 444.611 107.211 444.62 113.309C444.625 114.599 444.629 115.889 444.634 117.218C444.634 118.663 444.634 120.107 444.634 121.552C444.637 123.076 444.641 124.601 444.645 126.125C444.655 130.329 444.659 134.534 444.662 138.738C444.665 143.267 444.675 147.796 444.684 152.325C444.704 163.273 444.714 174.22 444.723 185.167C444.728 190.322 444.733 195.476 444.739 200.63C444.756 217.764 444.771 234.898 444.778 252.033C444.78 256.481 444.782 260.93 444.784 265.379C444.784 266.485 444.785 267.59 444.785 268.729C444.794 286.633 444.819 304.536 444.852 322.44C444.886 340.819 444.904 359.197 444.907 377.576C444.91 387.896 444.919 398.216 444.944 408.536C444.967 417.327 444.975 426.118 444.965 434.909C444.96 439.393 444.962 443.877 444.982 448.36C445 452.471 444.999 456.581 444.983 460.691C444.981 462.173 444.985 463.654 444.997 465.136C445.102 478.871 442.523 489.613 433.32 499.715C424.012 509.027 413.852 512.069 401.197 511.954C400.06 511.96 398.923 511.967 397.751 511.974C393.969 511.991 390.187 511.977 386.404 511.964C383.681 511.97 380.958 511.977 378.235 511.986C371.623 512.005 365.011 512.001 358.399 511.989C353.023 511.979 347.646 511.978 342.269 511.983C341.502 511.983 340.735 511.984 339.945 511.985C338.387 511.986 336.828 511.987 335.269 511.989C320.676 512.001 306.083 511.987 291.49 511.964C278.986 511.945 266.481 511.948 253.977 511.968C239.434 511.991 224.89 512 210.347 511.987C208.795 511.985 207.242 511.984 205.689 511.983C204.926 511.982 204.162 511.981 203.375 511.981C198.009 511.977 192.643 511.983 187.276 511.993C180.731 512.005 174.186 512.002 167.641 511.979C164.305 511.968 160.97 511.966 157.634 511.978C154.01 511.989 150.386 511.975 146.762 511.954C145.199 511.968 145.199 511.968 143.604 511.982C132.209 511.854 122.896 507.975 114.639 499.715C103.421 487.401 102.885 474.386 103.014 458.275C103.015 456.251 103.014 454.227 103.012 452.203C103.011 446.739 103.035 441.276 103.063 435.812C103.089 430.09 103.091 424.369 103.096 418.647C103.108 407.827 103.142 397.006 103.182 386.185C103.228 373.86 103.25 361.536 103.27 349.211C103.313 323.87 103.385 298.53 103.475 273.19C108.833 273.19 114.192 273.19 119.713 273.19C119.721 275.62 119.73 278.05 119.738 280.554C119.816 303.448 119.906 326.342 120.005 349.236C120.056 361.006 120.103 372.776 120.141 384.546C120.175 394.807 120.215 405.067 120.264 415.327C120.29 420.759 120.312 426.19 120.326 431.622C120.339 436.738 120.361 441.854 120.391 446.97C120.4 448.844 120.406 450.717 120.408 452.591C120.189 469.653 120.189 469.654 126.818 484.826C126.818 485.528 126.818 486.23 126.818 486.953C136.297 492.118 144.086 493.494 154.606 493.476C155.665 493.479 156.725 493.481 157.817 493.483C161.367 493.49 164.918 493.489 168.468 493.488C171.014 493.492 173.559 493.495 176.105 493.499C182.303 493.508 188.5 493.511 194.697 493.512C199.736 493.512 204.775 493.514 209.814 493.518C224.11 493.527 238.405 493.532 252.7 493.531C253.856 493.531 253.856 493.531 255.034 493.531C256.191 493.531 256.191 493.531 257.371 493.531C269.867 493.53 282.363 493.541 294.859 493.556C307.698 493.571 320.537 493.578 333.377 493.577C340.582 493.577 347.786 493.58 354.991 493.591C361.768 493.602 368.545 493.602 375.321 493.594C377.807 493.593 380.292 493.595 382.778 493.602C386.174 493.61 389.57 493.605 392.967 493.597C393.947 493.602 394.927 493.608 395.937 493.613C405.241 493.564 413.678 492.693 420.539 485.445C426.275 478.648 427.349 471.488 427.372 462.641C427.377 461.413 427.383 460.185 427.388 458.92C427.389 457.581 427.39 456.242 427.391 454.863C427.396 453.419 427.401 451.975 427.407 450.53C427.42 446.567 427.428 442.605 427.434 438.642C427.443 434.366 427.456 430.091 427.47 425.815C427.492 418.409 427.51 411.003 427.526 403.597C427.549 392.89 427.578 382.182 427.608 371.474C427.656 354.102 427.7 336.729 427.741 319.357C427.781 302.481 427.823 285.606 427.868 268.731C427.872 267.17 427.872 267.17 427.876 265.578C427.89 260.359 427.904 255.141 427.918 249.922C428.034 206.63 428.142 163.338 428.246 120.046C427.666 120.055 427.087 120.065 426.489 120.074C420.43 120.169 414.371 120.233 408.312 120.279C406.054 120.301 403.795 120.33 401.537 120.367C398.282 120.419 395.028 120.443 391.772 120.461C390.771 120.483 389.769 120.505 388.738 120.528C381.251 120.53 375.833 118.92 370.15 113.702C369.33 112.664 369.33 112.664 368.493 111.604C367.93 110.915 367.368 110.225 366.788 109.515C364.095 105.418 363.036 101.727 363.061 96.7742C363.061 95.2738 363.061 95.2738 363.062 93.743C363.072 92.6771 363.082 91.6111 363.093 90.5129C363.096 89.411 363.099 88.3091 363.102 87.1738C363.113 83.663 363.139 80.1525 363.165 76.6418C363.175 74.2579 363.184 71.874 363.192 69.4901C363.215 63.654 363.249 57.8179 363.291 51.9819C334.866 52.0711 306.441 52.1723 278.016 52.2877C264.818 52.341 251.62 52.3904 238.421 52.4305C226.917 52.4656 215.412 52.508 203.908 52.5591C197.817 52.586 191.726 52.6092 185.636 52.6235C179.9 52.6372 174.165 52.6607 168.43 52.6916C166.327 52.7013 164.225 52.7073 162.122 52.7095C159.245 52.7131 156.369 52.7296 153.492 52.7492C152.666 52.7472 151.839 52.7451 150.988 52.743C142.072 52.8335 133.958 54.0262 127.42 60.9344C124.754 64.0941 122.98 67.1184 121.743 71.1249C115.803 70.5773 110.244 69.579 104.49 67.9344C104.67 59.4159 109.184 52.7509 114.528 46.573C121.254 40.0113 129.815 34.8611 139.17 34.8142ZM379.53 65.8074C379.441 70.46 379.387 75.1125 379.34 79.7658C379.314 81.0819 379.289 82.398 379.262 83.7539C379.253 85.0289 379.243 86.3038 379.233 87.6174C379.217 88.787 379.201 89.9565 379.184 91.1615C379.592 95.1247 380.48 97.5767 382.575 100.903C386.354 103.262 389.806 103.281 394.139 103.238C395.359 103.231 396.579 103.224 397.836 103.217C399.101 103.199 400.365 103.181 401.668 103.163C402.952 103.153 404.236 103.144 405.559 103.134C408.723 103.109 411.888 103.074 415.052 103.03C410.968 97.9011 406.701 93.058 402.187 88.3444C401.567 87.694 400.948 87.0436 400.309 86.3734C399.013 85.0147 397.716 83.6573 396.418 82.3012C394.421 80.2145 392.429 78.122 390.438 76.029C389.175 74.7055 387.911 73.3824 386.646 72.0596C386.049 71.4316 385.452 70.8036 384.836 70.1565C382.554 67.1854 382.554 67.1854 379.53 65.8074Z" fill="black"/>
<path d="M323.987 178.041C325.191 178.021 325.191 178.021 326.419 178C327.277 178.009 328.135 178.017 329.019 178.026C330.353 178.02 330.353 178.02 331.715 178.014C333.593 178.011 335.47 178.019 337.348 178.037C340.221 178.059 343.091 178.037 345.964 178.009C347.79 178.012 349.616 178.018 351.442 178.026C352.3 178.018 353.158 178.009 354.042 178C354.845 178.013 355.648 178.027 356.475 178.041C357.529 178.046 357.529 178.046 358.605 178.051C361.814 178.915 362.817 179.965 364.692 182.855C365.287 186.537 365.207 190.179 365.155 193.904C365.156 195.027 365.156 196.151 365.157 197.308C365.154 201.022 365.122 204.735 365.09 208.448C365.083 211.022 365.077 213.597 365.073 216.171C365.057 222.948 365.017 229.724 364.972 236.501C364.931 243.416 364.912 250.33 364.891 257.245C364.848 270.813 364.778 284.381 364.692 297.949C370.074 297.949 375.455 297.949 381 297.949C381 303.576 381 309.203 381 315C311.04 315 241.08 315 169 315C169 309.373 169 303.746 169 297.949C174.382 297.949 179.763 297.949 185.308 297.949C185.286 296.551 185.265 295.153 185.243 293.712C185.169 288.525 185.122 283.337 185.084 278.15C185.063 275.904 185.035 273.659 185 271.414C184.951 268.187 184.928 264.96 184.91 261.732C184.889 260.729 184.867 259.725 184.846 258.691C184.844 254.623 184.866 251.877 186.798 248.296C190.678 246.046 194.186 246.186 198.558 246.23C199.447 246.226 200.337 246.222 201.253 246.218C203.131 246.215 205.009 246.223 206.887 246.24C209.76 246.263 212.63 246.241 215.502 246.213C217.329 246.216 219.155 246.222 220.981 246.23C221.839 246.221 222.697 246.213 223.581 246.204C227.191 246.264 229.55 246.446 232.741 248.296C235.089 252.651 234.732 256.821 234.629 261.732C234.623 262.767 234.617 263.802 234.611 264.868C234.589 268.169 234.537 271.469 234.486 274.77C234.465 277.01 234.447 279.25 234.43 281.489C234.385 286.976 234.315 292.462 234.231 297.949C239.612 297.949 244.994 297.949 250.538 297.949C250.506 294.302 250.506 294.302 250.474 290.582C250.406 282.551 250.361 274.521 250.327 266.49C250.306 261.62 250.277 256.751 250.231 251.882C250.187 247.183 250.162 242.485 250.152 237.786C250.144 235.993 250.129 234.2 250.107 232.407C250.078 229.896 250.074 227.387 250.076 224.876C250.061 224.134 250.046 223.392 250.031 222.627C250.06 219.116 250.346 217.232 252.347 214.365C254.774 212.578 255.835 212.157 258.756 212.143C259.96 212.122 259.96 212.122 261.189 212.102C262.047 212.111 262.905 212.119 263.788 212.128C264.678 212.124 265.567 212.12 266.484 212.116C268.362 212.113 270.24 212.121 272.117 212.138C274.99 212.161 277.86 212.139 280.733 212.111C282.559 212.114 284.385 212.12 286.212 212.128C287.069 212.119 287.927 212.111 288.811 212.102C289.614 212.115 290.417 212.129 291.244 212.143C292.298 212.148 292.298 212.148 293.374 212.153C296.45 212.981 297.598 214.286 299.462 216.957C299.843 219.75 299.979 222.089 299.924 224.876C299.925 225.666 299.926 226.457 299.926 227.271C299.923 229.878 299.892 232.484 299.86 235.09C299.852 236.9 299.846 238.71 299.842 240.52C299.827 245.278 299.787 250.036 299.741 254.795C299.7 259.652 299.681 264.509 299.661 269.367C299.617 278.895 299.545 288.422 299.462 297.949C304.843 297.949 310.225 297.949 315.769 297.949C315.76 296.517 315.751 295.084 315.742 293.608C315.659 280.122 315.598 266.637 315.558 253.151C315.537 246.217 315.508 239.284 315.462 232.35C315.417 225.661 315.393 218.973 315.382 212.284C315.375 209.73 315.36 207.175 315.338 204.621C315.309 201.048 315.304 197.477 315.306 193.904C315.292 192.843 315.277 191.782 315.262 190.689C315.303 183.574 315.303 183.574 317.578 180.068C319.981 178.505 321.188 178.054 323.987 178.041ZM332.077 195.643C332.077 229.404 332.077 263.165 332.077 297.949C337.458 297.949 342.84 297.949 348.385 297.949C348.385 264.188 348.385 230.427 348.385 195.643C343.003 195.643 337.622 195.643 332.077 195.643ZM266.846 229.745C266.846 252.252 266.846 274.76 266.846 297.949C272.228 297.949 277.609 297.949 283.154 297.949C283.154 275.442 283.154 252.934 283.154 229.745C277.772 229.745 272.391 229.745 266.846 229.745ZM201.615 263.847C201.615 275.101 201.615 286.354 201.615 297.949C206.997 297.949 212.378 297.949 217.923 297.949C217.923 286.695 217.923 275.442 217.923 263.847C212.542 263.847 207.16 263.847 201.615 263.847Z" fill="black"/>
<path d="M178.661 0.275106C179.797 0.270279 180.933 0.265452 182.103 0.260478C185.905 0.247002 189.707 0.248734 193.51 0.250494C196.237 0.244118 198.965 0.236928 201.693 0.228808C208.332 0.211135 214.97 0.205254 221.609 0.204065C227.007 0.203051 232.406 0.198666 237.804 0.191918C253.123 0.17316 268.443 0.163324 283.762 0.164923C284.587 0.165008 285.412 0.165093 286.262 0.165181C287.089 0.165268 287.915 0.165355 288.766 0.165445C302.152 0.16631 315.538 0.145926 328.925 0.115878C342.682 0.0852412 356.44 0.0705585 370.198 0.0723976C377.917 0.0731039 385.635 0.067297 393.354 0.0443184C399.927 0.0248762 406.499 0.0203167 413.072 0.03475C416.422 0.0416869 419.772 0.0395683 423.122 0.0233436C426.762 0.00685705 430.402 0.0168147 434.043 0.0332112C435.089 0.0222515 436.136 0.0112918 437.214 0C448.642 0.113292 457.973 3.99682 466.254 12.2792C476.498 23.5229 478.046 35.5418 477.956 50.5293C477.96 52.2274 477.967 53.9254 477.975 55.6234C477.992 60.2632 477.983 64.9026 477.971 69.5423C477.962 74.5563 477.976 79.5702 477.987 84.5842C478.005 94.3962 478.001 104.208 477.989 114.02C477.98 121.996 477.979 129.972 477.983 137.949C477.984 139.085 477.985 140.221 477.985 141.392C477.987 143.701 477.988 146.01 477.989 148.318C478.001 169.953 477.988 191.589 477.966 213.224C477.947 231.777 477.951 250.33 477.969 268.884C477.991 290.443 478 312.002 477.987 333.561C477.986 335.861 477.985 338.161 477.983 340.461C477.982 342.159 477.982 342.159 477.981 343.89C477.978 351.855 477.984 359.819 477.993 367.783C478.005 377.492 478.002 387.201 477.98 396.911C477.969 401.862 477.965 406.813 477.979 411.764C477.991 416.301 477.984 420.838 477.963 425.375C477.958 427.012 477.96 428.649 477.97 430.285C478.043 443.358 476.205 453.631 468.288 464C464.751 462.385 462.231 460.189 459.39 457.475C458.578 456.703 457.765 455.931 456.928 455.136C456.314 454.545 455.701 453.955 455.069 453.346C455.689 450.483 456.454 448.215 457.611 445.489C459.873 439.762 460.28 434.509 460.284 428.352C460.287 426.98 460.29 425.607 460.294 424.193C460.292 422.677 460.291 421.162 460.289 419.646C460.291 418.031 460.293 416.415 460.296 414.799C460.302 410.362 460.302 405.925 460.301 401.487C460.3 396.701 460.306 391.914 460.311 387.127C460.319 377.751 460.322 368.374 460.323 358.997C460.323 351.375 460.325 343.753 460.329 336.131C460.337 314.522 460.342 292.913 460.341 271.303C460.341 270.139 460.341 268.974 460.341 267.773C460.341 266.607 460.341 265.441 460.341 264.239C460.341 245.335 460.35 226.43 460.365 207.526C460.379 188.115 460.386 168.705 460.386 149.294C460.385 138.397 460.388 127.499 460.399 116.601C460.408 107.323 460.41 98.0451 460.404 88.767C460.4 84.0339 460.4 79.301 460.409 74.5679C460.417 70.2325 460.415 65.8972 460.407 61.5618C460.405 59.9961 460.407 58.4303 460.413 56.8645C460.45 45.7739 460.467 36.3804 454.052 27.1945C454.052 26.4913 454.052 25.7882 454.052 25.0637C453.507 24.7781 452.961 24.4924 452.399 24.1981C450.619 23.2656 448.864 22.2809 447.125 21.2683C440.452 18.1152 433.274 18.517 426.089 18.529C424.495 18.5254 424.495 18.5254 422.869 18.5217C419.315 18.515 415.761 18.5158 412.207 18.5167C409.656 18.5135 407.105 18.5099 404.555 18.5059C398.349 18.4974 392.143 18.4941 385.938 18.4935C380.892 18.493 375.847 18.4908 370.801 18.4874C356.484 18.478 342.168 18.4731 327.851 18.4739C326.695 18.474 326.695 18.474 325.514 18.474C324.356 18.4741 324.356 18.4741 323.175 18.4742C310.662 18.4746 298.149 18.4644 285.636 18.4494C272.777 18.4341 259.918 18.4267 247.058 18.4277C239.843 18.428 232.628 18.4251 225.413 18.4136C218.628 18.4029 211.842 18.4032 205.057 18.411C202.568 18.4121 200.08 18.4096 197.591 18.4031C194.191 18.3949 190.79 18.3999 187.39 18.4081C186.408 18.4026 185.427 18.3971 184.416 18.3915C177.448 18.4285 170.531 18.7729 164.443 22.6001C162.219 23.9984 162.219 23.9984 160.348 23.8902C157.169 22.5047 155.553 20.2559 153.322 17.5395C152.509 16.5603 151.696 15.5811 150.859 14.5722C150.245 13.8155 149.632 13.0588 149 12.2792C150.256 8.33094 151.365 7.8961 154.72 5.82033C155.572 5.2806 156.424 4.74088 157.302 4.1848C164.434 0.489583 170.826 0.250617 178.661 0.275106Z" fill="black"/>
<path d="M170.073 101.982C171.381 103.132 172.68 104.293 173.971 105.464C175.205 106.441 175.205 106.441 176.464 107.439C189.422 118.862 199.606 139.377 201.581 156.886C203.337 181.702 199.95 205.722 184.153 225.297C183.493 226.054 182.832 226.811 182.152 227.591C181.333 228.546 180.515 229.502 179.671 230.487C165.965 245.698 146.775 256.112 126.593 256.98C124.384 257.005 122.175 257.006 119.966 256.984C118.8 256.975 117.635 256.965 116.434 256.955C97.3874 256.546 79.9607 249.309 65.5776 236.161C64.5876 235.334 63.5977 234.507 62.5777 233.654C52.7604 225.069 46.5796 213.118 42.0582 200.808C41.3918 199.021 41.3918 199.021 40.712 197.197C34.0467 175.762 36.6949 151.821 45.9568 131.844C49.1353 125.322 52.8136 119.579 57.3969 114.034C58.0072 113.185 58.6175 112.335 59.2463 111.46C67.6316 101.047 79.1371 94.1664 91.1421 89.3943C92.2784 88.9303 93.4147 88.4663 94.5854 87.9882C119.85 79.3455 149.153 85.0813 170.073 101.982ZM72.9913 122.805C59.2036 138.471 54.1693 156.06 54.9203 177.069C55.3511 184.044 56.7742 190.081 59.4421 196.523C59.8125 197.461 60.1829 198.399 60.5645 199.365C66.9934 214.182 79.472 227.681 94.0331 233.722C111.693 240.474 128.088 240.779 145.926 233.604C162.349 225.502 175.009 211.564 181.547 193.765C187.002 176.946 185.917 158.034 179.084 141.887C171.236 125.831 158.547 113.165 142.463 106.602C117.172 98.1326 92.592 104.159 72.9913 122.805Z" fill="black"/>
<path d="M181.138 349.033C181.999 349.025 182.859 349.018 183.745 349.01C186.588 348.991 189.43 349.004 192.272 349.018C194.248 349.015 196.224 349.011 198.2 349.006C202.34 349 206.48 349.009 210.621 349.029C215.929 349.053 221.237 349.039 226.545 349.013C230.625 348.998 234.705 349.003 238.785 349.014C240.742 349.017 242.7 349.013 244.657 349.003C247.392 348.993 250.126 349.009 252.862 349.033C253.671 349.024 254.481 349.015 255.315 349.007C258.684 349.061 261.02 349.335 263.93 351.176C266.101 354.968 266.01 358.511 265.969 362.809C265.976 363.713 265.983 364.617 265.99 365.549C266.008 368.536 265.996 371.523 265.983 374.51C265.985 376.587 265.989 378.664 265.994 380.741C266 385.092 265.992 389.444 265.973 393.795C265.95 399.375 265.963 404.953 265.987 410.532C266.002 414.82 265.997 419.108 265.987 423.397C265.984 425.454 265.987 427.511 265.997 429.568C266.007 432.443 265.991 435.317 265.969 438.191C265.977 439.042 265.985 439.893 265.994 440.77C265.942 444.31 265.681 446.766 263.93 449.824C260.322 452.106 256.951 452.011 252.862 451.967C252.001 451.975 251.141 451.982 250.255 451.99C247.412 452.009 244.57 451.996 241.728 451.982C239.752 451.985 237.776 451.989 235.8 451.994C231.66 452 227.52 451.991 223.379 451.971C218.071 451.947 212.763 451.961 207.455 451.987C203.375 452.002 199.295 451.997 195.215 451.986C193.258 451.983 191.3 451.987 189.343 451.997C186.608 452.007 183.874 451.991 181.138 451.967C179.924 451.98 179.924 451.98 178.685 451.993C175.316 451.939 172.98 451.665 170.07 449.824C167.899 446.032 167.99 442.489 168.031 438.191C168.024 437.287 168.017 436.383 168.01 435.451C167.992 432.464 168.004 429.477 168.017 426.49C168.015 424.413 168.011 422.336 168.006 420.259C168 415.908 168.008 411.556 168.027 407.205C168.05 401.625 168.037 396.047 168.013 390.468C167.998 386.18 168.003 381.892 168.013 377.603C168.016 375.546 168.013 373.489 168.003 371.432C167.993 368.557 168.009 365.683 168.031 362.809C168.023 361.958 168.015 361.107 168.006 360.23C168.058 356.69 168.319 354.234 170.07 351.176C173.678 348.894 177.049 348.989 181.138 349.033ZM184.702 366.554C184.702 388.959 184.702 411.363 184.702 434.446C206.019 434.446 227.335 434.446 249.298 434.446C249.298 412.041 249.298 389.637 249.298 366.554C227.981 366.554 206.665 366.554 184.702 366.554Z" fill="black"/>
<path d="M111.853 120C117.23 120 122.607 120 128.147 120C128.147 122.778 128.147 125.555 128.147 128.417C129.156 128.33 130.164 128.243 131.203 128.154C136.949 128.202 141.304 130.568 145.453 134.594C151.194 141.102 152.59 144.595 152.59 153.667C146.877 153.667 141.163 153.667 135.277 153.667C134.604 151.931 133.932 150.195 133.24 148.406C129.111 145.804 124.702 145.985 120 146.039C119.288 146.031 118.577 146.023 117.844 146.014C113.722 146.03 110.415 146.376 106.76 148.406C105.335 151.351 105.485 153.567 105.742 156.823C107.629 159.516 108.734 159.957 111.853 161.031C113.562 161.139 115.276 161.194 116.988 161.216C117.999 161.241 119.009 161.266 120.05 161.292C122.161 161.337 124.272 161.37 126.383 161.391C134.194 161.615 139.766 162.98 145.708 168.359C146.256 169.044 146.805 169.729 147.37 170.434C148.217 171.458 148.217 171.458 149.081 172.501C153.643 179.341 153.277 186.672 152.59 194.698C150.853 201.808 145.966 206.287 140.369 210.479C136.28 212.849 132.793 212.772 128.147 212.583C128.147 215.361 128.147 218.138 128.147 221C122.77 221 117.393 221 111.853 221C111.853 218.223 111.853 215.445 111.853 212.583C110.844 212.67 109.836 212.757 108.797 212.846C103.051 212.798 98.6957 210.432 94.5471 206.406C88.8062 199.898 87.4101 196.405 87.4101 187.333C93.1235 187.333 98.8369 187.333 104.723 187.333C105.396 189.069 106.068 190.805 106.76 192.594C110.889 195.196 115.298 195.015 120 194.961C120.712 194.969 121.423 194.977 122.156 194.986C126.278 194.97 129.585 194.624 133.24 192.594C134.665 189.649 134.515 187.433 134.258 184.177C132.37 181.484 131.266 181.043 128.147 179.969C126.438 179.861 124.724 179.806 123.012 179.784C122.001 179.759 120.991 179.734 119.95 179.708C117.839 179.663 115.728 179.63 113.617 179.609C105.806 179.385 100.234 178.02 94.2925 172.641C93.7437 171.956 93.1949 171.271 92.6295 170.566C92.065 169.884 91.5005 169.201 90.9189 168.499C86.3569 161.659 86.723 154.328 87.4101 146.302C89.1471 139.192 94.0337 134.713 99.6313 130.521C103.72 128.151 107.207 128.228 111.853 128.417C111.853 125.639 111.853 122.862 111.853 120Z" fill="black"/>
<path d="M298 417C330.67 417 363.34 417 397 417C397 422.94 397 428.88 397 435C364.33 435 331.66 435 298 435C298 429.06 298 423.12 298 417Z" fill="black"/>
<path d="M298 383C330.67 383 363.34 383 397 383C397 388.94 397 394.88 397 401C364.33 401 331.66 401 298 401C298 395.06 298 389.12 298 383Z" fill="black"/>
<path d="M298 349C330.67 349 363.34 349 397 349C397 354.94 397 360.88 397 367C364.33 367 331.66 367 298 367C298 361.06 298 355.12 298 349Z" fill="black"/>
<path d="M226 120C257.68 120 289.36 120 322 120C322 125.61 322 131.22 322 137C290.32 137 258.64 137 226 137C226 131.39 226 125.78 226 120Z" fill="black"/>
<path d="M257 86C278.45 86 299.9 86 322 86C322 91.61 322 97.22 322 103C300.55 103 279.1 103 257 103C257 97.39 257 91.78 257 86Z" fill="black"/>
<path d="M226 86C231.28 86 236.56 86 242 86C242 91.61 242 97.22 242 103C236.72 103 231.44 103 226 103C226 97.39 226 91.78 226 86Z" fill="black"/>
</svg>
