<svg width="512" height="512" viewBox="0 0 512 512" fill="none" xmlns="http://www.w3.org/2000/svg">
<g clip-path="url(#clip0_1240_108)">
<path d="M146.48 -0.149699C147.864 -0.161011 147.864 -0.161011 149.277 -0.172552C150.8 -0.177391 150.8 -0.177391 152.354 -0.182328C153.97 -0.193135 153.97 -0.193135 155.62 -0.20416C159.249 -0.226973 162.879 -0.242481 166.508 -0.257859C169.103 -0.272304 171.698 -0.287061 174.293 -0.30211C197.99 -0.4344 221.687 -0.498487 245.384 -0.549952C248.555 -0.556961 251.726 -0.564088 254.897 -0.571336C255.686 -0.573131 256.474 -0.574926 257.286 -0.576776C270.047 -0.606827 282.808 -0.671582 295.569 -0.750022C308.675 -0.829914 321.781 -0.875644 334.888 -0.888978C342.245 -0.897378 349.601 -0.921059 356.958 -0.983647C363.881 -1.04252 370.804 -1.05557 377.728 -1.03777C380.266 -1.03865 382.805 -1.05491 385.344 -1.08782C406.926 -1.35302 406.926 -1.35302 412.986 3.96889C414.368 5.60924 415.708 7.28655 417 8.99849C418.552 10.5508 420.126 12.0815 421.72 13.5912C423.363 15.2282 425.003 16.8678 426.641 18.5097C427.546 19.4133 428.451 20.3169 429.384 21.2478C431.834 23.6935 434.281 26.1422 436.728 28.5916C439.3 31.1662 441.874 33.7383 444.448 36.3108C448.76 40.6209 453.07 44.9331 457.379 49.2465C462.357 54.2308 467.34 59.2115 472.324 64.1903C476.617 68.4791 480.909 72.7698 485.199 77.0622C487.755 79.6202 490.312 82.1776 492.871 84.7332C495.715 87.5738 498.555 90.4185 501.395 93.2636C502.241 94.1083 503.088 94.953 503.96 95.8233C504.731 96.5969 505.502 97.3706 506.296 98.1676C506.967 98.839 507.638 99.5104 508.33 100.202C511.863 104.002 512.252 106.283 512.26 111.352C512.264 112.003 512.268 112.653 512.272 113.324C512.282 115.518 512.278 117.713 512.274 119.908C512.279 121.492 512.284 123.075 512.29 124.659C512.304 129.022 512.306 133.386 512.306 137.749C512.307 142.451 512.32 147.152 512.332 151.854C512.355 162.141 512.363 172.429 512.368 182.716C512.371 189.139 512.377 195.561 512.385 201.984C512.404 219.763 512.421 237.541 512.423 255.32C512.424 256.458 512.424 257.597 512.424 258.77C512.424 261.078 512.425 263.386 512.425 265.694C512.425 266.839 512.425 267.985 512.426 269.165C512.426 270.886 512.426 270.886 512.426 272.641C512.43 291.222 512.457 309.803 512.494 328.384C512.532 347.457 512.552 366.529 512.552 385.602C512.552 396.312 512.561 407.022 512.59 417.732C512.614 426.854 512.622 435.976 512.607 445.097C512.599 449.751 512.6 454.404 512.623 459.057C512.644 463.321 512.641 467.583 512.62 471.847C512.617 473.386 512.622 474.925 512.636 476.464C512.714 485.398 511.977 492.352 507 499.999C506.443 500.906 505.886 501.814 505.313 502.749C499.383 508.517 492.492 512.117 484.224 512.135C483.012 512.141 481.8 512.146 480.551 512.151C479.199 512.151 477.847 512.152 476.495 512.152C475.064 512.156 473.633 512.161 472.203 512.166C468.261 512.178 464.319 512.183 460.378 512.188C456.13 512.194 451.882 512.205 447.635 512.216C437.371 512.241 427.107 512.255 416.844 512.268C413.945 512.272 411.046 512.276 408.148 512.28C390.149 512.305 372.15 512.327 354.151 512.34C349.981 512.343 345.811 512.346 341.641 512.349C340.605 512.349 339.569 512.35 338.501 512.351C321.714 512.363 304.928 512.397 288.141 512.438C270.908 512.481 253.675 512.504 236.442 512.51C226.766 512.513 217.09 512.525 207.414 512.558C199.172 512.586 190.931 512.597 182.689 512.586C178.486 512.58 174.282 512.583 170.078 512.608C166.226 512.63 162.374 512.63 158.521 512.611C157.132 512.608 155.742 512.614 154.352 512.629C145.641 512.717 139.407 511.697 132 506.999C131.093 506.442 130.185 505.885 129.25 505.311C122.505 498.379 119.846 491.15 119.88 481.665C119.879 480.805 119.878 479.945 119.877 479.059C119.876 476.166 119.881 473.273 119.887 470.381C119.887 468.311 119.887 466.242 119.886 464.172C119.886 458.545 119.892 452.917 119.899 447.289C119.905 441.412 119.906 435.534 119.907 429.656C119.91 418.521 119.918 407.387 119.928 396.252C119.939 383.578 119.945 370.903 119.95 358.228C119.96 332.152 119.978 306.075 120 279.999C119.315 280.005 118.631 280.011 117.925 280.017C114.785 280.042 111.644 280.058 108.504 280.073C107.427 280.083 106.35 280.093 105.24 280.103C96.756 280.134 89.1995 279.308 81.0001 276.999C79.7974 276.67 78.5947 276.341 77.3556 276.002C62.539 271.519 49.5097 264.361 38.0001 253.998C37.1854 253.337 36.3707 252.676 35.5314 251.995C19.3021 238.462 8.61219 219.13 3.00012 198.998C2.68043 197.912 2.36075 196.825 2.03137 195.706C-2.23348 178.547 -1.9815 157.96 3.00012 140.998C3.32883 139.801 3.65754 138.603 3.99622 137.37C8.46327 122.546 15.6384 109.507 26.0001 97.9985C26.6614 97.1838 27.3227 96.3691 28.004 95.5297C41.5261 79.3135 60.8728 68.5859 81.0001 62.9985C82.1332 62.6788 83.2663 62.3591 84.4337 62.0297C96.1615 59.2056 108.014 59.7081 120 59.9985C119.974 58.8997 119.948 57.801 119.921 56.6689C119.83 52.5503 119.773 48.4318 119.725 44.3125C119.7 42.5376 119.666 40.7628 119.623 38.9882C119.175 20.2453 119.175 20.2453 125 11.9985C125.557 11.091 126.114 10.1835 126.688 9.24849C132.054 4.02722 138.894 -0.106955 146.48 -0.149699ZM143 22.9985C140.021 27.9346 139.584 32.4786 139.707 38.1196C139.711 38.8643 139.716 39.6091 139.72 40.3764C139.737 42.73 139.774 45.0827 139.813 47.436C139.828 49.0421 139.841 50.6482 139.854 52.2543C139.887 56.1694 139.938 60.0838 140 63.9985C141.074 64.3767 142.149 64.7548 143.255 65.1445C157.219 70.0911 169.806 76.1008 181 85.9985C182.356 87.1393 182.356 87.1393 183.738 88.3032C202.771 104.782 216.723 130.695 219 155.998C219.62 170.436 220.11 185.029 216 198.998C215.66 200.219 215.319 201.44 214.969 202.698C206.64 230.076 187.702 253.326 162.5 266.874C161.861 267.218 161.222 267.563 160.564 267.919C156.084 270.214 151.457 271.961 146.713 273.628C146.066 273.857 145.419 274.086 144.752 274.322C143.169 274.883 141.585 275.441 140 275.999C139.93 302.737 139.877 329.475 139.845 356.213C139.829 368.628 139.808 381.043 139.774 393.458C139.744 404.278 139.725 415.099 139.718 425.919C139.714 431.649 139.705 437.378 139.683 443.108C139.663 448.501 139.656 453.895 139.661 459.288C139.66 461.267 139.654 463.246 139.643 465.225C139.628 467.929 139.631 470.632 139.639 473.336C139.631 474.117 139.622 474.898 139.613 475.703C139.655 480.848 140.296 484.556 143 488.999C149.17 493.142 156.194 492.418 163.399 492.379C164.769 492.383 166.14 492.388 167.51 492.394C171.266 492.406 175.022 492.4 178.778 492.391C182.833 492.384 186.887 492.394 190.942 492.403C198.881 492.416 206.82 492.413 214.759 492.404C221.211 492.398 227.664 492.397 234.116 492.4C235.035 492.4 235.953 492.401 236.899 492.401C238.765 492.402 240.631 492.403 242.497 492.404C259.991 492.413 277.486 492.403 294.981 492.387C309.991 492.373 325.001 492.376 340.011 492.39C357.443 492.406 374.875 492.412 392.307 492.403C394.166 492.402 396.025 492.401 397.884 492.4C399.256 492.399 399.256 492.399 400.656 492.399C407.1 492.396 413.544 492.4 419.989 492.407C427.843 492.416 435.697 492.414 443.551 492.398C447.558 492.39 451.564 492.387 455.571 492.396C459.24 492.405 462.909 492.4 466.578 492.385C468.532 492.38 470.486 492.389 472.44 492.4C481.193 492.429 481.193 492.429 489 488.999C493.392 482.632 492.409 474.869 492.361 467.414C492.362 465.915 492.365 464.415 492.369 462.916C492.375 458.804 492.363 454.693 492.348 450.581C492.335 446.145 492.34 441.708 492.342 437.271C492.344 429.586 492.334 421.902 492.317 414.217C492.293 403.107 492.285 391.997 492.281 380.886C492.275 362.86 492.255 344.834 492.226 326.807C492.199 309.297 492.178 291.787 492.165 274.277C492.164 273.198 492.163 272.118 492.163 271.006C492.159 265.591 492.155 260.175 492.151 254.76C492.12 209.839 492.067 164.919 492 119.998C490.817 119.988 489.633 119.978 488.414 119.967C477.274 119.87 466.135 119.767 454.996 119.659C449.269 119.604 443.542 119.551 437.815 119.501C432.29 119.454 426.766 119.401 421.242 119.346C419.132 119.325 417.021 119.306 414.911 119.289C411.961 119.265 409.011 119.235 406.061 119.204C405.184 119.198 404.306 119.192 403.402 119.186C400.029 119.145 397.222 119.072 394 117.998C392.664 113.991 392.822 110.118 392.795 105.937C392.785 105.01 392.775 104.083 392.765 103.128C392.733 100.06 392.708 96.9922 392.684 93.9243C392.663 91.7986 392.642 89.673 392.621 87.5474C392.566 81.9496 392.516 76.3519 392.468 70.7541C392.418 65.0432 392.362 59.3324 392.307 53.6215C392.199 42.4139 392.098 31.2062 392 19.9985C361.29 19.93 330.58 19.877 299.869 19.8453C296.243 19.8415 292.617 19.8377 288.991 19.8337C288.269 19.8329 287.547 19.8321 286.804 19.8313C275.117 19.8183 263.43 19.7946 251.743 19.767C239.75 19.739 227.758 19.7223 215.765 19.7162C209.029 19.7125 202.293 19.7035 195.558 19.6813C189.219 19.6609 182.88 19.6547 176.541 19.6592C174.214 19.6583 171.887 19.6524 169.559 19.6409C166.382 19.626 163.206 19.6295 160.029 19.6377C158.647 19.6246 158.647 19.6246 157.238 19.6112C151.745 19.6495 147.828 20.2951 143 22.9985ZM412 35.9985C412 57.1185 412 78.2385 412 99.9985C433.12 99.9985 454.24 99.9985 476 99.9985C472.125 95.4771 468.303 91.155 464.102 86.9714C463.547 86.4144 462.992 85.8574 462.42 85.2836C460.609 83.4686 458.795 81.6572 456.981 79.8461C455.713 78.5783 454.446 77.3104 453.18 76.0423C450.538 73.399 447.894 70.7576 445.249 68.1174C441.852 64.7255 438.459 61.3291 435.067 57.9314C432.458 55.3192 429.847 52.7094 427.236 50.1003C425.983 48.8478 424.73 47.5946 423.479 46.3407C421.738 44.598 419.995 42.8585 418.251 41.1198C417.471 40.3368 417.471 40.3368 416.675 39.538C414.679 37.0817 414.679 37.0817 412 35.9985ZM120 80.9985C120 107.068 120 133.138 120 159.998C146.07 159.998 172.14 159.998 199 159.998C193.948 133.052 182.776 111.054 159.871 95.2255C148.578 87.8196 133.723 80.9985 120 80.9985ZM45.5587 107.354C27.0959 126.437 20.406 149.775 20.7228 175.791C21.4304 198.895 32.5098 220.078 49.0001 235.998C69.4543 254.079 92.8292 260.163 119.814 259.216C136.987 258.043 154.146 250.322 167 238.998C167.795 238.357 168.591 237.715 169.41 237.053C184.968 224.02 196.129 203.943 198.546 183.789C198.696 182.538 198.846 181.287 199 179.998C197.829 179.988 196.658 179.978 195.452 179.967C184.43 179.87 173.409 179.767 162.387 179.659C156.721 179.604 151.054 179.551 145.388 179.501C139.922 179.454 134.456 179.401 128.99 179.346C126.902 179.325 124.814 179.306 122.726 179.289C119.807 179.265 116.888 179.235 113.97 179.204C113.101 179.198 112.233 179.192 111.339 179.186C107.985 179.145 105.203 179.066 102 177.998C100.673 174.017 100.822 170.182 100.795 166.029C100.785 165.112 100.775 164.194 100.765 163.249C100.733 160.214 100.708 157.179 100.684 154.143C100.663 152.04 100.642 149.937 100.621 147.833C100.566 142.295 100.516 136.756 100.468 131.218C100.418 125.567 100.362 119.917 100.307 114.266C100.199 103.177 100.098 92.0877 100 80.9985C79.6301 80.9985 59.7194 93.9743 45.5587 107.354Z" fill="black"/>
<path d="M291.718 199.366C292.38 199.358 293.042 199.35 293.725 199.342C295.937 199.322 298.147 199.338 300.359 199.354C301.948 199.347 303.537 199.338 305.125 199.327C309.435 199.304 313.745 199.313 318.055 199.329C322.566 199.342 327.078 199.33 331.589 199.322C339.165 199.313 346.741 199.325 354.316 199.349C363.074 199.376 371.831 199.367 380.589 199.34C388.109 199.317 395.629 199.314 403.15 199.327C407.641 199.335 412.131 199.336 416.622 199.319C420.845 199.305 425.067 199.315 429.289 199.344C430.838 199.35 432.387 199.348 433.936 199.337C436.053 199.324 438.166 199.341 440.282 199.366C441.466 199.367 442.649 199.369 443.869 199.371C447.928 200.187 449.428 201.828 452 205.001C452.664 207.501 452.664 207.501 452.625 210.001C452.638 210.826 452.651 211.651 452.664 212.501C451.696 216.143 449.878 217.617 447 220.001C443.869 220.63 443.869 220.63 440.282 220.635C439.62 220.643 438.958 220.651 438.275 220.659C436.063 220.679 433.853 220.663 431.641 220.647C430.052 220.654 428.463 220.663 426.875 220.674C422.565 220.697 418.255 220.688 413.945 220.672C409.434 220.659 404.922 220.671 400.411 220.679C392.835 220.688 385.259 220.676 377.684 220.652C368.926 220.625 360.169 220.634 351.411 220.662C343.891 220.684 336.371 220.687 328.85 220.674C324.359 220.667 319.869 220.665 315.378 220.682C311.155 220.696 306.933 220.686 302.711 220.658C301.162 220.651 299.613 220.653 298.064 220.664C295.947 220.678 293.834 220.66 291.718 220.635C290.534 220.634 289.351 220.632 288.131 220.63C284.072 219.814 282.572 218.173 280 215.001C279.336 212.501 279.336 212.501 279.375 210.001C279.362 209.176 279.349 208.351 279.336 207.501C281.039 201.088 285.598 199.375 291.718 199.366Z" fill="black"/>
<path d="M291.718 159.366C292.38 159.358 293.042 159.35 293.725 159.342C295.937 159.322 298.147 159.338 300.359 159.354C301.948 159.347 303.537 159.338 305.125 159.327C309.435 159.304 313.745 159.313 318.055 159.329C322.566 159.342 327.078 159.33 331.589 159.322C339.165 159.313 346.741 159.325 354.316 159.349C363.074 159.376 371.831 159.367 380.589 159.34C388.109 159.317 395.629 159.314 403.15 159.327C407.641 159.335 412.131 159.336 416.622 159.319C420.845 159.305 425.067 159.315 429.289 159.344C430.838 159.35 432.387 159.348 433.936 159.337C436.053 159.324 438.166 159.341 440.282 159.366C441.466 159.367 442.649 159.369 443.869 159.371C447.928 160.187 449.428 161.828 452 165.001C452.664 167.501 452.664 167.501 452.625 170.001C452.638 170.826 452.651 171.651 452.664 172.501C451.696 176.143 449.878 177.617 447 180.001C443.869 180.63 443.869 180.63 440.282 180.635C439.62 180.643 438.958 180.651 438.275 180.659C436.063 180.679 433.853 180.663 431.641 180.647C430.052 180.654 428.463 180.663 426.875 180.674C422.565 180.697 418.255 180.688 413.945 180.672C409.434 180.659 404.922 180.671 400.411 180.679C392.835 180.688 385.259 180.676 377.684 180.652C368.926 180.625 360.169 180.634 351.411 180.662C343.891 180.684 336.371 180.687 328.85 180.674C324.359 180.667 319.869 180.665 315.378 180.682C311.155 180.696 306.933 180.686 302.711 180.658C301.162 180.651 299.613 180.653 298.064 180.664C295.947 180.678 293.834 180.66 291.718 180.635C290.534 180.634 289.351 180.632 288.131 180.63C284.072 179.814 282.572 178.173 280 175.001C279.336 172.501 279.336 172.501 279.375 170.001C279.362 169.176 279.349 168.351 279.336 167.501C281.039 161.088 285.598 159.375 291.718 159.366Z" fill="black"/>
<path d="M262.137 99.3549C263.261 99.3461 264.385 99.3374 265.543 99.3283C269.258 99.3063 272.972 99.3209 276.688 99.3378C279.269 99.3344 281.851 99.3296 284.432 99.3233C289.843 99.3159 295.253 99.3262 300.663 99.35C306.912 99.3772 313.161 99.3684 319.41 99.3409C325.429 99.3154 331.448 99.3181 337.467 99.3328C340.025 99.3361 342.583 99.332 345.141 99.3204C348.716 99.3077 352.289 99.327 355.863 99.3549C356.922 99.3448 357.981 99.3346 359.072 99.3242C366.24 99.4278 366.24 99.4278 370.155 102.386C372.152 105.218 372.679 106.573 372.625 110.002C372.644 111.239 372.644 111.239 372.664 112.502C371.651 116.314 370.156 117.617 367 120.002C363.293 120.753 359.635 120.685 355.863 120.649C354.739 120.658 353.615 120.666 352.457 120.675C348.742 120.697 345.028 120.683 341.312 120.666C338.731 120.669 336.149 120.674 333.568 120.68C328.157 120.688 322.747 120.678 317.337 120.654C311.088 120.627 304.839 120.635 298.59 120.663C292.571 120.688 286.552 120.686 280.533 120.671C277.975 120.668 275.417 120.672 272.859 120.683C269.284 120.696 265.711 120.677 262.137 120.649C261.078 120.659 260.019 120.669 258.928 120.68C251.76 120.576 251.76 120.576 247.845 117.618C245.848 114.786 245.321 113.43 245.375 110.002C245.362 109.177 245.349 108.352 245.336 107.502C247.63 98.8658 254.725 99.284 262.137 99.3549Z" fill="black"/>
<path d="M262.137 59.3549C263.261 59.3461 264.385 59.3374 265.543 59.3283C269.258 59.3063 272.972 59.3209 276.688 59.3378C279.269 59.3344 281.851 59.3296 284.432 59.3233C289.843 59.3159 295.253 59.3262 300.663 59.35C306.912 59.3772 313.161 59.3684 319.41 59.3409C325.429 59.3154 331.448 59.3181 337.467 59.3328C340.025 59.3361 342.583 59.332 345.141 59.3204C348.716 59.3077 352.289 59.327 355.863 59.3549C356.922 59.3448 357.981 59.3346 359.072 59.3242C366.24 59.4278 366.24 59.4278 370.155 62.386C372.152 65.2178 372.679 66.5734 372.625 70.0019C372.644 71.2394 372.644 71.2394 372.664 72.5019C371.651 76.3144 370.156 77.6168 367 80.0019C363.293 80.7533 359.635 80.6849 355.863 80.6488C354.739 80.6576 353.615 80.6664 352.457 80.6754C348.742 80.6974 345.028 80.6828 341.312 80.6659C338.731 80.6693 336.149 80.6741 333.568 80.6804C328.157 80.6878 322.747 80.6775 317.337 80.6537C311.088 80.6265 304.839 80.6353 298.59 80.6628C292.571 80.6883 286.552 80.6856 280.533 80.6709C277.975 80.6676 275.417 80.6717 272.859 80.6833C269.284 80.696 265.711 80.6767 262.137 80.6488C261.078 80.659 260.019 80.6691 258.928 80.6795C251.76 80.5759 251.76 80.5759 247.845 77.6177C245.848 74.7859 245.321 73.4304 245.375 70.0019C245.362 69.1769 245.349 68.3519 245.336 67.5019C247.63 58.8658 254.725 59.284 262.137 59.3549Z" fill="black"/>
<path d="M49.9998 159.375C50.8248 159.362 51.6498 159.349 52.4998 159.336C56.1865 160.315 57.6807 162.013 59.9998 165C60.7498 168.312 60.7498 168.312 60.9998 172C61.9183 181.768 64.8371 191.206 70.9998 199C71.4909 199.633 71.982 200.266 72.488 200.918C80.9509 211.287 92.7326 217.29 106.015 218.81C107.903 218.991 109.795 219.122 111.687 219.25C115.87 220.197 117.416 221.619 120 225C120.664 227.5 120.664 227.5 120.625 230C120.644 231.237 120.644 231.237 120.664 232.5C119.676 236.22 118.049 237.695 115 240C112.163 240.522 110.069 240.718 107.25 240.625C106.509 240.61 105.768 240.596 105.005 240.58C86.8926 239.799 71.703 231.66 58.9998 219C58.2895 218.313 57.5792 217.626 56.8474 216.918C45.6166 205.299 39.8064 188.922 39.4373 172.938C39.4103 172.223 39.3833 171.508 39.3555 170.772C39.3841 166.944 39.9047 165.126 42.2224 162.043C45.1596 159.882 46.4136 159.319 49.9998 159.375Z" fill="black"/>
<path d="M255 200.001C258.125 201.876 258.125 201.876 260 205.001C260.989 210.027 260.777 213.706 258.125 218.126C253.705 220.778 250.026 220.99 245 220.001C241.875 218.126 241.875 218.126 240 215.001C239.011 209.975 239.223 206.296 241.875 201.876C246.295 199.224 249.974 199.012 255 200.001Z" fill="black"/>
<path d="M255 160.001C258.125 161.876 258.125 161.876 260 165.001C260.989 170.027 260.777 173.706 258.125 178.126C253.705 180.778 250.026 180.99 245 180.001C241.875 178.126 241.875 178.126 240 175.001C239.011 169.975 239.223 166.296 241.875 161.876C246.295 159.224 249.974 159.012 255 160.001Z" fill="black"/>
<mask id="path-9-outside-1_1240_108" maskUnits="userSpaceOnUse" x="203" y="295" width="234" height="180" fill="black">
<rect fill="white" x="203" y="295" width="234" height="180"/>
<path d="M214.835 299.116C215.146 299.114 215.456 299.112 215.776 299.11C216.814 299.105 217.852 299.105 218.89 299.106C219.636 299.103 220.381 299.1 221.127 299.097C223.15 299.089 225.173 299.087 227.196 299.087C228.461 299.086 229.725 299.084 230.99 299.082C235.404 299.074 239.818 299.07 244.232 299.071C248.343 299.071 252.454 299.062 256.565 299.048C260.097 299.037 263.63 299.032 267.162 299.032C269.27 299.033 271.379 299.03 273.487 299.021C275.471 299.012 277.455 299.012 279.439 299.019C280.165 299.02 280.892 299.017 281.618 299.012C288.704 298.964 288.704 298.964 291.429 300.995C292.737 302.862 292.917 304.403 292.921 306.65C292.925 307.083 292.925 307.083 292.929 307.526C292.934 308.473 292.93 309.42 292.926 310.367C292.927 311.029 292.928 311.691 292.93 312.353C292.932 313.738 292.929 315.122 292.923 316.507C292.915 318.279 292.92 320.05 292.927 321.822C292.932 323.188 292.931 324.554 292.927 325.92C292.926 326.573 292.928 327.227 292.931 327.88C292.934 328.793 292.929 329.707 292.921 330.62C292.92 331.139 292.919 331.658 292.918 332.193C292.733 333.721 292.345 334.553 291.429 335.778C290.172 336.406 289.299 336.355 287.905 336.218C286.732 335.503 286.732 335.503 285.703 334.457C285.438 333.176 285.438 333.176 285.453 331.67C285.453 331.106 285.453 330.542 285.453 329.961C285.464 329.348 285.476 328.734 285.488 328.121C285.492 327.492 285.495 326.863 285.497 326.233C285.505 324.58 285.527 322.927 285.551 321.274C285.578 319.289 285.588 317.303 285.601 315.318C285.622 312.305 285.664 309.292 285.703 306.279C277.563 306.279 269.422 306.279 261.035 306.279C261.088 312.99 261.088 312.99 261.155 319.701C261.158 320.544 261.162 321.387 261.165 322.23C261.175 322.884 261.175 322.884 261.185 323.55C261.187 327.515 261.187 327.515 259.714 329.174C258.138 330.39 256.216 330.204 254.308 330.218C253.955 330.222 253.602 330.226 253.238 330.23C252.492 330.236 251.747 330.24 251.001 330.242C249.865 330.247 248.73 330.268 247.594 330.291C246.868 330.295 246.142 330.298 245.415 330.3C245.078 330.309 244.741 330.317 244.393 330.326C242.63 330.311 241.529 330.133 240.125 329.021C238.69 327.516 238.515 326.521 238.521 324.523C238.521 324.112 238.521 323.701 238.521 323.277C238.523 322.847 238.525 322.416 238.528 321.972C238.528 321.576 238.529 321.179 238.529 320.77C238.531 319.288 238.537 317.805 238.543 316.323C238.552 313.008 238.561 309.694 238.571 306.279C230.431 306.279 222.29 306.279 213.903 306.279C213.903 329.962 213.903 353.645 213.903 378.046C237.597 378.046 261.291 378.046 285.703 378.046C285.703 367.585 285.703 357.123 285.703 346.345C287.905 344.584 287.905 344.584 289.254 344.391C290.685 344.604 291.294 344.889 292.31 345.905C292.744 347.206 292.81 348.066 292.82 349.424C292.827 350.104 292.827 350.104 292.833 350.799C292.836 351.296 292.838 351.794 292.841 352.306C292.845 352.83 292.85 353.355 292.854 353.895C292.866 355.332 292.875 356.769 292.884 358.206C292.894 359.708 292.906 361.21 292.918 362.712C292.94 365.556 292.959 368.4 292.978 371.245C293 374.483 293.024 377.72 293.049 380.958C293.099 387.619 293.146 394.28 293.191 400.941C293.473 400.639 293.473 400.639 293.761 400.332C294.625 399.41 295.489 398.489 296.352 397.567C296.649 397.251 296.945 396.935 297.25 396.609C305.124 388.209 312.556 380.791 323.805 377.193C324.095 377.099 324.385 377.006 324.684 376.91C326.514 376.361 327.772 376.285 329.751 376.285C329.751 368.148 329.751 360.012 329.751 351.628C328.734 351.483 327.716 351.338 326.668 351.188C325.436 349.88 325.343 349.188 325.374 347.391C325.787 345.905 325.787 345.905 326.558 345.052C327.549 344.584 327.549 344.584 329.751 344.584C329.751 336.447 329.751 328.311 329.751 319.928C328.879 319.928 328.007 319.928 327.108 319.928C326.035 319.019 326.035 319.019 325.346 317.726C325.315 315.91 325.435 315.018 326.692 313.683C328.345 312.664 329.717 312.639 331.601 312.662C331.963 312.66 332.324 312.657 332.697 312.655C333.909 312.649 335.12 312.655 336.332 312.662C337.201 312.66 338.07 312.658 338.939 312.655C341.299 312.649 343.659 312.654 346.019 312.661C348.487 312.667 350.956 312.664 353.424 312.663C357.57 312.661 361.716 312.667 365.862 312.678C370.656 312.689 375.451 312.69 380.245 312.685C384.855 312.68 389.466 312.683 394.076 312.689C396.039 312.692 398.002 312.692 399.965 312.689C402.276 312.687 404.587 312.692 406.898 312.701C407.746 312.704 408.595 312.704 409.444 312.702C410.601 312.699 411.758 312.705 412.916 312.712C413.421 312.708 413.421 312.708 413.936 312.704C416.09 312.73 417.618 313.093 419.17 314.644C419.428 317.785 419.428 317.785 418.427 319.267C417.408 319.928 417.408 319.928 415.206 319.928C415.206 328.064 415.206 336.201 415.206 344.584C415.932 344.584 416.659 344.584 417.408 344.584C418.532 345.313 419.062 345.859 419.356 347.184C419.421 348.149 419.396 348.927 419.17 349.867C418.179 350.968 418.179 350.968 416.968 351.628C416.386 351.628 415.805 351.628 415.206 351.628C415.217 352.11 415.229 352.592 415.241 353.089C415.281 354.882 415.306 356.674 415.327 358.468C415.338 359.243 415.353 360.018 415.372 360.793C415.399 361.909 415.411 363.024 415.421 364.141C415.432 364.486 415.443 364.83 415.455 365.186C415.456 367.044 415.361 367.72 414.174 369.239C413.003 370.121 413.003 370.121 411.682 370.396C410.36 370.121 410.36 370.121 408.158 367.919C408.158 362.543 408.158 357.167 408.158 351.628C384.609 351.628 361.061 351.628 336.799 351.628C336.799 359.474 336.799 367.32 336.799 375.404C338.107 375.404 339.416 375.404 340.763 375.404C350.646 376.511 359.213 379.842 366.752 386.411C367.03 386.637 367.309 386.862 367.595 387.094C368.931 388.185 370.097 389.322 371.21 390.639C373.053 392.766 375.043 394.73 377.049 396.703C377.76 397.403 378.47 398.103 379.179 398.805C379.489 399.11 379.799 399.415 380.119 399.729C380.848 400.501 380.848 400.501 381.288 401.381C394.589 401.599 394.589 401.599 408.158 401.821C408.071 394.965 408.071 394.965 407.959 388.109C407.953 387.248 407.947 386.387 407.943 385.526C407.931 385.08 407.92 384.635 407.909 384.177C407.907 381.025 407.907 381.025 409.19 379.302C410.36 378.486 410.36 378.486 411.682 378.211C413.533 378.596 414.074 379.168 415.206 380.688C415.51 382.303 415.462 383.887 415.421 385.526C415.418 385.992 415.414 386.457 415.411 386.938C415.399 388.423 415.371 389.907 415.343 391.392C415.332 392.4 415.322 393.408 415.313 394.416C415.289 396.885 415.252 399.353 415.206 401.821C415.696 401.867 416.187 401.912 416.692 401.959C417.483 402.109 417.483 402.109 418.289 402.262C419.408 403.939 419.429 405.139 419.17 407.105C418.674 407.958 418.674 407.958 417.849 408.426C416.97 408.585 416.089 408.733 415.206 408.866C415.068 412.396 414.978 415.923 414.944 419.455C414.927 421.096 414.896 422.734 414.827 424.374C414.325 432.495 414.325 432.495 417.452 439.701C419.156 441.517 421.015 443.068 422.993 444.576C424.306 445.648 425.369 446.851 426.447 448.154C427.807 449.778 429.384 451.198 430.907 452.668C432.772 454.659 433.049 456.171 432.994 458.849C432.712 460.672 431.995 461.362 430.623 462.581C428.457 463.816 426.1 463.579 423.682 463.562C423.205 463.562 422.727 463.562 422.236 463.562C420.66 463.562 419.085 463.555 417.51 463.548C416.417 463.546 415.323 463.545 414.23 463.544C411.355 463.541 408.479 463.532 405.604 463.522C402.669 463.513 399.734 463.509 396.799 463.505C391.041 463.496 385.284 463.481 379.526 463.462C379.533 463.731 379.539 464 379.546 464.277C379.553 464.808 379.553 464.808 379.561 465.35C379.567 465.701 379.573 466.051 379.58 466.413C379.479 468.306 378.712 469.592 377.351 470.864C375.776 471.771 374.327 471.883 372.532 471.885C372.097 471.887 371.662 471.889 371.215 471.89C370.738 471.89 370.262 471.89 369.771 471.889C369.264 471.891 368.757 471.892 368.235 471.893C366.828 471.896 365.421 471.898 364.013 471.898C362.496 471.899 360.978 471.902 359.461 471.905C356.143 471.911 352.824 471.914 349.506 471.916C347.435 471.917 345.363 471.919 343.291 471.921C337.556 471.926 331.821 471.931 326.085 471.932C325.718 471.932 325.351 471.932 324.973 471.932C324.605 471.932 324.237 471.933 323.858 471.933C323.113 471.933 322.367 471.933 321.622 471.933C321.067 471.933 321.067 471.933 320.501 471.934C314.507 471.935 308.513 471.943 302.519 471.953C296.366 471.964 290.213 471.969 284.059 471.97C280.604 471.97 277.149 471.973 273.694 471.981C270.752 471.987 267.811 471.99 264.869 471.986C263.368 471.984 261.867 471.985 260.367 471.991C258.739 471.996 257.113 471.994 255.486 471.989C255.011 471.993 254.537 471.996 254.048 472C251.644 471.984 249.882 471.89 247.821 470.507C245.662 468.174 245.569 466.498 245.618 463.462C245.194 463.466 244.769 463.47 244.332 463.474C240.327 463.51 236.322 463.536 232.316 463.553C230.257 463.562 228.198 463.575 226.139 463.595C224.151 463.614 222.164 463.624 220.176 463.629C219.418 463.632 218.661 463.639 217.903 463.648C216.84 463.661 215.778 463.663 214.715 463.662C214.403 463.668 214.091 463.675 213.77 463.681C211.554 463.663 210.316 463.099 208.618 461.701C207.26 460.248 207.13 459.24 207.127 457.276C207.123 456.726 207.119 456.177 207.115 455.611C207.118 455 207.12 454.389 207.122 453.778C207.12 453.13 207.118 452.482 207.114 451.834C207.107 450.051 207.108 448.268 207.111 446.485C207.112 444.563 207.105 442.641 207.1 440.719C207.091 436.952 207.089 433.186 207.089 429.419C207.09 426.358 207.088 423.298 207.085 420.237C207.084 419.356 207.083 418.475 207.082 417.594C207.082 417.155 207.081 416.717 207.081 416.265C207.073 407.969 207.073 399.673 207.076 391.377C207.078 383.784 207.069 376.191 207.055 368.598C207.04 360.806 207.033 353.013 207.035 345.221C207.036 340.844 207.034 336.468 207.023 332.091C207.014 328.366 207.012 324.64 207.02 320.914C207.024 319.012 207.025 317.111 207.016 315.21C207.008 313.469 207.01 311.729 207.02 309.989C207.021 309.359 207.02 308.729 207.014 308.099C206.967 302.807 206.967 302.807 208.277 301.098C210.463 299.338 212.051 299.124 214.835 299.116ZM245.618 306.279C245.618 311.8 245.618 317.321 245.618 323.01C248.38 323.01 251.142 323.01 253.988 323.01C253.988 317.488 253.988 311.967 253.988 306.279C251.226 306.279 248.464 306.279 245.618 306.279ZM336.799 319.928C336.799 328.064 336.799 336.201 336.799 344.584C360.347 344.584 383.896 344.584 408.158 344.584C408.158 336.447 408.158 328.311 408.158 319.928C384.609 319.928 361.061 319.928 336.799 319.928ZM307.388 396.346C306.762 396.98 306.132 397.611 305.501 398.241C303.731 400.021 301.991 401.802 300.366 403.717C299.405 404.842 298.43 405.78 297.267 406.696C294.13 409.172 294.13 409.172 292.518 412.697C292.467 413.999 292.497 415.267 292.57 416.568C292.583 417.014 292.596 417.46 292.609 417.92C292.643 419.013 292.69 420.103 292.75 421.194C293.216 421.196 293.681 421.197 294.16 421.199C298.542 421.215 302.923 421.241 307.304 421.275C309.557 421.293 311.81 421.307 314.062 421.313C316.236 421.32 318.409 421.335 320.583 421.356C321.412 421.363 322.242 421.366 323.072 421.367C324.233 421.368 325.394 421.38 326.555 421.394C327.07 421.391 327.07 421.391 327.597 421.387C329.143 421.417 330.029 421.513 331.286 422.447C332.199 423.744 332.213 424.485 331.954 426.037C330.945 427.419 330.406 427.764 328.698 428.039C328.117 428.048 327.535 428.057 326.936 428.067C326.368 428.08 325.8 428.094 325.215 428.108C324.495 428.115 323.776 428.122 323.034 428.129C320.744 428.165 318.455 428.201 316.096 428.239C316.096 433.034 316.096 437.828 316.096 442.768C327.725 442.768 339.354 442.768 351.335 442.768C351.335 437.974 351.335 433.179 351.335 428.239C348.66 428.164 348.66 428.164 345.985 428.108C343.242 427.997 343.242 427.997 341.83 426.98C340.967 425.681 340.949 424.924 341.204 423.396C342.124 422.213 342.646 421.695 344.135 421.414C344.788 421.415 344.788 421.415 345.454 421.416C346.173 421.416 346.173 421.416 346.906 421.415C347.654 421.428 347.654 421.428 348.417 421.442C348.912 421.439 349.407 421.436 349.917 421.432C354.622 421.468 354.622 421.468 356.621 422.955C358.226 424.959 358.15 426.866 358.168 429.321C358.176 429.718 358.184 430.116 358.192 430.525C358.216 431.79 358.231 433.055 358.245 434.32C358.26 435.18 358.275 436.04 358.291 436.899C358.328 439.002 358.358 441.105 358.383 443.209C358.876 443.215 359.369 443.221 359.878 443.228C361.715 443.254 363.552 443.288 365.389 443.324C366.183 443.339 366.977 443.351 367.771 443.361C368.914 443.376 370.058 443.399 371.202 443.424C371.554 443.426 371.907 443.429 372.27 443.432C374.396 443.487 375.97 443.713 377.764 444.97C379.086 447.612 379.086 447.612 379.526 456.417C394.208 456.417 408.889 456.417 424.015 456.417C421.997 454.033 421.997 454.033 419.858 451.822C418.816 450.801 417.842 449.753 416.897 448.642C415.108 446.584 413.185 444.679 411.241 442.768C409.066 440.63 406.963 438.475 404.975 436.162C403.541 434.549 401.989 433.052 400.449 431.541C398.349 429.479 396.331 427.394 394.411 425.163C392.973 423.548 391.42 422.048 389.878 420.534C388.061 418.751 386.266 416.975 384.606 415.044C382.869 413.026 380.984 411.172 379.086 409.306C375.312 405.598 375.312 405.598 373.683 403.694C371.624 401.303 369.402 399.072 367.178 396.834C366.675 396.326 366.174 395.816 365.675 395.304C362.598 392.149 359.624 389.455 355.74 387.292C355.381 387.086 355.022 386.88 354.652 386.668C352.388 385.399 350.011 384.619 347.536 383.88C347.07 383.74 347.07 383.74 346.595 383.598C331.635 379.342 317.811 385.788 307.388 396.346ZM213.903 385.09C213.903 408.628 213.903 432.166 213.903 456.417C224.369 456.417 234.835 456.417 245.618 456.417C245.764 453.657 245.909 450.896 246.059 448.052C247.38 444.97 247.38 444.97 248.54 444.131C250.385 443.532 252.014 443.439 253.943 443.424C254.311 443.416 254.679 443.408 255.057 443.4C256.224 443.376 257.391 443.361 258.558 443.346C259.352 443.332 260.147 443.316 260.941 443.301C262.881 443.263 264.821 443.234 266.762 443.209C266.768 442.689 266.775 442.169 266.781 441.634C266.807 439.699 266.841 437.764 266.877 435.829C266.892 434.993 266.904 434.157 266.914 433.321C266.929 432.116 266.952 430.912 266.977 429.708C266.98 429.336 266.983 428.964 266.985 428.582C267.039 426.41 267.229 424.784 268.524 422.955C271.167 421.634 271.167 421.634 285.703 421.194C285.703 409.28 285.703 397.366 285.703 385.09C277.563 385.09 269.422 385.09 261.035 385.09C260.943 391.657 260.943 391.657 260.865 398.223C260.85 399.048 260.836 399.873 260.82 400.698C260.816 401.337 260.816 401.337 260.812 401.989C260.726 405.996 260.726 405.996 259.274 407.545C256.585 408.813 253.674 408.574 250.767 408.565C249.835 408.563 248.903 408.574 247.971 408.585C247.371 408.586 246.771 408.586 246.171 408.586C245.632 408.587 245.093 408.588 244.537 408.59C242.668 408.394 241.542 408.003 239.892 407.105C239.061 405.825 238.896 404.794 238.871 403.285C238.862 402.874 238.853 402.463 238.844 402.039C238.836 401.397 238.836 401.397 238.829 400.741C238.821 400.345 238.813 399.949 238.805 399.54C238.778 398.063 238.757 396.585 238.736 395.107C238.681 391.802 238.627 388.496 238.571 385.09C230.431 385.09 222.29 385.09 213.903 385.09ZM245.618 385.09C245.618 390.612 245.618 396.133 245.618 401.821C248.38 401.821 251.142 401.821 253.988 401.821C253.988 396.3 253.988 390.779 253.988 385.09C251.226 385.09 248.464 385.09 245.618 385.09ZM388.776 408.866C390.484 411.142 391.905 412.98 393.882 414.92C394.105 415.141 394.329 415.362 394.559 415.59C395.263 416.286 395.97 416.979 396.678 417.672C397.61 418.588 398.541 419.505 399.47 420.424C399.694 420.644 399.917 420.864 400.147 421.092C401.608 422.544 402.985 424.038 404.286 425.635C405.472 426.903 406.839 427.99 408.158 429.119C408.158 422.436 408.158 415.752 408.158 408.866C401.762 408.866 395.366 408.866 388.776 408.866ZM273.81 428.239C273.81 433.034 273.81 437.828 273.81 442.768C285.438 442.768 297.067 442.768 309.048 442.768C309.048 437.974 309.048 433.179 309.048 428.239C297.42 428.239 285.791 428.239 273.81 428.239ZM252.666 450.253C252.666 455.048 252.666 459.843 252.666 464.783C264.295 464.783 275.924 464.783 287.905 464.783C287.905 459.988 287.905 455.193 287.905 450.253C276.276 450.253 264.647 450.253 252.666 450.253ZM294.953 450.253C294.953 455.048 294.953 459.843 294.953 464.783C306.582 464.783 318.211 464.783 330.192 464.783C330.192 459.988 330.192 455.193 330.192 450.253C318.563 450.253 306.934 450.253 294.953 450.253ZM337.24 450.253C337.24 455.048 337.24 459.843 337.24 464.783C348.868 464.783 360.497 464.783 372.478 464.783C372.478 459.988 372.478 455.193 372.478 450.253C360.85 450.253 349.221 450.253 337.24 450.253Z"/>
</mask>
<path d="M214.835 299.116C215.146 299.114 215.456 299.112 215.776 299.11C216.814 299.105 217.852 299.105 218.89 299.106C219.636 299.103 220.381 299.1 221.127 299.097C223.15 299.089 225.173 299.087 227.196 299.087C228.461 299.086 229.725 299.084 230.99 299.082C235.404 299.074 239.818 299.07 244.232 299.071C248.343 299.071 252.454 299.062 256.565 299.048C260.097 299.037 263.63 299.032 267.162 299.032C269.27 299.033 271.379 299.03 273.487 299.021C275.471 299.012 277.455 299.012 279.439 299.019C280.165 299.02 280.892 299.017 281.618 299.012C288.704 298.964 288.704 298.964 291.429 300.995C292.737 302.862 292.917 304.403 292.921 306.65C292.925 307.083 292.925 307.083 292.929 307.526C292.934 308.473 292.93 309.42 292.926 310.367C292.927 311.029 292.928 311.691 292.93 312.353C292.932 313.738 292.929 315.122 292.923 316.507C292.915 318.279 292.92 320.05 292.927 321.822C292.932 323.188 292.931 324.554 292.927 325.92C292.926 326.573 292.928 327.227 292.931 327.88C292.934 328.793 292.929 329.707 292.921 330.62C292.92 331.139 292.919 331.658 292.918 332.193C292.733 333.721 292.345 334.553 291.429 335.778C290.172 336.406 289.299 336.355 287.905 336.218C286.732 335.503 286.732 335.503 285.703 334.457C285.438 333.176 285.438 333.176 285.453 331.67C285.453 331.106 285.453 330.542 285.453 329.961C285.464 329.348 285.476 328.734 285.488 328.121C285.492 327.492 285.495 326.863 285.497 326.233C285.505 324.58 285.527 322.927 285.551 321.274C285.578 319.289 285.588 317.303 285.601 315.318C285.622 312.305 285.664 309.292 285.703 306.279C277.563 306.279 269.422 306.279 261.035 306.279C261.088 312.99 261.088 312.99 261.155 319.701C261.158 320.544 261.162 321.387 261.165 322.23C261.175 322.884 261.175 322.884 261.185 323.55C261.187 327.515 261.187 327.515 259.714 329.174C258.138 330.39 256.216 330.204 254.308 330.218C253.955 330.222 253.602 330.226 253.238 330.23C252.492 330.236 251.747 330.24 251.001 330.242C249.865 330.247 248.73 330.268 247.594 330.291C246.868 330.295 246.142 330.298 245.415 330.3C245.078 330.309 244.741 330.317 244.393 330.326C242.63 330.311 241.529 330.133 240.125 329.021C238.69 327.516 238.515 326.521 238.521 324.523C238.521 324.112 238.521 323.701 238.521 323.277C238.523 322.847 238.525 322.416 238.528 321.972C238.528 321.576 238.529 321.179 238.529 320.77C238.531 319.288 238.537 317.805 238.543 316.323C238.552 313.008 238.561 309.694 238.571 306.279C230.431 306.279 222.29 306.279 213.903 306.279C213.903 329.962 213.903 353.645 213.903 378.046C237.597 378.046 261.291 378.046 285.703 378.046C285.703 367.585 285.703 357.123 285.703 346.345C287.905 344.584 287.905 344.584 289.254 344.391C290.685 344.604 291.294 344.889 292.31 345.905C292.744 347.206 292.81 348.066 292.82 349.424C292.827 350.104 292.827 350.104 292.833 350.799C292.836 351.296 292.838 351.794 292.841 352.306C292.845 352.83 292.85 353.355 292.854 353.895C292.866 355.332 292.875 356.769 292.884 358.206C292.894 359.708 292.906 361.21 292.918 362.712C292.94 365.556 292.959 368.4 292.978 371.245C293 374.483 293.024 377.72 293.049 380.958C293.099 387.619 293.146 394.28 293.191 400.941C293.473 400.639 293.473 400.639 293.761 400.332C294.625 399.41 295.489 398.489 296.352 397.567C296.649 397.251 296.945 396.935 297.25 396.609C305.124 388.209 312.556 380.791 323.805 377.193C324.095 377.099 324.385 377.006 324.684 376.91C326.514 376.361 327.772 376.285 329.751 376.285C329.751 368.148 329.751 360.012 329.751 351.628C328.734 351.483 327.716 351.338 326.668 351.188C325.436 349.88 325.343 349.188 325.374 347.391C325.787 345.905 325.787 345.905 326.558 345.052C327.549 344.584 327.549 344.584 329.751 344.584C329.751 336.447 329.751 328.311 329.751 319.928C328.879 319.928 328.007 319.928 327.108 319.928C326.035 319.019 326.035 319.019 325.346 317.726C325.315 315.91 325.435 315.018 326.692 313.683C328.345 312.664 329.717 312.639 331.601 312.662C331.963 312.66 332.324 312.657 332.697 312.655C333.909 312.649 335.12 312.655 336.332 312.662C337.201 312.66 338.07 312.658 338.939 312.655C341.299 312.649 343.659 312.654 346.019 312.661C348.487 312.667 350.956 312.664 353.424 312.663C357.57 312.661 361.716 312.667 365.862 312.678C370.656 312.689 375.451 312.69 380.245 312.685C384.855 312.68 389.466 312.683 394.076 312.689C396.039 312.692 398.002 312.692 399.965 312.689C402.276 312.687 404.587 312.692 406.898 312.701C407.746 312.704 408.595 312.704 409.444 312.702C410.601 312.699 411.758 312.705 412.916 312.712C413.421 312.708 413.421 312.708 413.936 312.704C416.09 312.73 417.618 313.093 419.17 314.644C419.428 317.785 419.428 317.785 418.427 319.267C417.408 319.928 417.408 319.928 415.206 319.928C415.206 328.064 415.206 336.201 415.206 344.584C415.932 344.584 416.659 344.584 417.408 344.584C418.532 345.313 419.062 345.859 419.356 347.184C419.421 348.149 419.396 348.927 419.17 349.867C418.179 350.968 418.179 350.968 416.968 351.628C416.386 351.628 415.805 351.628 415.206 351.628C415.217 352.11 415.229 352.592 415.241 353.089C415.281 354.882 415.306 356.674 415.327 358.468C415.338 359.243 415.353 360.018 415.372 360.793C415.399 361.909 415.411 363.024 415.421 364.141C415.432 364.486 415.443 364.83 415.455 365.186C415.456 367.044 415.361 367.72 414.174 369.239C413.003 370.121 413.003 370.121 411.682 370.396C410.36 370.121 410.36 370.121 408.158 367.919C408.158 362.543 408.158 357.167 408.158 351.628C384.609 351.628 361.061 351.628 336.799 351.628C336.799 359.474 336.799 367.32 336.799 375.404C338.107 375.404 339.416 375.404 340.763 375.404C350.646 376.511 359.213 379.842 366.752 386.411C367.03 386.637 367.309 386.862 367.595 387.094C368.931 388.185 370.097 389.322 371.21 390.639C373.053 392.766 375.043 394.73 377.049 396.703C377.76 397.403 378.47 398.103 379.179 398.805C379.489 399.11 379.799 399.415 380.119 399.729C380.848 400.501 380.848 400.501 381.288 401.381C394.589 401.599 394.589 401.599 408.158 401.821C408.071 394.965 408.071 394.965 407.959 388.109C407.953 387.248 407.947 386.387 407.943 385.526C407.931 385.08 407.92 384.635 407.909 384.177C407.907 381.025 407.907 381.025 409.19 379.302C410.36 378.486 410.36 378.486 411.682 378.211C413.533 378.596 414.074 379.168 415.206 380.688C415.51 382.303 415.462 383.887 415.421 385.526C415.418 385.992 415.414 386.457 415.411 386.938C415.399 388.423 415.371 389.907 415.343 391.392C415.332 392.4 415.322 393.408 415.313 394.416C415.289 396.885 415.252 399.353 415.206 401.821C415.696 401.867 416.187 401.912 416.692 401.959C417.483 402.109 417.483 402.109 418.289 402.262C419.408 403.939 419.429 405.139 419.17 407.105C418.674 407.958 418.674 407.958 417.849 408.426C416.97 408.585 416.089 408.733 415.206 408.866C415.068 412.396 414.978 415.923 414.944 419.455C414.927 421.096 414.896 422.734 414.827 424.374C414.325 432.495 414.325 432.495 417.452 439.701C419.156 441.517 421.015 443.068 422.993 444.576C424.306 445.648 425.369 446.851 426.447 448.154C427.807 449.778 429.384 451.198 430.907 452.668C432.772 454.659 433.049 456.171 432.994 458.849C432.712 460.672 431.995 461.362 430.623 462.581C428.457 463.816 426.1 463.579 423.682 463.562C423.205 463.562 422.727 463.562 422.236 463.562C420.66 463.562 419.085 463.555 417.51 463.548C416.417 463.546 415.323 463.545 414.23 463.544C411.355 463.541 408.479 463.532 405.604 463.522C402.669 463.513 399.734 463.509 396.799 463.505C391.041 463.496 385.284 463.481 379.526 463.462C379.533 463.731 379.539 464 379.546 464.277C379.553 464.808 379.553 464.808 379.561 465.35C379.567 465.701 379.573 466.051 379.58 466.413C379.479 468.306 378.712 469.592 377.351 470.864C375.776 471.771 374.327 471.883 372.532 471.885C372.097 471.887 371.662 471.889 371.215 471.89C370.738 471.89 370.262 471.89 369.771 471.889C369.264 471.891 368.757 471.892 368.235 471.893C366.828 471.896 365.421 471.898 364.013 471.898C362.496 471.899 360.978 471.902 359.461 471.905C356.143 471.911 352.824 471.914 349.506 471.916C347.435 471.917 345.363 471.919 343.291 471.921C337.556 471.926 331.821 471.931 326.085 471.932C325.718 471.932 325.351 471.932 324.973 471.932C324.605 471.932 324.237 471.933 323.858 471.933C323.113 471.933 322.367 471.933 321.622 471.933C321.067 471.933 321.067 471.933 320.501 471.934C314.507 471.935 308.513 471.943 302.519 471.953C296.366 471.964 290.213 471.969 284.059 471.97C280.604 471.97 277.149 471.973 273.694 471.981C270.752 471.987 267.811 471.99 264.869 471.986C263.368 471.984 261.867 471.985 260.367 471.991C258.739 471.996 257.113 471.994 255.486 471.989C255.011 471.993 254.537 471.996 254.048 472C251.644 471.984 249.882 471.89 247.821 470.507C245.662 468.174 245.569 466.498 245.618 463.462C245.194 463.466 244.769 463.47 244.332 463.474C240.327 463.51 236.322 463.536 232.316 463.553C230.257 463.562 228.198 463.575 226.139 463.595C224.151 463.614 222.164 463.624 220.176 463.629C219.418 463.632 218.661 463.639 217.903 463.648C216.84 463.661 215.778 463.663 214.715 463.662C214.403 463.668 214.091 463.675 213.77 463.681C211.554 463.663 210.316 463.099 208.618 461.701C207.26 460.248 207.13 459.24 207.127 457.276C207.123 456.726 207.119 456.177 207.115 455.611C207.118 455 207.12 454.389 207.122 453.778C207.12 453.13 207.118 452.482 207.114 451.834C207.107 450.051 207.108 448.268 207.111 446.485C207.112 444.563 207.105 442.641 207.1 440.719C207.091 436.952 207.089 433.186 207.089 429.419C207.09 426.358 207.088 423.298 207.085 420.237C207.084 419.356 207.083 418.475 207.082 417.594C207.082 417.155 207.081 416.717 207.081 416.265C207.073 407.969 207.073 399.673 207.076 391.377C207.078 383.784 207.069 376.191 207.055 368.598C207.04 360.806 207.033 353.013 207.035 345.221C207.036 340.844 207.034 336.468 207.023 332.091C207.014 328.366 207.012 324.64 207.02 320.914C207.024 319.012 207.025 317.111 207.016 315.21C207.008 313.469 207.01 311.729 207.02 309.989C207.021 309.359 207.02 308.729 207.014 308.099C206.967 302.807 206.967 302.807 208.277 301.098C210.463 299.338 212.051 299.124 214.835 299.116ZM245.618 306.279C245.618 311.8 245.618 317.321 245.618 323.01C248.38 323.01 251.142 323.01 253.988 323.01C253.988 317.488 253.988 311.967 253.988 306.279C251.226 306.279 248.464 306.279 245.618 306.279ZM336.799 319.928C336.799 328.064 336.799 336.201 336.799 344.584C360.347 344.584 383.896 344.584 408.158 344.584C408.158 336.447 408.158 328.311 408.158 319.928C384.609 319.928 361.061 319.928 336.799 319.928ZM307.388 396.346C306.762 396.98 306.132 397.611 305.501 398.241C303.731 400.021 301.991 401.802 300.366 403.717C299.405 404.842 298.43 405.78 297.267 406.696C294.13 409.172 294.13 409.172 292.518 412.697C292.467 413.999 292.497 415.267 292.57 416.568C292.583 417.014 292.596 417.46 292.609 417.92C292.643 419.013 292.69 420.103 292.75 421.194C293.216 421.196 293.681 421.197 294.16 421.199C298.542 421.215 302.923 421.241 307.304 421.275C309.557 421.293 311.81 421.307 314.062 421.313C316.236 421.32 318.409 421.335 320.583 421.356C321.412 421.363 322.242 421.366 323.072 421.367C324.233 421.368 325.394 421.38 326.555 421.394C327.07 421.391 327.07 421.391 327.597 421.387C329.143 421.417 330.029 421.513 331.286 422.447C332.199 423.744 332.213 424.485 331.954 426.037C330.945 427.419 330.406 427.764 328.698 428.039C328.117 428.048 327.535 428.057 326.936 428.067C326.368 428.08 325.8 428.094 325.215 428.108C324.495 428.115 323.776 428.122 323.034 428.129C320.744 428.165 318.455 428.201 316.096 428.239C316.096 433.034 316.096 437.828 316.096 442.768C327.725 442.768 339.354 442.768 351.335 442.768C351.335 437.974 351.335 433.179 351.335 428.239C348.66 428.164 348.66 428.164 345.985 428.108C343.242 427.997 343.242 427.997 341.83 426.98C340.967 425.681 340.949 424.924 341.204 423.396C342.124 422.213 342.646 421.695 344.135 421.414C344.788 421.415 344.788 421.415 345.454 421.416C346.173 421.416 346.173 421.416 346.906 421.415C347.654 421.428 347.654 421.428 348.417 421.442C348.912 421.439 349.407 421.436 349.917 421.432C354.622 421.468 354.622 421.468 356.621 422.955C358.226 424.959 358.15 426.866 358.168 429.321C358.176 429.718 358.184 430.116 358.192 430.525C358.216 431.79 358.231 433.055 358.245 434.32C358.26 435.18 358.275 436.04 358.291 436.899C358.328 439.002 358.358 441.105 358.383 443.209C358.876 443.215 359.369 443.221 359.878 443.228C361.715 443.254 363.552 443.288 365.389 443.324C366.183 443.339 366.977 443.351 367.771 443.361C368.914 443.376 370.058 443.399 371.202 443.424C371.554 443.426 371.907 443.429 372.27 443.432C374.396 443.487 375.97 443.713 377.764 444.97C379.086 447.612 379.086 447.612 379.526 456.417C394.208 456.417 408.889 456.417 424.015 456.417C421.997 454.033 421.997 454.033 419.858 451.822C418.816 450.801 417.842 449.753 416.897 448.642C415.108 446.584 413.185 444.679 411.241 442.768C409.066 440.63 406.963 438.475 404.975 436.162C403.541 434.549 401.989 433.052 400.449 431.541C398.349 429.479 396.331 427.394 394.411 425.163C392.973 423.548 391.42 422.048 389.878 420.534C388.061 418.751 386.266 416.975 384.606 415.044C382.869 413.026 380.984 411.172 379.086 409.306C375.312 405.598 375.312 405.598 373.683 403.694C371.624 401.303 369.402 399.072 367.178 396.834C366.675 396.326 366.174 395.816 365.675 395.304C362.598 392.149 359.624 389.455 355.74 387.292C355.381 387.086 355.022 386.88 354.652 386.668C352.388 385.399 350.011 384.619 347.536 383.88C347.07 383.74 347.07 383.74 346.595 383.598C331.635 379.342 317.811 385.788 307.388 396.346ZM213.903 385.09C213.903 408.628 213.903 432.166 213.903 456.417C224.369 456.417 234.835 456.417 245.618 456.417C245.764 453.657 245.909 450.896 246.059 448.052C247.38 444.97 247.38 444.97 248.54 444.131C250.385 443.532 252.014 443.439 253.943 443.424C254.311 443.416 254.679 443.408 255.057 443.4C256.224 443.376 257.391 443.361 258.558 443.346C259.352 443.332 260.147 443.316 260.941 443.301C262.881 443.263 264.821 443.234 266.762 443.209C266.768 442.689 266.775 442.169 266.781 441.634C266.807 439.699 266.841 437.764 266.877 435.829C266.892 434.993 266.904 434.157 266.914 433.321C266.929 432.116 266.952 430.912 266.977 429.708C266.98 429.336 266.983 428.964 266.985 428.582C267.039 426.41 267.229 424.784 268.524 422.955C271.167 421.634 271.167 421.634 285.703 421.194C285.703 409.28 285.703 397.366 285.703 385.09C277.563 385.09 269.422 385.09 261.035 385.09C260.943 391.657 260.943 391.657 260.865 398.223C260.85 399.048 260.836 399.873 260.82 400.698C260.816 401.337 260.816 401.337 260.812 401.989C260.726 405.996 260.726 405.996 259.274 407.545C256.585 408.813 253.674 408.574 250.767 408.565C249.835 408.563 248.903 408.574 247.971 408.585C247.371 408.586 246.771 408.586 246.171 408.586C245.632 408.587 245.093 408.588 244.537 408.59C242.668 408.394 241.542 408.003 239.892 407.105C239.061 405.825 238.896 404.794 238.871 403.285C238.862 402.874 238.853 402.463 238.844 402.039C238.836 401.397 238.836 401.397 238.829 400.741C238.821 400.345 238.813 399.949 238.805 399.54C238.778 398.063 238.757 396.585 238.736 395.107C238.681 391.802 238.627 388.496 238.571 385.09C230.431 385.09 222.29 385.09 213.903 385.09ZM245.618 385.09C245.618 390.612 245.618 396.133 245.618 401.821C248.38 401.821 251.142 401.821 253.988 401.821C253.988 396.3 253.988 390.779 253.988 385.09C251.226 385.09 248.464 385.09 245.618 385.09ZM388.776 408.866C390.484 411.142 391.905 412.98 393.882 414.92C394.105 415.141 394.329 415.362 394.559 415.59C395.263 416.286 395.97 416.979 396.678 417.672C397.61 418.588 398.541 419.505 399.47 420.424C399.694 420.644 399.917 420.864 400.147 421.092C401.608 422.544 402.985 424.038 404.286 425.635C405.472 426.903 406.839 427.99 408.158 429.119C408.158 422.436 408.158 415.752 408.158 408.866C401.762 408.866 395.366 408.866 388.776 408.866ZM273.81 428.239C273.81 433.034 273.81 437.828 273.81 442.768C285.438 442.768 297.067 442.768 309.048 442.768C309.048 437.974 309.048 433.179 309.048 428.239C297.42 428.239 285.791 428.239 273.81 428.239ZM252.666 450.253C252.666 455.048 252.666 459.843 252.666 464.783C264.295 464.783 275.924 464.783 287.905 464.783C287.905 459.988 287.905 455.193 287.905 450.253C276.276 450.253 264.647 450.253 252.666 450.253ZM294.953 450.253C294.953 455.048 294.953 459.843 294.953 464.783C306.582 464.783 318.211 464.783 330.192 464.783C330.192 459.988 330.192 455.193 330.192 450.253C318.563 450.253 306.934 450.253 294.953 450.253ZM337.24 450.253C337.24 455.048 337.24 459.843 337.24 464.783C348.868 464.783 360.497 464.783 372.478 464.783C372.478 459.988 372.478 455.193 372.478 450.253C360.85 450.253 349.221 450.253 337.24 450.253Z" fill="black"/>
<path d="M214.835 299.116C215.146 299.114 215.456 299.112 215.776 299.11C216.814 299.105 217.852 299.105 218.89 299.106C219.636 299.103 220.381 299.1 221.127 299.097C223.15 299.089 225.173 299.087 227.196 299.087C228.461 299.086 229.725 299.084 230.99 299.082C235.404 299.074 239.818 299.07 244.232 299.071C248.343 299.071 252.454 299.062 256.565 299.048C260.097 299.037 263.63 299.032 267.162 299.032C269.27 299.033 271.379 299.03 273.487 299.021C275.471 299.012 277.455 299.012 279.439 299.019C280.165 299.02 280.892 299.017 281.618 299.012C288.704 298.964 288.704 298.964 291.429 300.995C292.737 302.862 292.917 304.403 292.921 306.65C292.925 307.083 292.925 307.083 292.929 307.526C292.934 308.473 292.93 309.42 292.926 310.367C292.927 311.029 292.928 311.691 292.93 312.353C292.932 313.738 292.929 315.122 292.923 316.507C292.915 318.279 292.92 320.05 292.927 321.822C292.932 323.188 292.931 324.554 292.927 325.92C292.926 326.573 292.928 327.227 292.931 327.88C292.934 328.793 292.929 329.707 292.921 330.62C292.92 331.139 292.919 331.658 292.918 332.193C292.733 333.721 292.345 334.553 291.429 335.778C290.172 336.406 289.299 336.355 287.905 336.218C286.732 335.503 286.732 335.503 285.703 334.457C285.438 333.176 285.438 333.176 285.453 331.67C285.453 331.106 285.453 330.542 285.453 329.961C285.464 329.348 285.476 328.734 285.488 328.121C285.492 327.492 285.495 326.863 285.497 326.233C285.505 324.58 285.527 322.927 285.551 321.274C285.578 319.289 285.588 317.303 285.601 315.318C285.622 312.305 285.664 309.292 285.703 306.279C277.563 306.279 269.422 306.279 261.035 306.279C261.088 312.99 261.088 312.99 261.155 319.701C261.158 320.544 261.162 321.387 261.165 322.23C261.175 322.884 261.175 322.884 261.185 323.55C261.187 327.515 261.187 327.515 259.714 329.174C258.138 330.39 256.216 330.204 254.308 330.218C253.955 330.222 253.602 330.226 253.238 330.23C252.492 330.236 251.747 330.24 251.001 330.242C249.865 330.247 248.73 330.268 247.594 330.291C246.868 330.295 246.142 330.298 245.415 330.3C245.078 330.309 244.741 330.317 244.393 330.326C242.63 330.311 241.529 330.133 240.125 329.021C238.69 327.516 238.515 326.521 238.521 324.523C238.521 324.112 238.521 323.701 238.521 323.277C238.523 322.847 238.525 322.416 238.528 321.972C238.528 321.576 238.529 321.179 238.529 320.77C238.531 319.288 238.537 317.805 238.543 316.323C238.552 313.008 238.561 309.694 238.571 306.279C230.431 306.279 222.29 306.279 213.903 306.279C213.903 329.962 213.903 353.645 213.903 378.046C237.597 378.046 261.291 378.046 285.703 378.046C285.703 367.585 285.703 357.123 285.703 346.345C287.905 344.584 287.905 344.584 289.254 344.391C290.685 344.604 291.294 344.889 292.31 345.905C292.744 347.206 292.81 348.066 292.82 349.424C292.827 350.104 292.827 350.104 292.833 350.799C292.836 351.296 292.838 351.794 292.841 352.306C292.845 352.83 292.85 353.355 292.854 353.895C292.866 355.332 292.875 356.769 292.884 358.206C292.894 359.708 292.906 361.21 292.918 362.712C292.94 365.556 292.959 368.4 292.978 371.245C293 374.483 293.024 377.72 293.049 380.958C293.099 387.619 293.146 394.28 293.191 400.941C293.473 400.639 293.473 400.639 293.761 400.332C294.625 399.41 295.489 398.489 296.352 397.567C296.649 397.251 296.945 396.935 297.25 396.609C305.124 388.209 312.556 380.791 323.805 377.193C324.095 377.099 324.385 377.006 324.684 376.91C326.514 376.361 327.772 376.285 329.751 376.285C329.751 368.148 329.751 360.012 329.751 351.628C328.734 351.483 327.716 351.338 326.668 351.188C325.436 349.88 325.343 349.188 325.374 347.391C325.787 345.905 325.787 345.905 326.558 345.052C327.549 344.584 327.549 344.584 329.751 344.584C329.751 336.447 329.751 328.311 329.751 319.928C328.879 319.928 328.007 319.928 327.108 319.928C326.035 319.019 326.035 319.019 325.346 317.726C325.315 315.91 325.435 315.018 326.692 313.683C328.345 312.664 329.717 312.639 331.601 312.662C331.963 312.66 332.324 312.657 332.697 312.655C333.909 312.649 335.12 312.655 336.332 312.662C337.201 312.66 338.07 312.658 338.939 312.655C341.299 312.649 343.659 312.654 346.019 312.661C348.487 312.667 350.956 312.664 353.424 312.663C357.57 312.661 361.716 312.667 365.862 312.678C370.656 312.689 375.451 312.69 380.245 312.685C384.855 312.68 389.466 312.683 394.076 312.689C396.039 312.692 398.002 312.692 399.965 312.689C402.276 312.687 404.587 312.692 406.898 312.701C407.746 312.704 408.595 312.704 409.444 312.702C410.601 312.699 411.758 312.705 412.916 312.712C413.421 312.708 413.421 312.708 413.936 312.704C416.09 312.73 417.618 313.093 419.17 314.644C419.428 317.785 419.428 317.785 418.427 319.267C417.408 319.928 417.408 319.928 415.206 319.928C415.206 328.064 415.206 336.201 415.206 344.584C415.932 344.584 416.659 344.584 417.408 344.584C418.532 345.313 419.062 345.859 419.356 347.184C419.421 348.149 419.396 348.927 419.17 349.867C418.179 350.968 418.179 350.968 416.968 351.628C416.386 351.628 415.805 351.628 415.206 351.628C415.217 352.11 415.229 352.592 415.241 353.089C415.281 354.882 415.306 356.674 415.327 358.468C415.338 359.243 415.353 360.018 415.372 360.793C415.399 361.909 415.411 363.024 415.421 364.141C415.432 364.486 415.443 364.83 415.455 365.186C415.456 367.044 415.361 367.72 414.174 369.239C413.003 370.121 413.003 370.121 411.682 370.396C410.36 370.121 410.36 370.121 408.158 367.919C408.158 362.543 408.158 357.167 408.158 351.628C384.609 351.628 361.061 351.628 336.799 351.628C336.799 359.474 336.799 367.32 336.799 375.404C338.107 375.404 339.416 375.404 340.763 375.404C350.646 376.511 359.213 379.842 366.752 386.411C367.03 386.637 367.309 386.862 367.595 387.094C368.931 388.185 370.097 389.322 371.21 390.639C373.053 392.766 375.043 394.73 377.049 396.703C377.76 397.403 378.47 398.103 379.179 398.805C379.489 399.11 379.799 399.415 380.119 399.729C380.848 400.501 380.848 400.501 381.288 401.381C394.589 401.599 394.589 401.599 408.158 401.821C408.071 394.965 408.071 394.965 407.959 388.109C407.953 387.248 407.947 386.387 407.943 385.526C407.931 385.08 407.92 384.635 407.909 384.177C407.907 381.025 407.907 381.025 409.19 379.302C410.36 378.486 410.36 378.486 411.682 378.211C413.533 378.596 414.074 379.168 415.206 380.688C415.51 382.303 415.462 383.887 415.421 385.526C415.418 385.992 415.414 386.457 415.411 386.938C415.399 388.423 415.371 389.907 415.343 391.392C415.332 392.4 415.322 393.408 415.313 394.416C415.289 396.885 415.252 399.353 415.206 401.821C415.696 401.867 416.187 401.912 416.692 401.959C417.483 402.109 417.483 402.109 418.289 402.262C419.408 403.939 419.429 405.139 419.17 407.105C418.674 407.958 418.674 407.958 417.849 408.426C416.97 408.585 416.089 408.733 415.206 408.866C415.068 412.396 414.978 415.923 414.944 419.455C414.927 421.096 414.896 422.734 414.827 424.374C414.325 432.495 414.325 432.495 417.452 439.701C419.156 441.517 421.015 443.068 422.993 444.576C424.306 445.648 425.369 446.851 426.447 448.154C427.807 449.778 429.384 451.198 430.907 452.668C432.772 454.659 433.049 456.171 432.994 458.849C432.712 460.672 431.995 461.362 430.623 462.581C428.457 463.816 426.1 463.579 423.682 463.562C423.205 463.562 422.727 463.562 422.236 463.562C420.66 463.562 419.085 463.555 417.51 463.548C416.417 463.546 415.323 463.545 414.23 463.544C411.355 463.541 408.479 463.532 405.604 463.522C402.669 463.513 399.734 463.509 396.799 463.505C391.041 463.496 385.284 463.481 379.526 463.462C379.533 463.731 379.539 464 379.546 464.277C379.553 464.808 379.553 464.808 379.561 465.35C379.567 465.701 379.573 466.051 379.58 466.413C379.479 468.306 378.712 469.592 377.351 470.864C375.776 471.771 374.327 471.883 372.532 471.885C372.097 471.887 371.662 471.889 371.215 471.89C370.738 471.89 370.262 471.89 369.771 471.889C369.264 471.891 368.757 471.892 368.235 471.893C366.828 471.896 365.421 471.898 364.013 471.898C362.496 471.899 360.978 471.902 359.461 471.905C356.143 471.911 352.824 471.914 349.506 471.916C347.435 471.917 345.363 471.919 343.291 471.921C337.556 471.926 331.821 471.931 326.085 471.932C325.718 471.932 325.351 471.932 324.973 471.932C324.605 471.932 324.237 471.933 323.858 471.933C323.113 471.933 322.367 471.933 321.622 471.933C321.067 471.933 321.067 471.933 320.501 471.934C314.507 471.935 308.513 471.943 302.519 471.953C296.366 471.964 290.213 471.969 284.059 471.97C280.604 471.97 277.149 471.973 273.694 471.981C270.752 471.987 267.811 471.99 264.869 471.986C263.368 471.984 261.867 471.985 260.367 471.991C258.739 471.996 257.113 471.994 255.486 471.989C255.011 471.993 254.537 471.996 254.048 472C251.644 471.984 249.882 471.89 247.821 470.507C245.662 468.174 245.569 466.498 245.618 463.462C245.194 463.466 244.769 463.47 244.332 463.474C240.327 463.51 236.322 463.536 232.316 463.553C230.257 463.562 228.198 463.575 226.139 463.595C224.151 463.614 222.164 463.624 220.176 463.629C219.418 463.632 218.661 463.639 217.903 463.648C216.84 463.661 215.778 463.663 214.715 463.662C214.403 463.668 214.091 463.675 213.77 463.681C211.554 463.663 210.316 463.099 208.618 461.701C207.26 460.248 207.13 459.24 207.127 457.276C207.123 456.726 207.119 456.177 207.115 455.611C207.118 455 207.12 454.389 207.122 453.778C207.12 453.13 207.118 452.482 207.114 451.834C207.107 450.051 207.108 448.268 207.111 446.485C207.112 444.563 207.105 442.641 207.1 440.719C207.091 436.952 207.089 433.186 207.089 429.419C207.09 426.358 207.088 423.298 207.085 420.237C207.084 419.356 207.083 418.475 207.082 417.594C207.082 417.155 207.081 416.717 207.081 416.265C207.073 407.969 207.073 399.673 207.076 391.377C207.078 383.784 207.069 376.191 207.055 368.598C207.04 360.806 207.033 353.013 207.035 345.221C207.036 340.844 207.034 336.468 207.023 332.091C207.014 328.366 207.012 324.64 207.02 320.914C207.024 319.012 207.025 317.111 207.016 315.21C207.008 313.469 207.01 311.729 207.02 309.989C207.021 309.359 207.02 308.729 207.014 308.099C206.967 302.807 206.967 302.807 208.277 301.098C210.463 299.338 212.051 299.124 214.835 299.116ZM245.618 306.279C245.618 311.8 245.618 317.321 245.618 323.01C248.38 323.01 251.142 323.01 253.988 323.01C253.988 317.488 253.988 311.967 253.988 306.279C251.226 306.279 248.464 306.279 245.618 306.279ZM336.799 319.928C336.799 328.064 336.799 336.201 336.799 344.584C360.347 344.584 383.896 344.584 408.158 344.584C408.158 336.447 408.158 328.311 408.158 319.928C384.609 319.928 361.061 319.928 336.799 319.928ZM307.388 396.346C306.762 396.98 306.132 397.611 305.501 398.241C303.731 400.021 301.991 401.802 300.366 403.717C299.405 404.842 298.43 405.78 297.267 406.696C294.13 409.172 294.13 409.172 292.518 412.697C292.467 413.999 292.497 415.267 292.57 416.568C292.583 417.014 292.596 417.46 292.609 417.92C292.643 419.013 292.69 420.103 292.75 421.194C293.216 421.196 293.681 421.197 294.16 421.199C298.542 421.215 302.923 421.241 307.304 421.275C309.557 421.293 311.81 421.307 314.062 421.313C316.236 421.32 318.409 421.335 320.583 421.356C321.412 421.363 322.242 421.366 323.072 421.367C324.233 421.368 325.394 421.38 326.555 421.394C327.07 421.391 327.07 421.391 327.597 421.387C329.143 421.417 330.029 421.513 331.286 422.447C332.199 423.744 332.213 424.485 331.954 426.037C330.945 427.419 330.406 427.764 328.698 428.039C328.117 428.048 327.535 428.057 326.936 428.067C326.368 428.08 325.8 428.094 325.215 428.108C324.495 428.115 323.776 428.122 323.034 428.129C320.744 428.165 318.455 428.201 316.096 428.239C316.096 433.034 316.096 437.828 316.096 442.768C327.725 442.768 339.354 442.768 351.335 442.768C351.335 437.974 351.335 433.179 351.335 428.239C348.66 428.164 348.66 428.164 345.985 428.108C343.242 427.997 343.242 427.997 341.83 426.98C340.967 425.681 340.949 424.924 341.204 423.396C342.124 422.213 342.646 421.695 344.135 421.414C344.788 421.415 344.788 421.415 345.454 421.416C346.173 421.416 346.173 421.416 346.906 421.415C347.654 421.428 347.654 421.428 348.417 421.442C348.912 421.439 349.407 421.436 349.917 421.432C354.622 421.468 354.622 421.468 356.621 422.955C358.226 424.959 358.15 426.866 358.168 429.321C358.176 429.718 358.184 430.116 358.192 430.525C358.216 431.79 358.231 433.055 358.245 434.32C358.26 435.18 358.275 436.04 358.291 436.899C358.328 439.002 358.358 441.105 358.383 443.209C358.876 443.215 359.369 443.221 359.878 443.228C361.715 443.254 363.552 443.288 365.389 443.324C366.183 443.339 366.977 443.351 367.771 443.361C368.914 443.376 370.058 443.399 371.202 443.424C371.554 443.426 371.907 443.429 372.27 443.432C374.396 443.487 375.97 443.713 377.764 444.97C379.086 447.612 379.086 447.612 379.526 456.417C394.208 456.417 408.889 456.417 424.015 456.417C421.997 454.033 421.997 454.033 419.858 451.822C418.816 450.801 417.842 449.753 416.897 448.642C415.108 446.584 413.185 444.679 411.241 442.768C409.066 440.63 406.963 438.475 404.975 436.162C403.541 434.549 401.989 433.052 400.449 431.541C398.349 429.479 396.331 427.394 394.411 425.163C392.973 423.548 391.42 422.048 389.878 420.534C388.061 418.751 386.266 416.975 384.606 415.044C382.869 413.026 380.984 411.172 379.086 409.306C375.312 405.598 375.312 405.598 373.683 403.694C371.624 401.303 369.402 399.072 367.178 396.834C366.675 396.326 366.174 395.816 365.675 395.304C362.598 392.149 359.624 389.455 355.74 387.292C355.381 387.086 355.022 386.88 354.652 386.668C352.388 385.399 350.011 384.619 347.536 383.88C347.07 383.74 347.07 383.74 346.595 383.598C331.635 379.342 317.811 385.788 307.388 396.346ZM213.903 385.09C213.903 408.628 213.903 432.166 213.903 456.417C224.369 456.417 234.835 456.417 245.618 456.417C245.764 453.657 245.909 450.896 246.059 448.052C247.38 444.97 247.38 444.97 248.54 444.131C250.385 443.532 252.014 443.439 253.943 443.424C254.311 443.416 254.679 443.408 255.057 443.4C256.224 443.376 257.391 443.361 258.558 443.346C259.352 443.332 260.147 443.316 260.941 443.301C262.881 443.263 264.821 443.234 266.762 443.209C266.768 442.689 266.775 442.169 266.781 441.634C266.807 439.699 266.841 437.764 266.877 435.829C266.892 434.993 266.904 434.157 266.914 433.321C266.929 432.116 266.952 430.912 266.977 429.708C266.98 429.336 266.983 428.964 266.985 428.582C267.039 426.41 267.229 424.784 268.524 422.955C271.167 421.634 271.167 421.634 285.703 421.194C285.703 409.28 285.703 397.366 285.703 385.09C277.563 385.09 269.422 385.09 261.035 385.09C260.943 391.657 260.943 391.657 260.865 398.223C260.85 399.048 260.836 399.873 260.82 400.698C260.816 401.337 260.816 401.337 260.812 401.989C260.726 405.996 260.726 405.996 259.274 407.545C256.585 408.813 253.674 408.574 250.767 408.565C249.835 408.563 248.903 408.574 247.971 408.585C247.371 408.586 246.771 408.586 246.171 408.586C245.632 408.587 245.093 408.588 244.537 408.59C242.668 408.394 241.542 408.003 239.892 407.105C239.061 405.825 238.896 404.794 238.871 403.285C238.862 402.874 238.853 402.463 238.844 402.039C238.836 401.397 238.836 401.397 238.829 400.741C238.821 400.345 238.813 399.949 238.805 399.54C238.778 398.063 238.757 396.585 238.736 395.107C238.681 391.802 238.627 388.496 238.571 385.09C230.431 385.09 222.29 385.09 213.903 385.09ZM245.618 385.09C245.618 390.612 245.618 396.133 245.618 401.821C248.38 401.821 251.142 401.821 253.988 401.821C253.988 396.3 253.988 390.779 253.988 385.09C251.226 385.09 248.464 385.09 245.618 385.09ZM388.776 408.866C390.484 411.142 391.905 412.98 393.882 414.92C394.105 415.141 394.329 415.362 394.559 415.59C395.263 416.286 395.97 416.979 396.678 417.672C397.61 418.588 398.541 419.505 399.47 420.424C399.694 420.644 399.917 420.864 400.147 421.092C401.608 422.544 402.985 424.038 404.286 425.635C405.472 426.903 406.839 427.99 408.158 429.119C408.158 422.436 408.158 415.752 408.158 408.866C401.762 408.866 395.366 408.866 388.776 408.866ZM273.81 428.239C273.81 433.034 273.81 437.828 273.81 442.768C285.438 442.768 297.067 442.768 309.048 442.768C309.048 437.974 309.048 433.179 309.048 428.239C297.42 428.239 285.791 428.239 273.81 428.239ZM252.666 450.253C252.666 455.048 252.666 459.843 252.666 464.783C264.295 464.783 275.924 464.783 287.905 464.783C287.905 459.988 287.905 455.193 287.905 450.253C276.276 450.253 264.647 450.253 252.666 450.253ZM294.953 450.253C294.953 455.048 294.953 459.843 294.953 464.783C306.582 464.783 318.211 464.783 330.192 464.783C330.192 459.988 330.192 455.193 330.192 450.253C318.563 450.253 306.934 450.253 294.953 450.253ZM337.24 450.253C337.24 455.048 337.24 459.843 337.24 464.783C348.868 464.783 360.497 464.783 372.478 464.783C372.478 459.988 372.478 455.193 372.478 450.253C360.85 450.253 349.221 450.253 337.24 450.253Z" stroke="black" stroke-width="6" mask="url(#path-9-outside-1_1240_108)"/>
</g>
<defs>
<clipPath id="clip0_1240_108">
<rect width="512" height="512" fill="white"/>
</clipPath>
</defs>
</svg>
