<svg width="512" height="512" viewBox="0 0 512 512" fill="none" xmlns="http://www.w3.org/2000/svg">
<g clip-path="url(#clip0_1239_90)">
<path d="M146.48 -0.149699C147.864 -0.161011 147.864 -0.161011 149.277 -0.172552C150.8 -0.177391 150.8 -0.177391 152.354 -0.182328C153.97 -0.193135 153.97 -0.193135 155.62 -0.20416C159.249 -0.226973 162.879 -0.242481 166.508 -0.257859C169.103 -0.272304 171.698 -0.287061 174.293 -0.30211C197.99 -0.4344 221.687 -0.498487 245.384 -0.549952C248.555 -0.556961 251.726 -0.564088 254.897 -0.571336C255.686 -0.573131 256.474 -0.574926 257.286 -0.576776C270.047 -0.606827 282.808 -0.671582 295.569 -0.750022C308.675 -0.829914 321.781 -0.875644 334.888 -0.888978C342.245 -0.897378 349.601 -0.921059 356.958 -0.983647C363.881 -1.04252 370.804 -1.05557 377.728 -1.03777C380.266 -1.03865 382.805 -1.05491 385.344 -1.08782C406.926 -1.35302 406.926 -1.35302 412.986 3.96889C414.368 5.60924 415.708 7.28655 417 8.99849C418.552 10.5508 420.126 12.0815 421.72 13.5912C423.363 15.2282 425.003 16.8678 426.641 18.5097C427.546 19.4133 428.451 20.3169 429.384 21.2478C431.834 23.6935 434.281 26.1422 436.728 28.5916C439.3 31.1662 441.874 33.7383 444.448 36.3108C448.76 40.6209 453.07 44.9331 457.379 49.2465C462.357 54.2308 467.34 59.2115 472.324 64.1903C476.617 68.4791 480.909 72.7698 485.199 77.0622C487.755 79.6202 490.312 82.1776 492.871 84.7332C495.715 87.5738 498.555 90.4185 501.395 93.2636C502.241 94.1083 503.088 94.953 503.96 95.8233C504.731 96.5969 505.502 97.3706 506.296 98.1676C506.967 98.839 507.638 99.5104 508.33 100.202C511.863 104.002 512.252 106.283 512.26 111.352C512.264 112.003 512.268 112.653 512.272 113.324C512.282 115.518 512.278 117.713 512.274 119.908C512.279 121.492 512.284 123.075 512.29 124.659C512.304 129.022 512.306 133.386 512.306 137.749C512.307 142.451 512.32 147.152 512.332 151.854C512.355 162.141 512.363 172.429 512.368 182.716C512.371 189.139 512.377 195.561 512.385 201.984C512.404 219.763 512.421 237.541 512.423 255.32C512.424 256.458 512.424 257.597 512.424 258.77C512.424 261.078 512.425 263.386 512.425 265.694C512.425 266.839 512.425 267.985 512.426 269.165C512.426 270.886 512.426 270.886 512.426 272.641C512.43 291.222 512.457 309.803 512.494 328.384C512.532 347.457 512.552 366.529 512.552 385.602C512.552 396.312 512.561 407.022 512.59 417.732C512.614 426.854 512.622 435.976 512.607 445.097C512.599 449.751 512.6 454.404 512.623 459.057C512.644 463.321 512.641 467.583 512.62 471.847C512.617 473.386 512.622 474.925 512.636 476.464C512.714 485.398 511.977 492.352 507 499.999C506.443 500.906 505.886 501.814 505.313 502.749C499.383 508.517 492.492 512.117 484.224 512.135C483.012 512.141 481.8 512.146 480.551 512.151C479.199 512.151 477.847 512.152 476.495 512.152C475.064 512.156 473.633 512.161 472.203 512.166C468.261 512.178 464.319 512.183 460.378 512.188C456.13 512.194 451.882 512.205 447.635 512.216C437.371 512.241 427.107 512.255 416.844 512.268C413.945 512.272 411.046 512.276 408.148 512.28C390.149 512.305 372.15 512.327 354.151 512.34C349.981 512.343 345.811 512.346 341.641 512.349C340.605 512.349 339.569 512.35 338.501 512.351C321.714 512.363 304.928 512.397 288.141 512.438C270.908 512.481 253.675 512.504 236.442 512.51C226.766 512.513 217.09 512.525 207.414 512.558C199.172 512.586 190.931 512.597 182.689 512.586C178.486 512.58 174.282 512.583 170.078 512.608C166.226 512.63 162.374 512.63 158.521 512.611C157.132 512.608 155.742 512.614 154.352 512.629C145.641 512.717 139.407 511.697 132 506.999C131.093 506.442 130.185 505.885 129.25 505.311C122.505 498.379 119.846 491.15 119.88 481.665C119.879 480.805 119.878 479.945 119.877 479.059C119.876 476.166 119.881 473.273 119.887 470.381C119.887 468.311 119.887 466.242 119.886 464.172C119.886 458.545 119.892 452.917 119.899 447.289C119.905 441.412 119.906 435.534 119.907 429.656C119.91 418.521 119.918 407.387 119.928 396.252C119.939 383.578 119.945 370.903 119.95 358.228C119.96 332.152 119.978 306.075 120 279.999C119.315 280.005 118.631 280.011 117.925 280.017C114.785 280.042 111.644 280.058 108.504 280.073C107.427 280.083 106.35 280.093 105.24 280.103C96.756 280.134 89.1995 279.308 81.0001 276.999C79.7974 276.67 78.5947 276.341 77.3556 276.002C62.539 271.519 49.5097 264.361 38.0001 253.998C37.1854 253.337 36.3707 252.676 35.5314 251.995C19.3021 238.462 8.61219 219.13 3.00012 198.998C2.68043 197.912 2.36075 196.825 2.03137 195.706C-2.23348 178.547 -1.9815 157.96 3.00012 140.998C3.32883 139.801 3.65754 138.603 3.99622 137.37C8.46327 122.546 15.6384 109.507 26.0001 97.9985C26.6614 97.1838 27.3227 96.3691 28.004 95.5297C41.5261 79.3135 60.8728 68.5859 81.0001 62.9985C82.1332 62.6788 83.2663 62.3591 84.4337 62.0297C96.1615 59.2056 108.014 59.7081 120 59.9985C119.974 58.8997 119.948 57.801 119.921 56.6689C119.83 52.5503 119.773 48.4318 119.725 44.3125C119.7 42.5376 119.666 40.7628 119.623 38.9882C119.175 20.2453 119.175 20.2453 125 11.9985C125.557 11.091 126.114 10.1835 126.688 9.24849C132.054 4.02722 138.894 -0.106955 146.48 -0.149699ZM143 22.9985C140.021 27.9346 139.584 32.4786 139.707 38.1196C139.711 38.8643 139.716 39.6091 139.72 40.3764C139.737 42.73 139.774 45.0827 139.813 47.436C139.828 49.0421 139.841 50.6482 139.854 52.2543C139.887 56.1694 139.938 60.0838 140 63.9985C141.074 64.3767 142.149 64.7548 143.255 65.1445C157.219 70.0911 169.806 76.1008 181 85.9985C182.356 87.1393 182.356 87.1393 183.738 88.3032C202.771 104.782 216.723 130.695 219 155.998C219.62 170.436 220.11 185.029 216 198.998C215.66 200.219 215.319 201.44 214.969 202.698C206.64 230.076 187.702 253.326 162.5 266.874C161.861 267.218 161.222 267.563 160.564 267.919C156.084 270.214 151.457 271.961 146.713 273.628C146.066 273.857 145.419 274.086 144.752 274.322C143.169 274.883 141.585 275.441 140 275.999C139.93 302.737 139.877 329.475 139.845 356.213C139.829 368.628 139.808 381.043 139.774 393.458C139.744 404.278 139.725 415.099 139.718 425.919C139.714 431.649 139.705 437.378 139.683 443.108C139.663 448.501 139.656 453.895 139.661 459.288C139.66 461.267 139.654 463.246 139.643 465.225C139.628 467.929 139.631 470.632 139.639 473.336C139.631 474.117 139.622 474.898 139.613 475.703C139.655 480.848 140.296 484.556 143 488.999C149.17 493.142 156.194 492.418 163.399 492.379C164.769 492.383 166.14 492.388 167.51 492.394C171.266 492.406 175.022 492.4 178.778 492.391C182.833 492.384 186.887 492.394 190.942 492.403C198.881 492.416 206.82 492.413 214.759 492.404C221.211 492.398 227.664 492.397 234.116 492.4C235.035 492.4 235.953 492.401 236.899 492.401C238.765 492.402 240.631 492.403 242.497 492.404C259.991 492.413 277.486 492.403 294.981 492.387C309.991 492.373 325.001 492.376 340.011 492.39C357.443 492.406 374.875 492.412 392.307 492.403C394.166 492.402 396.025 492.401 397.884 492.4C399.256 492.399 399.256 492.399 400.656 492.399C407.1 492.396 413.544 492.4 419.989 492.407C427.843 492.416 435.697 492.414 443.551 492.398C447.558 492.39 451.564 492.387 455.571 492.396C459.24 492.405 462.909 492.4 466.578 492.385C468.532 492.38 470.486 492.389 472.44 492.4C481.193 492.429 481.193 492.429 489 488.999C493.392 482.632 492.409 474.869 492.361 467.414C492.362 465.915 492.365 464.415 492.369 462.916C492.375 458.804 492.363 454.693 492.348 450.581C492.335 446.145 492.34 441.708 492.342 437.271C492.344 429.586 492.334 421.902 492.317 414.217C492.293 403.107 492.285 391.997 492.281 380.886C492.275 362.86 492.255 344.834 492.226 326.807C492.199 309.297 492.178 291.787 492.165 274.277C492.164 273.198 492.163 272.118 492.163 271.006C492.159 265.591 492.155 260.175 492.151 254.76C492.12 209.839 492.067 164.919 492 119.998C490.817 119.988 489.633 119.978 488.414 119.967C477.274 119.87 466.135 119.767 454.996 119.659C449.269 119.604 443.542 119.551 437.815 119.501C432.29 119.454 426.766 119.401 421.242 119.346C419.132 119.325 417.021 119.306 414.911 119.289C411.961 119.265 409.011 119.235 406.061 119.204C405.184 119.198 404.306 119.192 403.402 119.186C400.029 119.145 397.222 119.072 394 117.998C392.664 113.991 392.822 110.118 392.795 105.937C392.785 105.01 392.775 104.083 392.765 103.128C392.733 100.06 392.708 96.9922 392.684 93.9243C392.663 91.7986 392.642 89.673 392.621 87.5474C392.566 81.9496 392.516 76.3519 392.468 70.7541C392.418 65.0432 392.362 59.3324 392.307 53.6215C392.199 42.4139 392.098 31.2062 392 19.9985C361.29 19.93 330.58 19.877 299.869 19.8453C296.243 19.8415 292.617 19.8377 288.991 19.8337C288.269 19.8329 287.547 19.8321 286.804 19.8313C275.117 19.8183 263.43 19.7946 251.743 19.767C239.75 19.739 227.758 19.7223 215.765 19.7162C209.029 19.7125 202.293 19.7035 195.558 19.6813C189.219 19.6609 182.88 19.6547 176.541 19.6592C174.214 19.6583 171.887 19.6524 169.559 19.6409C166.382 19.626 163.206 19.6295 160.029 19.6377C158.647 19.6246 158.647 19.6246 157.238 19.6112C151.745 19.6495 147.828 20.2951 143 22.9985ZM412 35.9985C412 57.1185 412 78.2385 412 99.9985C433.12 99.9985 454.24 99.9985 476 99.9985C472.125 95.4771 468.303 91.155 464.102 86.9714C463.547 86.4144 462.992 85.8574 462.42 85.2836C460.609 83.4686 458.795 81.6572 456.981 79.8461C455.713 78.5783 454.446 77.3104 453.18 76.0423C450.538 73.399 447.894 70.7576 445.249 68.1174C441.852 64.7255 438.459 61.3291 435.067 57.9314C432.458 55.3192 429.847 52.7094 427.236 50.1003C425.983 48.8478 424.73 47.5946 423.479 46.3407C421.738 44.598 419.995 42.8585 418.251 41.1198C417.471 40.3368 417.471 40.3368 416.675 39.538C414.679 37.0817 414.679 37.0817 412 35.9985ZM120 80.9985C120 107.068 120 133.138 120 159.998C146.07 159.998 172.14 159.998 199 159.998C193.948 133.052 182.776 111.054 159.871 95.2255C148.578 87.8196 133.723 80.9985 120 80.9985ZM45.5587 107.354C27.0959 126.437 20.406 149.775 20.7228 175.791C21.4304 198.895 32.5098 220.078 49.0001 235.998C69.4543 254.079 92.8292 260.163 119.814 259.216C136.987 258.043 154.146 250.322 167 238.998C167.795 238.357 168.591 237.715 169.41 237.053C184.968 224.02 196.129 203.943 198.546 183.789C198.696 182.538 198.846 181.287 199 179.998C197.829 179.988 196.658 179.978 195.452 179.967C184.43 179.87 173.409 179.767 162.387 179.659C156.721 179.604 151.054 179.551 145.388 179.501C139.922 179.454 134.456 179.401 128.99 179.346C126.902 179.325 124.814 179.306 122.726 179.289C119.807 179.265 116.888 179.235 113.97 179.204C113.101 179.198 112.233 179.192 111.339 179.186C107.985 179.145 105.203 179.066 102 177.998C100.673 174.017 100.822 170.182 100.795 166.029C100.785 165.112 100.775 164.194 100.765 163.249C100.733 160.214 100.708 157.179 100.684 154.143C100.663 152.04 100.642 149.937 100.621 147.833C100.566 142.295 100.516 136.756 100.468 131.218C100.418 125.567 100.362 119.917 100.307 114.266C100.199 103.177 100.098 92.0877 100 80.9985C79.6301 80.9985 59.7194 93.9743 45.5587 107.354Z" fill="black"/>
<path d="M291.718 199.366C292.38 199.358 293.042 199.35 293.725 199.342C295.937 199.322 298.147 199.338 300.359 199.354C301.948 199.347 303.537 199.338 305.125 199.327C309.435 199.304 313.745 199.313 318.055 199.329C322.566 199.342 327.078 199.33 331.589 199.322C339.165 199.313 346.741 199.325 354.316 199.349C363.074 199.376 371.831 199.367 380.589 199.34C388.109 199.317 395.629 199.314 403.15 199.327C407.641 199.335 412.131 199.336 416.622 199.319C420.845 199.305 425.067 199.315 429.289 199.344C430.838 199.35 432.387 199.348 433.936 199.337C436.053 199.324 438.166 199.341 440.282 199.366C441.466 199.367 442.649 199.369 443.869 199.371C447.928 200.187 449.428 201.828 452 205.001C452.664 207.501 452.664 207.501 452.625 210.001C452.638 210.826 452.651 211.651 452.664 212.501C451.696 216.143 449.878 217.617 447 220.001C443.869 220.63 443.869 220.63 440.282 220.635C439.62 220.643 438.958 220.651 438.275 220.659C436.063 220.679 433.853 220.663 431.641 220.647C430.052 220.654 428.463 220.663 426.875 220.674C422.565 220.697 418.255 220.688 413.945 220.672C409.434 220.659 404.922 220.671 400.411 220.679C392.835 220.688 385.259 220.676 377.684 220.652C368.926 220.625 360.169 220.634 351.411 220.662C343.891 220.684 336.371 220.687 328.85 220.674C324.359 220.667 319.869 220.665 315.378 220.682C311.155 220.696 306.933 220.686 302.711 220.658C301.162 220.651 299.613 220.653 298.064 220.664C295.947 220.678 293.834 220.66 291.718 220.635C290.534 220.634 289.351 220.632 288.131 220.63C284.072 219.814 282.572 218.173 280 215.001C279.336 212.501 279.336 212.501 279.375 210.001C279.362 209.176 279.349 208.351 279.336 207.501C281.039 201.088 285.598 199.375 291.718 199.366Z" fill="black"/>
<path d="M291.718 159.366C292.38 159.358 293.042 159.35 293.725 159.342C295.937 159.322 298.147 159.338 300.359 159.354C301.948 159.347 303.537 159.338 305.125 159.327C309.435 159.304 313.745 159.313 318.055 159.329C322.566 159.342 327.078 159.33 331.589 159.322C339.165 159.313 346.741 159.325 354.316 159.349C363.074 159.376 371.831 159.367 380.589 159.34C388.109 159.317 395.629 159.314 403.15 159.327C407.641 159.335 412.131 159.336 416.622 159.319C420.845 159.305 425.067 159.315 429.289 159.344C430.838 159.35 432.387 159.348 433.936 159.337C436.053 159.324 438.166 159.341 440.282 159.366C441.466 159.367 442.649 159.369 443.869 159.371C447.928 160.187 449.428 161.828 452 165.001C452.664 167.501 452.664 167.501 452.625 170.001C452.638 170.826 452.651 171.651 452.664 172.501C451.696 176.143 449.878 177.617 447 180.001C443.869 180.63 443.869 180.63 440.282 180.635C439.62 180.643 438.958 180.651 438.275 180.659C436.063 180.679 433.853 180.663 431.641 180.647C430.052 180.654 428.463 180.663 426.875 180.674C422.565 180.697 418.255 180.688 413.945 180.672C409.434 180.659 404.922 180.671 400.411 180.679C392.835 180.688 385.259 180.676 377.684 180.652C368.926 180.625 360.169 180.634 351.411 180.662C343.891 180.684 336.371 180.687 328.85 180.674C324.359 180.667 319.869 180.665 315.378 180.682C311.155 180.696 306.933 180.686 302.711 180.658C301.162 180.651 299.613 180.653 298.064 180.664C295.947 180.678 293.834 180.66 291.718 180.635C290.534 180.634 289.351 180.632 288.131 180.63C284.072 179.814 282.572 178.173 280 175.001C279.336 172.501 279.336 172.501 279.375 170.001C279.362 169.176 279.349 168.351 279.336 167.501C281.039 161.088 285.598 159.375 291.718 159.366Z" fill="black"/>
<path d="M262.137 99.3549C263.261 99.3461 264.385 99.3374 265.543 99.3283C269.258 99.3063 272.972 99.3209 276.688 99.3378C279.269 99.3344 281.851 99.3296 284.432 99.3233C289.843 99.3159 295.253 99.3262 300.663 99.35C306.912 99.3772 313.161 99.3684 319.41 99.3409C325.429 99.3154 331.448 99.3181 337.467 99.3328C340.025 99.3361 342.583 99.332 345.141 99.3204C348.716 99.3077 352.289 99.327 355.863 99.3549C356.922 99.3448 357.981 99.3346 359.072 99.3242C366.24 99.4278 366.24 99.4278 370.155 102.386C372.152 105.218 372.679 106.573 372.625 110.002C372.644 111.239 372.644 111.239 372.664 112.502C371.651 116.314 370.156 117.617 367 120.002C363.293 120.753 359.635 120.685 355.863 120.649C354.739 120.658 353.615 120.666 352.457 120.675C348.742 120.697 345.028 120.683 341.312 120.666C338.731 120.669 336.149 120.674 333.568 120.68C328.157 120.688 322.747 120.678 317.337 120.654C311.088 120.627 304.839 120.635 298.59 120.663C292.571 120.688 286.552 120.686 280.533 120.671C277.975 120.668 275.417 120.672 272.859 120.683C269.284 120.696 265.711 120.677 262.137 120.649C261.078 120.659 260.019 120.669 258.928 120.68C251.76 120.576 251.76 120.576 247.845 117.618C245.848 114.786 245.321 113.43 245.375 110.002C245.362 109.177 245.349 108.352 245.336 107.502C247.63 98.8658 254.725 99.284 262.137 99.3549Z" fill="black"/>
<path d="M262.137 59.3549C263.261 59.3461 264.385 59.3374 265.543 59.3283C269.258 59.3063 272.972 59.3209 276.688 59.3378C279.269 59.3344 281.851 59.3296 284.432 59.3233C289.843 59.3159 295.253 59.3262 300.663 59.35C306.912 59.3772 313.161 59.3684 319.41 59.3409C325.429 59.3154 331.448 59.3181 337.467 59.3328C340.025 59.3361 342.583 59.332 345.141 59.3204C348.716 59.3077 352.289 59.327 355.863 59.3549C356.922 59.3448 357.981 59.3346 359.072 59.3242C366.24 59.4278 366.24 59.4278 370.155 62.386C372.152 65.2178 372.679 66.5734 372.625 70.0019C372.644 71.2394 372.644 71.2394 372.664 72.5019C371.651 76.3144 370.156 77.6168 367 80.0019C363.293 80.7533 359.635 80.6849 355.863 80.6488C354.739 80.6576 353.615 80.6664 352.457 80.6754C348.742 80.6974 345.028 80.6828 341.312 80.6659C338.731 80.6693 336.149 80.6741 333.568 80.6804C328.157 80.6878 322.747 80.6775 317.337 80.6537C311.088 80.6265 304.839 80.6353 298.59 80.6628C292.571 80.6883 286.552 80.6856 280.533 80.6709C277.975 80.6676 275.417 80.6717 272.859 80.6833C269.284 80.696 265.711 80.6767 262.137 80.6488C261.078 80.659 260.019 80.6691 258.928 80.6795C251.76 80.5759 251.76 80.5759 247.845 77.6177C245.848 74.7859 245.321 73.4304 245.375 70.0019C245.362 69.1769 245.349 68.3519 245.336 67.5019C247.63 58.8658 254.725 59.284 262.137 59.3549Z" fill="black"/>
<path d="M49.9998 159.375C50.8248 159.362 51.6498 159.349 52.4998 159.336C56.1865 160.315 57.6807 162.013 59.9998 165C60.7498 168.312 60.7498 168.312 60.9998 172C61.9183 181.768 64.8371 191.206 70.9998 199C71.4909 199.633 71.982 200.266 72.488 200.918C80.9509 211.287 92.7326 217.29 106.015 218.81C107.903 218.991 109.795 219.122 111.687 219.25C115.87 220.197 117.416 221.619 120 225C120.664 227.5 120.664 227.5 120.625 230C120.644 231.237 120.644 231.237 120.664 232.5C119.676 236.22 118.049 237.695 115 240C112.163 240.522 110.069 240.718 107.25 240.625C106.509 240.61 105.768 240.596 105.005 240.58C86.8926 239.799 71.703 231.66 58.9998 219C58.2895 218.313 57.5792 217.626 56.8474 216.918C45.6166 205.299 39.8064 188.922 39.4373 172.938C39.4103 172.223 39.3833 171.508 39.3555 170.772C39.3841 166.944 39.9047 165.126 42.2224 162.043C45.1596 159.882 46.4136 159.319 49.9998 159.375Z" fill="black"/>
<path d="M255 200.001C258.125 201.876 258.125 201.876 260 205.001C260.989 210.027 260.777 213.706 258.125 218.126C253.705 220.778 250.026 220.99 245 220.001C241.875 218.126 241.875 218.126 240 215.001C239.011 209.975 239.223 206.296 241.875 201.876C246.295 199.224 249.974 199.012 255 200.001Z" fill="black"/>
<path d="M255 160.001C258.125 161.876 258.125 161.876 260 165.001C260.989 170.027 260.777 173.706 258.125 178.126C253.705 180.778 250.026 180.99 245 180.001C241.875 178.126 241.875 178.126 240 175.001C239.011 169.975 239.223 166.296 241.875 161.876C246.295 159.224 249.974 159.012 255 160.001Z" fill="black"/>
<mask id="path-9-outside-1_1239_90" maskUnits="userSpaceOnUse" x="220" y="253" width="201" height="226" fill="black">
<rect fill="white" x="220" y="253" width="201" height="226"/>
<path d="M323.285 256.09C325.735 257.106 325.735 257.106 328.176 258.545C329.095 259.077 330.013 259.609 330.96 260.158C331.946 260.746 332.931 261.334 333.917 261.922C334.952 262.527 335.987 263.13 337.024 263.733C339.155 264.974 341.282 266.221 343.406 267.473C348.05 270.207 352.733 272.873 357.412 275.547C359.193 276.57 360.973 277.594 362.754 278.618C366.348 280.685 369.944 282.75 373.542 284.812C378.921 287.895 384.297 290.984 389.672 294.076C391.038 294.861 391.038 294.861 392.433 295.663C395.127 297.213 397.82 298.766 400.511 300.321C401.315 300.783 402.119 301.245 402.948 301.721C403.711 302.163 404.474 302.604 405.26 303.059C405.918 303.439 406.576 303.818 407.254 304.209C408.024 304.68 408.794 305.151 409.588 305.637C410.191 305.918 410.795 306.199 411.417 306.488C414.517 308.127 416.665 309.35 417.748 312.786C418.007 315.604 418.027 318.34 417.97 321.17C417.978 322.236 417.985 323.301 417.993 324.398C418.013 327.312 417.986 330.223 417.95 333.135C417.919 336.187 417.926 339.239 417.929 342.291C417.927 347.415 417.897 352.538 417.847 357.662C417.791 363.582 417.775 369.501 417.782 375.421C417.788 381.123 417.77 386.823 417.741 392.524C417.728 394.948 417.723 397.372 417.723 399.795C417.722 403.18 417.686 406.563 417.646 409.948C417.649 410.952 417.652 411.957 417.655 412.992C417.534 419.785 417.534 419.785 415.073 423.055C412.97 424.505 410.914 425.86 408.664 427.075C407.434 427.748 407.434 427.748 406.18 428.434C405.302 428.906 404.424 429.378 403.519 429.865C401.634 430.897 399.75 431.93 397.866 432.965C396.911 433.489 395.956 434.013 394.971 434.552C390.731 436.903 386.543 439.339 382.359 441.787C375.143 446 367.897 450.157 360.627 454.277C351.451 459.48 342.315 464.747 333.201 470.057C332.133 470.673 332.133 470.673 331.043 471.301C329.834 472.01 328.637 472.739 327.459 473.497C323.938 475.717 321.607 476.439 317.476 475.747C314.333 474.32 311.438 472.548 308.503 470.741C306.716 469.672 304.927 468.603 303.139 467.535C302.218 466.98 301.297 466.425 300.348 465.853C295.893 463.19 291.384 460.619 286.876 458.045C285.065 457.006 283.254 455.968 281.443 454.929C279.624 453.886 277.804 452.843 275.984 451.8C265.184 445.61 254.388 439.414 243.621 433.168C242.425 432.475 242.425 432.475 241.205 431.768C238.965 430.467 236.728 429.161 234.493 427.852C233.716 427.399 232.939 426.945 232.139 426.478C231.393 426.039 230.646 425.599 229.877 425.146C229.208 424.753 228.54 424.36 227.851 423.956C226.194 422.897 226.194 422.897 224.535 421.246C224.319 419.324 224.319 419.324 224.307 416.869C224.299 415.94 224.291 415.012 224.282 414.055C224.282 413.031 224.281 412.008 224.28 410.953C224.274 409.879 224.267 408.805 224.259 407.698C224.241 404.746 224.234 401.795 224.23 398.843C224.227 396.999 224.222 395.156 224.216 393.313C224.195 386.884 224.184 380.455 224.182 374.026C224.179 368.03 224.154 362.035 224.119 356.039C224.09 350.894 224.077 345.75 224.077 340.605C224.076 337.531 224.069 334.457 224.045 331.383C224.02 327.954 224.027 324.527 224.037 321.098C224.025 320.078 224.013 319.057 224 318.006C224.06 311.129 224.06 311.129 226.497 308.371C227.58 307.835 227.58 307.835 228.684 307.288C229.439 306.825 230.194 306.361 230.972 305.884C232.209 305.19 232.209 305.19 233.472 304.482C234.87 303.693 234.87 303.693 236.297 302.888C236.789 302.613 237.28 302.338 237.787 302.054C240.413 300.584 243.033 299.101 245.653 297.621C246.45 297.171 246.45 297.171 247.264 296.712C252.193 293.929 257.091 291.094 261.981 288.244C268.815 284.265 275.66 280.308 282.519 276.373C283.402 275.867 284.285 275.36 285.194 274.838C289.446 272.4 293.7 269.963 297.953 267.527C299.952 266.382 301.95 265.237 303.948 264.091C305.363 263.28 306.778 262.471 308.193 261.661C309.048 261.171 309.902 260.681 310.782 260.177C311.536 259.745 312.289 259.314 313.066 258.869C316.97 256.577 318.632 255.699 323.285 256.09ZM316.011 270.167C315.409 270.524 314.806 270.882 314.186 271.251C313.247 271.819 313.247 271.819 312.29 272.399C311.058 273.135 309.826 273.87 308.594 274.605C307.999 274.963 307.404 275.32 306.79 275.688C304.287 277.175 301.756 278.608 299.22 280.037C301.524 282.506 303.733 284.175 306.701 285.786C307.524 286.237 308.346 286.688 309.193 287.153C310.521 287.872 310.521 287.872 311.875 288.605C313.767 289.644 315.659 290.685 317.551 291.727C318.032 291.992 318.513 292.257 319.009 292.53C323.744 295.141 328.42 297.85 333.087 300.579C343.222 306.495 353.397 312.347 363.645 318.068C365.636 319.214 367.561 320.384 369.488 321.626C374.386 324.975 374.386 324.975 379.989 326.276C381.722 325.636 382.963 324.863 384.433 323.752C384.942 323.427 385.451 323.102 385.975 322.767C387.009 322.1 388.029 321.412 389.035 320.704C391.24 319.157 393.548 317.78 395.843 316.372C397.109 315.551 398.372 314.727 399.63 313.894C397.198 312.005 394.7 310.426 392.025 308.901C390.748 308.171 390.748 308.171 389.445 307.425C388.527 306.903 387.609 306.381 386.663 305.843C385.695 305.29 384.727 304.737 383.759 304.183C381.748 303.034 379.737 301.886 377.726 300.738C373.127 298.114 368.537 295.475 363.947 292.837C362.164 291.813 360.381 290.79 358.598 289.766C357.71 289.256 356.822 288.746 355.907 288.221C353.544 286.865 351.18 285.508 348.816 284.152C347.364 283.319 345.911 282.485 344.459 281.652C342.65 280.614 340.841 279.577 339.032 278.539C338.202 278.063 337.372 277.586 336.517 277.096C335.709 276.634 334.902 276.172 334.07 275.696C332.316 274.681 330.57 273.651 328.83 272.612C327.94 272.082 327.049 271.552 326.131 271.005C325.326 270.521 324.522 270.037 323.693 269.538C320.504 267.901 318.92 268.419 316.011 270.167ZM282.104 289.947C281.272 290.407 280.44 290.867 279.582 291.34C278.943 291.698 278.303 292.056 277.644 292.424C280.472 294.774 283.316 296.703 286.523 298.505C287.446 299.026 288.37 299.548 289.322 300.085C289.81 300.359 290.298 300.632 290.801 300.914C292.885 302.082 294.965 303.257 297.045 304.432C298.121 305.04 299.197 305.647 300.274 306.254C305.505 309.204 310.715 312.19 315.92 315.185C316.793 315.686 317.666 316.188 318.566 316.705C322.699 319.079 326.83 321.456 330.96 323.835C332.421 324.676 333.881 325.517 335.341 326.357C337.163 327.405 338.984 328.454 340.804 329.504C342.456 330.454 344.111 331.398 345.77 332.334C347.418 333.277 349.05 334.25 350.666 335.247C351.461 335.721 352.256 336.195 353.075 336.684C353.777 337.117 354.479 337.551 355.202 337.997C357.379 338.922 357.379 338.922 359.802 337.804C361.897 336.577 363.753 335.274 365.606 333.713C364.564 330.6 363.701 330.404 360.858 328.871C360.027 328.417 359.196 327.964 358.341 327.496C357.435 327.01 356.53 326.524 355.597 326.023C353.683 324.977 351.771 323.93 349.859 322.881C349.37 322.614 348.882 322.347 348.378 322.072C343.58 319.443 338.848 316.707 334.125 313.946C326.182 309.311 318.215 304.719 310.233 300.151C306.176 297.826 302.125 295.493 298.101 293.111C297.441 292.721 296.781 292.33 296.101 291.928C294.897 291.214 293.695 290.496 292.495 289.775C287.811 286.994 286.807 287.335 282.104 289.947ZM256.344 304.659C254.887 305.475 253.425 306.283 251.963 307.09C251.042 307.603 250.122 308.117 249.174 308.646C248.328 309.118 247.483 309.589 246.611 310.075C244.761 311.224 243.399 312.281 241.961 313.894C247.218 317.502 252.614 320.72 258.195 323.804C264.939 327.563 271.648 331.374 278.318 335.262C286.352 339.942 294.406 344.585 302.474 349.207C303.312 349.688 304.151 350.169 305.016 350.664C305.837 351.129 306.659 351.593 307.506 352.072C309.249 353.089 310.965 354.153 312.658 355.251C317.461 358.539 317.461 358.539 323.013 358.903C323.856 358.374 324.698 357.845 325.567 357.3C326.267 356.885 326.267 356.885 326.981 356.462C327.991 355.855 328.989 355.228 329.975 354.583C331.717 353.444 333.49 352.364 335.272 351.287C338.498 349.326 341.685 347.314 344.861 345.274C342.118 342.997 339.392 341.121 336.264 339.41C335.414 338.941 334.564 338.473 333.689 337.991C332.789 337.499 331.888 337.007 330.961 336.5C324.925 333.171 318.897 329.84 312.964 326.333C304.352 321.248 295.671 316.284 286.991 311.318C284.353 309.806 281.718 308.288 279.083 306.769C277.497 305.858 275.911 304.947 274.325 304.037C273.591 303.612 272.858 303.188 272.102 302.75C271.432 302.367 270.762 301.983 270.072 301.588C269.488 301.252 268.904 300.916 268.302 300.569C264.264 298.578 259.836 302.702 256.344 304.659ZM235.323 323.804C235.031 335.518 234.813 347.232 234.678 358.949C234.613 364.391 234.525 369.83 234.383 375.27C234.248 380.523 234.174 385.773 234.142 391.027C234.119 393.029 234.074 395.031 234.006 397.031C233.214 407.085 233.214 407.085 236.52 416.185C239.421 418.69 242.622 420.165 246.205 421.465C248.612 422.398 250.75 423.733 252.947 425.072C254.626 426.034 256.307 426.995 257.987 427.955C259.869 429.033 261.75 430.11 263.631 431.188C264.578 431.73 265.526 432.272 266.502 432.83C270.157 434.923 273.809 437.02 277.461 439.117C279.236 440.136 281.011 441.155 282.786 442.173C287.013 444.598 291.238 447.026 295.456 449.464C297.456 450.619 299.456 451.773 301.457 452.927C302.873 453.744 304.289 454.565 305.704 455.385C306.559 455.877 307.413 456.37 308.293 456.877C309.423 457.531 309.423 457.531 310.576 458.198C312.536 459.324 312.536 459.324 314.987 460.058C315.317 448.358 315.564 436.658 315.717 424.955C315.791 419.52 315.891 414.087 316.051 408.654C316.204 403.406 316.288 398.162 316.325 392.912C316.351 390.914 316.402 388.915 316.478 386.917C317.282 376.698 317.282 376.698 313.621 367.593C310.287 364.864 306.623 363.17 302.611 361.654C300.079 360.645 297.866 359.297 295.541 357.883C293.88 356.931 292.219 355.98 290.558 355.029C288.692 353.959 286.826 352.889 284.96 351.819C283.555 351.014 283.555 351.014 282.121 350.192C278.477 348.103 274.834 346.012 271.191 343.92C269.417 342.901 267.641 341.882 265.866 340.864C261.625 338.43 257.385 335.994 253.15 333.55C251.135 332.387 249.118 331.225 247.102 330.064C245.667 329.236 244.233 328.407 242.799 327.578C241.94 327.083 241.08 326.588 240.195 326.078C239.432 325.638 238.67 325.198 237.885 324.744C236.36 323.738 236.36 323.738 235.323 323.804ZM400.229 326.304C399.341 326.822 398.452 327.339 397.537 327.873C396.602 328.421 395.666 328.968 394.702 329.533C392.863 330.607 391.022 331.681 389.182 332.755C387.951 333.475 387.951 333.475 386.696 334.21C385.494 334.903 384.276 335.572 383.033 336.191C383.029 337.195 383.026 338.199 383.023 339.233C383.004 342.965 382.959 346.697 382.906 350.429C382.887 352.043 382.875 353.657 382.871 355.271C382.863 357.594 382.829 359.915 382.79 362.238C382.793 362.957 382.796 363.677 382.8 364.418C382.715 367.934 382.575 369.563 380.377 372.428C376.535 375.319 372.431 377.529 368.2 379.802C367.317 380.295 366.435 380.789 365.525 381.297C357.088 385.86 357.088 385.86 352.329 384.912C350.362 381.975 350.383 379.808 350.326 376.412C350.31 375.829 350.294 375.246 350.277 374.645C350.228 372.786 350.189 370.926 350.151 369.067C350.119 367.805 350.087 366.543 350.053 365.282C349.974 362.191 349.904 359.1 349.84 356.009C344.126 358.79 338.51 361.627 333.087 364.938C332.545 365.263 332.004 365.588 331.445 365.923C328.883 367.384 328.883 367.384 326.604 369.222C326.525 370.402 326.503 371.586 326.504 372.77C326.503 373.535 326.502 374.3 326.501 375.089C326.504 375.935 326.507 376.782 326.51 377.654C326.51 378.54 326.51 379.426 326.51 380.339C326.51 383.284 326.517 386.228 326.523 389.173C326.525 391.208 326.526 393.243 326.527 395.279C326.53 400.648 326.538 406.017 326.547 411.386C326.556 416.861 326.559 422.335 326.564 427.809C326.573 438.558 326.587 449.308 326.604 460.058C341.63 451.913 356.528 443.567 371.286 434.952C374.905 432.841 378.537 430.751 382.177 428.675C382.661 428.398 383.145 428.122 383.644 427.837C385.979 426.504 388.316 425.173 390.655 423.846C391.502 423.363 392.349 422.879 393.221 422.381C393.959 421.962 394.697 421.543 395.457 421.11C396.287 420.61 397.116 420.11 397.97 419.594C398.58 419.291 399.19 418.988 399.819 418.675C403.831 416.499 403.831 416.499 406.117 412.737C406.359 410.375 406.363 408.112 406.286 405.739C406.287 404.852 406.288 403.965 406.29 403.052C406.284 400.128 406.226 397.208 406.168 394.285C406.154 392.256 406.143 390.227 406.136 388.197C406.107 382.861 406.034 377.527 405.951 372.191C405.875 366.745 405.841 361.298 405.803 355.851C405.723 345.168 405.597 334.486 405.438 323.804C403.646 323.804 401.699 325.444 400.229 326.304ZM361.457 348.577C361.457 355.662 361.457 362.748 361.457 370.048C365.995 368.352 365.995 368.352 371.415 365.093C371.415 358.008 371.415 350.922 371.415 343.623C367.704 343.623 364.715 346.809 361.457 348.577Z"/>
</mask>
<path d="M323.285 256.09C325.735 257.106 325.735 257.106 328.176 258.545C329.095 259.077 330.013 259.609 330.96 260.158C331.946 260.746 332.931 261.334 333.917 261.922C334.952 262.527 335.987 263.13 337.024 263.733C339.155 264.974 341.282 266.221 343.406 267.473C348.05 270.207 352.733 272.873 357.412 275.547C359.193 276.57 360.973 277.594 362.754 278.618C366.348 280.685 369.944 282.75 373.542 284.812C378.921 287.895 384.297 290.984 389.672 294.076C391.038 294.861 391.038 294.861 392.433 295.663C395.127 297.213 397.82 298.766 400.511 300.321C401.315 300.783 402.119 301.245 402.948 301.721C403.711 302.163 404.474 302.604 405.26 303.059C405.918 303.439 406.576 303.818 407.254 304.209C408.024 304.68 408.794 305.151 409.588 305.637C410.191 305.918 410.795 306.199 411.417 306.488C414.517 308.127 416.665 309.35 417.748 312.786C418.007 315.604 418.027 318.34 417.97 321.17C417.978 322.236 417.985 323.301 417.993 324.398C418.013 327.312 417.986 330.223 417.95 333.135C417.919 336.187 417.926 339.239 417.929 342.291C417.927 347.415 417.897 352.538 417.847 357.662C417.791 363.582 417.775 369.501 417.782 375.421C417.788 381.123 417.77 386.823 417.741 392.524C417.728 394.948 417.723 397.372 417.723 399.795C417.722 403.18 417.686 406.563 417.646 409.948C417.649 410.952 417.652 411.957 417.655 412.992C417.534 419.785 417.534 419.785 415.073 423.055C412.97 424.505 410.914 425.86 408.664 427.075C407.434 427.748 407.434 427.748 406.18 428.434C405.302 428.906 404.424 429.378 403.519 429.865C401.634 430.897 399.75 431.93 397.866 432.965C396.911 433.489 395.956 434.013 394.971 434.552C390.731 436.903 386.543 439.339 382.359 441.787C375.143 446 367.897 450.157 360.627 454.277C351.451 459.48 342.315 464.747 333.201 470.057C332.133 470.673 332.133 470.673 331.043 471.301C329.834 472.01 328.637 472.739 327.459 473.497C323.938 475.717 321.607 476.439 317.476 475.747C314.333 474.32 311.438 472.548 308.503 470.741C306.716 469.672 304.927 468.603 303.139 467.535C302.218 466.98 301.297 466.425 300.348 465.853C295.893 463.19 291.384 460.619 286.876 458.045C285.065 457.006 283.254 455.968 281.443 454.929C279.624 453.886 277.804 452.843 275.984 451.8C265.184 445.61 254.388 439.414 243.621 433.168C242.425 432.475 242.425 432.475 241.205 431.768C238.965 430.467 236.728 429.161 234.493 427.852C233.716 427.399 232.939 426.945 232.139 426.478C231.393 426.039 230.646 425.599 229.877 425.146C229.208 424.753 228.54 424.36 227.851 423.956C226.194 422.897 226.194 422.897 224.535 421.246C224.319 419.324 224.319 419.324 224.307 416.869C224.299 415.94 224.291 415.012 224.282 414.055C224.282 413.031 224.281 412.008 224.28 410.953C224.274 409.879 224.267 408.805 224.259 407.698C224.241 404.746 224.234 401.795 224.23 398.843C224.227 396.999 224.222 395.156 224.216 393.313C224.195 386.884 224.184 380.455 224.182 374.026C224.179 368.03 224.154 362.035 224.119 356.039C224.09 350.894 224.077 345.75 224.077 340.605C224.076 337.531 224.069 334.457 224.045 331.383C224.02 327.954 224.027 324.527 224.037 321.098C224.025 320.078 224.013 319.057 224 318.006C224.06 311.129 224.06 311.129 226.497 308.371C227.58 307.835 227.58 307.835 228.684 307.288C229.439 306.825 230.194 306.361 230.972 305.884C232.209 305.19 232.209 305.19 233.472 304.482C234.87 303.693 234.87 303.693 236.297 302.888C236.789 302.613 237.28 302.338 237.787 302.054C240.413 300.584 243.033 299.101 245.653 297.621C246.45 297.171 246.45 297.171 247.264 296.712C252.193 293.929 257.091 291.094 261.981 288.244C268.815 284.265 275.66 280.308 282.519 276.373C283.402 275.867 284.285 275.36 285.194 274.838C289.446 272.4 293.7 269.963 297.953 267.527C299.952 266.382 301.95 265.237 303.948 264.091C305.363 263.28 306.778 262.471 308.193 261.661C309.048 261.171 309.902 260.681 310.782 260.177C311.536 259.745 312.289 259.314 313.066 258.869C316.97 256.577 318.632 255.699 323.285 256.09ZM316.011 270.167C315.409 270.524 314.806 270.882 314.186 271.251C313.247 271.819 313.247 271.819 312.29 272.399C311.058 273.135 309.826 273.87 308.594 274.605C307.999 274.963 307.404 275.32 306.79 275.688C304.287 277.175 301.756 278.608 299.22 280.037C301.524 282.506 303.733 284.175 306.701 285.786C307.524 286.237 308.346 286.688 309.193 287.153C310.521 287.872 310.521 287.872 311.875 288.605C313.767 289.644 315.659 290.685 317.551 291.727C318.032 291.992 318.513 292.257 319.009 292.53C323.744 295.141 328.42 297.85 333.087 300.579C343.222 306.495 353.397 312.347 363.645 318.068C365.636 319.214 367.561 320.384 369.488 321.626C374.386 324.975 374.386 324.975 379.989 326.276C381.722 325.636 382.963 324.863 384.433 323.752C384.942 323.427 385.451 323.102 385.975 322.767C387.009 322.1 388.029 321.412 389.035 320.704C391.24 319.157 393.548 317.78 395.843 316.372C397.109 315.551 398.372 314.727 399.63 313.894C397.198 312.005 394.7 310.426 392.025 308.901C390.748 308.171 390.748 308.171 389.445 307.425C388.527 306.903 387.609 306.381 386.663 305.843C385.695 305.29 384.727 304.737 383.759 304.183C381.748 303.034 379.737 301.886 377.726 300.738C373.127 298.114 368.537 295.475 363.947 292.837C362.164 291.813 360.381 290.79 358.598 289.766C357.71 289.256 356.822 288.746 355.907 288.221C353.544 286.865 351.18 285.508 348.816 284.152C347.364 283.319 345.911 282.485 344.459 281.652C342.65 280.614 340.841 279.577 339.032 278.539C338.202 278.063 337.372 277.586 336.517 277.096C335.709 276.634 334.902 276.172 334.07 275.696C332.316 274.681 330.57 273.651 328.83 272.612C327.94 272.082 327.049 271.552 326.131 271.005C325.326 270.521 324.522 270.037 323.693 269.538C320.504 267.901 318.92 268.419 316.011 270.167ZM282.104 289.947C281.272 290.407 280.44 290.867 279.582 291.34C278.943 291.698 278.303 292.056 277.644 292.424C280.472 294.774 283.316 296.703 286.523 298.505C287.446 299.026 288.37 299.548 289.322 300.085C289.81 300.359 290.298 300.632 290.801 300.914C292.885 302.082 294.965 303.257 297.045 304.432C298.121 305.04 299.197 305.647 300.274 306.254C305.505 309.204 310.715 312.19 315.92 315.185C316.793 315.686 317.666 316.188 318.566 316.705C322.699 319.079 326.83 321.456 330.96 323.835C332.421 324.676 333.881 325.517 335.341 326.357C337.163 327.405 338.984 328.454 340.804 329.504C342.456 330.454 344.111 331.398 345.77 332.334C347.418 333.277 349.05 334.25 350.666 335.247C351.461 335.721 352.256 336.195 353.075 336.684C353.777 337.117 354.479 337.551 355.202 337.997C357.379 338.922 357.379 338.922 359.802 337.804C361.897 336.577 363.753 335.274 365.606 333.713C364.564 330.6 363.701 330.404 360.858 328.871C360.027 328.417 359.196 327.964 358.341 327.496C357.435 327.01 356.53 326.524 355.597 326.023C353.683 324.977 351.771 323.93 349.859 322.881C349.37 322.614 348.882 322.347 348.378 322.072C343.58 319.443 338.848 316.707 334.125 313.946C326.182 309.311 318.215 304.719 310.233 300.151C306.176 297.826 302.125 295.493 298.101 293.111C297.441 292.721 296.781 292.33 296.101 291.928C294.897 291.214 293.695 290.496 292.495 289.775C287.811 286.994 286.807 287.335 282.104 289.947ZM256.344 304.659C254.887 305.475 253.425 306.283 251.963 307.09C251.042 307.603 250.122 308.117 249.174 308.646C248.328 309.118 247.483 309.589 246.611 310.075C244.761 311.224 243.399 312.281 241.961 313.894C247.218 317.502 252.614 320.72 258.195 323.804C264.939 327.563 271.648 331.374 278.318 335.262C286.352 339.942 294.406 344.585 302.474 349.207C303.312 349.688 304.151 350.169 305.016 350.664C305.837 351.129 306.659 351.593 307.506 352.072C309.249 353.089 310.965 354.153 312.658 355.251C317.461 358.539 317.461 358.539 323.013 358.903C323.856 358.374 324.698 357.845 325.567 357.3C326.267 356.885 326.267 356.885 326.981 356.462C327.991 355.855 328.989 355.228 329.975 354.583C331.717 353.444 333.49 352.364 335.272 351.287C338.498 349.326 341.685 347.314 344.861 345.274C342.118 342.997 339.392 341.121 336.264 339.41C335.414 338.941 334.564 338.473 333.689 337.991C332.789 337.499 331.888 337.007 330.961 336.5C324.925 333.171 318.897 329.84 312.964 326.333C304.352 321.248 295.671 316.284 286.991 311.318C284.353 309.806 281.718 308.288 279.083 306.769C277.497 305.858 275.911 304.947 274.325 304.037C273.591 303.612 272.858 303.188 272.102 302.75C271.432 302.367 270.762 301.983 270.072 301.588C269.488 301.252 268.904 300.916 268.302 300.569C264.264 298.578 259.836 302.702 256.344 304.659ZM235.323 323.804C235.031 335.518 234.813 347.232 234.678 358.949C234.613 364.391 234.525 369.83 234.383 375.27C234.248 380.523 234.174 385.773 234.142 391.027C234.119 393.029 234.074 395.031 234.006 397.031C233.214 407.085 233.214 407.085 236.52 416.185C239.421 418.69 242.622 420.165 246.205 421.465C248.612 422.398 250.75 423.733 252.947 425.072C254.626 426.034 256.307 426.995 257.987 427.955C259.869 429.033 261.75 430.11 263.631 431.188C264.578 431.73 265.526 432.272 266.502 432.83C270.157 434.923 273.809 437.02 277.461 439.117C279.236 440.136 281.011 441.155 282.786 442.173C287.013 444.598 291.238 447.026 295.456 449.464C297.456 450.619 299.456 451.773 301.457 452.927C302.873 453.744 304.289 454.565 305.704 455.385C306.559 455.877 307.413 456.37 308.293 456.877C309.423 457.531 309.423 457.531 310.576 458.198C312.536 459.324 312.536 459.324 314.987 460.058C315.317 448.358 315.564 436.658 315.717 424.955C315.791 419.52 315.891 414.087 316.051 408.654C316.204 403.406 316.288 398.162 316.325 392.912C316.351 390.914 316.402 388.915 316.478 386.917C317.282 376.698 317.282 376.698 313.621 367.593C310.287 364.864 306.623 363.17 302.611 361.654C300.079 360.645 297.866 359.297 295.541 357.883C293.88 356.931 292.219 355.98 290.558 355.029C288.692 353.959 286.826 352.889 284.96 351.819C283.555 351.014 283.555 351.014 282.121 350.192C278.477 348.103 274.834 346.012 271.191 343.92C269.417 342.901 267.641 341.882 265.866 340.864C261.625 338.43 257.385 335.994 253.15 333.55C251.135 332.387 249.118 331.225 247.102 330.064C245.667 329.236 244.233 328.407 242.799 327.578C241.94 327.083 241.08 326.588 240.195 326.078C239.432 325.638 238.67 325.198 237.885 324.744C236.36 323.738 236.36 323.738 235.323 323.804ZM400.229 326.304C399.341 326.822 398.452 327.339 397.537 327.873C396.602 328.421 395.666 328.968 394.702 329.533C392.863 330.607 391.022 331.681 389.182 332.755C387.951 333.475 387.951 333.475 386.696 334.21C385.494 334.903 384.276 335.572 383.033 336.191C383.029 337.195 383.026 338.199 383.023 339.233C383.004 342.965 382.959 346.697 382.906 350.429C382.887 352.043 382.875 353.657 382.871 355.271C382.863 357.594 382.829 359.915 382.79 362.238C382.793 362.957 382.796 363.677 382.8 364.418C382.715 367.934 382.575 369.563 380.377 372.428C376.535 375.319 372.431 377.529 368.2 379.802C367.317 380.295 366.435 380.789 365.525 381.297C357.088 385.86 357.088 385.86 352.329 384.912C350.362 381.975 350.383 379.808 350.326 376.412C350.31 375.829 350.294 375.246 350.277 374.645C350.228 372.786 350.189 370.926 350.151 369.067C350.119 367.805 350.087 366.543 350.053 365.282C349.974 362.191 349.904 359.1 349.84 356.009C344.126 358.79 338.51 361.627 333.087 364.938C332.545 365.263 332.004 365.588 331.445 365.923C328.883 367.384 328.883 367.384 326.604 369.222C326.525 370.402 326.503 371.586 326.504 372.77C326.503 373.535 326.502 374.3 326.501 375.089C326.504 375.935 326.507 376.782 326.51 377.654C326.51 378.54 326.51 379.426 326.51 380.339C326.51 383.284 326.517 386.228 326.523 389.173C326.525 391.208 326.526 393.243 326.527 395.279C326.53 400.648 326.538 406.017 326.547 411.386C326.556 416.861 326.559 422.335 326.564 427.809C326.573 438.558 326.587 449.308 326.604 460.058C341.63 451.913 356.528 443.567 371.286 434.952C374.905 432.841 378.537 430.751 382.177 428.675C382.661 428.398 383.145 428.122 383.644 427.837C385.979 426.504 388.316 425.173 390.655 423.846C391.502 423.363 392.349 422.879 393.221 422.381C393.959 421.962 394.697 421.543 395.457 421.11C396.287 420.61 397.116 420.11 397.97 419.594C398.58 419.291 399.19 418.988 399.819 418.675C403.831 416.499 403.831 416.499 406.117 412.737C406.359 410.375 406.363 408.112 406.286 405.739C406.287 404.852 406.288 403.965 406.29 403.052C406.284 400.128 406.226 397.208 406.168 394.285C406.154 392.256 406.143 390.227 406.136 388.197C406.107 382.861 406.034 377.527 405.951 372.191C405.875 366.745 405.841 361.298 405.803 355.851C405.723 345.168 405.597 334.486 405.438 323.804C403.646 323.804 401.699 325.444 400.229 326.304ZM361.457 348.577C361.457 355.662 361.457 362.748 361.457 370.048C365.995 368.352 365.995 368.352 371.415 365.093C371.415 358.008 371.415 350.922 371.415 343.623C367.704 343.623 364.715 346.809 361.457 348.577Z" fill="black"/>
<path d="M323.285 256.09C325.735 257.106 325.735 257.106 328.176 258.545C329.095 259.077 330.013 259.609 330.96 260.158C331.946 260.746 332.931 261.334 333.917 261.922C334.952 262.527 335.987 263.13 337.024 263.733C339.155 264.974 341.282 266.221 343.406 267.473C348.05 270.207 352.733 272.873 357.412 275.547C359.193 276.57 360.973 277.594 362.754 278.618C366.348 280.685 369.944 282.75 373.542 284.812C378.921 287.895 384.297 290.984 389.672 294.076C391.038 294.861 391.038 294.861 392.433 295.663C395.127 297.213 397.82 298.766 400.511 300.321C401.315 300.783 402.119 301.245 402.948 301.721C403.711 302.163 404.474 302.604 405.26 303.059C405.918 303.439 406.576 303.818 407.254 304.209C408.024 304.68 408.794 305.151 409.588 305.637C410.191 305.918 410.795 306.199 411.417 306.488C414.517 308.127 416.665 309.35 417.748 312.786C418.007 315.604 418.027 318.34 417.97 321.17C417.978 322.236 417.985 323.301 417.993 324.398C418.013 327.312 417.986 330.223 417.95 333.135C417.919 336.187 417.926 339.239 417.929 342.291C417.927 347.415 417.897 352.538 417.847 357.662C417.791 363.582 417.775 369.501 417.782 375.421C417.788 381.123 417.77 386.823 417.741 392.524C417.728 394.948 417.723 397.372 417.723 399.795C417.722 403.18 417.686 406.563 417.646 409.948C417.649 410.952 417.652 411.957 417.655 412.992C417.534 419.785 417.534 419.785 415.073 423.055C412.97 424.505 410.914 425.86 408.664 427.075C407.434 427.748 407.434 427.748 406.18 428.434C405.302 428.906 404.424 429.378 403.519 429.865C401.634 430.897 399.75 431.93 397.866 432.965C396.911 433.489 395.956 434.013 394.971 434.552C390.731 436.903 386.543 439.339 382.359 441.787C375.143 446 367.897 450.157 360.627 454.277C351.451 459.48 342.315 464.747 333.201 470.057C332.133 470.673 332.133 470.673 331.043 471.301C329.834 472.01 328.637 472.739 327.459 473.497C323.938 475.717 321.607 476.439 317.476 475.747C314.333 474.32 311.438 472.548 308.503 470.741C306.716 469.672 304.927 468.603 303.139 467.535C302.218 466.98 301.297 466.425 300.348 465.853C295.893 463.19 291.384 460.619 286.876 458.045C285.065 457.006 283.254 455.968 281.443 454.929C279.624 453.886 277.804 452.843 275.984 451.8C265.184 445.61 254.388 439.414 243.621 433.168C242.425 432.475 242.425 432.475 241.205 431.768C238.965 430.467 236.728 429.161 234.493 427.852C233.716 427.399 232.939 426.945 232.139 426.478C231.393 426.039 230.646 425.599 229.877 425.146C229.208 424.753 228.54 424.36 227.851 423.956C226.194 422.897 226.194 422.897 224.535 421.246C224.319 419.324 224.319 419.324 224.307 416.869C224.299 415.94 224.291 415.012 224.282 414.055C224.282 413.031 224.281 412.008 224.28 410.953C224.274 409.879 224.267 408.805 224.259 407.698C224.241 404.746 224.234 401.795 224.23 398.843C224.227 396.999 224.222 395.156 224.216 393.313C224.195 386.884 224.184 380.455 224.182 374.026C224.179 368.03 224.154 362.035 224.119 356.039C224.09 350.894 224.077 345.75 224.077 340.605C224.076 337.531 224.069 334.457 224.045 331.383C224.02 327.954 224.027 324.527 224.037 321.098C224.025 320.078 224.013 319.057 224 318.006C224.06 311.129 224.06 311.129 226.497 308.371C227.58 307.835 227.58 307.835 228.684 307.288C229.439 306.825 230.194 306.361 230.972 305.884C232.209 305.19 232.209 305.19 233.472 304.482C234.87 303.693 234.87 303.693 236.297 302.888C236.789 302.613 237.28 302.338 237.787 302.054C240.413 300.584 243.033 299.101 245.653 297.621C246.45 297.171 246.45 297.171 247.264 296.712C252.193 293.929 257.091 291.094 261.981 288.244C268.815 284.265 275.66 280.308 282.519 276.373C283.402 275.867 284.285 275.36 285.194 274.838C289.446 272.4 293.7 269.963 297.953 267.527C299.952 266.382 301.95 265.237 303.948 264.091C305.363 263.28 306.778 262.471 308.193 261.661C309.048 261.171 309.902 260.681 310.782 260.177C311.536 259.745 312.289 259.314 313.066 258.869C316.97 256.577 318.632 255.699 323.285 256.09ZM316.011 270.167C315.409 270.524 314.806 270.882 314.186 271.251C313.247 271.819 313.247 271.819 312.29 272.399C311.058 273.135 309.826 273.87 308.594 274.605C307.999 274.963 307.404 275.32 306.79 275.688C304.287 277.175 301.756 278.608 299.22 280.037C301.524 282.506 303.733 284.175 306.701 285.786C307.524 286.237 308.346 286.688 309.193 287.153C310.521 287.872 310.521 287.872 311.875 288.605C313.767 289.644 315.659 290.685 317.551 291.727C318.032 291.992 318.513 292.257 319.009 292.53C323.744 295.141 328.42 297.85 333.087 300.579C343.222 306.495 353.397 312.347 363.645 318.068C365.636 319.214 367.561 320.384 369.488 321.626C374.386 324.975 374.386 324.975 379.989 326.276C381.722 325.636 382.963 324.863 384.433 323.752C384.942 323.427 385.451 323.102 385.975 322.767C387.009 322.1 388.029 321.412 389.035 320.704C391.24 319.157 393.548 317.78 395.843 316.372C397.109 315.551 398.372 314.727 399.63 313.894C397.198 312.005 394.7 310.426 392.025 308.901C390.748 308.171 390.748 308.171 389.445 307.425C388.527 306.903 387.609 306.381 386.663 305.843C385.695 305.29 384.727 304.737 383.759 304.183C381.748 303.034 379.737 301.886 377.726 300.738C373.127 298.114 368.537 295.475 363.947 292.837C362.164 291.813 360.381 290.79 358.598 289.766C357.71 289.256 356.822 288.746 355.907 288.221C353.544 286.865 351.18 285.508 348.816 284.152C347.364 283.319 345.911 282.485 344.459 281.652C342.65 280.614 340.841 279.577 339.032 278.539C338.202 278.063 337.372 277.586 336.517 277.096C335.709 276.634 334.902 276.172 334.07 275.696C332.316 274.681 330.57 273.651 328.83 272.612C327.94 272.082 327.049 271.552 326.131 271.005C325.326 270.521 324.522 270.037 323.693 269.538C320.504 267.901 318.92 268.419 316.011 270.167ZM282.104 289.947C281.272 290.407 280.44 290.867 279.582 291.34C278.943 291.698 278.303 292.056 277.644 292.424C280.472 294.774 283.316 296.703 286.523 298.505C287.446 299.026 288.37 299.548 289.322 300.085C289.81 300.359 290.298 300.632 290.801 300.914C292.885 302.082 294.965 303.257 297.045 304.432C298.121 305.04 299.197 305.647 300.274 306.254C305.505 309.204 310.715 312.19 315.92 315.185C316.793 315.686 317.666 316.188 318.566 316.705C322.699 319.079 326.83 321.456 330.96 323.835C332.421 324.676 333.881 325.517 335.341 326.357C337.163 327.405 338.984 328.454 340.804 329.504C342.456 330.454 344.111 331.398 345.77 332.334C347.418 333.277 349.05 334.25 350.666 335.247C351.461 335.721 352.256 336.195 353.075 336.684C353.777 337.117 354.479 337.551 355.202 337.997C357.379 338.922 357.379 338.922 359.802 337.804C361.897 336.577 363.753 335.274 365.606 333.713C364.564 330.6 363.701 330.404 360.858 328.871C360.027 328.417 359.196 327.964 358.341 327.496C357.435 327.01 356.53 326.524 355.597 326.023C353.683 324.977 351.771 323.93 349.859 322.881C349.37 322.614 348.882 322.347 348.378 322.072C343.58 319.443 338.848 316.707 334.125 313.946C326.182 309.311 318.215 304.719 310.233 300.151C306.176 297.826 302.125 295.493 298.101 293.111C297.441 292.721 296.781 292.33 296.101 291.928C294.897 291.214 293.695 290.496 292.495 289.775C287.811 286.994 286.807 287.335 282.104 289.947ZM256.344 304.659C254.887 305.475 253.425 306.283 251.963 307.09C251.042 307.603 250.122 308.117 249.174 308.646C248.328 309.118 247.483 309.589 246.611 310.075C244.761 311.224 243.399 312.281 241.961 313.894C247.218 317.502 252.614 320.72 258.195 323.804C264.939 327.563 271.648 331.374 278.318 335.262C286.352 339.942 294.406 344.585 302.474 349.207C303.312 349.688 304.151 350.169 305.016 350.664C305.837 351.129 306.659 351.593 307.506 352.072C309.249 353.089 310.965 354.153 312.658 355.251C317.461 358.539 317.461 358.539 323.013 358.903C323.856 358.374 324.698 357.845 325.567 357.3C326.267 356.885 326.267 356.885 326.981 356.462C327.991 355.855 328.989 355.228 329.975 354.583C331.717 353.444 333.49 352.364 335.272 351.287C338.498 349.326 341.685 347.314 344.861 345.274C342.118 342.997 339.392 341.121 336.264 339.41C335.414 338.941 334.564 338.473 333.689 337.991C332.789 337.499 331.888 337.007 330.961 336.5C324.925 333.171 318.897 329.84 312.964 326.333C304.352 321.248 295.671 316.284 286.991 311.318C284.353 309.806 281.718 308.288 279.083 306.769C277.497 305.858 275.911 304.947 274.325 304.037C273.591 303.612 272.858 303.188 272.102 302.75C271.432 302.367 270.762 301.983 270.072 301.588C269.488 301.252 268.904 300.916 268.302 300.569C264.264 298.578 259.836 302.702 256.344 304.659ZM235.323 323.804C235.031 335.518 234.813 347.232 234.678 358.949C234.613 364.391 234.525 369.83 234.383 375.27C234.248 380.523 234.174 385.773 234.142 391.027C234.119 393.029 234.074 395.031 234.006 397.031C233.214 407.085 233.214 407.085 236.52 416.185C239.421 418.69 242.622 420.165 246.205 421.465C248.612 422.398 250.75 423.733 252.947 425.072C254.626 426.034 256.307 426.995 257.987 427.955C259.869 429.033 261.75 430.11 263.631 431.188C264.578 431.73 265.526 432.272 266.502 432.83C270.157 434.923 273.809 437.02 277.461 439.117C279.236 440.136 281.011 441.155 282.786 442.173C287.013 444.598 291.238 447.026 295.456 449.464C297.456 450.619 299.456 451.773 301.457 452.927C302.873 453.744 304.289 454.565 305.704 455.385C306.559 455.877 307.413 456.37 308.293 456.877C309.423 457.531 309.423 457.531 310.576 458.198C312.536 459.324 312.536 459.324 314.987 460.058C315.317 448.358 315.564 436.658 315.717 424.955C315.791 419.52 315.891 414.087 316.051 408.654C316.204 403.406 316.288 398.162 316.325 392.912C316.351 390.914 316.402 388.915 316.478 386.917C317.282 376.698 317.282 376.698 313.621 367.593C310.287 364.864 306.623 363.17 302.611 361.654C300.079 360.645 297.866 359.297 295.541 357.883C293.88 356.931 292.219 355.98 290.558 355.029C288.692 353.959 286.826 352.889 284.96 351.819C283.555 351.014 283.555 351.014 282.121 350.192C278.477 348.103 274.834 346.012 271.191 343.92C269.417 342.901 267.641 341.882 265.866 340.864C261.625 338.43 257.385 335.994 253.15 333.55C251.135 332.387 249.118 331.225 247.102 330.064C245.667 329.236 244.233 328.407 242.799 327.578C241.94 327.083 241.08 326.588 240.195 326.078C239.432 325.638 238.67 325.198 237.885 324.744C236.36 323.738 236.36 323.738 235.323 323.804ZM400.229 326.304C399.341 326.822 398.452 327.339 397.537 327.873C396.602 328.421 395.666 328.968 394.702 329.533C392.863 330.607 391.022 331.681 389.182 332.755C387.951 333.475 387.951 333.475 386.696 334.21C385.494 334.903 384.276 335.572 383.033 336.191C383.029 337.195 383.026 338.199 383.023 339.233C383.004 342.965 382.959 346.697 382.906 350.429C382.887 352.043 382.875 353.657 382.871 355.271C382.863 357.594 382.829 359.915 382.79 362.238C382.793 362.957 382.796 363.677 382.8 364.418C382.715 367.934 382.575 369.563 380.377 372.428C376.535 375.319 372.431 377.529 368.2 379.802C367.317 380.295 366.435 380.789 365.525 381.297C357.088 385.86 357.088 385.86 352.329 384.912C350.362 381.975 350.383 379.808 350.326 376.412C350.31 375.829 350.294 375.246 350.277 374.645C350.228 372.786 350.189 370.926 350.151 369.067C350.119 367.805 350.087 366.543 350.053 365.282C349.974 362.191 349.904 359.1 349.84 356.009C344.126 358.79 338.51 361.627 333.087 364.938C332.545 365.263 332.004 365.588 331.445 365.923C328.883 367.384 328.883 367.384 326.604 369.222C326.525 370.402 326.503 371.586 326.504 372.77C326.503 373.535 326.502 374.3 326.501 375.089C326.504 375.935 326.507 376.782 326.51 377.654C326.51 378.54 326.51 379.426 326.51 380.339C326.51 383.284 326.517 386.228 326.523 389.173C326.525 391.208 326.526 393.243 326.527 395.279C326.53 400.648 326.538 406.017 326.547 411.386C326.556 416.861 326.559 422.335 326.564 427.809C326.573 438.558 326.587 449.308 326.604 460.058C341.63 451.913 356.528 443.567 371.286 434.952C374.905 432.841 378.537 430.751 382.177 428.675C382.661 428.398 383.145 428.122 383.644 427.837C385.979 426.504 388.316 425.173 390.655 423.846C391.502 423.363 392.349 422.879 393.221 422.381C393.959 421.962 394.697 421.543 395.457 421.11C396.287 420.61 397.116 420.11 397.97 419.594C398.58 419.291 399.19 418.988 399.819 418.675C403.831 416.499 403.831 416.499 406.117 412.737C406.359 410.375 406.363 408.112 406.286 405.739C406.287 404.852 406.288 403.965 406.29 403.052C406.284 400.128 406.226 397.208 406.168 394.285C406.154 392.256 406.143 390.227 406.136 388.197C406.107 382.861 406.034 377.527 405.951 372.191C405.875 366.745 405.841 361.298 405.803 355.851C405.723 345.168 405.597 334.486 405.438 323.804C403.646 323.804 401.699 325.444 400.229 326.304ZM361.457 348.577C361.457 355.662 361.457 362.748 361.457 370.048C365.995 368.352 365.995 368.352 371.415 365.093C371.415 358.008 371.415 350.922 371.415 343.623C367.704 343.623 364.715 346.809 361.457 348.577Z" stroke="black" stroke-width="6" mask="url(#path-9-outside-1_1239_90)"/>
</g>
<defs>
<clipPath id="clip0_1239_90">
<rect width="512" height="512" fill="white"/>
</clipPath>
</defs>
</svg>
