<svg width="512" height="512" viewBox="0 0 512 512" fill="none" xmlns="http://www.w3.org/2000/svg">
<g clip-path="url(#clip0_1239_80)">
<path d="M146.48 -0.149699C147.864 -0.161011 147.864 -0.161011 149.277 -0.172552C150.8 -0.177391 150.8 -0.177391 152.354 -0.182328C153.97 -0.193135 153.97 -0.193135 155.62 -0.20416C159.249 -0.226973 162.879 -0.242481 166.508 -0.257859C169.103 -0.272304 171.698 -0.287061 174.293 -0.30211C197.99 -0.4344 221.687 -0.498487 245.384 -0.549952C248.555 -0.556961 251.726 -0.564088 254.897 -0.571336C255.686 -0.573131 256.474 -0.574926 257.286 -0.576776C270.047 -0.606827 282.808 -0.671582 295.569 -0.750022C308.675 -0.829914 321.781 -0.875644 334.888 -0.888978C342.245 -0.897378 349.601 -0.921059 356.958 -0.983647C363.881 -1.04252 370.804 -1.05557 377.728 -1.03777C380.266 -1.03865 382.805 -1.05491 385.344 -1.08782C406.926 -1.35302 406.926 -1.35302 412.986 3.96889C414.368 5.60924 415.708 7.28655 417 8.99849C418.552 10.5508 420.126 12.0815 421.72 13.5912C423.363 15.2282 425.003 16.8678 426.641 18.5097C427.546 19.4133 428.451 20.3169 429.384 21.2478C431.834 23.6935 434.281 26.1422 436.728 28.5916C439.3 31.1662 441.874 33.7383 444.448 36.3108C448.76 40.6209 453.07 44.9331 457.379 49.2465C462.357 54.2308 467.34 59.2115 472.324 64.1903C476.617 68.4791 480.909 72.7698 485.199 77.0622C487.755 79.6202 490.312 82.1776 492.871 84.7332C495.715 87.5738 498.555 90.4185 501.395 93.2636C502.241 94.1083 503.088 94.953 503.96 95.8233C504.731 96.5969 505.502 97.3706 506.296 98.1676C506.967 98.839 507.638 99.5104 508.33 100.202C511.863 104.002 512.252 106.283 512.26 111.352C512.264 112.003 512.268 112.653 512.272 113.324C512.282 115.518 512.278 117.713 512.274 119.908C512.279 121.492 512.284 123.075 512.29 124.659C512.304 129.022 512.306 133.386 512.306 137.749C512.307 142.451 512.32 147.152 512.332 151.854C512.355 162.141 512.363 172.429 512.368 182.716C512.371 189.139 512.377 195.561 512.385 201.984C512.404 219.763 512.421 237.541 512.423 255.32C512.424 256.458 512.424 257.597 512.424 258.77C512.424 261.078 512.425 263.386 512.425 265.694C512.425 266.839 512.425 267.985 512.426 269.165C512.426 270.886 512.426 270.886 512.426 272.641C512.43 291.222 512.457 309.803 512.494 328.384C512.532 347.457 512.552 366.529 512.552 385.602C512.552 396.312 512.561 407.022 512.59 417.732C512.614 426.854 512.622 435.976 512.607 445.097C512.599 449.751 512.6 454.404 512.623 459.057C512.644 463.321 512.641 467.583 512.62 471.847C512.617 473.386 512.622 474.925 512.636 476.464C512.714 485.398 511.977 492.352 507 499.999C506.443 500.906 505.886 501.814 505.313 502.749C499.383 508.517 492.492 512.117 484.224 512.135C483.012 512.141 481.8 512.146 480.551 512.151C479.199 512.151 477.847 512.152 476.495 512.152C475.064 512.156 473.633 512.161 472.203 512.166C468.261 512.178 464.319 512.183 460.378 512.188C456.13 512.194 451.882 512.205 447.635 512.216C437.371 512.241 427.107 512.255 416.844 512.268C413.945 512.272 411.046 512.276 408.148 512.28C390.149 512.305 372.15 512.327 354.151 512.34C349.981 512.343 345.811 512.346 341.641 512.349C340.605 512.349 339.569 512.35 338.501 512.351C321.714 512.363 304.928 512.397 288.141 512.438C270.908 512.481 253.675 512.504 236.442 512.51C226.766 512.513 217.09 512.525 207.414 512.558C199.172 512.586 190.931 512.597 182.689 512.586C178.486 512.58 174.282 512.583 170.078 512.608C166.226 512.63 162.374 512.63 158.521 512.611C157.132 512.608 155.742 512.614 154.352 512.629C145.641 512.717 139.407 511.697 132 506.999C131.093 506.442 130.185 505.885 129.25 505.311C122.505 498.379 119.846 491.15 119.88 481.665C119.879 480.805 119.878 479.945 119.877 479.059C119.876 476.166 119.881 473.273 119.887 470.381C119.887 468.311 119.887 466.242 119.886 464.172C119.886 458.545 119.892 452.917 119.899 447.289C119.905 441.412 119.906 435.534 119.907 429.656C119.91 418.521 119.918 407.387 119.928 396.252C119.939 383.578 119.945 370.903 119.95 358.228C119.96 332.152 119.978 306.075 120 279.999C119.315 280.005 118.631 280.011 117.925 280.017C114.785 280.042 111.644 280.058 108.504 280.073C107.427 280.083 106.35 280.093 105.24 280.103C96.756 280.134 89.1995 279.308 81.0001 276.999C79.7974 276.67 78.5947 276.341 77.3556 276.002C62.539 271.519 49.5097 264.361 38.0001 253.998C37.1854 253.337 36.3707 252.676 35.5314 251.995C19.3021 238.462 8.61219 219.13 3.00012 198.998C2.68043 197.912 2.36075 196.825 2.03137 195.706C-2.23348 178.547 -1.9815 157.96 3.00012 140.998C3.32883 139.801 3.65754 138.603 3.99622 137.37C8.46327 122.546 15.6384 109.507 26.0001 97.9985C26.6614 97.1838 27.3227 96.3691 28.004 95.5297C41.5261 79.3135 60.8728 68.5859 81.0001 62.9985C82.1332 62.6788 83.2663 62.3591 84.4337 62.0297C96.1615 59.2056 108.014 59.7081 120 59.9985C119.974 58.8997 119.948 57.801 119.921 56.6689C119.83 52.5503 119.773 48.4318 119.725 44.3125C119.7 42.5376 119.666 40.7628 119.623 38.9882C119.175 20.2453 119.175 20.2453 125 11.9985C125.557 11.091 126.114 10.1835 126.688 9.24849C132.054 4.02722 138.894 -0.106955 146.48 -0.149699ZM143 22.9985C140.021 27.9346 139.584 32.4786 139.707 38.1196C139.711 38.8643 139.716 39.6091 139.72 40.3764C139.737 42.73 139.774 45.0827 139.813 47.436C139.828 49.0421 139.841 50.6482 139.854 52.2543C139.887 56.1694 139.938 60.0838 140 63.9985C141.074 64.3767 142.149 64.7548 143.255 65.1445C157.219 70.0911 169.806 76.1008 181 85.9985C182.356 87.1393 182.356 87.1393 183.738 88.3032C202.771 104.782 216.723 130.695 219 155.998C219.62 170.436 220.11 185.029 216 198.998C215.66 200.219 215.319 201.44 214.969 202.698C206.64 230.076 187.702 253.326 162.5 266.874C161.861 267.218 161.222 267.563 160.564 267.919C156.084 270.214 151.457 271.961 146.713 273.628C146.066 273.857 145.419 274.086 144.752 274.322C143.169 274.883 141.585 275.441 140 275.999C139.93 302.737 139.877 329.475 139.845 356.213C139.829 368.628 139.808 381.043 139.774 393.458C139.744 404.278 139.725 415.099 139.718 425.919C139.714 431.649 139.705 437.378 139.683 443.108C139.663 448.501 139.656 453.895 139.661 459.288C139.66 461.267 139.654 463.246 139.643 465.225C139.628 467.929 139.631 470.632 139.639 473.336C139.631 474.117 139.622 474.898 139.613 475.703C139.655 480.848 140.296 484.556 143 488.999C149.17 493.142 156.194 492.418 163.399 492.379C164.769 492.383 166.14 492.388 167.51 492.394C171.266 492.406 175.022 492.4 178.778 492.391C182.833 492.384 186.887 492.394 190.942 492.403C198.881 492.416 206.82 492.413 214.759 492.404C221.211 492.398 227.664 492.397 234.116 492.4C235.035 492.4 235.953 492.401 236.899 492.401C238.765 492.402 240.631 492.403 242.497 492.404C259.991 492.413 277.486 492.403 294.981 492.387C309.991 492.373 325.001 492.376 340.011 492.39C357.443 492.406 374.875 492.412 392.307 492.403C394.166 492.402 396.025 492.401 397.884 492.4C399.256 492.399 399.256 492.399 400.656 492.399C407.1 492.396 413.544 492.4 419.989 492.407C427.843 492.416 435.697 492.414 443.551 492.398C447.558 492.39 451.564 492.387 455.571 492.396C459.24 492.405 462.909 492.4 466.578 492.385C468.532 492.38 470.486 492.389 472.44 492.4C481.193 492.429 481.193 492.429 489 488.999C493.392 482.632 492.409 474.869 492.361 467.414C492.362 465.915 492.365 464.415 492.369 462.916C492.375 458.804 492.363 454.693 492.348 450.581C492.335 446.145 492.34 441.708 492.342 437.271C492.344 429.586 492.334 421.902 492.317 414.217C492.293 403.107 492.285 391.997 492.281 380.886C492.275 362.86 492.255 344.834 492.226 326.807C492.199 309.297 492.178 291.787 492.165 274.277C492.164 273.198 492.163 272.118 492.163 271.006C492.159 265.591 492.155 260.175 492.151 254.76C492.12 209.839 492.067 164.919 492 119.998C490.817 119.988 489.633 119.978 488.414 119.967C477.274 119.87 466.135 119.767 454.996 119.659C449.269 119.604 443.542 119.551 437.815 119.501C432.29 119.454 426.766 119.401 421.242 119.346C419.132 119.325 417.021 119.306 414.911 119.289C411.961 119.265 409.011 119.235 406.061 119.204C405.184 119.198 404.306 119.192 403.402 119.186C400.029 119.145 397.222 119.072 394 117.998C392.664 113.991 392.822 110.118 392.795 105.937C392.785 105.01 392.775 104.083 392.765 103.128C392.733 100.06 392.708 96.9922 392.684 93.9243C392.663 91.7986 392.642 89.673 392.621 87.5474C392.566 81.9496 392.516 76.3519 392.468 70.7541C392.418 65.0432 392.362 59.3324 392.307 53.6215C392.199 42.4139 392.098 31.2062 392 19.9985C361.29 19.93 330.58 19.877 299.869 19.8453C296.243 19.8415 292.617 19.8377 288.991 19.8337C288.269 19.8329 287.547 19.8321 286.804 19.8313C275.117 19.8183 263.43 19.7946 251.743 19.767C239.75 19.739 227.758 19.7223 215.765 19.7162C209.029 19.7125 202.293 19.7035 195.558 19.6813C189.219 19.6609 182.88 19.6547 176.541 19.6592C174.214 19.6583 171.887 19.6524 169.559 19.6409C166.382 19.626 163.206 19.6295 160.029 19.6377C158.647 19.6246 158.647 19.6246 157.238 19.6112C151.745 19.6495 147.828 20.2951 143 22.9985ZM412 35.9985C412 57.1185 412 78.2385 412 99.9985C433.12 99.9985 454.24 99.9985 476 99.9985C472.125 95.4771 468.303 91.155 464.102 86.9714C463.547 86.4144 462.992 85.8574 462.42 85.2836C460.609 83.4686 458.795 81.6572 456.981 79.8461C455.713 78.5783 454.446 77.3104 453.18 76.0423C450.538 73.399 447.894 70.7576 445.249 68.1174C441.852 64.7255 438.459 61.3291 435.067 57.9314C432.458 55.3192 429.847 52.7094 427.236 50.1003C425.983 48.8478 424.73 47.5946 423.479 46.3407C421.738 44.598 419.995 42.8585 418.251 41.1198C417.471 40.3368 417.471 40.3368 416.675 39.538C414.679 37.0817 414.679 37.0817 412 35.9985ZM120 80.9985C120 107.068 120 133.138 120 159.998C146.07 159.998 172.14 159.998 199 159.998C193.948 133.052 182.776 111.054 159.871 95.2255C148.578 87.8196 133.723 80.9985 120 80.9985ZM45.5587 107.354C27.0959 126.437 20.406 149.775 20.7228 175.791C21.4304 198.895 32.5098 220.078 49.0001 235.998C69.4543 254.079 92.8292 260.163 119.814 259.216C136.987 258.043 154.146 250.322 167 238.998C167.795 238.357 168.591 237.715 169.41 237.053C184.968 224.02 196.129 203.943 198.546 183.789C198.696 182.538 198.846 181.287 199 179.998C197.829 179.988 196.658 179.978 195.452 179.967C184.43 179.87 173.409 179.767 162.387 179.659C156.721 179.604 151.054 179.551 145.388 179.501C139.922 179.454 134.456 179.401 128.99 179.346C126.902 179.325 124.814 179.306 122.726 179.289C119.807 179.265 116.888 179.235 113.97 179.204C113.101 179.198 112.233 179.192 111.339 179.186C107.985 179.145 105.203 179.066 102 177.998C100.673 174.017 100.822 170.182 100.795 166.029C100.785 165.112 100.775 164.194 100.765 163.249C100.733 160.214 100.708 157.179 100.684 154.143C100.663 152.04 100.642 149.937 100.621 147.833C100.566 142.295 100.516 136.756 100.468 131.218C100.418 125.567 100.362 119.917 100.307 114.266C100.199 103.177 100.098 92.0877 100 80.9985C79.6301 80.9985 59.7194 93.9743 45.5587 107.354Z" fill="black"/>
<path d="M452.688 268.25C454.148 269.13 455.59 270.042 457 271C457.908 271.557 458.815 272.114 459.75 272.687C466.873 280.008 469.315 287.783 469.392 297.732C469.274 304.11 467.599 308.701 464 314C463.443 314.907 462.886 315.815 462.312 316.75C458.038 320.909 452.657 324.114 447 326C445.911 325.87 444.821 325.739 443.699 325.605C438.565 324.996 433.558 324.418 428.994 327.241C424.466 331.002 420.736 335.475 417 340C412.288 345.492 407.417 350.812 402.438 356.062C401.022 357.561 399.607 359.06 398.191 360.558C397.488 361.303 396.784 362.048 396.059 362.816C392.986 366.075 389.929 369.349 386.875 372.625C386.033 373.528 386.033 373.528 385.174 374.448C382.809 376.985 380.445 379.522 378.082 382.059C376.785 383.452 375.487 384.844 374.19 386.236C372.969 387.546 371.749 388.856 370.529 390.166C369.704 391.051 369.704 391.051 368.863 391.953C368.382 392.47 367.9 392.987 367.404 393.52C366 395 366 395 364.309 396.542C363.877 397.023 363.445 397.504 363 398C363.214 400.706 363.874 402.73 365.023 405.183C367.32 411.807 367.135 420.418 365.02 427.094C363.824 429.535 362.526 431.753 361 434C360.443 434.907 359.886 435.815 359.312 436.75C351.992 443.873 344.217 446.315 334.268 446.391C327.89 446.274 323.299 444.599 318 441C317.092 440.443 316.185 439.886 315.25 439.312C308.725 432.606 305.821 425.407 305.812 416.187C305.8 415.488 305.788 414.789 305.775 414.068C305.766 410.604 305.965 408.083 307.305 404.863C307.534 403.918 307.764 402.973 308 402C306.517 399.612 305.231 397.983 303.312 396C302.279 394.86 301.248 393.718 300.219 392.574C299.684 391.988 299.149 391.402 298.598 390.798C296.032 387.91 293.675 384.868 291.312 381.812C290.407 380.649 289.5 379.487 288.594 378.324C288.161 377.768 287.727 377.211 287.281 376.638C284.224 372.73 281.109 368.867 278 365C277.504 365.162 277.007 365.325 276.496 365.492C273.022 366.199 269.591 366.144 266.062 366.125C265.359 366.129 264.656 366.133 263.932 366.137C260.869 366.131 258.315 366.112 255.41 365.074C253.007 364.75 253.007 364.75 251.484 366.131C249.684 367.912 248.027 369.769 246.375 371.687C245.455 372.715 245.455 372.715 244.517 373.764C243.263 375.166 242.016 376.574 240.775 377.987C238.732 380.304 236.646 382.577 234.546 384.842C233.207 386.291 231.883 387.753 230.559 389.215C228.834 391.092 227.075 392.938 225.285 394.754C224.449 395.619 223.612 396.484 222.75 397.375C222.002 398.125 221.255 398.875 220.484 399.648C218.71 401.935 218.71 401.935 219.242 404.805C219.492 405.859 219.742 406.913 220 408C220.719 417.824 220.73 425.564 215 434C214.443 434.907 213.886 435.815 213.312 436.75C205.992 443.873 198.217 446.315 188.268 446.391C181.89 446.274 177.299 444.599 172 441C171.092 440.443 170.185 439.886 169.25 439.312C162.127 431.992 159.685 424.217 159.608 414.268C159.726 407.889 161.401 403.299 165 398C165.557 397.092 166.114 396.185 166.688 395.25C173.434 388.686 180.608 385.825 189.875 385.875C190.583 385.871 191.29 385.867 192.02 385.863C195.098 385.869 197.674 385.883 200.594 386.926C202.993 387.25 202.993 387.25 204.516 385.869C206.316 384.088 207.973 382.231 209.625 380.312C210.545 379.284 210.545 379.284 211.483 378.235C212.737 376.833 213.984 375.426 215.225 374.013C217.268 371.696 219.354 369.423 221.454 367.157C222.793 365.709 224.117 364.247 225.441 362.785C227.166 360.908 228.925 359.061 230.715 357.246C231.551 356.381 232.388 355.516 233.25 354.625C233.998 353.875 234.745 353.124 235.516 352.351C237.29 350.065 237.29 350.065 236.758 347.195C236.508 346.141 236.258 345.086 236 344C235.281 334.176 235.27 326.436 241 318C241.557 317.092 242.114 316.185 242.688 315.25C250.008 308.127 257.783 305.684 267.732 305.608C274.11 305.726 278.701 307.401 284 311C284.908 311.557 285.815 312.114 286.75 312.687C293.275 319.394 296.179 326.593 296.188 335.812C296.2 336.512 296.212 337.211 296.225 337.932C296.234 341.396 296.035 343.916 294.695 347.137C294.466 348.081 294.236 349.026 294 350C295.483 352.388 296.769 354.016 298.688 356C299.721 357.14 300.752 358.282 301.781 359.426C302.316 360.012 302.851 360.598 303.402 361.202C305.968 364.09 308.325 367.132 310.688 370.187C311.593 371.35 312.5 372.513 313.406 373.676C313.839 374.232 314.273 374.788 314.719 375.362C317.776 379.27 320.891 383.133 324 387C324.762 386.727 324.762 386.727 325.539 386.449C328 386 328 386 331.398 386.394C338.991 387.274 338.991 387.274 346.001 384.759C350.532 380.998 354.263 376.526 358 372C362.712 366.508 367.583 361.188 372.562 355.937C373.978 354.439 375.393 352.94 376.809 351.441C377.512 350.696 378.216 349.951 378.941 349.184C382.014 345.925 385.071 342.651 388.125 339.375C388.967 338.472 388.967 338.472 389.826 337.551C392.191 335.015 394.555 332.478 396.918 329.94C398.215 328.548 399.513 327.156 400.81 325.764C402.031 324.454 403.251 323.144 404.471 321.833C405.296 320.949 405.296 320.949 406.137 320.047C406.618 319.53 407.1 319.012 407.596 318.479C409 317 409 317 410.691 315.458C411.123 314.977 411.555 314.496 412 314C411.786 311.293 411.126 309.27 409.977 306.816C407.68 300.193 407.865 291.582 409.98 284.906C411.176 282.464 412.474 280.247 414 278C414.557 277.092 415.114 276.185 415.688 275.25C425.277 265.92 440.341 262.17 452.688 268.25ZM430 292C429.302 294.84 429.302 297.16 430 300C431.989 302.984 433.385 304.603 436.938 305.476C440.861 305.759 442.671 305.219 446 303C448.219 299.671 448.759 297.861 448.477 293.937C447.603 290.385 445.984 288.989 443 287C437.183 285.569 433.392 286.912 430 292ZM257 332C256.302 334.84 256.302 337.16 257 340C258.989 342.984 260.385 344.603 263.938 345.476C267.861 345.759 269.671 345.219 273 343C275.219 339.671 275.759 337.861 275.477 333.937C274.603 330.385 272.984 328.989 270 327C264.183 325.569 260.392 326.912 257 332ZM181 412C180.302 414.84 180.302 417.16 181 420C182.989 422.984 184.385 424.603 187.938 425.476C191.861 425.759 193.671 425.219 197 423C199.219 419.671 199.759 417.861 199.477 413.937C198.603 410.385 196.984 408.989 194 407C188.183 405.569 184.392 406.912 181 412ZM327 412C326.302 414.84 326.302 417.16 327 420C328.989 422.984 330.385 424.603 333.938 425.476C337.861 425.759 339.671 425.219 343 423C345.219 419.671 345.759 417.861 345.477 413.937C344.603 410.385 342.984 408.989 340 407C334.183 405.569 330.392 406.912 327 412Z" fill="black"/>
<path d="M291.718 199.366C292.38 199.358 293.042 199.35 293.725 199.342C295.937 199.322 298.147 199.338 300.359 199.354C301.948 199.347 303.537 199.338 305.125 199.327C309.435 199.304 313.745 199.313 318.055 199.329C322.566 199.342 327.078 199.33 331.589 199.322C339.165 199.313 346.741 199.325 354.316 199.349C363.074 199.376 371.831 199.367 380.589 199.34C388.109 199.317 395.629 199.314 403.15 199.327C407.641 199.335 412.131 199.336 416.622 199.319C420.845 199.305 425.067 199.315 429.289 199.344C430.838 199.35 432.387 199.348 433.936 199.337C436.053 199.324 438.166 199.341 440.282 199.366C441.466 199.367 442.649 199.369 443.869 199.371C447.928 200.187 449.428 201.828 452 205.001C452.664 207.501 452.664 207.501 452.625 210.001C452.638 210.826 452.651 211.651 452.664 212.501C451.696 216.143 449.878 217.617 447 220.001C443.869 220.63 443.869 220.63 440.282 220.635C439.62 220.643 438.958 220.651 438.275 220.659C436.063 220.679 433.853 220.663 431.641 220.647C430.052 220.654 428.463 220.663 426.875 220.674C422.565 220.697 418.255 220.688 413.945 220.672C409.434 220.659 404.922 220.671 400.411 220.679C392.835 220.688 385.259 220.676 377.684 220.652C368.926 220.625 360.169 220.634 351.411 220.662C343.891 220.684 336.371 220.687 328.85 220.674C324.359 220.667 319.869 220.665 315.378 220.682C311.155 220.696 306.933 220.686 302.711 220.658C301.162 220.651 299.613 220.653 298.064 220.664C295.947 220.678 293.834 220.66 291.718 220.635C290.534 220.634 289.351 220.632 288.131 220.63C284.072 219.814 282.572 218.173 280 215.001C279.336 212.501 279.336 212.501 279.375 210.001C279.362 209.176 279.349 208.351 279.336 207.501C281.039 201.088 285.598 199.375 291.718 199.366Z" fill="black"/>
<path d="M291.718 159.366C292.38 159.358 293.042 159.35 293.725 159.342C295.937 159.322 298.147 159.338 300.359 159.354C301.948 159.347 303.537 159.338 305.125 159.327C309.435 159.304 313.745 159.313 318.055 159.329C322.566 159.342 327.078 159.33 331.589 159.322C339.165 159.313 346.741 159.325 354.316 159.349C363.074 159.376 371.831 159.367 380.589 159.34C388.109 159.317 395.629 159.314 403.15 159.327C407.641 159.335 412.131 159.336 416.622 159.319C420.845 159.305 425.067 159.315 429.289 159.344C430.838 159.35 432.387 159.348 433.936 159.337C436.053 159.324 438.166 159.341 440.282 159.366C441.466 159.367 442.649 159.369 443.869 159.371C447.928 160.187 449.428 161.828 452 165.001C452.664 167.501 452.664 167.501 452.625 170.001C452.638 170.826 452.651 171.651 452.664 172.501C451.696 176.143 449.878 177.617 447 180.001C443.869 180.63 443.869 180.63 440.282 180.635C439.62 180.643 438.958 180.651 438.275 180.659C436.063 180.679 433.853 180.663 431.641 180.647C430.052 180.654 428.463 180.663 426.875 180.674C422.565 180.697 418.255 180.688 413.945 180.672C409.434 180.659 404.922 180.671 400.411 180.679C392.835 180.688 385.259 180.676 377.684 180.652C368.926 180.625 360.169 180.634 351.411 180.662C343.891 180.684 336.371 180.687 328.85 180.674C324.359 180.667 319.869 180.665 315.378 180.682C311.155 180.696 306.933 180.686 302.711 180.658C301.162 180.651 299.613 180.653 298.064 180.664C295.947 180.678 293.834 180.66 291.718 180.635C290.534 180.634 289.351 180.632 288.131 180.63C284.072 179.814 282.572 178.173 280 175.001C279.336 172.501 279.336 172.501 279.375 170.001C279.362 169.176 279.349 168.351 279.336 167.501C281.039 161.088 285.598 159.375 291.718 159.366Z" fill="black"/>
<path d="M262.137 99.3549C263.261 99.3461 264.385 99.3374 265.543 99.3283C269.258 99.3063 272.972 99.3209 276.688 99.3378C279.269 99.3344 281.851 99.3296 284.432 99.3233C289.843 99.3159 295.253 99.3262 300.663 99.35C306.912 99.3772 313.161 99.3684 319.41 99.3409C325.429 99.3154 331.448 99.3181 337.467 99.3328C340.025 99.3361 342.583 99.332 345.141 99.3204C348.716 99.3077 352.289 99.327 355.863 99.3549C356.922 99.3448 357.981 99.3346 359.072 99.3242C366.24 99.4278 366.24 99.4278 370.155 102.386C372.152 105.218 372.679 106.573 372.625 110.002C372.644 111.239 372.644 111.239 372.664 112.502C371.651 116.314 370.156 117.617 367 120.002C363.293 120.753 359.635 120.685 355.863 120.649C354.739 120.658 353.615 120.666 352.457 120.675C348.742 120.697 345.028 120.683 341.312 120.666C338.731 120.669 336.149 120.674 333.568 120.68C328.157 120.688 322.747 120.678 317.337 120.654C311.088 120.627 304.839 120.635 298.59 120.663C292.571 120.688 286.552 120.686 280.533 120.671C277.975 120.668 275.417 120.672 272.859 120.683C269.284 120.696 265.711 120.677 262.137 120.649C261.078 120.659 260.019 120.669 258.928 120.68C251.76 120.576 251.76 120.576 247.845 117.618C245.848 114.786 245.321 113.43 245.375 110.002C245.362 109.177 245.349 108.352 245.336 107.502C247.63 98.8658 254.725 99.284 262.137 99.3549Z" fill="black"/>
<path d="M262.137 59.3549C263.261 59.3461 264.385 59.3374 265.543 59.3283C269.258 59.3063 272.972 59.3209 276.688 59.3378C279.269 59.3344 281.851 59.3296 284.432 59.3233C289.843 59.3159 295.253 59.3262 300.663 59.35C306.912 59.3772 313.161 59.3684 319.41 59.3409C325.429 59.3154 331.448 59.3181 337.467 59.3328C340.025 59.3361 342.583 59.332 345.141 59.3204C348.716 59.3077 352.289 59.327 355.863 59.3549C356.922 59.3448 357.981 59.3346 359.072 59.3242C366.24 59.4278 366.24 59.4278 370.155 62.386C372.152 65.2178 372.679 66.5734 372.625 70.0019C372.644 71.2394 372.644 71.2394 372.664 72.5019C371.651 76.3144 370.156 77.6168 367 80.0019C363.293 80.7533 359.635 80.6849 355.863 80.6488C354.739 80.6576 353.615 80.6664 352.457 80.6754C348.742 80.6974 345.028 80.6828 341.312 80.6659C338.731 80.6693 336.149 80.6741 333.568 80.6804C328.157 80.6878 322.747 80.6775 317.337 80.6537C311.088 80.6265 304.839 80.6353 298.59 80.6628C292.571 80.6883 286.552 80.6856 280.533 80.6709C277.975 80.6676 275.417 80.6717 272.859 80.6833C269.284 80.696 265.711 80.6767 262.137 80.6488C261.078 80.659 260.019 80.6691 258.928 80.6795C251.76 80.5759 251.76 80.5759 247.845 77.6177C245.848 74.7859 245.321 73.4304 245.375 70.0019C245.362 69.1769 245.349 68.3519 245.336 67.5019C247.63 58.8658 254.725 59.284 262.137 59.3549Z" fill="black"/>
<path d="M49.9998 159.375C50.8248 159.362 51.6498 159.349 52.4998 159.336C56.1865 160.315 57.6807 162.013 59.9998 165C60.7498 168.312 60.7498 168.312 60.9998 172C61.9183 181.768 64.8371 191.206 70.9998 199C71.4909 199.633 71.982 200.266 72.488 200.918C80.9509 211.287 92.7326 217.29 106.015 218.81C107.903 218.991 109.795 219.122 111.687 219.25C115.87 220.197 117.416 221.619 120 225C120.664 227.5 120.664 227.5 120.625 230C120.644 231.237 120.644 231.237 120.664 232.5C119.676 236.22 118.049 237.695 115 240C112.163 240.522 110.069 240.718 107.25 240.625C106.509 240.61 105.768 240.596 105.005 240.58C86.8926 239.799 71.703 231.66 58.9998 219C58.2895 218.313 57.5792 217.626 56.8474 216.918C45.6166 205.299 39.8064 188.922 39.4373 172.938C39.4103 172.223 39.3833 171.508 39.3555 170.772C39.3841 166.944 39.9047 165.126 42.2224 162.043C45.1596 159.882 46.4136 159.319 49.9998 159.375Z" fill="black"/>
<path d="M255 200.001C258.125 201.876 258.125 201.876 260 205.001C260.989 210.027 260.777 213.706 258.125 218.126C253.705 220.778 250.026 220.99 245 220.001C241.875 218.126 241.875 218.126 240 215.001C239.011 209.975 239.223 206.296 241.875 201.876C246.295 199.224 249.974 199.012 255 200.001Z" fill="black"/>
<path d="M255 160.001C258.125 161.876 258.125 161.876 260 165.001C260.989 170.027 260.777 173.706 258.125 178.126C253.705 180.778 250.026 180.99 245 180.001C241.875 178.126 241.875 178.126 240 175.001C239.011 169.975 239.223 166.296 241.875 161.876C246.295 159.224 249.974 159.012 255 160.001Z" fill="black"/>
</g>
<defs>
<clipPath id="clip0_1239_80">
<rect width="512" height="512" fill="white"/>
</clipPath>
</defs>
</svg>
