<svg width="512" height="512" viewBox="0 0 512 512" fill="none" xmlns="http://www.w3.org/2000/svg">
<path d="M163.776 0.00798114C165.695 0.00927038 167.613 0.00854049 169.532 0.00596273C174.699 0.00466291 179.866 0.0313356 185.034 0.0633168C190.449 0.0919803 195.865 0.0945223 201.28 0.0999233C211.517 0.114057 221.754 0.151429 231.991 0.197305C243.653 0.248426 255.315 0.273403 266.977 0.296266C290.95 0.343844 314.922 0.423989 338.895 0.525808C338.897 1.99041 338.898 3.45501 338.9 4.96399C338.919 18.8206 338.968 32.6768 339.045 46.5332C339.084 53.6556 339.113 60.7777 339.118 67.9002C339.123 74.7841 339.155 81.6674 339.206 88.5511C339.221 91.1669 339.226 93.7827 339.221 96.3985C339.189 117.133 340.755 133.178 355.817 148.685C369.368 161.475 385.812 163.71 403.653 163.828C404.731 163.839 405.808 163.85 406.919 163.862C410.446 163.898 413.972 163.926 417.499 163.954C419.958 163.978 422.418 164.002 424.877 164.026C431.323 164.089 437.77 164.145 444.216 164.2C450.805 164.258 457.393 164.321 463.982 164.384C476.89 164.507 489.798 164.622 502.706 164.734C502.758 202.291 502.799 239.848 502.823 277.405C502.825 281.843 502.828 286.28 502.831 290.718C502.832 292.043 502.832 292.043 502.833 293.395C502.843 307.684 502.861 321.974 502.882 336.264C502.903 350.934 502.916 365.605 502.92 380.276C502.923 389.323 502.933 398.37 502.952 407.417C502.965 414.363 502.967 421.309 502.964 428.255C502.964 431.098 502.969 433.941 502.978 436.785C502.989 440.675 502.986 444.566 502.98 448.456C502.99 450.132 502.99 450.132 503 451.841C502.928 468.735 498.857 483.547 486.994 496.001C474.55 507.493 461.903 511.935 445.137 511.837C443.854 511.844 442.571 511.85 441.25 511.856C436.975 511.872 432.701 511.864 428.426 511.856C425.352 511.861 422.277 511.87 419.202 511.88C411.733 511.899 404.263 511.9 396.793 511.894C390.719 511.89 384.645 511.891 378.571 511.897C377.271 511.899 377.271 511.899 375.946 511.9C374.186 511.902 372.426 511.904 370.666 511.905C354.181 511.921 337.696 511.915 321.211 511.902C306.147 511.89 291.084 511.905 276.02 511.932C260.531 511.96 245.042 511.971 229.553 511.964C220.866 511.96 212.178 511.962 203.491 511.982C196.096 511.999 188.702 512 181.307 511.98C177.538 511.97 173.77 511.97 170.002 511.985C165.907 512 161.812 511.987 157.717 511.967C156.54 511.978 155.362 511.989 154.149 512C139.678 511.854 126.567 505.706 115.788 496.143C107.555 487.504 100.993 474.08 101.005 462.103C101.003 460.897 101.002 459.691 101 458.449C101.004 457.133 101.008 455.816 101.012 454.46C101.012 453.069 101.012 451.678 101.012 450.245C101.013 446.435 101.018 442.626 101.026 438.817C101.033 434.834 101.034 430.851 101.035 426.868C101.039 419.328 101.048 411.788 101.06 404.248C101.072 395.664 101.079 387.079 101.084 378.494C101.096 360.836 101.116 343.179 101.142 325.521C101.936 325.593 102.73 325.666 103.548 325.74C107.217 326.07 110.887 326.386 114.557 326.701C115.806 326.815 117.054 326.93 118.341 327.047C156.137 330.242 195.6 318.109 224.764 293.618C225.638 292.857 226.512 292.095 227.413 291.311C228.829 290.098 228.829 290.098 230.274 288.861C260.268 262.576 278.025 225.292 281.732 185.687C281.848 183.645 281.945 181.602 282.016 179.558C282.062 178.688 282.107 177.818 282.154 176.921C283.314 136.413 267.013 96.7412 239.539 67.4491C209.448 36.2849 170.17 21.2975 127.306 19.9115C122.753 19.8402 118.207 19.8323 113.655 19.9115C126.776 3.04841 143.398 -0.185571 163.776 0.00798114ZM395.624 282.658C392.21 287.988 392.866 294.066 392.91 300.189C392.902 301.535 392.894 302.882 392.886 304.27C392.869 307.951 392.873 311.63 392.888 315.31C392.899 319.17 392.889 323.029 392.881 326.889C392.873 333.369 392.884 339.849 392.906 346.329C392.93 353.81 392.922 361.292 392.897 368.773C392.877 375.208 392.874 381.642 392.886 388.077C392.893 391.915 392.894 395.753 392.879 399.591C392.867 403.872 392.885 408.151 392.91 412.431C392.901 413.697 392.892 414.962 392.882 416.266C392.959 423.258 393.368 427.403 398.049 432.712C403 437.202 407.056 437.997 413.522 437.715C419.002 436.829 422.058 433.816 425.707 429.861C428.58 425.594 428.906 422.011 428.924 416.933C428.93 415.825 428.937 414.717 428.943 413.576C428.945 412.368 428.946 411.16 428.947 409.915C428.953 408.637 428.958 407.359 428.964 406.043C428.981 401.811 428.989 397.58 428.995 393.348C429.001 390.408 429.008 387.468 429.015 384.528C429.025 379.15 429.032 373.771 429.036 368.392C429.041 360.488 429.061 352.584 429.094 344.68C429.121 337.823 429.13 330.966 429.132 324.109C429.135 321.197 429.144 318.285 429.159 315.373C429.179 311.297 429.177 307.222 429.169 303.147C429.18 301.946 429.19 300.745 429.201 299.508C429.159 292.138 428.674 285.968 423.605 280.202C413.739 272.866 404.094 273.051 395.624 282.658ZM252.439 334.644C248.315 339.856 247.317 343.282 247.3 349.9C247.292 350.713 247.284 351.526 247.276 352.364C247.256 355.034 247.269 357.702 247.285 360.372C247.282 362.238 247.277 364.104 247.271 365.97C247.265 369.873 247.274 373.776 247.296 377.679C247.322 382.672 247.307 387.663 247.28 392.656C247.263 396.506 247.268 400.357 247.28 404.207C247.283 406.048 247.279 407.888 247.269 409.728C247.257 412.305 247.275 414.879 247.3 417.456C247.304 418.919 247.307 420.382 247.311 421.89C248.187 427.925 250.992 431.399 255.425 435.421C260.628 437.932 264.964 438.191 270.641 437.274C275.914 434.63 280.722 430.811 282.694 425.021C283.3 421.634 283.317 418.382 283.337 414.94C283.343 414.196 283.349 413.452 283.354 412.685C283.371 410.231 283.379 407.776 283.385 405.322C283.392 403.609 283.398 401.896 283.405 400.183C283.417 396.593 283.423 393.004 283.427 389.414C283.433 384.828 283.461 380.242 283.493 375.657C283.514 372.118 283.52 368.58 283.522 365.041C283.525 363.351 283.534 361.661 283.549 359.972C283.569 357.6 283.567 355.23 283.559 352.859C283.564 351.512 283.568 350.166 283.572 348.78C283.008 343.554 281.532 338.961 277.995 334.938C269.713 328.78 260.707 327.146 252.439 334.644ZM322.82 355.548C319.184 361.217 320.047 368.137 320.09 374.627C320.085 376.069 320.081 377.511 320.076 378.997C320.073 382.041 320.079 385.084 320.101 388.129C320.127 392.017 320.112 395.904 320.084 399.792C320.064 403.52 320.078 407.247 320.09 410.975C320.08 412.365 320.071 413.755 320.062 415.187C320.142 422.485 320.238 427.22 325.244 432.712C330.195 437.202 334.251 437.997 340.717 437.715C346.197 436.829 349.253 433.816 352.902 429.861C355.839 425.499 356.103 421.807 356.142 416.615C356.153 415.454 356.164 414.293 356.175 413.096C356.18 411.848 356.185 410.599 356.19 409.313C356.196 408.022 356.203 406.732 356.21 405.402C356.22 402.671 356.228 399.94 356.232 397.209C356.243 393.042 356.278 388.876 356.314 384.709C356.322 382.054 356.328 379.398 356.332 376.742C356.346 375.501 356.36 374.259 356.375 372.98C356.353 365.418 356.005 359.105 350.8 353.183C340.902 345.824 331.423 346.11 322.82 355.548ZM177.208 392.043C173.569 397.686 174.429 404.583 174.515 411.046C174.498 412.372 174.48 413.698 174.462 415.064C174.495 422.395 174.614 427.201 179.634 432.712C184.584 437.201 188.641 438.002 195.107 437.71C200.892 436.785 203.827 433.797 207.292 429.291C210.626 423.349 210.59 418.003 210.633 411.331C210.657 410.449 210.68 409.567 210.704 408.658C210.749 401.952 210.056 395.031 205.284 389.875C199.833 385.218 196.32 384.411 189.348 384.502C183.783 385.111 180.847 388.048 177.208 392.043Z" fill="black"/>
<path d="M111.662 57.0051C111.668 58.9768 111.668 58.9768 111.675 60.9882C111.717 73.4069 111.783 85.8253 111.871 98.2437C111.916 104.627 111.953 111.011 111.971 117.395C111.988 123.561 112.027 129.728 112.081 135.894C112.098 138.241 112.107 140.587 112.108 142.934C112.111 146.234 112.142 149.533 112.179 152.833C112.173 153.792 112.168 154.751 112.162 155.739C112.313 164.457 115.012 171.737 119.774 179.014C134.061 192.67 151.297 191.601 169.843 191.715C172.046 191.736 174.249 191.758 176.452 191.781C182.21 191.839 187.969 191.885 193.728 191.927C199.62 191.973 205.512 192.031 211.404 192.088C222.936 192.198 234.468 192.294 246 192.381C245.835 194.191 245.665 196 245.493 197.809C245.399 198.817 245.305 199.824 245.208 200.862C242.919 220 231.239 238.626 218.677 252.675C218.149 253.364 217.62 254.053 217.076 254.763C200.667 276.06 171.598 288.312 145.816 292.491C140.397 292.951 135.029 293.035 129.593 292.989C128.154 292.98 126.716 292.972 125.234 292.963C113.762 292.762 103.212 291.512 92.3083 287.941C91.2063 287.584 91.2063 287.584 90.082 287.22C72.2366 281.225 57.7852 271.488 44.4931 258.363C43.2714 257.265 43.2714 257.265 42.025 256.145C23.6865 239.283 11.6138 211.443 10.1379 186.732C9.80641 169.909 9.64859 153.895 14.8932 137.776C15.2501 136.672 15.2501 136.672 15.6142 135.546C21.6142 117.717 31.3604 103.276 44.4931 89.9959C45.2254 89.182 45.9577 88.3681 46.7122 87.5296C61.8356 71.1061 89.085 56.6892 111.662 57.0051Z" fill="black"/>
<path d="M373.142 0C374.772 0.153156 376.4 0.314525 378.029 0.479281C378.936 0.568247 379.843 0.657214 380.777 0.748876C398.184 3.36124 410.834 19.1459 421.828 31.4685C424.48 34.4276 427.171 37.3499 429.857 40.2775C434.485 45.3368 439.071 50.432 443.643 55.5428C446.601 58.8321 449.584 62.0987 452.571 65.3613C457.25 70.4703 461.889 75.6121 466.504 80.779C468.902 83.4408 471.325 86.0772 473.756 88.7078C497.326 114.286 497.326 114.286 500 128.429C485.068 128.536 470.137 128.617 455.205 128.667C448.271 128.691 441.338 128.723 434.405 128.775C427.713 128.825 421.022 128.853 414.331 128.864C411.778 128.873 409.225 128.89 406.673 128.914C403.097 128.948 399.522 128.952 395.945 128.95C394.891 128.967 393.836 128.983 392.749 129C386.393 128.959 382.755 128.107 377.714 123.843C374.165 119.791 372.998 116.355 373.005 111.005C373.003 110.026 373.002 109.047 373 108.038C373.004 106.967 373.008 105.897 373.012 104.794C373.012 103.664 373.012 102.533 373.012 101.369C373.013 97.6277 373.022 93.8864 373.031 90.1451C373.033 87.5534 373.034 84.9617 373.035 82.37C373.04 75.5439 373.051 68.7178 373.064 61.8917C373.075 54.9281 373.081 47.9645 373.086 41.0009C373.099 27.3339 373.118 13.667 373.142 0Z" fill="black"/>
<path d="M146 57C153.42 57.808 159.496 58.764 166.402 61.0833C167.747 61.5324 167.747 61.5324 169.119 61.9906C182.901 66.7555 194.422 73.9545 205.77 82.908C206.653 83.5731 207.536 84.2381 208.446 84.9233C226.293 99.2043 239.423 121.934 244.851 143.736C245.42 149.311 245.42 149.311 246 155C213 155 180 155 146 155C146 122.66 146 90.32 146 57Z" fill="black"/>
</svg>
