<svg width="14" height="14" viewBox="0 0 14 14" fill="none" xmlns="http://www.w3.org/2000/svg">
<path d="M10.6947 4.53989C11.6004 4.53989 12.3347 3.80564 12.3347 2.89989C12.3347 1.99414 11.6004 1.25989 10.6947 1.25989C9.78893 1.25989 9.05469 1.99414 9.05469 2.89989C9.05469 3.80564 9.78893 4.53989 10.6947 4.53989Z" stroke="#292D32" stroke-width="1.5" stroke-miterlimit="10" stroke-linecap="round" stroke-linejoin="round"/>
<path d="M3.30407 4.53989C4.20981 4.53989 4.94406 3.80564 4.94406 2.89989C4.94406 1.99414 4.20981 1.25989 3.30407 1.25989C2.39832 1.25989 1.66406 1.99414 1.66406 2.89989C1.66406 3.80564 2.39832 4.53989 3.30407 4.53989Z" stroke="#292D32" stroke-width="1.5" stroke-miterlimit="10" stroke-linecap="round" stroke-linejoin="round"/>
<path d="M10.6947 12.7398C11.6004 12.7398 12.3347 12.0056 12.3347 11.0998C12.3347 10.1941 11.6004 9.45984 10.6947 9.45984C9.78893 9.45984 9.05469 10.1941 9.05469 11.0998C9.05469 12.0056 9.78893 12.7398 10.6947 12.7398Z" stroke="#292D32" stroke-width="1.5" stroke-miterlimit="10" stroke-linecap="round" stroke-linejoin="round"/>
<path d="M3.30407 12.7398C4.20981 12.7398 4.94406 12.0056 4.94406 11.0998C4.94406 10.1941 4.20981 9.45984 3.30407 9.45984C2.39832 9.45984 1.66406 10.1941 1.66406 11.0998C1.66406 12.0056 2.39832 12.7398 3.30407 12.7398Z" stroke="#292D32" stroke-width="1.5" stroke-miterlimit="10" stroke-linecap="round" stroke-linejoin="round"/>
</svg>
