<svg width="21" height="21" viewBox="0 0 21 21" fill="none" xmlns="http://www.w3.org/2000/svg">
<mask id="path-1-outside-1_3724_4" maskUnits="userSpaceOnUse" x="-0.0195312" y="-0.0204697" width="21" height="21" fill="black">
<rect fill="white" x="-0.0195312" y="-0.0204697" width="21" height="21"/>
<path d="M3.16044 0.98115C3.21592 0.980978 3.2714 0.980742 3.32689 0.980448C3.47803 0.979833 3.62917 0.980133 3.78031 0.980594C3.94383 0.980932 4.10735 0.980411 4.27086 0.980004C4.59067 0.979345 4.91048 0.979485 5.23029 0.979917C5.49032 0.980252 5.75034 0.980297 6.01037 0.980136C6.04745 0.980113 6.08453 0.98009 6.12273 0.980067C6.19807 0.980019 6.27341 0.979971 6.34874 0.979922C7.05435 0.9795 7.75995 0.979985 8.46555 0.980783C9.07035 0.981446 9.67514 0.981331 10.2799 0.980647C10.9831 0.979852 11.6863 0.97954 12.3894 0.979996C12.4645 0.980043 12.5395 0.98009 12.6146 0.980136C12.6515 0.980159 12.6884 0.980181 12.7265 0.980205C12.986 0.980333 13.2456 0.980117 13.5052 0.979768C13.8217 0.97935 14.1382 0.979466 14.4548 0.980255C14.6161 0.980643 14.7775 0.9808 14.9388 0.980307C15.0868 0.979861 15.2347 0.980112 15.3827 0.980897C15.436 0.981062 15.4892 0.980981 15.5425 0.980619C16.1422 0.97685 16.6352 1.13296 17.0776 1.54736C17.4992 1.99743 17.6485 2.49942 17.646 3.10712C17.6462 3.15377 17.6465 3.20042 17.6467 3.24848C17.647 3.37092 17.6466 3.49332 17.646 3.61576C17.6458 3.71582 17.6469 3.81585 17.6479 3.91591C17.6489 4.03596 17.6485 4.15601 17.6483 4.27606C17.6488 4.32067 17.6493 4.36528 17.6498 4.41124C17.646 4.75392 17.646 4.75392 17.5354 4.868C17.3811 4.97348 17.2734 4.97582 17.0911 4.97491C17.0624 4.97492 17.0337 4.97492 17.0041 4.97493C16.911 4.9749 16.8179 4.97462 16.7248 4.97433C16.6674 4.97427 16.61 4.97423 16.5526 4.97421C16.3395 4.97402 16.1264 4.9735 15.9133 4.97302C15.1992 4.97187 15.1992 4.97187 14.4707 4.9707C14.4707 6.01162 14.4707 7.05254 14.4707 8.125C14.9665 8.12242 14.9665 8.12242 15.4723 8.11978C15.7087 8.11893 15.9451 8.11816 16.1815 8.11754C16.4875 8.11672 16.7935 8.11568 17.0995 8.1138C17.3418 8.11232 17.5841 8.11136 17.8265 8.11103C17.9547 8.11084 18.0829 8.11039 18.2111 8.1093C18.3545 8.1081 18.4979 8.10808 18.6414 8.10815C18.7045 8.10735 18.7045 8.10735 18.7688 8.10653C19.1206 8.10835 19.4215 8.18831 19.6834 8.43289C19.9524 8.73208 20.0111 9.03102 20.0099 9.4231C20.0101 9.46425 20.0102 9.50539 20.0104 9.54779C20.0109 9.68572 20.0108 9.82365 20.0108 9.96159C20.011 10.0605 20.0112 10.1593 20.0115 10.2582C20.0121 10.499 20.0123 10.7397 20.0124 10.9805C20.0124 11.1762 20.0126 11.372 20.0128 11.5678C20.0135 12.1231 20.0138 12.6785 20.0137 13.2339C20.0137 13.2788 20.0137 13.2788 20.0137 13.3246C20.0137 13.3545 20.0137 13.3845 20.0137 13.4153C20.0137 13.9008 20.0144 14.3862 20.0154 14.8716C20.0165 15.3704 20.017 15.8692 20.017 16.368C20.0169 16.6479 20.0171 16.9277 20.0179 17.2076C20.0186 17.446 20.0188 17.6843 20.0183 17.9226C20.018 18.0441 20.0181 18.1656 20.0187 18.2871C20.0192 18.4191 20.0189 18.5511 20.0183 18.683C20.0187 18.7211 20.0191 18.7591 20.0195 18.7983C20.0163 19.1367 19.9265 19.4325 19.6921 19.6834C19.4251 19.9234 19.1489 20.0113 18.792 20.0099C18.7606 20.0101 18.7291 20.0103 18.6967 20.0104C18.5916 20.0109 18.4865 20.0108 18.3814 20.0108C18.3059 20.011 18.2304 20.0113 18.155 20.0115C17.9501 20.0122 17.7452 20.0124 17.5404 20.0124C17.4123 20.0125 17.2842 20.0126 17.1561 20.0128C16.7091 20.0135 16.2621 20.0138 15.8151 20.0138C15.3988 20.0137 14.9825 20.0145 14.5662 20.0157C14.2085 20.0166 13.8508 20.017 13.4931 20.017C13.2795 20.017 13.066 20.0172 12.8525 20.018C12.6516 20.0187 12.4507 20.0187 12.2498 20.0181C12.1762 20.0181 12.1026 20.0182 12.0291 20.0187C11.572 20.0213 11.1702 20.0224 10.8166 19.6921C10.5656 19.413 10.4877 19.13 10.4953 18.7615C10.4957 18.7306 10.496 18.6998 10.4964 18.668C10.4972 18.5924 10.4986 18.5169 10.5 18.4414C10.4291 18.4416 10.4291 18.4416 10.3568 18.4417C9.23524 18.4441 8.11371 18.446 6.99218 18.4471C6.85418 18.4472 6.71617 18.4474 6.57817 18.4475C6.53696 18.4476 6.53696 18.4476 6.49491 18.4476C6.0499 18.4481 5.60488 18.449 5.15986 18.45C4.70333 18.451 4.24679 18.4517 3.79025 18.4519C3.50848 18.452 3.22672 18.4525 2.94495 18.4534C2.72899 18.4541 2.51303 18.4541 2.29706 18.454C2.2084 18.454 2.11973 18.4543 2.03106 18.4547C1.91022 18.4552 1.78939 18.4551 1.66855 18.4548C1.63328 18.4551 1.59801 18.4554 1.56168 18.4558C1.38049 18.4545 1.25786 18.4484 1.1113 18.3301C1.09165 18.3157 1.07199 18.3014 1.05174 18.2866C0.972038 18.1821 0.985967 18.0923 0.985862 17.9624C0.985602 17.9229 0.985602 17.9229 0.985338 17.8825C0.984892 17.7935 0.985244 17.7045 0.985588 17.6155C0.985434 17.5513 0.985231 17.4871 0.984983 17.4229C0.984444 17.246 0.984605 17.069 0.984878 16.8921C0.985053 16.7014 0.98459 16.5108 0.984209 16.3202C0.98357 15.9464 0.98354 15.5726 0.983735 15.1988C0.983884 14.8949 0.983831 14.591 0.983632 14.2871C0.983605 14.2439 0.983577 14.2007 0.983548 14.1562C0.983492 14.0684 0.983434 13.9807 0.983377 13.8929C0.982867 13.0689 0.98307 12.2449 0.983495 11.421C0.983864 10.6674 0.983385 9.9139 0.982496 9.16037C0.98159 8.38681 0.981234 7.61324 0.981481 6.83968C0.981611 6.40533 0.981528 5.97098 0.980878 5.53663C0.980331 5.16664 0.980308 4.79665 0.980955 4.42666C0.98127 4.23795 0.981351 4.04926 0.980782 3.86055C0.980267 3.68757 0.980446 3.51461 0.981162 3.34163C0.981301 3.27927 0.981194 3.21691 0.980806 3.15455C0.977191 2.52947 1.10976 2.01454 1.54734 1.54736C2.01691 1.10753 2.52981 0.976854 3.16044 0.98115ZM2.03904 2.26172C1.89099 2.50023 1.81173 2.7089 1.81182 2.99024C1.81177 3.01549 1.81173 3.04074 1.81169 3.06676C1.81159 3.152 1.81175 3.23723 1.81192 3.32246C1.8119 3.38394 1.81187 3.44542 1.81182 3.50689C1.81174 3.67631 1.81189 3.84572 1.81207 4.01513C1.81223 4.19764 1.81218 4.38016 1.81215 4.56267C1.81213 4.87904 1.81225 5.19541 1.81246 5.51179C1.81276 5.96921 1.81286 6.42664 1.8129 6.88406C1.81298 7.62615 1.81323 8.36824 1.81358 9.11033C1.81392 9.83133 1.81418 10.5523 1.81434 11.2733C1.81435 11.3182 1.81436 11.3631 1.81437 11.4093C1.81445 11.7602 1.81452 12.1111 1.81459 12.4621C1.81494 14.183 1.81569 15.904 1.81638 17.625C4.68197 17.625 7.54755 17.625 10.5 17.625C10.5063 14.8084 10.5063 14.8084 10.511 11.9917C10.5127 11.4469 10.5127 11.4469 10.5137 11.1918C10.5143 11.0137 10.5145 10.8356 10.5145 10.6575C10.5145 10.4302 10.5152 10.2029 10.5163 9.97553C10.5167 9.89219 10.5167 9.80884 10.5165 9.7255C10.5163 9.61268 10.5169 9.49991 10.5178 9.38709C10.5175 9.35469 10.5173 9.32228 10.517 9.28889C10.5216 8.95519 10.631 8.65645 10.8711 8.42187C11.1051 8.24792 11.3286 8.15395 11.6237 8.15028C11.6916 8.14917 11.6916 8.14917 11.761 8.14804C11.8335 8.1474 11.8335 8.1474 11.9075 8.14674C11.958 8.14605 12.0084 8.14532 12.0588 8.14457C12.191 8.14267 12.3231 8.14119 12.4552 8.13981C12.5903 8.13832 12.7254 8.13643 12.8605 8.13457C13.1251 8.13098 13.3897 8.12785 13.6543 8.125C13.6542 8.09219 13.6542 8.09219 13.6542 8.05873C13.6533 7.5217 13.6527 6.98468 13.6523 6.44766C13.6522 6.18794 13.6519 5.92822 13.6515 5.6685C13.6511 5.41705 13.6508 5.16561 13.6508 4.91416C13.6507 4.81905 13.6506 4.72394 13.6503 4.62882C13.6494 4.14567 13.6526 3.66318 13.6702 3.1803C13.6722 3.12142 13.6722 3.12142 13.6743 3.06134C13.6918 2.6325 13.7301 2.24647 13.9883 1.89062C13.9883 1.86613 13.9883 1.84164 13.9883 1.81641C12.5621 1.81301 11.136 1.81039 9.7099 1.80883C9.54147 1.80864 9.37305 1.80845 9.20463 1.80825C9.1711 1.80821 9.13757 1.80817 9.10302 1.80813C8.56034 1.80749 8.01766 1.80632 7.47499 1.80495C6.91802 1.80356 6.36105 1.80274 5.80408 1.80244C5.46048 1.80224 5.11689 1.80159 4.7733 1.80039C4.53759 1.7996 4.30187 1.79936 4.06616 1.79956C3.93022 1.79965 3.7943 1.79951 3.65837 1.79871C3.51078 1.79785 3.36321 1.79815 3.21561 1.79855C3.17294 1.79812 3.13027 1.79769 3.08631 1.79724C2.65654 1.80043 2.32316 1.93277 2.03904 2.26172ZM14.7981 2.143C14.5537 2.43768 14.4645 2.75185 14.4671 3.12509C14.4671 3.1512 14.4671 3.17732 14.4672 3.20422C14.4674 3.30135 14.4679 3.39848 14.4684 3.4956C14.4691 3.71297 14.4699 3.93034 14.4707 4.1543C15.2422 4.1543 16.0137 4.1543 16.8086 4.1543C16.8132 3.81676 16.8132 3.81676 16.8178 3.47241C16.8199 3.36705 16.8199 3.36705 16.8219 3.25956C16.8272 2.79609 16.7778 2.46182 16.4483 2.11256C16.1756 1.87698 15.8776 1.80234 15.5254 1.80626C15.2395 1.82911 15.0066 1.94808 14.7981 2.143ZM11.3906 9.05273C11.3237 9.1619 11.3071 9.24361 11.3069 9.37076C11.3067 9.40481 11.3065 9.43886 11.3063 9.47394C11.3064 9.51121 11.3066 9.54848 11.3067 9.58688C11.3065 9.64643 11.3065 9.64643 11.3063 9.70718C11.3059 9.84065 11.306 9.97412 11.3062 10.1076C11.306 10.2031 11.3058 10.2986 11.3056 10.3941C11.3051 10.6269 11.3051 10.8596 11.3052 11.0924C11.3052 11.2816 11.3052 11.4707 11.305 11.6599C11.305 11.6868 11.305 11.7137 11.3049 11.7415C11.3049 11.7961 11.3048 11.8508 11.3048 11.9055C11.3044 12.4183 11.3045 12.9311 11.3047 13.4439C11.3049 13.9131 11.3045 14.3823 11.3038 14.8516C11.3031 15.3333 11.3027 15.815 11.3029 16.2967C11.303 16.5672 11.3029 16.8377 11.3023 17.1081C11.3019 17.3625 11.3019 17.6167 11.3024 17.8711C11.3025 17.9645 11.3024 18.058 11.3021 18.1514C11.3017 18.2787 11.302 18.4061 11.3025 18.5334C11.3021 18.5892 11.3021 18.5892 11.3017 18.6461C11.3025 18.897 11.3025 18.897 11.4277 19.1094C11.5589 19.21 11.7133 19.1941 11.8717 19.1933C11.9017 19.1934 11.9317 19.1936 11.9626 19.1937C12.0633 19.1941 12.1639 19.1939 12.2645 19.1938C12.3367 19.1939 12.4088 19.1941 12.4809 19.1944C12.6769 19.1949 12.8728 19.1949 13.0688 19.1948C13.2323 19.1947 13.3958 19.1949 13.5593 19.1951C13.945 19.1955 14.3307 19.1955 14.7164 19.1953C15.1145 19.1951 15.5126 19.1955 15.9107 19.1963C16.2524 19.197 16.594 19.1972 16.9356 19.1971C17.1397 19.197 17.3438 19.1971 17.548 19.1976C17.7399 19.1981 17.9318 19.198 18.1237 19.1975C18.1942 19.1975 18.2647 19.1976 18.3352 19.1979C18.4313 19.1982 18.5274 19.198 18.6235 19.1975C18.6515 19.1978 18.6794 19.198 18.7082 19.1983C18.8728 19.1966 18.9805 19.1772 19.1094 19.0723C19.1762 18.9631 19.1929 18.8814 19.193 18.7542C19.1932 18.7202 19.1934 18.6861 19.1937 18.6511C19.1935 18.6138 19.1934 18.5765 19.1932 18.5381C19.1934 18.4984 19.1935 18.4587 19.1937 18.4178C19.1941 18.2843 19.1939 18.1509 19.1938 18.0174C19.1939 17.9219 19.1941 17.8264 19.1943 17.7309C19.1948 17.4981 19.1949 17.2654 19.1948 17.0326C19.1947 16.8434 19.1948 16.6543 19.1949 16.4651C19.195 16.4247 19.195 16.4247 19.195 16.3835C19.1951 16.3289 19.1951 16.2742 19.1951 16.2195C19.1956 15.7067 19.1955 15.1939 19.1952 14.6811C19.1951 14.2119 19.1955 13.7427 19.1962 13.2734C19.1969 12.7917 19.1972 12.31 19.1971 11.8283C19.197 11.5578 19.1971 11.2873 19.1976 11.0168C19.1981 10.7625 19.198 10.5082 19.1975 10.2539C19.1974 10.1605 19.1975 10.067 19.1978 9.97359C19.1982 9.84625 19.1979 9.71893 19.1975 9.59159C19.1977 9.55441 19.198 9.51722 19.1983 9.4789C19.1975 9.22795 19.1975 9.22795 19.0722 9.01562C18.941 8.91495 18.7866 8.93094 18.6283 8.93173C18.5983 8.93159 18.5683 8.93145 18.5373 8.9313C18.4367 8.93092 18.3361 8.93107 18.2354 8.93121C18.1633 8.93105 18.0912 8.93086 18.0191 8.93064C17.8231 8.93014 17.6271 8.93012 17.4312 8.93021C17.2676 8.93025 17.1041 8.93007 16.9406 8.92989C16.5549 8.92948 16.1692 8.92947 15.7835 8.92969C15.3854 8.92991 14.9873 8.92946 14.5892 8.92867C14.2476 8.92801 13.906 8.92779 13.5643 8.92791C13.3602 8.92798 13.1561 8.92788 12.952 8.92737C12.7601 8.9269 12.5681 8.92697 12.3762 8.92745C12.3057 8.92754 12.2353 8.92744 12.1648 8.92714C12.0687 8.92675 11.9725 8.92705 11.8764 8.92752C11.8485 8.92724 11.8205 8.92697 11.7917 8.92669C11.6271 8.92839 11.5194 8.94779 11.3906 9.05273Z"/>
</mask>
<path d="M3.16044 0.98115C3.21592 0.980978 3.2714 0.980742 3.32689 0.980448C3.47803 0.979833 3.62917 0.980133 3.78031 0.980594C3.94383 0.980932 4.10735 0.980411 4.27086 0.980004C4.59067 0.979345 4.91048 0.979485 5.23029 0.979917C5.49032 0.980252 5.75034 0.980297 6.01037 0.980136C6.04745 0.980113 6.08453 0.98009 6.12273 0.980067C6.19807 0.980019 6.27341 0.979971 6.34874 0.979922C7.05435 0.9795 7.75995 0.979985 8.46555 0.980783C9.07035 0.981446 9.67514 0.981331 10.2799 0.980647C10.9831 0.979852 11.6863 0.97954 12.3894 0.979996C12.4645 0.980043 12.5395 0.98009 12.6146 0.980136C12.6515 0.980159 12.6884 0.980181 12.7265 0.980205C12.986 0.980333 13.2456 0.980117 13.5052 0.979768C13.8217 0.97935 14.1382 0.979466 14.4548 0.980255C14.6161 0.980643 14.7775 0.9808 14.9388 0.980307C15.0868 0.979861 15.2347 0.980112 15.3827 0.980897C15.436 0.981062 15.4892 0.980981 15.5425 0.980619C16.1422 0.97685 16.6352 1.13296 17.0776 1.54736C17.4992 1.99743 17.6485 2.49942 17.646 3.10712C17.6462 3.15377 17.6465 3.20042 17.6467 3.24848C17.647 3.37092 17.6466 3.49332 17.646 3.61576C17.6458 3.71582 17.6469 3.81585 17.6479 3.91591C17.6489 4.03596 17.6485 4.15601 17.6483 4.27606C17.6488 4.32067 17.6493 4.36528 17.6498 4.41124C17.646 4.75392 17.646 4.75392 17.5354 4.868C17.3811 4.97348 17.2734 4.97582 17.0911 4.97491C17.0624 4.97492 17.0337 4.97492 17.0041 4.97493C16.911 4.9749 16.8179 4.97462 16.7248 4.97433C16.6674 4.97427 16.61 4.97423 16.5526 4.97421C16.3395 4.97402 16.1264 4.9735 15.9133 4.97302C15.1992 4.97187 15.1992 4.97187 14.4707 4.9707C14.4707 6.01162 14.4707 7.05254 14.4707 8.125C14.9665 8.12242 14.9665 8.12242 15.4723 8.11978C15.7087 8.11893 15.9451 8.11816 16.1815 8.11754C16.4875 8.11672 16.7935 8.11568 17.0995 8.1138C17.3418 8.11232 17.5841 8.11136 17.8265 8.11103C17.9547 8.11084 18.0829 8.11039 18.2111 8.1093C18.3545 8.1081 18.4979 8.10808 18.6414 8.10815C18.7045 8.10735 18.7045 8.10735 18.7688 8.10653C19.1206 8.10835 19.4215 8.18831 19.6834 8.43289C19.9524 8.73208 20.0111 9.03102 20.0099 9.4231C20.0101 9.46425 20.0102 9.50539 20.0104 9.54779C20.0109 9.68572 20.0108 9.82365 20.0108 9.96159C20.011 10.0605 20.0112 10.1593 20.0115 10.2582C20.0121 10.499 20.0123 10.7397 20.0124 10.9805C20.0124 11.1762 20.0126 11.372 20.0128 11.5678C20.0135 12.1231 20.0138 12.6785 20.0137 13.2339C20.0137 13.2788 20.0137 13.2788 20.0137 13.3246C20.0137 13.3545 20.0137 13.3845 20.0137 13.4153C20.0137 13.9008 20.0144 14.3862 20.0154 14.8716C20.0165 15.3704 20.017 15.8692 20.017 16.368C20.0169 16.6479 20.0171 16.9277 20.0179 17.2076C20.0186 17.446 20.0188 17.6843 20.0183 17.9226C20.018 18.0441 20.0181 18.1656 20.0187 18.2871C20.0192 18.4191 20.0189 18.5511 20.0183 18.683C20.0187 18.7211 20.0191 18.7591 20.0195 18.7983C20.0163 19.1367 19.9265 19.4325 19.6921 19.6834C19.4251 19.9234 19.1489 20.0113 18.792 20.0099C18.7606 20.0101 18.7291 20.0103 18.6967 20.0104C18.5916 20.0109 18.4865 20.0108 18.3814 20.0108C18.3059 20.011 18.2304 20.0113 18.155 20.0115C17.9501 20.0122 17.7452 20.0124 17.5404 20.0124C17.4123 20.0125 17.2842 20.0126 17.1561 20.0128C16.7091 20.0135 16.2621 20.0138 15.8151 20.0138C15.3988 20.0137 14.9825 20.0145 14.5662 20.0157C14.2085 20.0166 13.8508 20.017 13.4931 20.017C13.2795 20.017 13.066 20.0172 12.8525 20.018C12.6516 20.0187 12.4507 20.0187 12.2498 20.0181C12.1762 20.0181 12.1026 20.0182 12.0291 20.0187C11.572 20.0213 11.1702 20.0224 10.8166 19.6921C10.5656 19.413 10.4877 19.13 10.4953 18.7615C10.4957 18.7306 10.496 18.6998 10.4964 18.668C10.4972 18.5924 10.4986 18.5169 10.5 18.4414C10.4291 18.4416 10.4291 18.4416 10.3568 18.4417C9.23524 18.4441 8.11371 18.446 6.99218 18.4471C6.85418 18.4472 6.71617 18.4474 6.57817 18.4475C6.53696 18.4476 6.53696 18.4476 6.49491 18.4476C6.0499 18.4481 5.60488 18.449 5.15986 18.45C4.70333 18.451 4.24679 18.4517 3.79025 18.4519C3.50848 18.452 3.22672 18.4525 2.94495 18.4534C2.72899 18.4541 2.51303 18.4541 2.29706 18.454C2.2084 18.454 2.11973 18.4543 2.03106 18.4547C1.91022 18.4552 1.78939 18.4551 1.66855 18.4548C1.63328 18.4551 1.59801 18.4554 1.56168 18.4558C1.38049 18.4545 1.25786 18.4484 1.1113 18.3301C1.09165 18.3157 1.07199 18.3014 1.05174 18.2866C0.972038 18.1821 0.985967 18.0923 0.985862 17.9624C0.985602 17.9229 0.985602 17.9229 0.985338 17.8825C0.984892 17.7935 0.985244 17.7045 0.985588 17.6155C0.985434 17.5513 0.985231 17.4871 0.984983 17.4229C0.984444 17.246 0.984605 17.069 0.984878 16.8921C0.985053 16.7014 0.98459 16.5108 0.984209 16.3202C0.98357 15.9464 0.98354 15.5726 0.983735 15.1988C0.983884 14.8949 0.983831 14.591 0.983632 14.2871C0.983605 14.2439 0.983577 14.2007 0.983548 14.1562C0.983492 14.0684 0.983434 13.9807 0.983377 13.8929C0.982867 13.0689 0.98307 12.2449 0.983495 11.421C0.983864 10.6674 0.983385 9.9139 0.982496 9.16037C0.98159 8.38681 0.981234 7.61324 0.981481 6.83968C0.981611 6.40533 0.981528 5.97098 0.980878 5.53663C0.980331 5.16664 0.980308 4.79665 0.980955 4.42666C0.98127 4.23795 0.981351 4.04926 0.980782 3.86055C0.980267 3.68757 0.980446 3.51461 0.981162 3.34163C0.981301 3.27927 0.981194 3.21691 0.980806 3.15455C0.977191 2.52947 1.10976 2.01454 1.54734 1.54736C2.01691 1.10753 2.52981 0.976854 3.16044 0.98115ZM2.03904 2.26172C1.89099 2.50023 1.81173 2.7089 1.81182 2.99024C1.81177 3.01549 1.81173 3.04074 1.81169 3.06676C1.81159 3.152 1.81175 3.23723 1.81192 3.32246C1.8119 3.38394 1.81187 3.44542 1.81182 3.50689C1.81174 3.67631 1.81189 3.84572 1.81207 4.01513C1.81223 4.19764 1.81218 4.38016 1.81215 4.56267C1.81213 4.87904 1.81225 5.19541 1.81246 5.51179C1.81276 5.96921 1.81286 6.42664 1.8129 6.88406C1.81298 7.62615 1.81323 8.36824 1.81358 9.11033C1.81392 9.83133 1.81418 10.5523 1.81434 11.2733C1.81435 11.3182 1.81436 11.3631 1.81437 11.4093C1.81445 11.7602 1.81452 12.1111 1.81459 12.4621C1.81494 14.183 1.81569 15.904 1.81638 17.625C4.68197 17.625 7.54755 17.625 10.5 17.625C10.5063 14.8084 10.5063 14.8084 10.511 11.9917C10.5127 11.4469 10.5127 11.4469 10.5137 11.1918C10.5143 11.0137 10.5145 10.8356 10.5145 10.6575C10.5145 10.4302 10.5152 10.2029 10.5163 9.97553C10.5167 9.89219 10.5167 9.80884 10.5165 9.7255C10.5163 9.61268 10.5169 9.49991 10.5178 9.38709C10.5175 9.35469 10.5173 9.32228 10.517 9.28889C10.5216 8.95519 10.631 8.65645 10.8711 8.42187C11.1051 8.24792 11.3286 8.15395 11.6237 8.15028C11.6916 8.14917 11.6916 8.14917 11.761 8.14804C11.8335 8.1474 11.8335 8.1474 11.9075 8.14674C11.958 8.14605 12.0084 8.14532 12.0588 8.14457C12.191 8.14267 12.3231 8.14119 12.4552 8.13981C12.5903 8.13832 12.7254 8.13643 12.8605 8.13457C13.1251 8.13098 13.3897 8.12785 13.6543 8.125C13.6542 8.09219 13.6542 8.09219 13.6542 8.05873C13.6533 7.5217 13.6527 6.98468 13.6523 6.44766C13.6522 6.18794 13.6519 5.92822 13.6515 5.6685C13.6511 5.41705 13.6508 5.16561 13.6508 4.91416C13.6507 4.81905 13.6506 4.72394 13.6503 4.62882C13.6494 4.14567 13.6526 3.66318 13.6702 3.1803C13.6722 3.12142 13.6722 3.12142 13.6743 3.06134C13.6918 2.6325 13.7301 2.24647 13.9883 1.89062C13.9883 1.86613 13.9883 1.84164 13.9883 1.81641C12.5621 1.81301 11.136 1.81039 9.7099 1.80883C9.54147 1.80864 9.37305 1.80845 9.20463 1.80825C9.1711 1.80821 9.13757 1.80817 9.10302 1.80813C8.56034 1.80749 8.01766 1.80632 7.47499 1.80495C6.91802 1.80356 6.36105 1.80274 5.80408 1.80244C5.46048 1.80224 5.11689 1.80159 4.7733 1.80039C4.53759 1.7996 4.30187 1.79936 4.06616 1.79956C3.93022 1.79965 3.7943 1.79951 3.65837 1.79871C3.51078 1.79785 3.36321 1.79815 3.21561 1.79855C3.17294 1.79812 3.13027 1.79769 3.08631 1.79724C2.65654 1.80043 2.32316 1.93277 2.03904 2.26172ZM14.7981 2.143C14.5537 2.43768 14.4645 2.75185 14.4671 3.12509C14.4671 3.1512 14.4671 3.17732 14.4672 3.20422C14.4674 3.30135 14.4679 3.39848 14.4684 3.4956C14.4691 3.71297 14.4699 3.93034 14.4707 4.1543C15.2422 4.1543 16.0137 4.1543 16.8086 4.1543C16.8132 3.81676 16.8132 3.81676 16.8178 3.47241C16.8199 3.36705 16.8199 3.36705 16.8219 3.25956C16.8272 2.79609 16.7778 2.46182 16.4483 2.11256C16.1756 1.87698 15.8776 1.80234 15.5254 1.80626C15.2395 1.82911 15.0066 1.94808 14.7981 2.143ZM11.3906 9.05273C11.3237 9.1619 11.3071 9.24361 11.3069 9.37076C11.3067 9.40481 11.3065 9.43886 11.3063 9.47394C11.3064 9.51121 11.3066 9.54848 11.3067 9.58688C11.3065 9.64643 11.3065 9.64643 11.3063 9.70718C11.3059 9.84065 11.306 9.97412 11.3062 10.1076C11.306 10.2031 11.3058 10.2986 11.3056 10.3941C11.3051 10.6269 11.3051 10.8596 11.3052 11.0924C11.3052 11.2816 11.3052 11.4707 11.305 11.6599C11.305 11.6868 11.305 11.7137 11.3049 11.7415C11.3049 11.7961 11.3048 11.8508 11.3048 11.9055C11.3044 12.4183 11.3045 12.9311 11.3047 13.4439C11.3049 13.9131 11.3045 14.3823 11.3038 14.8516C11.3031 15.3333 11.3027 15.815 11.3029 16.2967C11.303 16.5672 11.3029 16.8377 11.3023 17.1081C11.3019 17.3625 11.3019 17.6167 11.3024 17.8711C11.3025 17.9645 11.3024 18.058 11.3021 18.1514C11.3017 18.2787 11.302 18.4061 11.3025 18.5334C11.3021 18.5892 11.3021 18.5892 11.3017 18.6461C11.3025 18.897 11.3025 18.897 11.4277 19.1094C11.5589 19.21 11.7133 19.1941 11.8717 19.1933C11.9017 19.1934 11.9317 19.1936 11.9626 19.1937C12.0633 19.1941 12.1639 19.1939 12.2645 19.1938C12.3367 19.1939 12.4088 19.1941 12.4809 19.1944C12.6769 19.1949 12.8728 19.1949 13.0688 19.1948C13.2323 19.1947 13.3958 19.1949 13.5593 19.1951C13.945 19.1955 14.3307 19.1955 14.7164 19.1953C15.1145 19.1951 15.5126 19.1955 15.9107 19.1963C16.2524 19.197 16.594 19.1972 16.9356 19.1971C17.1397 19.197 17.3438 19.1971 17.548 19.1976C17.7399 19.1981 17.9318 19.198 18.1237 19.1975C18.1942 19.1975 18.2647 19.1976 18.3352 19.1979C18.4313 19.1982 18.5274 19.198 18.6235 19.1975C18.6515 19.1978 18.6794 19.198 18.7082 19.1983C18.8728 19.1966 18.9805 19.1772 19.1094 19.0723C19.1762 18.9631 19.1929 18.8814 19.193 18.7542C19.1932 18.7202 19.1934 18.6861 19.1937 18.6511C19.1935 18.6138 19.1934 18.5765 19.1932 18.5381C19.1934 18.4984 19.1935 18.4587 19.1937 18.4178C19.1941 18.2843 19.1939 18.1509 19.1938 18.0174C19.1939 17.9219 19.1941 17.8264 19.1943 17.7309C19.1948 17.4981 19.1949 17.2654 19.1948 17.0326C19.1947 16.8434 19.1948 16.6543 19.1949 16.4651C19.195 16.4247 19.195 16.4247 19.195 16.3835C19.1951 16.3289 19.1951 16.2742 19.1951 16.2195C19.1956 15.7067 19.1955 15.1939 19.1952 14.6811C19.1951 14.2119 19.1955 13.7427 19.1962 13.2734C19.1969 12.7917 19.1972 12.31 19.1971 11.8283C19.197 11.5578 19.1971 11.2873 19.1976 11.0168C19.1981 10.7625 19.198 10.5082 19.1975 10.2539C19.1974 10.1605 19.1975 10.067 19.1978 9.97359C19.1982 9.84625 19.1979 9.71893 19.1975 9.59159C19.1977 9.55441 19.198 9.51722 19.1983 9.4789C19.1975 9.22795 19.1975 9.22795 19.0722 9.01562C18.941 8.91495 18.7866 8.93094 18.6283 8.93173C18.5983 8.93159 18.5683 8.93145 18.5373 8.9313C18.4367 8.93092 18.3361 8.93107 18.2354 8.93121C18.1633 8.93105 18.0912 8.93086 18.0191 8.93064C17.8231 8.93014 17.6271 8.93012 17.4312 8.93021C17.2676 8.93025 17.1041 8.93007 16.9406 8.92989C16.5549 8.92948 16.1692 8.92947 15.7835 8.92969C15.3854 8.92991 14.9873 8.92946 14.5892 8.92867C14.2476 8.92801 13.906 8.92779 13.5643 8.92791C13.3602 8.92798 13.1561 8.92788 12.952 8.92737C12.7601 8.9269 12.5681 8.92697 12.3762 8.92745C12.3057 8.92754 12.2353 8.92744 12.1648 8.92714C12.0687 8.92675 11.9725 8.92705 11.8764 8.92752C11.8485 8.92724 11.8205 8.92697 11.7917 8.92669C11.6271 8.92839 11.5194 8.94779 11.3906 9.05273Z" fill="black"/>
<path d="M3.16044 0.98115C3.21592 0.980978 3.2714 0.980742 3.32689 0.980448C3.47803 0.979833 3.62917 0.980133 3.78031 0.980594C3.94383 0.980932 4.10735 0.980411 4.27086 0.980004C4.59067 0.979345 4.91048 0.979485 5.23029 0.979917C5.49032 0.980252 5.75034 0.980297 6.01037 0.980136C6.04745 0.980113 6.08453 0.98009 6.12273 0.980067C6.19807 0.980019 6.27341 0.979971 6.34874 0.979922C7.05435 0.9795 7.75995 0.979985 8.46555 0.980783C9.07035 0.981446 9.67514 0.981331 10.2799 0.980647C10.9831 0.979852 11.6863 0.97954 12.3894 0.979996C12.4645 0.980043 12.5395 0.98009 12.6146 0.980136C12.6515 0.980159 12.6884 0.980181 12.7265 0.980205C12.986 0.980333 13.2456 0.980117 13.5052 0.979768C13.8217 0.97935 14.1382 0.979466 14.4548 0.980255C14.6161 0.980643 14.7775 0.9808 14.9388 0.980307C15.0868 0.979861 15.2347 0.980112 15.3827 0.980897C15.436 0.981062 15.4892 0.980981 15.5425 0.980619C16.1422 0.97685 16.6352 1.13296 17.0776 1.54736C17.4992 1.99743 17.6485 2.49942 17.646 3.10712C17.6462 3.15377 17.6465 3.20042 17.6467 3.24848C17.647 3.37092 17.6466 3.49332 17.646 3.61576C17.6458 3.71582 17.6469 3.81585 17.6479 3.91591C17.6489 4.03596 17.6485 4.15601 17.6483 4.27606C17.6488 4.32067 17.6493 4.36528 17.6498 4.41124C17.646 4.75392 17.646 4.75392 17.5354 4.868C17.3811 4.97348 17.2734 4.97582 17.0911 4.97491C17.0624 4.97492 17.0337 4.97492 17.0041 4.97493C16.911 4.9749 16.8179 4.97462 16.7248 4.97433C16.6674 4.97427 16.61 4.97423 16.5526 4.97421C16.3395 4.97402 16.1264 4.9735 15.9133 4.97302C15.1992 4.97187 15.1992 4.97187 14.4707 4.9707C14.4707 6.01162 14.4707 7.05254 14.4707 8.125C14.9665 8.12242 14.9665 8.12242 15.4723 8.11978C15.7087 8.11893 15.9451 8.11816 16.1815 8.11754C16.4875 8.11672 16.7935 8.11568 17.0995 8.1138C17.3418 8.11232 17.5841 8.11136 17.8265 8.11103C17.9547 8.11084 18.0829 8.11039 18.2111 8.1093C18.3545 8.1081 18.4979 8.10808 18.6414 8.10815C18.7045 8.10735 18.7045 8.10735 18.7688 8.10653C19.1206 8.10835 19.4215 8.18831 19.6834 8.43289C19.9524 8.73208 20.0111 9.03102 20.0099 9.4231C20.0101 9.46425 20.0102 9.50539 20.0104 9.54779C20.0109 9.68572 20.0108 9.82365 20.0108 9.96159C20.011 10.0605 20.0112 10.1593 20.0115 10.2582C20.0121 10.499 20.0123 10.7397 20.0124 10.9805C20.0124 11.1762 20.0126 11.372 20.0128 11.5678C20.0135 12.1231 20.0138 12.6785 20.0137 13.2339C20.0137 13.2788 20.0137 13.2788 20.0137 13.3246C20.0137 13.3545 20.0137 13.3845 20.0137 13.4153C20.0137 13.9008 20.0144 14.3862 20.0154 14.8716C20.0165 15.3704 20.017 15.8692 20.017 16.368C20.0169 16.6479 20.0171 16.9277 20.0179 17.2076C20.0186 17.446 20.0188 17.6843 20.0183 17.9226C20.018 18.0441 20.0181 18.1656 20.0187 18.2871C20.0192 18.4191 20.0189 18.5511 20.0183 18.683C20.0187 18.7211 20.0191 18.7591 20.0195 18.7983C20.0163 19.1367 19.9265 19.4325 19.6921 19.6834C19.4251 19.9234 19.1489 20.0113 18.792 20.0099C18.7606 20.0101 18.7291 20.0103 18.6967 20.0104C18.5916 20.0109 18.4865 20.0108 18.3814 20.0108C18.3059 20.011 18.2304 20.0113 18.155 20.0115C17.9501 20.0122 17.7452 20.0124 17.5404 20.0124C17.4123 20.0125 17.2842 20.0126 17.1561 20.0128C16.7091 20.0135 16.2621 20.0138 15.8151 20.0138C15.3988 20.0137 14.9825 20.0145 14.5662 20.0157C14.2085 20.0166 13.8508 20.017 13.4931 20.017C13.2795 20.017 13.066 20.0172 12.8525 20.018C12.6516 20.0187 12.4507 20.0187 12.2498 20.0181C12.1762 20.0181 12.1026 20.0182 12.0291 20.0187C11.572 20.0213 11.1702 20.0224 10.8166 19.6921C10.5656 19.413 10.4877 19.13 10.4953 18.7615C10.4957 18.7306 10.496 18.6998 10.4964 18.668C10.4972 18.5924 10.4986 18.5169 10.5 18.4414C10.4291 18.4416 10.4291 18.4416 10.3568 18.4417C9.23524 18.4441 8.11371 18.446 6.99218 18.4471C6.85418 18.4472 6.71617 18.4474 6.57817 18.4475C6.53696 18.4476 6.53696 18.4476 6.49491 18.4476C6.0499 18.4481 5.60488 18.449 5.15986 18.45C4.70333 18.451 4.24679 18.4517 3.79025 18.4519C3.50848 18.452 3.22672 18.4525 2.94495 18.4534C2.72899 18.4541 2.51303 18.4541 2.29706 18.454C2.2084 18.454 2.11973 18.4543 2.03106 18.4547C1.91022 18.4552 1.78939 18.4551 1.66855 18.4548C1.63328 18.4551 1.59801 18.4554 1.56168 18.4558C1.38049 18.4545 1.25786 18.4484 1.1113 18.3301C1.09165 18.3157 1.07199 18.3014 1.05174 18.2866C0.972038 18.1821 0.985967 18.0923 0.985862 17.9624C0.985602 17.9229 0.985602 17.9229 0.985338 17.8825C0.984892 17.7935 0.985244 17.7045 0.985588 17.6155C0.985434 17.5513 0.985231 17.4871 0.984983 17.4229C0.984444 17.246 0.984605 17.069 0.984878 16.8921C0.985053 16.7014 0.98459 16.5108 0.984209 16.3202C0.98357 15.9464 0.98354 15.5726 0.983735 15.1988C0.983884 14.8949 0.983831 14.591 0.983632 14.2871C0.983605 14.2439 0.983577 14.2007 0.983548 14.1562C0.983492 14.0684 0.983434 13.9807 0.983377 13.8929C0.982867 13.0689 0.98307 12.2449 0.983495 11.421C0.983864 10.6674 0.983385 9.9139 0.982496 9.16037C0.98159 8.38681 0.981234 7.61324 0.981481 6.83968C0.981611 6.40533 0.981528 5.97098 0.980878 5.53663C0.980331 5.16664 0.980308 4.79665 0.980955 4.42666C0.98127 4.23795 0.981351 4.04926 0.980782 3.86055C0.980267 3.68757 0.980446 3.51461 0.981162 3.34163C0.981301 3.27927 0.981194 3.21691 0.980806 3.15455C0.977191 2.52947 1.10976 2.01454 1.54734 1.54736C2.01691 1.10753 2.52981 0.976854 3.16044 0.98115ZM2.03904 2.26172C1.89099 2.50023 1.81173 2.7089 1.81182 2.99024C1.81177 3.01549 1.81173 3.04074 1.81169 3.06676C1.81159 3.152 1.81175 3.23723 1.81192 3.32246C1.8119 3.38394 1.81187 3.44542 1.81182 3.50689C1.81174 3.67631 1.81189 3.84572 1.81207 4.01513C1.81223 4.19764 1.81218 4.38016 1.81215 4.56267C1.81213 4.87904 1.81225 5.19541 1.81246 5.51179C1.81276 5.96921 1.81286 6.42664 1.8129 6.88406C1.81298 7.62615 1.81323 8.36824 1.81358 9.11033C1.81392 9.83133 1.81418 10.5523 1.81434 11.2733C1.81435 11.3182 1.81436 11.3631 1.81437 11.4093C1.81445 11.7602 1.81452 12.1111 1.81459 12.4621C1.81494 14.183 1.81569 15.904 1.81638 17.625C4.68197 17.625 7.54755 17.625 10.5 17.625C10.5063 14.8084 10.5063 14.8084 10.511 11.9917C10.5127 11.4469 10.5127 11.4469 10.5137 11.1918C10.5143 11.0137 10.5145 10.8356 10.5145 10.6575C10.5145 10.4302 10.5152 10.2029 10.5163 9.97553C10.5167 9.89219 10.5167 9.80884 10.5165 9.7255C10.5163 9.61268 10.5169 9.49991 10.5178 9.38709C10.5175 9.35469 10.5173 9.32228 10.517 9.28889C10.5216 8.95519 10.631 8.65645 10.8711 8.42187C11.1051 8.24792 11.3286 8.15395 11.6237 8.15028C11.6916 8.14917 11.6916 8.14917 11.761 8.14804C11.8335 8.1474 11.8335 8.1474 11.9075 8.14674C11.958 8.14605 12.0084 8.14532 12.0588 8.14457C12.191 8.14267 12.3231 8.14119 12.4552 8.13981C12.5903 8.13832 12.7254 8.13643 12.8605 8.13457C13.1251 8.13098 13.3897 8.12785 13.6543 8.125C13.6542 8.09219 13.6542 8.09219 13.6542 8.05873C13.6533 7.5217 13.6527 6.98468 13.6523 6.44766C13.6522 6.18794 13.6519 5.92822 13.6515 5.6685C13.6511 5.41705 13.6508 5.16561 13.6508 4.91416C13.6507 4.81905 13.6506 4.72394 13.6503 4.62882C13.6494 4.14567 13.6526 3.66318 13.6702 3.1803C13.6722 3.12142 13.6722 3.12142 13.6743 3.06134C13.6918 2.6325 13.7301 2.24647 13.9883 1.89062C13.9883 1.86613 13.9883 1.84164 13.9883 1.81641C12.5621 1.81301 11.136 1.81039 9.7099 1.80883C9.54147 1.80864 9.37305 1.80845 9.20463 1.80825C9.1711 1.80821 9.13757 1.80817 9.10302 1.80813C8.56034 1.80749 8.01766 1.80632 7.47499 1.80495C6.91802 1.80356 6.36105 1.80274 5.80408 1.80244C5.46048 1.80224 5.11689 1.80159 4.7733 1.80039C4.53759 1.7996 4.30187 1.79936 4.06616 1.79956C3.93022 1.79965 3.7943 1.79951 3.65837 1.79871C3.51078 1.79785 3.36321 1.79815 3.21561 1.79855C3.17294 1.79812 3.13027 1.79769 3.08631 1.79724C2.65654 1.80043 2.32316 1.93277 2.03904 2.26172ZM14.7981 2.143C14.5537 2.43768 14.4645 2.75185 14.4671 3.12509C14.4671 3.1512 14.4671 3.17732 14.4672 3.20422C14.4674 3.30135 14.4679 3.39848 14.4684 3.4956C14.4691 3.71297 14.4699 3.93034 14.4707 4.1543C15.2422 4.1543 16.0137 4.1543 16.8086 4.1543C16.8132 3.81676 16.8132 3.81676 16.8178 3.47241C16.8199 3.36705 16.8199 3.36705 16.8219 3.25956C16.8272 2.79609 16.7778 2.46182 16.4483 2.11256C16.1756 1.87698 15.8776 1.80234 15.5254 1.80626C15.2395 1.82911 15.0066 1.94808 14.7981 2.143ZM11.3906 9.05273C11.3237 9.1619 11.3071 9.24361 11.3069 9.37076C11.3067 9.40481 11.3065 9.43886 11.3063 9.47394C11.3064 9.51121 11.3066 9.54848 11.3067 9.58688C11.3065 9.64643 11.3065 9.64643 11.3063 9.70718C11.3059 9.84065 11.306 9.97412 11.3062 10.1076C11.306 10.2031 11.3058 10.2986 11.3056 10.3941C11.3051 10.6269 11.3051 10.8596 11.3052 11.0924C11.3052 11.2816 11.3052 11.4707 11.305 11.6599C11.305 11.6868 11.305 11.7137 11.3049 11.7415C11.3049 11.7961 11.3048 11.8508 11.3048 11.9055C11.3044 12.4183 11.3045 12.9311 11.3047 13.4439C11.3049 13.9131 11.3045 14.3823 11.3038 14.8516C11.3031 15.3333 11.3027 15.815 11.3029 16.2967C11.303 16.5672 11.3029 16.8377 11.3023 17.1081C11.3019 17.3625 11.3019 17.6167 11.3024 17.8711C11.3025 17.9645 11.3024 18.058 11.3021 18.1514C11.3017 18.2787 11.302 18.4061 11.3025 18.5334C11.3021 18.5892 11.3021 18.5892 11.3017 18.6461C11.3025 18.897 11.3025 18.897 11.4277 19.1094C11.5589 19.21 11.7133 19.1941 11.8717 19.1933C11.9017 19.1934 11.9317 19.1936 11.9626 19.1937C12.0633 19.1941 12.1639 19.1939 12.2645 19.1938C12.3367 19.1939 12.4088 19.1941 12.4809 19.1944C12.6769 19.1949 12.8728 19.1949 13.0688 19.1948C13.2323 19.1947 13.3958 19.1949 13.5593 19.1951C13.945 19.1955 14.3307 19.1955 14.7164 19.1953C15.1145 19.1951 15.5126 19.1955 15.9107 19.1963C16.2524 19.197 16.594 19.1972 16.9356 19.1971C17.1397 19.197 17.3438 19.1971 17.548 19.1976C17.7399 19.1981 17.9318 19.198 18.1237 19.1975C18.1942 19.1975 18.2647 19.1976 18.3352 19.1979C18.4313 19.1982 18.5274 19.198 18.6235 19.1975C18.6515 19.1978 18.6794 19.198 18.7082 19.1983C18.8728 19.1966 18.9805 19.1772 19.1094 19.0723C19.1762 18.9631 19.1929 18.8814 19.193 18.7542C19.1932 18.7202 19.1934 18.6861 19.1937 18.6511C19.1935 18.6138 19.1934 18.5765 19.1932 18.5381C19.1934 18.4984 19.1935 18.4587 19.1937 18.4178C19.1941 18.2843 19.1939 18.1509 19.1938 18.0174C19.1939 17.9219 19.1941 17.8264 19.1943 17.7309C19.1948 17.4981 19.1949 17.2654 19.1948 17.0326C19.1947 16.8434 19.1948 16.6543 19.1949 16.4651C19.195 16.4247 19.195 16.4247 19.195 16.3835C19.1951 16.3289 19.1951 16.2742 19.1951 16.2195C19.1956 15.7067 19.1955 15.1939 19.1952 14.6811C19.1951 14.2119 19.1955 13.7427 19.1962 13.2734C19.1969 12.7917 19.1972 12.31 19.1971 11.8283C19.197 11.5578 19.1971 11.2873 19.1976 11.0168C19.1981 10.7625 19.198 10.5082 19.1975 10.2539C19.1974 10.1605 19.1975 10.067 19.1978 9.97359C19.1982 9.84625 19.1979 9.71893 19.1975 9.59159C19.1977 9.55441 19.198 9.51722 19.1983 9.4789C19.1975 9.22795 19.1975 9.22795 19.0722 9.01562C18.941 8.91495 18.7866 8.93094 18.6283 8.93173C18.5983 8.93159 18.5683 8.93145 18.5373 8.9313C18.4367 8.93092 18.3361 8.93107 18.2354 8.93121C18.1633 8.93105 18.0912 8.93086 18.0191 8.93064C17.8231 8.93014 17.6271 8.93012 17.4312 8.93021C17.2676 8.93025 17.1041 8.93007 16.9406 8.92989C16.5549 8.92948 16.1692 8.92947 15.7835 8.92969C15.3854 8.92991 14.9873 8.92946 14.5892 8.92867C14.2476 8.92801 13.906 8.92779 13.5643 8.92791C13.3602 8.92798 13.1561 8.92788 12.952 8.92737C12.7601 8.9269 12.5681 8.92697 12.3762 8.92745C12.3057 8.92754 12.2353 8.92744 12.1648 8.92714C12.0687 8.92675 11.9725 8.92705 11.8764 8.92752C11.8485 8.92724 11.8205 8.92697 11.7917 8.92669C11.6271 8.92839 11.5194 8.94779 11.3906 9.05273Z" stroke="black" stroke-width="0.4" mask="url(#path-1-outside-1_3724_4)"/>
<path d="M12.5916 9.67367C12.6402 9.67335 12.6888 9.67304 12.7389 9.67271C12.7926 9.67274 12.8464 9.67277 12.9002 9.67281C12.9569 9.67259 13.0136 9.67234 13.0703 9.67206C13.2243 9.6714 13.3782 9.67123 13.5322 9.67118C13.6284 9.67113 13.7246 9.67097 13.8208 9.67077C14.1565 9.67009 14.4921 9.66978 14.8278 9.66984C15.1406 9.66989 15.4534 9.6691 15.7663 9.66793C16.0349 9.66696 16.3035 9.66656 16.5722 9.66661C16.7326 9.66663 16.893 9.66642 17.0534 9.66563C17.2043 9.66491 17.3552 9.66491 17.5061 9.66545C17.5614 9.66552 17.6167 9.66535 17.6721 9.6649C17.7477 9.66433 17.8233 9.66476 17.899 9.66524C17.9624 9.66518 17.9624 9.66518 18.0271 9.66512C18.1909 9.6909 18.3136 9.76495 18.4175 9.89511C18.4556 10.0311 18.4523 10.1671 18.4522 10.3072C18.4524 10.3402 18.4527 10.3731 18.4529 10.4071C18.4537 10.516 18.4538 10.625 18.4539 10.734C18.4541 10.8098 18.4544 10.8856 18.4546 10.9614C18.4551 11.1203 18.4552 11.2792 18.4552 11.4381C18.4552 11.6416 18.4562 11.845 18.4574 12.0485C18.4583 12.2051 18.4584 12.3617 18.4584 12.5182C18.4585 12.5932 18.4588 12.6682 18.4594 12.7433C18.4601 12.8483 18.4599 12.9532 18.4594 13.0582C18.4599 13.0891 18.4603 13.12 18.4607 13.1518C18.4586 13.3481 18.4263 13.4635 18.293 13.6172C18.1662 13.7004 18.0579 13.7009 17.9084 13.7013C17.8598 13.7016 17.8112 13.702 17.7612 13.7023C17.7074 13.7023 17.6536 13.7022 17.5998 13.7022C17.5431 13.7024 17.4864 13.7027 17.4297 13.7029C17.2758 13.7036 17.1218 13.7038 16.9678 13.7038C16.8716 13.7039 16.7754 13.704 16.6792 13.7042C16.3436 13.7049 16.0079 13.7052 15.6722 13.7052C15.3594 13.7051 15.0466 13.7059 14.7338 13.7071C14.4651 13.708 14.1965 13.7084 13.9278 13.7084C13.7674 13.7084 13.607 13.7086 13.4466 13.7094C13.2957 13.7101 13.1448 13.7101 12.9939 13.7096C12.9386 13.7095 12.8833 13.7097 12.8279 13.7101C12.7523 13.7107 12.6767 13.7102 12.601 13.7098C12.5376 13.7098 12.5376 13.7098 12.4729 13.7099C12.3091 13.6841 12.1864 13.6101 12.0825 13.4799C12.0445 13.3439 12.0477 13.2079 12.0478 13.0678C12.0476 13.0348 12.0473 13.0019 12.0471 12.9679C12.0464 12.859 12.0462 12.75 12.0461 12.641C12.0459 12.5652 12.0456 12.4894 12.0454 12.4136C12.0449 12.2547 12.0448 12.0958 12.0448 11.9369C12.0449 11.7334 12.0438 11.53 12.0426 11.3265C12.0417 11.1699 12.0416 11.0133 12.0416 10.8568C12.0415 10.7818 12.0412 10.7068 12.0406 10.6317C12.0399 10.5267 12.0401 10.4218 12.0406 10.3168C12.0402 10.2859 12.0397 10.255 12.0393 10.2232C12.0414 10.0269 12.0737 9.91147 12.207 9.75781C12.3338 9.6746 12.4421 9.67411 12.5916 9.67367ZM12.875 10.5C12.875 11.2837 12.875 12.0675 12.875 12.875C14.4425 12.875 16.01 12.875 17.625 12.875C17.625 12.0912 17.625 11.3075 17.625 10.5C16.0575 10.5 14.49 10.5 12.875 10.5Z" fill="black"/>
<path d="M4 5H11.5" stroke="black" stroke-linecap="round"/>
<path d="M13 15H13.5" stroke="black" stroke-linecap="round"/>
<path d="M13 17H13.5" stroke="black" stroke-linecap="round"/>
<path d="M15 15H15.5" stroke="black" stroke-linecap="round"/>
<path d="M15 17H15.5" stroke="black" stroke-linecap="round"/>
<path d="M17 15H17.5" stroke="black" stroke-linecap="round"/>
<path d="M17 17H17.5" stroke="black" stroke-linecap="round"/>
<path d="M4 7H11.5" stroke="black" stroke-linecap="round"/>
<path d="M4 9H8.5" stroke="black" stroke-linecap="round"/>
<path d="M4 11H8.5" stroke="black" stroke-linecap="round"/>
<path d="M4 13H8.5" stroke="black" stroke-linecap="round"/>
<path d="M4 15H8.5" stroke="black" stroke-linecap="round"/>
</svg>
