<svg width="39" height="39" viewBox="0 0 39 39" fill="none" xmlns="http://www.w3.org/2000/svg">
    <path fill-rule="evenodd" clip-rule="evenodd" d="M30.4728 9.27409C29.2025 8.44244 27.7171 7.99964 26.1988 8.00001C25.1398 7.99875 24.0931 8.21369 23.1201 8.63164C22.1471 9.0496 21.2697 9.66178 20.5416 10.4307L20.4818 10.4866L18.5432 12.4259C18.4189 12.2289 18.2706 12.045 18.1003 11.8787C17.5243 11.3161 16.743 11 15.9284 11C15.3208 11 14.727 11.1759 14.2218 11.5056C13.7167 11.8352 13.323 12.3037 13.0905 12.8519C12.858 13.4001 12.7972 14.0032 12.9157 14.5852C13.0343 15.1671 13.3268 15.7016 13.7564 16.1212C13.9437 16.3042 14.1535 16.4617 14.3799 16.5908L8.38113 22.5918C8.13722 22.8356 8.00012 23.1662 8 23.511C7.99994 23.6817 8.03351 23.8508 8.09879 24.0086C8.16408 24.1663 8.25979 24.3097 8.38048 24.4304C8.50117 24.5512 8.64446 24.647 8.80218 24.7124C8.9599 24.7778 9.12896 24.8115 9.2997 24.8116C9.47044 24.8116 9.63951 24.778 9.79728 24.7128C9.95505 24.6475 10.0984 24.5518 10.2192 24.4311L22.342 12.3037L22.3654 12.2881L22.5669 12.0802C23.5345 11.1355 24.8322 10.605 26.1846 10.6012C27.5369 10.5974 28.8376 11.1207 29.8105 12.0599C30.7834 12.9991 31.3521 14.2805 31.396 15.6321C31.4398 16.9836 30.9552 18.2991 30.0451 19.2994L29.8385 19.5139L18.5268 30.8223L18.5255 30.821L18.3669 30.951C17.9193 31.2868 17.3621 31.4427 16.8053 31.3878C16.2484 31.333 15.7323 31.0715 15.3587 30.6549C14.9852 30.2383 14.7813 29.6969 14.7874 29.1374C14.7935 28.5779 15.009 28.041 15.3915 27.6326L15.4071 27.6222L24.8833 18.1282C25.1268 17.8842 25.2635 17.5533 25.2631 17.2085C25.2627 16.8637 25.1254 16.5332 24.8813 16.2896C24.6372 16.0461 24.3064 15.9095 23.9616 15.9098C23.6167 15.9102 23.2862 16.0475 23.0426 16.2916L13.5664 25.7855L13.5469 25.7998L13.3532 26.013C12.5585 26.9387 12.143 28.1306 12.19 29.3497C12.237 30.5688 12.7431 31.7252 13.6067 32.587C14.4704 33.4488 15.6278 33.9523 16.8471 33.9968C18.0664 34.0412 19.2574 33.6233 20.1816 32.8267L20.2544 32.7682L20.3232 32.7032L31.6674 21.3596L31.9144 21.1074C32.9479 19.9952 33.6342 18.6054 33.8892 17.1088C34.1442 15.6121 33.9568 14.0735 33.3499 12.6818C32.743 11.2901 31.7431 10.1057 30.4728 9.27409ZM15.3892 15.5812L14.3799 16.5908C14.6726 16.7576 14.9932 16.8769 15.3291 16.9422C15.9249 17.0579 16.5426 16.9985 17.1038 16.7715C17.6651 16.5444 18.1448 16.1599 18.4823 15.6666C18.8198 15.1732 19 14.5932 19 13.9999C19 13.4395 18.8395 12.8953 18.5432 12.4259L17.534 13.4355C17.4873 13.3087 17.4247 13.1872 17.3472 13.074C17.1597 12.7999 16.8932 12.5863 16.5814 12.4602C16.2696 12.334 15.9265 12.301 15.5954 12.3653C15.2644 12.4296 14.9604 12.5884 14.7217 12.8214C14.483 13.0545 14.3205 13.3515 14.2547 13.6748C14.1888 13.9981 14.2226 14.3332 14.3518 14.6377C14.4809 14.9422 14.6997 15.2025 14.9803 15.3857C15.1077 15.4688 15.2453 15.5344 15.3892 15.5812ZM15.3892 15.5812L17.534 13.4355C17.6004 13.6156 17.6348 13.8065 17.6348 13.9999C17.6348 14.4419 17.455 14.8658 17.135 15.1784C16.815 15.4909 16.3809 15.6665 15.9284 15.6665C15.7441 15.6665 15.5621 15.6374 15.3892 15.5812ZM9.58721 11.6488C9.06531 10.784 7.76056 10.784 7.23866 11.6488L5.18368 15.0541C4.66178 15.919 5.31416 17 6.35796 17H10.4679C11.5117 17 12.1641 15.919 11.6422 15.0541L9.58721 11.6488ZM8.41008 12.3336L6.39864 15.6667H10.4272L8.41579 12.3336L8.41293 12.3335L8.41008 12.3336Z" fill="black"/>
</svg>
