<svg width="39" height="39" viewBox="0 0 39 39" fill="none" xmlns="http://www.w3.org/2000/svg">
    <path fill-rule="evenodd" clip-rule="evenodd" d="M7.22488 5H9.12637C9.63068 5 10.1143 5.18964 10.4709 5.52721C10.8275 5.86477 11.0279 6.32261 11.0279 6.8V8.6C11.0279 9.07739 10.8275 9.53523 10.4709 9.87279C10.1143 10.2104 9.63068 10.4 9.12637 10.4H7.22488C6.72057 10.4 6.23692 10.2104 5.88032 9.87279C5.52372 9.53523 5.32339 9.07739 5.32339 8.6V6.8C5.32339 6.32261 5.52372 5.86477 5.88032 5.52721C6.23692 5.18964 6.72057 5 7.22488 5ZM9.57455 9.02426C9.69342 8.91174 9.7602 8.75913 9.7602 8.6V6.8C9.7602 6.64087 9.69342 6.48826 9.57455 6.37574C9.45569 6.26321 9.29447 6.2 9.12637 6.2H7.22488C7.05678 6.2 6.89556 6.26321 6.77669 6.37574C6.65783 6.48826 6.59105 6.64087 6.59105 6.8V8.6C6.59105 8.75913 6.65783 8.91174 6.77669 9.02426C6.89556 9.13679 7.05678 9.2 7.22488 9.2H9.12637C9.29447 9.2 9.45569 9.13679 9.57455 9.02426ZM14.197 11.6H16.0985C16.6028 11.6 17.0865 11.7896 17.4431 12.1272C17.7019 12.3722 17.8783 12.6805 17.9557 13.0137L16.7323 14.2375V13.4C16.7323 13.2409 16.6656 13.0883 16.5467 12.9757C16.4278 12.8632 16.2666 12.8 16.0985 12.8H14.197C14.0289 12.8 13.8677 12.8632 13.7488 12.9757C13.63 13.0883 13.5632 13.2409 13.5632 13.4V15.2C13.5632 15.3591 13.63 15.5117 13.7488 15.6243C13.8677 15.7368 14.0289 15.8 14.197 15.8H15.1704L13.9824 16.9885C13.5571 16.9428 13.1581 16.7621 12.8525 16.4728C12.4959 16.1352 12.2955 15.6774 12.2955 15.2V13.4C12.2955 12.9226 12.4959 12.4648 12.8525 12.1272C13.2091 11.7896 13.6927 11.6 14.197 11.6ZM15.1704 15.8H16.0985C16.2666 15.8 16.4278 15.7368 16.5467 15.6243C16.6656 15.5117 16.7323 15.3591 16.7323 15.2V14.2375L15.1704 15.8ZM13.9824 16.9885C14.0533 16.9961 14.1249 17 14.197 17H16.0985C16.6028 17 17.0865 16.8104 17.4431 16.4728C17.7997 16.1352 18 15.6774 18 15.2V13.4C18 13.2691 17.9849 13.1396 17.9557 13.0137L20.4818 10.4866L20.5416 10.4307C21.2697 9.66178 22.1471 9.0496 23.1201 8.63164C24.0931 8.21369 25.1398 7.99875 26.1988 8.00001C27.7171 7.99964 29.2025 8.44244 30.4728 9.27409C31.7431 10.1057 32.743 11.2901 33.3499 12.6818C33.9568 14.0735 34.1442 15.6121 33.8892 17.1088C33.6342 18.6054 32.9479 19.9952 31.9144 21.1074L31.6674 21.3596L20.3232 32.7032L20.2544 32.7682L20.1816 32.8267C19.2574 33.6233 18.0664 34.0412 16.8471 33.9968C15.6278 33.9523 14.4704 33.4488 13.6067 32.587C12.7431 31.7252 12.237 30.5688 12.19 29.3497C12.143 28.1306 12.5585 26.9387 13.3532 26.013L13.5469 25.7998L13.5664 25.7855L23.0426 16.2916C23.2862 16.0475 23.6167 15.9102 23.9616 15.9098C24.3064 15.9095 24.6372 16.0461 24.8813 16.2896C25.1254 16.5332 25.2627 16.8637 25.2631 17.2085C25.2635 17.5533 25.1268 17.8842 24.8833 18.1282L15.4071 27.6222L15.3915 27.6326C15.009 28.041 14.7935 28.5779 14.7874 29.1374C14.7813 29.6969 14.9852 30.2383 15.3587 30.6549C15.7323 31.0715 16.2484 31.333 16.8053 31.3878C17.3621 31.4427 17.9193 31.2868 18.3669 30.951L18.5255 30.821L18.5268 30.8223L29.8385 19.5139L30.0451 19.2994C30.9552 18.2991 31.4398 16.9836 31.396 15.6321C31.3521 14.2805 30.7834 12.9991 29.8105 12.0599C28.8376 11.1207 27.5369 10.5974 26.1846 10.6012C24.8322 10.605 23.5345 11.1355 22.5669 12.0802L22.3654 12.2881L22.342 12.3037L10.2192 24.4311C10.0984 24.5518 9.95505 24.6475 9.79728 24.7128C9.63952 24.778 9.47044 24.8116 9.2997 24.8116C9.12896 24.8115 8.9599 24.7778 8.80218 24.7124C8.64446 24.647 8.50117 24.5512 8.38048 24.4304C8.25979 24.3097 8.16408 24.1663 8.09879 24.0086C8.03351 23.8508 7.99994 23.6817 8 23.511C8.00012 23.1662 8.13722 22.8356 8.38113 22.5918L13.9824 16.9885ZM15.1478 5C14.5836 5 14.0322 5.15835 13.5631 5.45503C13.0941 5.75171 12.7285 6.17339 12.5126 6.66675C12.2968 7.16011 12.2403 7.703 12.3503 8.22674C12.4604 8.75049 12.732 9.23159 13.1309 9.60919C13.5298 9.98679 14.038 10.2439 14.5913 10.3481C15.1446 10.4523 15.7181 10.3988 16.2393 10.1945C16.7604 9.99012 17.2059 9.64405 17.5193 9.20004C17.8327 8.75603 18 8.23401 18 7.7C18 6.98392 17.6995 6.29716 17.1646 5.79081C16.6297 5.28446 15.9042 5 15.1478 5ZM15.1478 9.2C14.8344 9.2 14.528 9.11203 14.2674 8.9472C14.0068 8.78238 13.8037 8.54811 13.6838 8.27402C13.5639 7.99994 13.5325 7.69834 13.5936 7.40736C13.6548 7.11639 13.8057 6.84912 14.0273 6.63934C14.2489 6.42956 14.5312 6.2867 14.8386 6.22882C15.146 6.17094 15.4646 6.20065 15.7542 6.31418C16.0437 6.42771 16.2912 6.61997 16.4653 6.86664C16.6394 7.11332 16.7323 7.40333 16.7323 7.7C16.7323 8.09782 16.5654 8.47935 16.2682 8.76066C15.9711 9.04196 15.568 9.2 15.1478 9.2ZM9.25955 12.1838C8.77493 11.4054 7.56338 11.4054 7.07876 12.1838L5.17056 15.2486C4.68594 16.027 5.29172 17 6.26096 17H10.0773C11.0466 17 11.6524 16.027 11.1677 15.2487L9.25955 12.1838ZM8.1665 12.8001L6.29874 15.8H10.0396L8.17181 12.8001L8.16915 12.8L8.1665 12.8001Z" fill="black"/>
</svg>
