<svg width="39" height="39" viewBox="0 0 39 39" fill="none" xmlns="http://www.w3.org/2000/svg">
<path d="M28.4179 12C27.1161 12 25.8435 12.4105 24.7611 13.1797C23.6787 13.9488 22.835 15.042 22.3369 16.3211C21.8387 17.6001 21.7083 19.0076 21.9623 20.3654C22.2163 21.7232 22.8432 22.9705 23.7637 23.9494C24.6842 24.9283 25.857 25.595 27.1338 25.8651C28.4106 26.1352 29.734 25.9966 30.9368 25.4668C32.1395 24.937 33.1675 24.0398 33.8907 22.8887C34.614 21.7376 35 20.3842 35 18.9998C35 17.1433 34.3065 15.3629 33.0721 14.0502C31.8378 12.7375 30.1636 12 28.4179 12ZM28.4179 22.8886C27.6947 22.8886 26.9877 22.6605 26.3863 22.2332C25.785 21.8059 25.3163 21.1985 25.0395 20.488C24.7628 19.7774 24.6904 18.9955 24.8315 18.2411C24.9726 17.4868 25.3208 16.7939 25.8322 16.25C26.3436 15.7062 26.9952 15.3358 27.7045 15.1857C28.4139 15.0357 29.1491 15.1127 29.8173 15.407C30.4855 15.7014 31.0566 16.1998 31.4584 16.8393C31.8602 17.4788 32.0746 18.2307 32.0746 18.9998C32.0746 20.0312 31.6894 21.0203 31.0036 21.7496C30.3178 22.4789 29.3877 22.8886 28.4179 22.8886Z" fill="black"/>
<path fill-rule="evenodd" clip-rule="evenodd" d="M9.79713 13.5139C10.9155 11.4959 13.7114 11.4959 14.8297 13.5139L19.2333 21.4596C20.3516 23.4776 18.9537 26 16.717 26H7.9099C5.67319 26 4.27525 23.4776 5.39361 21.4596L9.79713 13.5139ZM7.99709 22.889L12.3073 15.1116L12.3134 15.1114L12.3196 15.1116L16.6298 22.889H7.99709Z" fill="black"/>
</svg>
