<svg width="39" height="40" viewBox="0 0 39 40" fill="none" xmlns="http://www.w3.org/2000/svg">
<path fill-rule="evenodd" clip-rule="evenodd" d="M10.05 10.3768V11.6522C10.05 13.061 11.2589 14.2029 12.75 14.2029H28.95C30.4411 14.2029 31.65 13.061 31.65 11.6522V11.5432C32.4357 11.2806 33 10.572 33 9.73913V8.46377C33 7.63085 32.4357 6.92234 31.65 6.6597V6.55072C31.65 5.14194 30.4411 4 28.95 4H12.75C11.2589 4 10.05 5.14194 10.05 6.55072V7.82609H7.35C6.60381 7.82609 6 8.39713 6 9.10145V18.1449C6 18.8492 6.60381 19.4203 7.35 19.4203H19.5V23.2464C18.0089 23.2464 16.8 24.3883 16.8 25.7971V33.4493C16.8 34.858 18.0089 36 19.5 36H22.2C23.6911 36 24.9 34.858 24.9 33.4493V25.7971C24.9 24.3883 23.6911 23.2464 22.2 23.2464V18.1449C22.2 17.8111 22.0642 17.5074 21.8428 17.2801C21.7189 17.1531 21.5671 17.05 21.3984 16.9789C21.231 16.9086 21.0451 16.8696 20.85 16.8696H8.7V10.3768H10.05ZM28.95 6.55072H12.75V11.6522H28.95V6.55072ZM19.5 25.7971V33.4493H22.2V25.7971H19.5Z" fill="black"/>
</svg>
