<svg width="17" height="17" viewBox="0 0 17 17" fill="none" xmlns="http://www.w3.org/2000/svg">
<path d="M8.98402 0.347978C9.11617 0.430893 9.22525 0.535116 9.33745 0.642915C9.42459 0.725635 9.51422 0.800891 9.60814 0.875726C9.76739 1.00413 9.91677 1.14051 10.066 1.28024C10.1771 1.38375 10.2906 1.48204 10.4092 1.57714C10.5672 1.70398 10.7151 1.83909 10.8629 1.97752C10.974 2.08102 11.0875 2.17931 11.206 2.27441C11.3641 2.40124 11.5119 2.53636 11.6597 2.67479C11.7709 2.77829 11.8844 2.87657 12.0029 2.97167C12.161 3.09851 12.3088 3.23363 12.4566 3.37206C12.5677 3.47555 12.6813 3.57384 12.7998 3.66894C12.9579 3.79577 13.1057 3.93089 13.2535 4.06932C13.3646 4.17282 13.4781 4.2711 13.5967 4.3662C13.7547 4.49304 13.9026 4.62816 14.0504 4.76659C14.1615 4.87008 14.275 4.96837 14.3935 5.06347C14.5516 5.1903 14.6994 5.32542 14.8472 5.46385C14.9584 5.56735 15.0719 5.66564 15.1904 5.76074C15.3485 5.88757 15.4963 6.02269 15.6441 6.16112C15.7552 6.26462 15.8688 6.3629 15.9873 6.458C16.1472 6.5864 16.2979 6.72249 16.4473 6.86276C16.5466 6.95583 16.6475 7.04442 16.753 7.13036C16.913 7.27206 16.9868 7.39886 17.0136 7.61246C17.0295 7.98983 16.9212 8.2074 16.6804 8.48962C16.4604 8.72182 16.2158 8.91622 15.8898 8.93993C15.7089 8.92724 15.6168 8.84298 15.4841 8.72853C15.4632 8.7106 15.4424 8.69267 15.421 8.6742C15.3972 8.65371 15.3972 8.65371 15.373 8.63281C15.3729 8.67018 15.3728 8.70755 15.3727 8.74605C15.37 9.65556 15.3669 10.5651 15.3635 11.4746C15.3618 11.9144 15.3603 12.3542 15.359 12.7941C15.3579 13.1774 15.3566 13.5608 15.355 13.9442C15.3542 14.1472 15.3534 14.3501 15.353 14.5531C15.3526 14.7442 15.3518 14.9353 15.3509 15.1265C15.3506 15.1965 15.3504 15.2666 15.3503 15.3367C15.3502 15.4325 15.3497 15.5284 15.3491 15.6242C15.3491 15.6518 15.3492 15.6793 15.3493 15.7077C15.3462 16.0252 15.289 16.2926 15.0742 16.5351C14.9165 16.6604 14.7664 16.7381 14.5626 16.7393C14.5327 16.7395 14.5028 16.7397 14.472 16.74C14.4392 16.7401 14.4064 16.7402 14.3727 16.7402C14.3381 16.7405 14.3036 16.7407 14.268 16.7409C14.1534 16.7416 14.0388 16.7419 13.9242 16.7423C13.8654 16.7425 13.8654 16.7425 13.8056 16.7427C13.5984 16.7434 13.3912 16.7439 13.184 16.7442C12.9701 16.7445 12.7562 16.7457 12.5423 16.747C12.3778 16.7479 12.2132 16.7481 12.0487 16.7483C11.9698 16.7484 11.891 16.7488 11.8122 16.7494C11.7017 16.7502 11.5913 16.7502 11.4808 16.75C11.4322 16.7506 11.4322 16.7506 11.3825 16.7513C11.1304 16.7493 10.9609 16.6863 10.7661 16.5268C10.5696 16.2867 10.5211 16.0539 10.5214 15.7463C10.5213 15.7137 10.5213 15.7137 10.5213 15.6805C10.5212 15.6081 10.5214 15.5358 10.5216 15.4635C10.5216 15.4114 10.5216 15.3594 10.5216 15.3073C10.5216 15.1664 10.5218 15.0254 10.522 14.8845C10.5222 14.737 10.5222 14.5896 10.5223 14.4422C10.5224 14.1631 10.5226 13.8841 10.523 13.605C10.5234 13.2279 10.5236 12.8507 10.5238 12.4735C10.5241 11.8795 10.5248 11.2854 10.5254 10.6914C9.28723 10.6914 8.04908 10.6914 6.77342 10.6914C6.77631 11.2717 6.77631 11.2717 6.77926 11.8636C6.78011 12.1088 6.78091 12.3539 6.78153 12.599C6.78251 12.9881 6.78367 13.3771 6.78595 13.7662C6.7876 14.0495 6.78867 14.3329 6.78904 14.6162C6.78926 14.7662 6.78976 14.9161 6.79097 15.0661C6.79211 15.2074 6.79245 15.3488 6.7922 15.4901C6.79224 15.5418 6.79257 15.5935 6.79321 15.6452C6.79702 15.9693 6.77903 16.2498 6.54911 16.4986C6.32866 16.7079 6.10391 16.7493 5.81055 16.7483C5.77802 16.7486 5.74549 16.7489 5.71197 16.7492C5.60487 16.7499 5.49779 16.75 5.39069 16.7499C5.31589 16.7502 5.24109 16.7504 5.16628 16.7507C5.00962 16.7511 4.85297 16.7512 4.6963 16.751C4.49612 16.7508 4.29597 16.7518 4.09579 16.7532C3.94131 16.754 3.78684 16.7541 3.63237 16.754C3.55859 16.7541 3.48482 16.7544 3.41105 16.755C3.3076 16.7557 3.20419 16.7554 3.10074 16.7548C3.07063 16.7552 3.04052 16.7557 3.0095 16.7561C2.76231 16.7529 2.54501 16.679 2.35999 16.5101C2.15695 16.293 2.11014 16.0746 2.11175 15.7869C2.11152 15.7557 2.1113 15.7244 2.11108 15.6922C2.11046 15.5879 2.11054 15.4835 2.11063 15.3791C2.11033 15.3042 2.10999 15.2293 2.1096 15.1543C2.10869 14.9511 2.10838 14.7478 2.10818 14.5446C2.10787 14.3321 2.107 14.1196 2.10619 13.9071C2.1049 13.5505 2.10396 13.194 2.10328 12.8374C2.10259 12.4702 2.10168 12.103 2.1005 11.7358C2.10042 11.7131 2.10035 11.6905 2.10027 11.6672C2.09991 11.5535 2.09954 11.4399 2.09916 11.3263C2.09607 10.3842 2.0937 9.44208 2.09178 8.49999C2.0761 8.51579 2.06042 8.53159 2.04426 8.54786C2.02354 8.56867 2.00282 8.58948 1.98147 8.61092C1.961 8.63151 1.94052 8.6521 1.91942 8.67332C1.66133 8.92727 1.42357 9.12968 1.05211 9.14745C0.706275 9.13678 0.490435 8.98318 0.25589 8.73955C0.0294549 8.49275 -0.0233274 8.31814 -0.0128556 7.98016C0.0242953 7.65893 0.243639 7.44721 0.479355 7.24632C0.591767 7.14796 0.700411 7.04582 0.809311 6.9436C0.974936 6.78834 1.14174 6.63474 1.31099 6.48342C1.4288 6.37732 1.54512 6.26962 1.66151 6.16195C1.8323 6.00398 2.00374 5.84675 2.17532 5.68964C2.25818 5.61376 2.341 5.53783 2.42381 5.46191C2.45702 5.43147 2.49022 5.40104 2.52342 5.3706C2.53986 5.35553 2.55629 5.34047 2.57323 5.32494C4.08397 3.9401 5.59471 2.55525 7.10545 1.1704C7.13012 1.14778 7.13012 1.14778 7.15528 1.12471C7.18838 1.09438 7.2215 1.06408 7.25465 1.03381C7.33949 0.956255 7.42382 0.878244 7.50739 0.799333C7.93003 0.402144 8.38522 0.0710805 8.98402 0.347978Z" fill="#757784"/>
</svg>
