<svg width="39" height="39" viewBox="0 0 39 39" fill="none" xmlns="http://www.w3.org/2000/svg">
<path d="M14.1697 5H9.78167C8.61788 5 7.50176 5.4583 6.67884 6.27409C5.85592 7.08987 5.39361 8.19631 5.39361 9.35V13.7C5.39361 14.8537 5.85592 15.9601 6.67884 16.7759C7.50176 17.5917 8.61788 18.05 9.78167 18.05H14.1697C15.3335 18.05 16.4496 17.5917 17.2725 16.7759C18.0955 15.9601 18.5578 14.8537 18.5578 13.7V9.35C18.5578 8.19631 18.0955 7.08987 17.2725 6.27409C16.4496 5.4583 15.3335 5 14.1697 5ZM15.6324 13.7C15.6324 14.0846 15.4783 14.4534 15.204 14.7253C14.9297 14.9972 14.5577 15.15 14.1697 15.15H9.78167C9.39374 15.15 9.0217 14.9972 8.74739 14.7253C8.47308 14.4534 8.31898 14.0846 8.31898 13.7V9.35C8.31898 8.96544 8.47308 8.59662 8.74739 8.3247C9.0217 8.05277 9.39374 7.9 9.78167 7.9H14.1697C14.5577 7.9 14.9297 8.05277 15.204 8.3247C15.4783 8.59662 15.6324 8.96544 15.6324 9.35V13.7Z" fill="black"/>
<path d="M30.6119 20.95H26.2239C25.0601 20.95 23.944 21.4083 23.1211 22.2241C22.2981 23.0399 21.8358 24.1463 21.8358 25.3V29.65C21.8358 30.8037 22.2981 31.9101 23.1211 32.7259C23.944 33.5417 25.0601 34 26.2239 34H30.6119C31.7757 34 32.8918 33.5417 33.7148 32.7259C34.5377 31.9101 35 30.8037 35 29.65V25.3C35 24.1463 34.5377 23.0399 33.7148 22.2241C32.8918 21.4083 31.7757 20.95 30.6119 20.95ZM32.0746 29.65C32.0746 30.0346 31.9205 30.4034 31.6462 30.6753C31.3719 30.9472 30.9999 31.1 30.6119 31.1H26.2239C25.836 31.1 25.4639 30.9472 25.1896 30.6753C24.9153 30.4034 24.7612 30.0346 24.7612 29.65V25.3C24.7612 24.9154 24.9153 24.5466 25.1896 24.2747C25.4639 24.0028 25.836 23.85 26.2239 23.85H30.6119C30.9999 23.85 31.3719 24.0028 31.6462 24.2747C31.9205 24.5466 32.0746 24.9154 32.0746 25.3V29.65Z" fill="black"/>
<path d="M28.4179 5C27.1161 5 25.8435 5.38268 24.7611 6.09966C23.6787 6.81664 22.835 7.8357 22.3369 9.02799C21.8387 10.2203 21.7083 11.5322 21.9623 12.798C22.2163 14.0637 22.8432 15.2263 23.7637 16.1389C24.6842 17.0514 25.857 17.6729 27.1338 17.9246C28.4106 18.1764 29.734 18.0472 30.9368 17.5533C32.1395 17.0594 33.1675 16.2231 33.8907 15.1501C34.614 14.0771 35 12.8155 35 11.525C35 9.79446 34.3065 8.1348 33.0722 6.91113C31.8378 5.68745 30.1636 5 28.4179 5ZM28.4179 15.15C27.6947 15.15 26.9877 14.9374 26.3864 14.5391C25.785 14.1408 25.3163 13.5746 25.0396 12.9122C24.7628 12.2498 24.6904 11.521 24.8315 10.8178C24.9726 10.1146 25.3208 9.4687 25.8322 8.96174C26.3436 8.45477 26.9952 8.10952 27.7045 7.96965C28.4139 7.82978 29.1491 7.90157 29.8173 8.17593C30.4855 8.4503 31.0566 8.91493 31.4584 9.51106C31.8602 10.1072 32.0746 10.808 32.0746 11.525C32.0746 12.4864 31.6894 13.4084 31.0036 14.0883C30.3178 14.7681 29.3877 15.15 28.4179 15.15Z" fill="black"/>
<path fill-rule="evenodd" clip-rule="evenodd" d="M9.79713 22.3608C10.9155 20.4797 13.7114 20.4797 14.8297 22.3608L19.2333 29.7676C20.3516 31.6487 18.9537 34 16.717 34H7.9099C5.67319 34 4.27525 31.6486 5.39361 29.7676L9.79713 22.3608ZM7.99709 31.1L12.3073 23.8502L12.3134 23.85L12.3196 23.8502L16.6298 31.1H7.99709Z" fill="black"/>
</svg>
