<svg width="39" height="39" viewBox="0 0 39 39" fill="none" xmlns="http://www.w3.org/2000/svg">
<path d="M24.1617 16.4874H33.4816C33.768 16.4874 34 16.2525 34 15.9626V6.52474C34 6.23485 33.768 6 33.4816 6H24.1617C23.8754 6 23.6434 6.23485 23.6434 6.52474V9.93368H18.7242C18.5829 9.93368 18.4669 10.0511 18.4669 10.1942V18.3221H15.3602V14.7811C15.3602 14.4912 15.1282 14.2563 14.8419 14.2563H5.51838C5.232 14.2563 5 14.4912 5 14.7811V24.2189C5 24.5088 5.232 24.7437 5.51838 24.7437H14.8382C15.1246 24.7437 15.3566 24.5088 15.3566 24.2189V20.6779H18.4632V28.8058C18.4632 28.9489 18.5792 29.0663 18.7206 29.0663H23.6397V32.4753C23.6397 32.7652 23.8717 33 24.1581 33H33.478C33.7644 33 33.9964 32.7652 33.9964 32.4753V23.0447C33.9964 22.7548 33.7644 22.52 33.478 22.52H24.1617C23.8754 22.52 23.6434 22.7548 23.6434 23.0447V26.7142H20.7941V12.2932H23.6434V15.9626C23.6434 16.2525 23.8754 16.4874 24.1617 16.4874ZM26.1011 8.49157H31.5386V13.9995H26.1011V8.49157ZM12.8989 22.2558H7.46137V16.7516H12.8989V22.2558ZM26.1011 25.0116H31.5386V30.5194H26.1011V25.0116Z" fill="black"/>
</svg>
