<svg width="14" height="27" viewBox="0 0 14 27" fill="none" xmlns="http://www.w3.org/2000/svg">
    <path d="M9.06707 3.68224C9.91953 3.68224 10.6106 2.99119 10.6106 2.13873C10.6106 1.28627 9.91953 0.595215 9.06707 0.595215C8.21461 0.595215 7.52356 1.28627 7.52356 2.13873C7.52356 2.99119 8.21461 3.68224 9.06707 3.68224Z" fill="black"/>
    <path d="M6.75163 6.38339C7.39098 6.38339 7.90927 5.8651 7.90927 5.22575C7.90927 4.58641 7.39098 4.06812 6.75163 4.06812C6.11228 4.06812 5.59399 4.58641 5.59399 5.22575C5.59399 5.8651 6.11228 6.38339 6.75163 6.38339Z" fill="black"/>
    <path d="M4.82217 3.2962C5.2484 3.2962 5.59393 2.95067 5.59393 2.52444C5.59393 2.09821 5.2484 1.75269 4.82217 1.75269C4.39594 1.75269 4.05042 2.09821 4.05042 2.52444C4.05042 2.95067 4.39594 3.2962 4.82217 3.2962Z" fill="black"/>
    <path d="M6.86194 27.0002C5.56557 27.0002 4.46038 26.5432 3.54636 25.6292C2.63234 24.7152 2.17565 23.6103 2.17627 22.3146V13.8804C1.66085 13.8804 1.21946 13.6967 0.852101 13.3293C0.484744 12.962 0.301379 12.5209 0.302004 12.0061V10.1318C0.302004 9.61641 0.485682 9.17502 0.853038 8.80767C1.22039 8.44031 1.66147 8.25695 2.17627 8.25757H11.5476C12.063 8.25757 12.5044 8.44125 12.8718 8.8086C13.2391 9.17596 13.4225 9.61704 13.4219 10.1318V12.0061C13.4219 12.5215 13.2382 12.9629 12.8708 13.3303C12.5035 13.6976 12.0624 13.881 11.5476 13.8804V22.3146C11.5476 23.6109 11.0906 24.7161 10.1766 25.6301C9.26256 26.5442 8.15768 27.0009 6.86194 27.0002ZM2.17627 12.0061H11.5476V10.1318H2.17627V12.0061ZM6.86194 25.126C7.47107 25.126 8.01774 24.9501 8.50192 24.5984C8.98611 24.2466 9.32191 23.7977 9.50934 23.2517H6.86194V21.846H9.67334V20.4403H6.86194V19.0346H9.67334V17.6289H6.86194V16.2232H9.67334V13.8804H4.05054V22.3146C4.05054 23.0955 4.32387 23.7593 4.87053 24.306C5.41719 24.8526 6.08099 25.126 6.86194 25.126Z" fill="black"/>
</svg>
