<svg width="19" height="19" viewBox="0 0 19 19" fill="none" xmlns="http://www.w3.org/2000/svg">
    <path d="M9.11176 1.54484C9.2068 1.54468 9.30176 1.54333 9.39679 1.54192C10.1255 1.53694 10.7554 1.69591 11.2885 2.22163C11.631 2.58511 11.8014 3.05088 11.8332 3.54162C11.8605 3.84987 11.9019 4.10924 12.1295 4.33643C12.3271 4.49759 12.525 4.57449 12.7819 4.56677C12.9659 4.54426 13.1204 4.47574 13.2875 4.39978C13.8358 4.15058 14.4045 4.10323 14.9855 4.29512C15.8459 4.63546 16.338 5.46234 16.6985 6.28163C16.9131 6.83165 16.9373 7.46828 16.6992 8.01562C16.4949 8.47402 16.1884 8.78406 15.7715 9.05469C15.5696 9.1951 15.4493 9.36674 15.4004 9.61133C15.3654 9.89614 15.4166 10.1198 15.5859 10.3535C15.6893 10.4527 15.8017 10.5327 15.9199 10.6133C16.3564 10.923 16.7293 11.3633 16.8361 11.9037C16.8399 11.931 16.8437 11.9582 16.8477 11.9863C16.853 12.0235 16.8584 12.0608 16.8639 12.0991C16.9294 12.7033 16.776 13.1794 16.4766 13.6934C16.4562 13.7285 16.4359 13.7635 16.4149 13.7997C15.9935 14.5186 15.602 15.082 14.7762 15.332C14.5386 15.3874 14.308 15.423 14.0645 15.4004C14.0333 15.3982 14.0021 15.3961 13.9699 15.3939C13.681 15.3607 13.4347 15.2562 13.1748 15.1311C12.9285 15.0179 12.7073 14.9915 12.4415 15.0526C12.1699 15.1784 12.0131 15.3464 11.8984 15.6245C11.8573 15.7523 11.8517 15.8818 11.8425 16.015C11.7962 16.5119 11.6454 16.9078 11.3184 17.293C11.2954 17.32 11.2725 17.3471 11.2489 17.375C10.8906 17.7639 10.39 17.984 9.86471 18.0116C9.68524 18.0173 9.50594 18.0173 9.3264 18.0154C9.21452 18.0143 9.10271 18.0146 8.99083 18.0151C8.29581 18.0144 8.29581 18.0144 7.97851 17.8867C7.95417 17.8772 7.92982 17.8678 7.90474 17.858C7.32947 17.6163 6.95957 17.2171 6.71651 16.646C6.6374 16.4414 6.60486 16.2537 6.58169 16.0365C6.54153 15.6694 6.48356 15.4277 6.19277 15.1861C5.96231 15.0357 5.72191 15.0288 5.45508 15.0664C5.2716 15.1267 5.09903 15.2148 4.92471 15.2972C4.4925 15.495 3.89825 15.4462 3.46001 15.3007C2.74929 15.0126 2.4159 14.5038 2.05633 13.8603C2.01259 13.7829 1.96766 13.7069 1.92084 13.6315C1.72837 13.3195 1.58499 12.9868 1.55859 12.6172C1.55625 12.5862 1.5539 12.5553 1.55149 12.5234C1.5272 11.9398 1.71917 11.4066 2.09668 10.9635C2.26123 10.7884 2.44036 10.6512 2.64136 10.5214C2.8773 10.3655 2.98528 10.1822 3.04297 9.9082C3.0695 9.67386 3.0125 9.47881 2.89453 9.27734C2.75139 9.11845 2.58154 8.99516 2.40979 8.86914C1.94927 8.52443 1.68185 8.06635 1.57323 7.49943C1.44908 6.52712 2.00525 5.68775 2.56055 4.93555C2.8996 4.51216 3.38116 4.26182 3.91257 4.16872C4.418 4.12111 4.8773 4.21961 5.33215 4.44385C5.56377 4.55194 5.75321 4.57488 5.99824 4.49574C6.2233 4.39683 6.38129 4.26529 6.49414 4.04492C6.54884 3.8841 6.57743 3.73166 6.59179 3.56252C6.64274 2.9647 6.87525 2.47762 7.31417 2.0616C7.84887 1.62461 8.44665 1.54471 9.11176 1.54484ZM8.11202 3.00194C8.09322 3.02543 8.07442 3.04892 8.05505 3.07312C8.03558 3.09632 8.01611 3.11952 7.99605 3.14342C7.86052 3.35445 7.81436 3.54806 7.79529 3.79211C7.73127 4.43122 7.46521 4.95197 6.97337 5.37289C6.51031 5.70942 5.93874 5.79836 5.38086 5.75195C5.12544 5.70458 4.89534 5.62621 4.6665 5.50378C4.44846 5.38925 4.25718 5.35169 4.01419 5.40304C3.53291 5.55492 3.35798 5.92668 3.12445 6.34175C3.08382 6.41332 3.04223 6.48415 2.99991 6.55473C2.97662 6.59367 2.95332 6.63261 2.92932 6.67273C2.90899 6.70664 2.88866 6.74056 2.86771 6.7755C2.76221 6.97522 2.75344 7.18387 2.80466 7.40187C2.9222 7.74917 3.17698 7.91813 3.46973 8.11767C3.88479 8.41531 4.12626 8.85826 4.24206 9.34924C4.33711 9.92964 4.23435 10.5333 3.89648 11.0215C3.70814 11.2743 3.49021 11.4585 3.22706 11.6278C3.02229 11.7633 2.89512 11.9229 2.80871 12.1533C2.71772 12.6166 2.95356 12.9734 3.17981 13.364C3.20112 13.4023 3.22243 13.4406 3.24439 13.4801C3.40827 13.7638 3.59666 14.0032 3.89184 14.1572C4.24149 14.2132 4.47749 14.168 4.79325 14.015C5.26412 13.7869 5.84459 13.7578 6.34802 13.8998C6.97225 14.1307 7.35863 14.5169 7.64453 15.1035C7.74196 15.3283 7.76599 15.5535 7.79065 15.7947C7.82537 16.1334 7.89709 16.3591 8.16406 16.5879C8.38442 16.7466 8.53882 16.7798 8.80565 16.7823C8.836 16.7826 8.86635 16.7829 8.89762 16.7832C8.96194 16.7837 9.02626 16.7841 9.09058 16.7844C9.15594 16.7848 9.22129 16.7856 9.28664 16.7867C9.84414 16.8035 9.84414 16.8035 10.3277 16.5547C10.3469 16.5312 10.3662 16.5077 10.386 16.4835C10.4058 16.4603 10.4256 16.4371 10.446 16.4132C10.5901 16.1941 10.6293 16.002 10.6481 15.746C10.7032 15.1657 10.9077 14.6954 11.3368 14.2896C11.8364 13.8772 12.3932 13.7496 13.0254 13.8047C13.2773 13.8401 13.4883 13.9215 13.7165 14.032C14.0509 14.1912 14.2811 14.2096 14.6308 14.0865C14.9267 13.9142 15.0918 13.6307 15.2614 13.3423C15.3005 13.2761 15.3407 13.2105 15.381 13.145C15.5581 12.8507 15.7039 12.553 15.6393 12.202C15.5356 11.8877 15.3652 11.7246 15.0954 11.5386C14.6289 11.2142 14.3203 10.7782 14.1945 10.2202C14.0979 9.56764 14.2355 8.96848 14.6224 8.43006C14.7991 8.22127 14.9969 8.07982 15.2269 7.93401C15.4258 7.80012 15.5638 7.62051 15.623 7.38476C15.6965 6.97852 15.5217 6.68531 15.3262 6.3457C15.3045 6.30719 15.3045 6.30719 15.2823 6.2679C15.2395 6.1922 15.1961 6.11694 15.1522 6.04187C15.1324 6.00783 15.1324 6.00783 15.1122 5.97311C14.96 5.72116 14.7567 5.51264 14.4727 5.41797C14.1587 5.37215 13.9366 5.44528 13.6592 5.57692C13.1214 5.82873 12.5877 5.84715 12.0234 5.67773C11.4546 5.45348 11.048 5.09115 10.7872 4.53474C10.6929 4.28404 10.6616 4.03182 10.6419 3.76636C10.6158 3.44876 10.5229 3.18347 10.2793 2.96875C10.044 2.81913 9.83316 2.77731 9.55653 2.77436C9.52962 2.77406 9.5027 2.77376 9.47497 2.77345C9.41802 2.77294 9.36106 2.77254 9.3041 2.77225C9.24646 2.77182 9.18881 2.77107 9.13117 2.76996C8.75883 2.76286 8.41795 2.76068 8.11202 3.00194Z" fill="black"/>
    <path d="M10.8378 7.59684C11.3343 7.98149 11.6477 8.45869 11.8379 9.05468C11.8516 9.09759 11.8516 9.09759 11.8656 9.14137C12.0416 9.83341 11.9046 10.5823 11.548 11.1896C11.1524 11.8302 10.5438 12.2638 9.81123 12.4429C9.07398 12.578 8.35919 12.4462 7.71875 12.0605C7.07571 11.6084 6.66784 10.9803 6.53125 10.2051C6.47391 9.44914 6.57914 8.71307 7.07615 8.11361C7.17417 8.00151 7.27831 7.89706 7.38477 7.79297C7.40826 7.76828 7.43174 7.7436 7.45594 7.71817C8.3522 6.83972 9.86825 6.91877 10.8378 7.59684ZM8.00679 8.92944C7.75283 9.2718 7.72644 9.64349 7.75586 10.0566C7.84028 10.4411 8.04651 10.7716 8.3673 11.0002C8.74114 11.2334 9.10273 11.3071 9.53711 11.2441C9.99569 11.1224 10.2988 10.8664 10.5391 10.4648C10.7277 10.1069 10.7449 9.69014 10.6295 9.30517C10.4812 8.9094 10.1813 8.59292 9.7976 8.41687C9.10599 8.13862 8.47218 8.38815 8.00679 8.92944Z" fill="black"/>
</svg>
