<svg width="15" height="15" viewBox="0 0 15 15" fill="none" xmlns="http://www.w3.org/2000/svg">
    <path d="M6.55261 1.52209C6.57389 1.52121 6.59517 1.52033 6.6171 1.51943C6.72463 1.5187 6.7932 1.52523 6.87843 1.59419C6.98404 1.7048 6.97 1.79497 6.96893 1.94117C6.96886 1.96533 6.96879 1.98948 6.96872 2.01437C6.96845 2.09585 6.96801 2.17732 6.96758 2.25879C6.96736 2.317 6.96716 2.37522 6.96698 2.43344C6.96668 2.52662 6.96637 2.6198 6.96602 2.71299C6.96514 2.94439 6.96473 3.17579 6.9646 3.40719C6.96459 3.42393 6.96458 3.44067 6.96457 3.45791C6.9645 3.59581 6.96444 3.73372 6.9644 3.87162C6.96436 3.99592 6.9643 4.12022 6.96422 4.24453C6.96421 4.26225 6.96419 4.27997 6.96418 4.29823C6.96397 4.58475 6.96284 4.87125 6.96139 5.15777C6.95993 5.45221 6.95956 5.74664 6.96011 6.04108C6.96038 6.20629 6.96015 6.37147 6.95873 6.53667C6.9574 6.69232 6.95739 6.84792 6.95836 7.00357C6.95849 7.0605 6.95814 7.11743 6.95727 7.17435C6.95259 7.50047 6.96938 7.72285 7.20253 7.9645C7.22529 7.98717 7.24804 8.00984 7.27148 8.0332C7.30297 8.07223 7.33399 8.11165 7.36402 8.15182C7.37733 8.16894 7.39063 8.18605 7.40434 8.20369C7.41758 8.22074 7.43082 8.2378 7.44446 8.25536C7.47477 8.29438 7.50509 8.33339 7.53541 8.3724C7.55055 8.39189 7.56569 8.41138 7.58129 8.43146C7.65572 8.52725 7.73021 8.623 7.80469 8.71874C7.83431 8.75683 7.86393 8.79492 7.89355 8.833C7.91555 8.86128 7.91555 8.86128 7.93799 8.89013C8.57487 9.70898 9.21175 10.5278 9.84863 11.3467C9.8633 11.3655 9.87797 11.3844 9.89309 11.4038C9.92263 11.4418 9.95217 11.4798 9.98171 11.5178C10.057 11.6146 10.1323 11.7114 10.2077 11.8082C10.2954 11.9209 10.3831 12.0336 10.4707 12.1465C10.4904 12.1718 10.4904 12.1718 10.5105 12.1977C10.5465 12.2441 10.5824 12.2905 10.6183 12.3369C10.6383 12.3628 10.6584 12.3888 10.6791 12.4155C10.7366 12.4926 10.7557 12.5388 10.7611 12.6337C10.7626 12.6523 10.7642 12.671 10.7658 12.6903C10.7236 12.8658 10.5446 12.9832 10.4056 13.0843C10.3878 13.0975 10.37 13.1106 10.3516 13.1241C9.54995 13.7076 8.62349 14.0006 7.6329 14.0052C7.60763 14.0053 7.58236 14.0054 7.55632 14.0056C7.50307 14.0058 7.44981 14.006 7.39655 14.0061C7.31717 14.0063 7.2378 14.0071 7.15842 14.0079C6.69343 14.0104 6.23464 13.9693 5.78296 13.854C5.75671 13.8474 5.73046 13.8409 5.70342 13.8341C4.63671 13.561 3.61823 13.0258 2.85351 12.2226C2.83362 12.2027 2.81372 12.1829 2.79321 12.1623C2.77122 12.1404 2.74922 12.1184 2.72656 12.0957C2.71046 12.0805 2.69436 12.0653 2.67776 12.0496C1.82493 11.2285 1.293 10.0447 1.07617 8.89648C1.07201 8.87566 1.06786 8.85484 1.06358 8.83339C0.926899 8.12303 0.939023 7.29495 1.07617 6.58593C1.08053 6.56304 1.08489 6.54015 1.08937 6.51657C1.26176 5.63953 1.58443 4.74688 2.11719 4.02148C2.12844 4.00589 2.13969 3.9903 2.15128 3.97424C2.29767 3.77172 2.44835 3.57831 2.61954 3.39603C2.66779 3.34447 2.71317 3.29179 2.7583 3.23754C3.60764 2.26744 4.94542 1.63059 6.22491 1.53669C6.33415 1.52991 6.44319 1.52469 6.55261 1.52209ZM5.97329 2.1396C5.94675 2.14453 5.92022 2.14946 5.89288 2.15454C5.85182 2.16276 5.85182 2.16276 5.80994 2.17114C5.76647 2.17977 5.76647 2.17977 5.72214 2.18857C4.87657 2.36306 4.10299 2.77502 3.46963 3.35934C3.41714 3.40749 3.36342 3.4535 3.30896 3.49938C3.18861 3.60486 3.08437 3.72225 2.98047 3.84374C2.96195 3.8652 2.96195 3.8652 2.94305 3.88709C1.90497 5.09678 1.45719 6.69035 1.56425 8.2689C1.68058 9.54615 2.2348 10.8153 3.1582 11.7148C3.21896 11.7752 3.27935 11.8356 3.33792 11.8981C4.16183 12.7635 5.39144 13.2721 6.56055 13.416C6.57827 13.4184 6.59599 13.4208 6.61425 13.4233C6.83608 13.4501 7.05951 13.4465 7.28259 13.4462C7.30419 13.4461 7.32579 13.4461 7.34805 13.4461C7.65515 13.4455 7.9582 13.4419 8.26172 13.3906C8.28201 13.3873 8.3023 13.3841 8.32321 13.3807C8.8981 13.2855 9.41131 13.079 9.89148 12.7463C9.90657 12.7361 9.92167 12.7258 9.93722 12.7152C9.98327 12.6831 9.98327 12.6831 10.0391 12.6289C10.0391 12.4986 9.98261 12.4459 9.90259 12.3512C9.87426 12.3168 9.84596 12.2823 9.81769 12.2478C9.79643 12.2221 9.79643 12.2221 9.77474 12.1958C9.7185 12.1271 9.66451 12.0568 9.61059 11.9862C9.51071 11.8556 9.41009 11.7256 9.30908 11.5958C9.29403 11.5765 9.27898 11.5571 9.26347 11.5372C9.23267 11.4977 9.20187 11.4581 9.17107 11.4185C9.09643 11.3227 9.02185 11.2268 8.94726 11.1309C8.91764 11.0928 8.88802 11.0547 8.8584 11.0166C8.32519 10.331 7.79199 9.6455 7.25879 8.95995C7.24411 8.94109 7.22944 8.92222 7.21432 8.90278C7.18481 8.86485 7.15532 8.8269 7.12582 8.78896C7.05 8.69142 6.97408 8.59398 6.89796 8.49667C6.87459 8.46675 6.87459 8.46675 6.85075 8.43622C6.8215 8.39877 6.79221 8.36134 6.76288 8.32395C6.73593 8.28942 6.70939 8.25459 6.68328 8.21942C6.63799 8.15942 6.63799 8.15942 6.58487 8.10791C6.3754 7.87545 6.40534 7.61684 6.4082 7.32006C6.40801 7.26323 6.40773 7.20641 6.40736 7.14958C6.40663 6.99594 6.40713 6.84232 6.40787 6.68868C6.40843 6.52789 6.40783 6.3671 6.40737 6.2063C6.40673 5.93662 6.4068 5.66695 6.40742 5.39728C6.40805 5.11963 6.40826 4.84199 6.40789 4.56434C6.40787 4.5472 6.40785 4.53006 6.40782 4.5124C6.40771 4.42639 6.40759 4.34038 6.40746 4.25437C6.40641 3.54197 6.40684 2.82958 6.4082 2.11718C6.36343 2.11693 6.31865 2.11675 6.27387 2.1166C6.24893 2.1165 6.224 2.11639 6.19831 2.11628C6.12132 2.11728 6.04895 2.12546 5.97329 2.1396Z" fill="black" stroke="black" stroke-width="0.4"/>
    <path d="M10.195 0.616937C11.0685 0.913289 11.9035 1.41417 12.542 2.08483C12.5619 2.10473 12.5818 2.12463 12.6023 2.14514C12.6243 2.16713 12.6463 2.18912 12.669 2.21179C12.6931 2.23461 12.6931 2.23461 12.7178 2.25791C13.7646 3.26575 14.3754 4.82669 14.4056 6.26474C14.4059 6.29407 14.4063 6.32341 14.4067 6.35363C14.4072 6.38179 14.4078 6.40994 14.4084 6.43895C14.4078 6.63465 14.4078 6.63465 14.3473 6.73588C14.274 6.79944 14.2351 6.81067 14.1406 6.8109C14.1082 6.81107 14.1082 6.81107 14.0751 6.81124C14.0512 6.81124 14.0274 6.81123 14.0028 6.81123C13.9775 6.81132 13.9523 6.81141 13.9262 6.81151C13.8411 6.81179 13.7559 6.81189 13.6707 6.81198C13.6099 6.81214 13.5491 6.81231 13.4882 6.81249C13.3053 6.81298 13.1223 6.81325 12.9394 6.81347C12.8532 6.81358 12.7671 6.81372 12.681 6.81385C12.3948 6.81428 12.1085 6.81465 11.8223 6.81484C11.748 6.81489 11.6737 6.81493 11.5994 6.81498C11.581 6.815 11.5625 6.81501 11.5435 6.81502C11.2442 6.81523 10.945 6.81587 10.6458 6.8167C10.3387 6.81754 10.0316 6.818 9.72452 6.81808C9.55205 6.81813 9.37958 6.81836 9.20711 6.819C9.04491 6.81961 8.88272 6.8197 8.72052 6.81944C8.66091 6.81943 8.60131 6.81959 8.54171 6.81994C8.46047 6.82038 8.37926 6.82021 8.29802 6.81987C8.26247 6.82029 8.26247 6.82029 8.2262 6.82072C8.11932 6.81965 8.06288 6.81684 7.97037 6.75911C7.90301 6.68663 7.89238 6.64866 7.89214 6.5525C7.89203 6.53089 7.89192 6.50929 7.8918 6.48703C7.89181 6.46316 7.89181 6.43929 7.89182 6.41469C7.89172 6.38944 7.89163 6.36419 7.89153 6.33817C7.89125 6.25301 7.89115 6.16785 7.89106 6.08268C7.8909 6.02185 7.89073 5.96101 7.89055 5.90017C7.89006 5.71721 7.8898 5.53425 7.88957 5.35129C7.88946 5.26517 7.88932 5.17905 7.88919 5.09292C7.88876 4.8067 7.88839 4.52047 7.8882 4.23425C7.88816 4.15995 7.88811 4.08566 7.88806 4.01136C7.88805 3.9929 7.88803 3.97443 7.88802 3.95541C7.88781 3.65618 7.88717 3.35695 7.88634 3.05772C7.8855 2.75063 7.88505 2.44355 7.88496 2.13646C7.88491 1.96399 7.88469 1.79152 7.88404 1.61905C7.88343 1.45685 7.88334 1.29465 7.8836 1.13245C7.88361 1.07285 7.88345 1.01325 7.8831 0.953647C7.88266 0.872409 7.88283 0.791194 7.88317 0.709955C7.88289 0.686254 7.88261 0.662553 7.88232 0.638134C7.88339 0.531252 7.8862 0.474816 7.94393 0.38231C8.35505 0.000181489 9.72921 0.466365 10.195 0.616937ZM8.45415 0.866082C8.45415 2.64241 8.45415 4.41874 8.45415 6.2489C10.2305 6.2489 12.0068 6.2489 13.837 6.2489C13.7647 5.16482 13.4377 4.1384 12.7959 3.2528C12.7856 3.23855 12.7753 3.2243 12.7647 3.20962C12.5756 2.95068 12.3627 2.71759 12.1358 2.49108C12.1184 2.47249 12.101 2.4539 12.083 2.43475C11.1482 1.45286 9.77976 0.954457 8.45415 0.866082Z" fill="black" stroke="black" stroke-width="0.4"/>
    <path d="M9.06209 7.88874C9.09639 7.88863 9.09639 7.88863 9.13139 7.88851C9.20848 7.88829 9.28557 7.88825 9.36266 7.88821C9.41775 7.8881 9.47283 7.88797 9.52792 7.88783C9.6779 7.8875 9.82789 7.88734 9.97787 7.88722C10.0715 7.88715 10.1651 7.88704 10.2588 7.88693C10.5515 7.88658 10.8442 7.88634 11.137 7.88624C11.4753 7.88613 11.8136 7.88568 12.1519 7.88494C12.4132 7.8844 12.6744 7.88414 12.9356 7.88411C13.0918 7.88408 13.2479 7.88393 13.4041 7.88348C13.5509 7.88306 13.6978 7.883 13.8447 7.88323C13.8986 7.88324 13.9526 7.88313 14.0065 7.88288C14.0801 7.88256 14.1536 7.88271 14.2272 7.88297C14.2593 7.88267 14.2593 7.88267 14.2921 7.88235C14.4096 7.88335 14.4871 7.89183 14.5821 7.96848C14.6604 8.08592 14.6415 8.20471 14.6408 8.34299C14.6407 8.37261 14.6405 8.40223 14.6404 8.43274C14.6283 9.31377 14.3809 10.1754 13.9981 10.9646C13.9901 10.9812 13.9821 10.9979 13.9739 11.0151C13.78 11.4135 13.5251 11.797 13.2364 12.1325C13.2127 12.1609 13.189 12.1892 13.1654 12.2175C12.7349 12.7304 12.7349 12.7304 12.5255 12.8181C12.4252 12.8213 12.3627 12.8202 12.2797 12.7636C12.1529 12.6438 12.0506 12.4978 11.944 12.3601C11.8591 12.2507 11.7711 12.144 11.6828 12.0373C11.5743 11.9061 11.4665 11.7746 11.3606 11.6413C11.2881 11.5507 11.2149 11.4608 11.1417 11.3708C11.0366 11.2417 10.932 11.1122 10.8282 10.982C10.7554 10.8912 10.6819 10.801 10.6085 10.7107C10.5034 10.5815 10.3988 10.452 10.295 10.3219C10.2222 10.2311 10.1487 10.1408 10.0753 10.0505C9.97019 9.92138 9.86562 9.79188 9.76184 9.66171C9.68899 9.57092 9.61552 9.48064 9.54205 9.39035C9.437 9.26124 9.33237 9.13182 9.22874 9.00156C9.18429 8.94626 9.13949 8.89132 9.09444 8.83652C9.01018 8.73394 8.92675 8.63072 8.84381 8.52707C8.82378 8.5022 8.80375 8.47732 8.78311 8.45169C8.71314 8.35953 8.65611 8.28297 8.64703 8.16525C8.67117 8.04458 8.70584 8.00281 8.79303 7.9177C8.87678 7.87582 8.97002 7.88865 9.06209 7.88874ZM9.55475 8.4509C9.60526 8.53509 9.64765 8.60233 9.70898 8.67575C9.72372 8.6935 9.73847 8.71126 9.75366 8.72956C9.77696 8.75737 9.77696 8.75737 9.80072 8.78574C9.83307 8.82467 9.8654 8.86362 9.89772 8.90257C9.91318 8.92117 9.92863 8.93977 9.94456 8.95893C10.0093 9.03717 10.0725 9.11657 10.1357 9.19605C10.2081 9.28664 10.2813 9.37656 10.3546 9.46652C10.4596 9.59565 10.5642 9.72515 10.668 9.85532C10.7408 9.94611 10.8143 10.0364 10.8878 10.1267C10.9928 10.2558 11.0974 10.3853 11.2012 10.5155C11.274 10.6063 11.3475 10.6965 11.421 10.7868C11.526 10.916 11.6306 11.0455 11.7344 11.1756C11.8072 11.2664 11.8807 11.3567 11.9542 11.447C12.316 11.892 12.316 11.892 12.4747 12.1071C13.4241 11.1611 13.9681 9.8848 14.0743 8.55246C14.0743 8.51895 14.0743 8.48543 14.0743 8.4509C12.5828 8.4509 11.0914 8.4509 9.55475 8.4509Z" fill="black" stroke="black" stroke-width="0.4"/>
</svg>
