<svg width="39" height="39" viewBox="0 0 39 39" fill="none" xmlns="http://www.w3.org/2000/svg">
    <path d="M11.6319 13.4075H22.5293C23.1854 13.4075 23.7173 12.9123 23.7173 12.3003C23.7173 11.6884 23.1854 11.1932 22.5293 11.1932H11.6319C10.9758 11.1932 10.4439 11.6884 10.4439 12.3003C10.4439 12.9123 10.9758 13.4075 11.6319 13.4075Z" fill="black"/>
    <path d="M11.6319 23.5631H17.0826C17.7387 23.5631 18.2706 23.0679 18.2706 22.456C18.2706 21.844 17.7387 21.3488 17.0826 21.3488H11.6319C10.9758 21.3488 10.4439 21.844 10.4439 22.456C10.4439 23.0679 10.9758 23.5631 11.6319 23.5631Z" fill="black"/>
    <path d="M11.6319 18.4815H22.5293C23.1854 18.4815 23.7173 17.9863 23.7173 17.3743C23.7173 16.7624 23.1854 16.2672 22.5293 16.2672H11.6319C10.9758 16.2672 10.4439 16.7624 10.4439 17.3743C10.4439 17.9863 10.9758 18.4815 11.6319 18.4815Z" fill="black"/>
    <path d="M33.7788 27.2987C33.3861 26.504 32.5589 26.0099 31.6198 26.0099H29.1662L29.1656 7.32143C29.1656 5.48989 27.567 4 25.6017 4L8.56211 4.00432C6.59805 4.00541 5 5.49637 5 7.32575V33.8929C5.01118 34.4872 5.54337 34.9939 6.18853 35H26.8842C27.9254 35 28.9121 34.5773 29.5919 33.8388L33.4243 29.6643C34.0351 29.0005 34.1709 28.0933 33.7788 27.2987ZM8.56385 6.21861L25.6017 6.21429C26.2566 6.21429 26.7897 6.71055 26.7897 7.32143L26.7903 26.0099H13.5071C12.4653 26.0099 11.4786 26.4326 10.8 27.1711L7.3759 30.898V7.32575C7.3759 6.71596 7.90897 6.21861 8.56385 6.21861ZM27.788 32.3976C27.5606 32.6441 27.2317 32.7857 26.8842 32.7857H8.76976L12.6045 28.6112C12.8307 28.3658 13.1596 28.2242 13.5071 28.2242H31.6198L27.788 32.3976Z" fill="black"/>
</svg>
