<svg width="38" height="39" viewBox="0 0 38 39" fill="none" xmlns="http://www.w3.org/2000/svg">
    <path d="M6.86746 11.6667C7.89883 11.6667 8.73492 10.8459 8.73492 9.83333C8.73492 8.82081 7.89883 8 6.86746 8C5.83609 8 5 8.82081 5 9.83333C5 10.8459 5.83609 11.6667 6.86746 11.6667Z" fill="black"/>
    <path d="M6.86746 20.8333C7.89883 20.8333 8.73492 20.0125 8.73492 19C8.73492 17.9874 7.89883 17.1666 6.86746 17.1666C5.83609 17.1666 5 17.9874 5 19C5 20.0125 5.83609 20.8333 6.86746 20.8333Z" fill="black"/>
    <path d="M6.86746 30C7.89883 30 8.73492 29.1792 8.73492 28.1667C8.73492 27.1541 7.89883 26.3333 6.86746 26.3333C5.83609 26.3333 5 27.1541 5 28.1667C5 29.1792 5.83609 30 6.86746 30Z" fill="black"/>
    <path d="M31.2446 17.1666H14.2253C13.2558 17.1666 12.4699 17.9382 12.4699 18.89V19.11C12.4699 20.0617 13.2558 20.8333 14.2253 20.8333H31.2446C32.2141 20.8333 33 20.0617 33 19.11V18.89C33 17.9382 32.2141 17.1666 31.2446 17.1666Z" fill="black"/>
    <path d="M31.2446 26.3333H14.2253C13.2558 26.3333 12.4699 27.1049 12.4699 28.0567V28.2767C12.4699 29.2284 13.2558 30 14.2253 30H31.2446C32.2141 30 33 29.2284 33 28.2767V28.0567C33 27.1049 32.2141 26.3333 31.2446 26.3333Z" fill="black"/>
    <path d="M31.2446 8H14.2253C13.2558 8 12.4699 8.77156 12.4699 9.72333V9.94333C12.4699 10.8951 13.2558 11.6667 14.2253 11.6667H31.2446C32.2141 11.6667 33 10.8951 33 9.94333V9.72333C33 8.77156 32.2141 8 31.2446 8Z" fill="black"/>
</svg>
