<svg width="17" height="17" viewBox="0 0 17 17" fill="none" xmlns="http://www.w3.org/2000/svg">
<path d="M14.8419 8.19958L11.7831 11.2584C11.6568 11.3847 11.5856 11.5562 11.5856 11.7348C11.5856 11.7456 11.5858 11.7563 11.5864 11.7671C11.5944 11.9343 11.6644 12.0925 11.7828 12.2109C11.9091 12.3372 12.0804 12.4081 12.259 12.4081C12.4375 12.4081 12.6088 12.3372 12.7351 12.2109L16.2703 8.67572C16.3966 8.54944 16.4675 8.37816 16.4675 8.19958C16.4675 8.02099 16.3966 7.84971 16.2703 7.72343L12.7352 4.18832C12.6088 4.06196 12.4375 3.99102 12.259 3.99102C12.0804 3.99102 11.9091 4.06196 11.7828 4.18824C11.6565 4.31452 11.5856 4.4858 11.5856 4.66439C11.5856 4.84297 11.6565 5.01425 11.7828 5.14053L14.8419 8.19958Z" fill="#FF4940"/>
<path d="M6.36697 8.87294H15.7941C16.166 8.87294 16.4675 8.57147 16.4675 8.19958C16.4675 7.82768 16.166 7.52621 15.7941 7.52621H6.36697C5.99508 7.52621 5.6936 7.82768 5.6936 8.19958C5.6936 8.57147 5.99508 8.87294 6.36697 8.87294Z" fill="#FF4940"/>
<path d="M1.65338 1.46588H6.36697C6.73886 1.46588 7.04034 1.1644 7.04034 0.79251C7.04034 0.420618 6.73886 0.119141 6.36697 0.119141H1.65338C1.09554 0.119141 0.701091 0.513592 0.701091 0.513592C0.306641 0.908042 0.306641 1.46588 0.306641 1.46588V14.9333C0.306641 15.4911 0.701092 15.8856 0.701092 15.8856C1.09554 16.28 1.65338 16.28 1.65338 16.28H6.36697C6.73886 16.28 7.04034 15.9785 7.04034 15.6066C7.04034 15.2347 6.73886 14.9333 6.36697 14.9333H1.65338V1.46588Z" fill="#FF4940"/>
</svg>
