<svg width="140" height="210" viewBox="0 0 140 210" fill="none" xmlns="http://www.w3.org/2000/svg">
<rect width="140" height="210" transform="matrix(1 0 0 -1 0 210)" fill="transparent"/>
<path fill-rule="evenodd" clip-rule="evenodd" d="M30.5143 198.675C14.4911 195.846 3.41036 180.422 5.82094 164.303C7.78424 151.175 17.4579 141.14 30.5143 138.686C33.1473 138.191 38.2072 138.192 40.8753 138.688C55.5012 141.406 65.9235 153.952 65.892 168.802C65.8607 183.443 55.0826 196.265 40.7813 198.676C38.216 199.108 32.9665 199.108 30.5143 198.675ZM98.8527 196.136C85.3444 194.4 74.5046 184.107 71.9454 170.585C71.4206 167.812 71.4038 162.38 71.9115 159.625C73.5946 150.489 78.9451 142.665 86.6475 138.075C91.4863 135.192 95.7056 133.969 101.506 133.768C106.97 133.579 111.017 134.387 115.654 136.592C123.618 140.378 129.362 146.891 132.112 155.254C133.319 158.924 133.648 161.473 133.512 166.102C133.39 170.24 133.109 171.859 131.888 175.446C130.368 179.91 127.498 184.317 123.831 187.812C118.278 193.106 111.331 195.998 103.592 196.236C101.834 196.29 99.7014 196.245 98.8527 196.136ZM59.7234 138.61C51.0253 137.621 43.4216 131.747 40.3012 123.605C38.1505 117.993 38.1955 111.497 40.4231 105.989C43.298 98.8817 49.2732 93.7206 56.8576 91.7935C59.3875 91.1507 65.549 91.198 68.0292 91.8793C76.335 94.1606 82.6148 100.304 84.9379 108.419C86.5152 113.929 86.0135 119.943 83.539 125.193C82.2976 127.826 81.0717 129.557 78.9228 131.712C75.5092 135.135 72.1101 137.033 67.4391 138.125C65.2847 138.628 61.8058 138.847 59.7234 138.61ZM17.3194 134.473C13.8595 133.594 10.5894 130.896 9.04123 127.644C7.94274 125.336 7.607 123.601 7.75073 120.975C8.11337 114.349 13.2769 109.219 19.9328 108.873C25.7709 108.57 30.9832 112.207 32.9736 117.974C33.6005 119.791 33.5461 123.992 32.8697 125.967C31.5751 129.748 28.5616 132.804 24.7677 134.181C23.0612 134.801 19.2027 134.952 17.3194 134.473ZM108.141 128.246C97.4372 126.102 90.2487 116.331 91.451 105.56C91.9785 100.836 93.8038 96.9204 97.0658 93.5155C100.856 89.5587 105.256 87.4901 110.663 87.1219C119.764 86.5022 128.471 92.3837 131.383 101.119C135.047 112.109 129.241 123.842 118.282 127.592C115.433 128.567 111.129 128.844 108.141 128.246ZM23.0191 103.339C19.9575 102.842 16.4901 101.266 14.2012 99.3301C11.5444 97.0831 9.44465 93.8137 8.44867 90.3735C7.79967 88.132 7.85192 83.0655 8.54721 80.8269C10.9459 73.1024 17.5187 68.1541 25.3807 68.1541C28.5122 68.1541 30.4442 68.5989 33.1596 69.9446C36.7527 71.7254 39.372 74.3262 41.0906 77.8195C42.4127 80.5065 42.7799 81.9906 42.9058 85.1519C43.0202 88.0209 42.7451 89.7973 41.8219 92.151C39.7307 97.4828 35.3639 101.41 29.8529 102.915C28.5289 103.276 24.2637 103.541 23.0191 103.339ZM53.8521 85.287C48.5226 83.4548 46.0315 77.5542 48.4231 72.4269C49.2306 70.6956 50.9823 68.9711 52.8292 68.0895C54.2301 67.4204 54.4724 67.3767 56.7474 67.3791C59.0251 67.3816 59.2603 67.4251 60.6215 68.0939C67.1111 71.2828 67.6522 80.3552 61.5869 84.2774C59.3967 85.6936 56.2349 86.1063 53.8521 85.287ZM94.1131 82.3721C81.9449 81.1756 70.6598 73.1848 65.31 61.9774C64.0596 59.3581 62.7586 55.3513 62.2288 52.4895C61.6078 49.1335 61.6649 42.2339 62.3404 39.0468C64.342 29.6002 69.3479 21.8056 76.9333 16.325C79.2907 14.6217 83.8846 12.2615 86.5077 11.4059C93.8142 9.02284 101.999 9.02617 109.299 11.4148C112.033 12.3093 116.944 14.8765 119.244 16.613C126.919 22.4078 131.99 30.6356 133.595 39.896C134.218 43.494 134.214 48.6202 133.585 52.2519C130.301 71.2126 113.215 84.2503 94.1131 82.3721ZM26.1591 62.2487C15.7794 60.1658 7.89447 52.2944 5.69926 41.8242C5.16908 39.2954 5.12676 34.5413 5.6113 31.9663C7.38347 22.5497 14.0489 14.9301 23.13 11.9389C24.4242 11.5125 26.335 11.1123 28.1511 10.8873C30.8754 10.5498 31.283 10.5502 33.9085 10.8944C38.2821 11.4679 41.8684 12.8088 45.5046 15.2305C47.3853 16.4828 50.6926 19.7552 52.0596 21.7157C53.8995 24.3544 55.5731 28.2364 56.2743 31.4922C56.7492 33.6972 56.8552 36.945 56.5411 39.6624C55.2158 51.1252 46.9124 60.0743 35.5733 62.2613C33.4158 62.6773 28.2613 62.6704 26.1591 62.2487Z" fill="white"/>
<path d="M5.69926 41.8242C7.89447 52.2944 15.7794 60.1658 26.1591 62.2487C28.2613 62.6704 33.4158 62.6773 35.5733 62.2613C46.9124 60.0743 55.2158 51.1252 56.5411 39.6625C56.8552 36.945 56.7492 33.6972 56.2743 31.4922C55.5731 28.2364 53.8995 24.3544 52.0596 21.7157C50.6926 19.7552 47.3853 16.4828 45.5046 15.2305C41.8684 12.8088 38.2821 11.4679 33.9085 10.8944C31.283 10.5502 30.8754 10.5498 28.1511 10.8873C26.335 11.1124 24.4242 11.5125 23.13 11.9389C14.0489 14.9301 7.38347 22.5498 5.6113 31.9663C5.12676 34.5413 5.16908 39.2954 5.69926 41.8242Z" fill="#D91C36"/>
<path d="M91.4512 105.56C90.2489 116.331 97.4374 126.102 108.141 128.246C111.13 128.844 115.433 128.567 118.282 127.592C129.241 123.842 135.047 112.109 131.383 101.119C128.471 92.3837 119.764 86.5022 110.664 87.1219C105.256 87.4901 100.857 89.5587 97.066 93.5155C93.804 96.9204 91.9787 100.836 91.4512 105.56Z" fill="#D91C36"/>
<path d="M5.82089 164.303C3.41031 180.422 14.4911 195.846 30.5142 198.675C32.9665 199.108 38.216 199.108 40.7813 198.676C55.0826 196.265 65.8606 183.443 65.8919 168.802C65.9235 153.952 55.5012 141.406 40.8752 138.688C38.2071 138.192 33.1472 138.191 30.5142 138.686C17.4578 141.14 7.78419 151.175 5.82089 164.303Z" fill="#D91C36"/>
</svg>
