<svg width="39" height="39" viewBox="0 0 39 39" fill="none" xmlns="http://www.w3.org/2000/svg">
<mask id="path-2-outside-1_2750_30339" maskUnits="userSpaceOnUse" x="4" y="3" width="31" height="32" fill="black">
<rect fill="white" x="4" y="3" width="31" height="32"/>
<path d="M33.2287 13.4437C33.0242 13.4437 32.828 13.5193 32.6833 13.654C32.5387 13.7886 32.4574 13.9713 32.4574 14.1617V16.1126H28.4093C28.4428 15.4533 28.3105 14.7957 28.0231 14.1923L25.0573 7.92203C25.1442 7.69886 25.1893 7.46345 25.1905 7.22608C25.1905 5.41679 22.6283 4 19.3565 4C16.0848 4 13.5226 5.41679 13.5226 7.22608C13.5247 7.49133 13.5814 7.75374 13.6897 7.99909L10.7666 14.1918C10.4791 14.7954 10.347 15.4531 10.3809 16.1126H6.54255V14.1617C6.54255 13.9713 6.46129 13.7886 6.31665 13.654C6.17201 13.5193 5.97583 13.4437 5.77128 13.4437C5.56672 13.4437 5.37054 13.5193 5.2259 13.654C5.08126 13.7886 5 13.9713 5 14.1617V16.8119C5 16.8186 5 16.8244 5 16.8306C5 16.8368 5 16.8431 5 16.8493V28.8561C5 29.0465 5.08126 29.2292 5.2259 29.3638C5.37054 29.4985 5.56672 29.5741 5.77128 29.5741H7.26755C7.15286 30.1112 7.16753 30.6653 7.31052 31.1965C7.45351 31.7277 7.72126 32.2228 8.09449 32.646C8.46771 33.0693 8.93713 33.4103 9.46893 33.6444C10.0007 33.8786 10.5817 34 11.17 34C11.7582 34 12.3392 33.8786 12.871 33.6444C13.4028 33.4103 13.8722 33.0693 14.2454 32.646C14.6186 32.2228 14.8864 31.7277 15.0294 31.1965C15.1724 30.6653 15.1871 30.1112 15.0724 29.5741H23.9266C23.8189 30.0811 23.8264 30.6034 23.9486 31.1075C24.0707 31.6116 24.3049 32.0864 24.636 32.5012C24.967 32.916 25.3877 33.2617 25.871 33.5161C26.3542 33.7705 26.8893 33.9279 27.4418 33.9782C27.9943 34.0286 28.552 33.9707 29.0791 33.8084C29.6061 33.646 30.0908 33.3828 30.502 33.0356C30.9132 32.6884 31.2418 32.2649 31.4666 31.7924C31.6915 31.3199 31.8076 30.8089 31.8075 30.2921C31.8073 30.051 31.7817 29.8105 31.7309 29.5741H33.2287C33.2806 29.574 33.3323 29.5689 33.383 29.5588C33.557 29.5257 33.7135 29.4377 33.8259 29.3097C33.9383 29.1817 33.9998 29.0215 34 28.8561V14.1617C34 13.9713 33.9187 13.7886 33.7741 13.654C33.6295 13.5193 33.4333 13.4437 33.2287 13.4437ZM26.4965 17.269L23.5765 22.2029C23.4352 22.4358 23.2458 22.6402 23.0191 22.8045C22.7925 22.9689 22.5331 23.0897 22.256 23.1602C20.3637 23.6173 18.3756 23.604 16.4905 23.1215C16.217 23.052 15.9614 22.9318 15.7389 22.7683C15.5165 22.6047 15.3317 22.401 15.1958 22.1694L12.3014 17.2681C12.0975 16.9272 11.9728 16.5503 11.9352 16.1617C11.8976 15.7731 11.9481 15.3815 12.0834 15.0122C13.6697 16.2869 16.3918 17.0852 19.4362 17.0852C22.4226 17.0852 25.1267 16.3036 26.7289 15.0572C26.8538 15.4212 26.8977 15.8051 26.8577 16.1854C26.8178 16.5658 26.6948 16.9345 26.4965 17.269ZM19.3565 10.4512C21.0009 10.5071 22.6213 10.0721 23.9811 9.20959L26.0852 13.661C24.9118 14.8524 22.31 15.6512 19.4342 15.6512C16.202 15.6512 13.7622 14.6805 12.7302 13.6036L14.787 9.25123C16.1386 10.0847 17.7362 10.5042 19.3565 10.4512ZM19.3565 5.43498C21.8128 5.43498 23.6479 6.38031 23.6479 7.22512C23.6464 7.33551 23.6181 7.44415 23.5651 7.54294L23.5621 7.54869C23.1728 8.29442 21.5017 9.01526 19.3565 9.01526C16.9003 9.01526 15.0652 8.07041 15.0652 7.22512C15.0652 6.37983 16.9003 5.43498 19.3565 5.43498ZM11.1702 32.557C10.6883 32.5569 10.2172 32.4238 9.81655 32.1744C9.41592 31.925 9.10375 31.5706 8.91953 31.1561C8.7353 30.7415 8.68731 30.2854 8.78162 29.8454C8.87593 29.4055 9.10831 29.0014 9.44934 28.6844C9.79038 28.3674 10.2248 28.1517 10.6975 28.0646C11.1703 27.9774 11.6602 28.0228 12.1053 28.1949C12.5504 28.367 12.9306 28.6581 13.1979 29.0314C13.4652 29.4047 13.6075 29.8434 13.6069 30.2921C13.6054 30.8929 13.3481 31.4687 12.8914 31.8933C12.4346 32.3178 11.8157 32.5565 11.1702 32.557ZM27.8298 32.557C27.3478 32.5572 26.8765 32.4243 26.4757 32.1751C26.0749 31.9259 25.7625 31.5716 25.578 31.1571C25.3935 30.7425 25.3453 30.2864 25.4395 29.8463C25.5336 29.4062 25.7659 29.0021 26.1068 28.6849C26.4478 28.3678 26.8822 28.1519 27.355 28.0647C27.8278 27.9774 28.3178 28.0227 28.763 28.1947C29.2081 28.3668 29.5885 28.6579 29.8558 29.0313C30.1232 29.4046 30.2656 29.8434 30.265 30.2921C30.2636 30.8927 30.0065 31.4684 29.5501 31.8929C29.0936 32.3175 28.475 32.5563 27.8298 32.557ZM27.8298 26.5859C27.1972 26.5864 26.5739 26.7276 26.0117 26.9975C25.4495 27.2675 24.9647 27.6586 24.5976 28.1382H14.4024C14.0356 27.6585 13.551 27.2675 12.9888 26.9976C12.4267 26.7278 11.8034 26.587 11.171 26.587C10.5385 26.587 9.91525 26.7278 9.35313 26.9976C8.79101 27.2675 8.30635 27.6585 7.93959 28.1382H6.54255V17.5486H10.7337C10.7969 17.6897 10.8681 17.8276 10.9471 17.9616L13.844 22.8625C14.0807 23.2645 14.4024 23.6177 14.7896 23.9009C15.1768 24.1841 15.6216 24.3915 16.0971 24.5105C17.2186 24.7876 18.3736 24.9296 19.5339 24.9331C20.5925 24.9361 21.6465 24.8055 22.6674 24.545C23.1426 24.4226 23.587 24.2137 23.9748 23.9303C24.3626 23.647 24.6862 23.2947 24.9267 22.8941L27.8483 17.9597C27.9261 17.8263 27.9961 17.689 28.0581 17.5486H32.4574V28.1382H31.0589C30.6921 27.659 30.2078 27.2681 29.6462 26.9982C29.0846 26.7282 28.4619 26.5869 27.8298 26.5859Z"/>
<path d="M11.1706 29.4544C10.9933 29.4545 10.8199 29.5035 10.6725 29.5952C10.5251 29.687 10.4102 29.8173 10.3423 29.9698C10.2744 30.1223 10.2565 30.2901 10.291 30.452C10.3255 30.6139 10.4107 30.7627 10.5359 30.8796C10.6612 30.9964 10.8208 31.0761 10.9947 31.1086C11.1686 31.141 11.3489 31.1248 11.5128 31.0619C11.6768 30.9991 11.8171 30.8924 11.9159 30.7554C12.0148 30.6183 12.0679 30.4571 12.0684 30.292C12.0687 30.1821 12.0457 30.0732 12.0008 29.9716C11.9558 29.8699 11.8897 29.7775 11.8063 29.6997C11.7229 29.6219 11.6238 29.5602 11.5147 29.5181C11.4056 29.476 11.2887 29.4543 11.1706 29.4544Z"/>
<path d="M27.8302 29.4544C27.6528 29.4542 27.4793 29.503 27.3317 29.5945C27.1841 29.6861 27.0689 29.8163 27.0008 29.9688C26.9326 30.1213 26.9146 30.2891 26.9488 30.4511C26.9831 30.6131 27.0683 30.7621 27.1934 30.8791C27.3186 30.9961 27.4783 31.0759 27.6522 31.1085C27.8261 31.141 28.0065 31.1249 28.1705 31.0621C28.3346 30.9993 28.4749 30.8926 28.5739 30.7555C28.6728 30.6185 28.7259 30.4572 28.7264 30.292C28.7268 30.1822 28.7039 30.0734 28.6591 29.9718C28.6142 29.8702 28.5483 29.7779 28.465 29.7001C28.3818 29.6223 28.2829 29.5605 28.1739 29.5184C28.065 29.4762 27.9482 29.4545 27.8302 29.4544Z"/>
</mask>
<path d="M33.2287 13.4437C33.0242 13.4437 32.828 13.5193 32.6833 13.654C32.5387 13.7886 32.4574 13.9713 32.4574 14.1617V16.1126H28.4093C28.4428 15.4533 28.3105 14.7957 28.0231 14.1923L25.0573 7.92203C25.1442 7.69886 25.1893 7.46345 25.1905 7.22608C25.1905 5.41679 22.6283 4 19.3565 4C16.0848 4 13.5226 5.41679 13.5226 7.22608C13.5247 7.49133 13.5814 7.75374 13.6897 7.99909L10.7666 14.1918C10.4791 14.7954 10.347 15.4531 10.3809 16.1126H6.54255V14.1617C6.54255 13.9713 6.46129 13.7886 6.31665 13.654C6.17201 13.5193 5.97583 13.4437 5.77128 13.4437C5.56672 13.4437 5.37054 13.5193 5.2259 13.654C5.08126 13.7886 5 13.9713 5 14.1617V16.8119C5 16.8186 5 16.8244 5 16.8306C5 16.8368 5 16.8431 5 16.8493V28.8561C5 29.0465 5.08126 29.2292 5.2259 29.3638C5.37054 29.4985 5.56672 29.5741 5.77128 29.5741H7.26755C7.15286 30.1112 7.16753 30.6653 7.31052 31.1965C7.45351 31.7277 7.72126 32.2228 8.09449 32.646C8.46771 33.0693 8.93713 33.4103 9.46893 33.6444C10.0007 33.8786 10.5817 34 11.17 34C11.7582 34 12.3392 33.8786 12.871 33.6444C13.4028 33.4103 13.8722 33.0693 14.2454 32.646C14.6186 32.2228 14.8864 31.7277 15.0294 31.1965C15.1724 30.6653 15.1871 30.1112 15.0724 29.5741H23.9266C23.8189 30.0811 23.8264 30.6034 23.9486 31.1075C24.0707 31.6116 24.3049 32.0864 24.636 32.5012C24.967 32.916 25.3877 33.2617 25.871 33.5161C26.3542 33.7705 26.8893 33.9279 27.4418 33.9782C27.9943 34.0286 28.552 33.9707 29.0791 33.8084C29.6061 33.646 30.0908 33.3828 30.502 33.0356C30.9132 32.6884 31.2418 32.2649 31.4666 31.7924C31.6915 31.3199 31.8076 30.8089 31.8075 30.2921C31.8073 30.051 31.7817 29.8105 31.7309 29.5741H33.2287C33.2806 29.574 33.3323 29.5689 33.383 29.5588C33.557 29.5257 33.7135 29.4377 33.8259 29.3097C33.9383 29.1817 33.9998 29.0215 34 28.8561V14.1617C34 13.9713 33.9187 13.7886 33.7741 13.654C33.6295 13.5193 33.4333 13.4437 33.2287 13.4437ZM26.4965 17.269L23.5765 22.2029C23.4352 22.4358 23.2458 22.6402 23.0191 22.8045C22.7925 22.9689 22.5331 23.0897 22.256 23.1602C20.3637 23.6173 18.3756 23.604 16.4905 23.1215C16.217 23.052 15.9614 22.9318 15.7389 22.7683C15.5165 22.6047 15.3317 22.401 15.1958 22.1694L12.3014 17.2681C12.0975 16.9272 11.9728 16.5503 11.9352 16.1617C11.8976 15.7731 11.9481 15.3815 12.0834 15.0122C13.6697 16.2869 16.3918 17.0852 19.4362 17.0852C22.4226 17.0852 25.1267 16.3036 26.7289 15.0572C26.8538 15.4212 26.8977 15.8051 26.8577 16.1854C26.8178 16.5658 26.6948 16.9345 26.4965 17.269ZM19.3565 10.4512C21.0009 10.5071 22.6213 10.0721 23.9811 9.20959L26.0852 13.661C24.9118 14.8524 22.31 15.6512 19.4342 15.6512C16.202 15.6512 13.7622 14.6805 12.7302 13.6036L14.787 9.25123C16.1386 10.0847 17.7362 10.5042 19.3565 10.4512ZM19.3565 5.43498C21.8128 5.43498 23.6479 6.38031 23.6479 7.22512C23.6464 7.33551 23.6181 7.44415 23.5651 7.54294L23.5621 7.54869C23.1728 8.29442 21.5017 9.01526 19.3565 9.01526C16.9003 9.01526 15.0652 8.07041 15.0652 7.22512C15.0652 6.37983 16.9003 5.43498 19.3565 5.43498ZM11.1702 32.557C10.6883 32.5569 10.2172 32.4238 9.81655 32.1744C9.41592 31.925 9.10375 31.5706 8.91953 31.1561C8.7353 30.7415 8.68731 30.2854 8.78162 29.8454C8.87593 29.4055 9.10831 29.0014 9.44934 28.6844C9.79038 28.3674 10.2248 28.1517 10.6975 28.0646C11.1703 27.9774 11.6602 28.0228 12.1053 28.1949C12.5504 28.367 12.9306 28.6581 13.1979 29.0314C13.4652 29.4047 13.6075 29.8434 13.6069 30.2921C13.6054 30.8929 13.3481 31.4687 12.8914 31.8933C12.4346 32.3178 11.8157 32.5565 11.1702 32.557ZM27.8298 32.557C27.3478 32.5572 26.8765 32.4243 26.4757 32.1751C26.0749 31.9259 25.7625 31.5716 25.578 31.1571C25.3935 30.7425 25.3453 30.2864 25.4395 29.8463C25.5336 29.4062 25.7659 29.0021 26.1068 28.6849C26.4478 28.3678 26.8822 28.1519 27.355 28.0647C27.8278 27.9774 28.3178 28.0227 28.763 28.1947C29.2081 28.3668 29.5885 28.6579 29.8558 29.0313C30.1232 29.4046 30.2656 29.8434 30.265 30.2921C30.2636 30.8927 30.0065 31.4684 29.5501 31.8929C29.0936 32.3175 28.475 32.5563 27.8298 32.557ZM27.8298 26.5859C27.1972 26.5864 26.5739 26.7276 26.0117 26.9975C25.4495 27.2675 24.9647 27.6586 24.5976 28.1382H14.4024C14.0356 27.6585 13.551 27.2675 12.9888 26.9976C12.4267 26.7278 11.8034 26.587 11.171 26.587C10.5385 26.587 9.91525 26.7278 9.35313 26.9976C8.79101 27.2675 8.30635 27.6585 7.93959 28.1382H6.54255V17.5486H10.7337C10.7969 17.6897 10.8681 17.8276 10.9471 17.9616L13.844 22.8625C14.0807 23.2645 14.4024 23.6177 14.7896 23.9009C15.1768 24.1841 15.6216 24.3915 16.0971 24.5105C17.2186 24.7876 18.3736 24.9296 19.5339 24.9331C20.5925 24.9361 21.6465 24.8055 22.6674 24.545C23.1426 24.4226 23.587 24.2137 23.9748 23.9303C24.3626 23.647 24.6862 23.2947 24.9267 22.8941L27.8483 17.9597C27.9261 17.8263 27.9961 17.689 28.0581 17.5486H32.4574V28.1382H31.0589C30.6921 27.659 30.2078 27.2681 29.6462 26.9982C29.0846 26.7282 28.4619 26.5869 27.8298 26.5859Z" fill="black"/>
<path d="M11.1706 29.4544C10.9933 29.4545 10.8199 29.5035 10.6725 29.5952C10.5251 29.687 10.4102 29.8173 10.3423 29.9698C10.2744 30.1223 10.2565 30.2901 10.291 30.452C10.3255 30.6139 10.4107 30.7627 10.5359 30.8796C10.6612 30.9964 10.8208 31.0761 10.9947 31.1086C11.1686 31.141 11.3489 31.1248 11.5128 31.0619C11.6768 30.9991 11.8171 30.8924 11.9159 30.7554C12.0148 30.6183 12.0679 30.4571 12.0684 30.292C12.0687 30.1821 12.0457 30.0732 12.0008 29.9716C11.9558 29.8699 11.8897 29.7775 11.8063 29.6997C11.7229 29.6219 11.6238 29.5602 11.5147 29.5181C11.4056 29.476 11.2887 29.4543 11.1706 29.4544Z" fill="black"/>
<path d="M27.8302 29.4544C27.6528 29.4542 27.4793 29.503 27.3317 29.5945C27.1841 29.6861 27.0689 29.8163 27.0008 29.9688C26.9326 30.1213 26.9146 30.2891 26.9488 30.4511C26.9831 30.6131 27.0683 30.7621 27.1934 30.8791C27.3186 30.9961 27.4783 31.0759 27.6522 31.1085C27.8261 31.141 28.0065 31.1249 28.1705 31.0621C28.3346 30.9993 28.4749 30.8926 28.5739 30.7555C28.6728 30.6185 28.7259 30.4572 28.7264 30.292C28.7268 30.1822 28.7039 30.0734 28.6591 29.9718C28.6142 29.8702 28.5483 29.7779 28.465 29.7001C28.3818 29.6223 28.2829 29.5605 28.1739 29.5184C28.065 29.4762 27.9482 29.4545 27.8302 29.4544Z" fill="black"/>
<path d="M33.2287 13.4437C33.0242 13.4437 32.828 13.5193 32.6833 13.654C32.5387 13.7886 32.4574 13.9713 32.4574 14.1617V16.1126H28.4093C28.4428 15.4533 28.3105 14.7957 28.0231 14.1923L25.0573 7.92203C25.1442 7.69886 25.1893 7.46345 25.1905 7.22608C25.1905 5.41679 22.6283 4 19.3565 4C16.0848 4 13.5226 5.41679 13.5226 7.22608C13.5247 7.49133 13.5814 7.75374 13.6897 7.99909L10.7666 14.1918C10.4791 14.7954 10.347 15.4531 10.3809 16.1126H6.54255V14.1617C6.54255 13.9713 6.46129 13.7886 6.31665 13.654C6.17201 13.5193 5.97583 13.4437 5.77128 13.4437C5.56672 13.4437 5.37054 13.5193 5.2259 13.654C5.08126 13.7886 5 13.9713 5 14.1617V16.8119C5 16.8186 5 16.8244 5 16.8306C5 16.8368 5 16.8431 5 16.8493V28.8561C5 29.0465 5.08126 29.2292 5.2259 29.3638C5.37054 29.4985 5.56672 29.5741 5.77128 29.5741H7.26755C7.15286 30.1112 7.16753 30.6653 7.31052 31.1965C7.45351 31.7277 7.72126 32.2228 8.09449 32.646C8.46771 33.0693 8.93713 33.4103 9.46893 33.6444C10.0007 33.8786 10.5817 34 11.17 34C11.7582 34 12.3392 33.8786 12.871 33.6444C13.4028 33.4103 13.8722 33.0693 14.2454 32.646C14.6186 32.2228 14.8864 31.7277 15.0294 31.1965C15.1724 30.6653 15.1871 30.1112 15.0724 29.5741H23.9266C23.8189 30.0811 23.8264 30.6034 23.9486 31.1075C24.0707 31.6116 24.3049 32.0864 24.636 32.5012C24.967 32.916 25.3877 33.2617 25.871 33.5161C26.3542 33.7705 26.8893 33.9279 27.4418 33.9782C27.9943 34.0286 28.552 33.9707 29.0791 33.8084C29.6061 33.646 30.0908 33.3828 30.502 33.0356C30.9132 32.6884 31.2418 32.2649 31.4666 31.7924C31.6915 31.3199 31.8076 30.8089 31.8075 30.2921C31.8073 30.051 31.7817 29.8105 31.7309 29.5741H33.2287C33.2806 29.574 33.3323 29.5689 33.383 29.5588C33.557 29.5257 33.7135 29.4377 33.8259 29.3097C33.9383 29.1817 33.9998 29.0215 34 28.8561V14.1617C34 13.9713 33.9187 13.7886 33.7741 13.654C33.6295 13.5193 33.4333 13.4437 33.2287 13.4437ZM26.4965 17.269L23.5765 22.2029C23.4352 22.4358 23.2458 22.6402 23.0191 22.8045C22.7925 22.9689 22.5331 23.0897 22.256 23.1602C20.3637 23.6173 18.3756 23.604 16.4905 23.1215C16.217 23.052 15.9614 22.9318 15.7389 22.7683C15.5165 22.6047 15.3317 22.401 15.1958 22.1694L12.3014 17.2681C12.0975 16.9272 11.9728 16.5503 11.9352 16.1617C11.8976 15.7731 11.9481 15.3815 12.0834 15.0122C13.6697 16.2869 16.3918 17.0852 19.4362 17.0852C22.4226 17.0852 25.1267 16.3036 26.7289 15.0572C26.8538 15.4212 26.8977 15.8051 26.8577 16.1854C26.8178 16.5658 26.6948 16.9345 26.4965 17.269ZM19.3565 10.4512C21.0009 10.5071 22.6213 10.0721 23.9811 9.20959L26.0852 13.661C24.9118 14.8524 22.31 15.6512 19.4342 15.6512C16.202 15.6512 13.7622 14.6805 12.7302 13.6036L14.787 9.25123C16.1386 10.0847 17.7362 10.5042 19.3565 10.4512ZM19.3565 5.43498C21.8128 5.43498 23.6479 6.38031 23.6479 7.22512C23.6464 7.33551 23.6181 7.44415 23.5651 7.54294L23.5621 7.54869C23.1728 8.29442 21.5017 9.01526 19.3565 9.01526C16.9003 9.01526 15.0652 8.07041 15.0652 7.22512C15.0652 6.37983 16.9003 5.43498 19.3565 5.43498ZM11.1702 32.557C10.6883 32.5569 10.2172 32.4238 9.81655 32.1744C9.41592 31.925 9.10375 31.5706 8.91953 31.1561C8.7353 30.7415 8.68731 30.2854 8.78162 29.8454C8.87593 29.4055 9.10831 29.0014 9.44934 28.6844C9.79038 28.3674 10.2248 28.1517 10.6975 28.0646C11.1703 27.9774 11.6602 28.0228 12.1053 28.1949C12.5504 28.367 12.9306 28.6581 13.1979 29.0314C13.4652 29.4047 13.6075 29.8434 13.6069 30.2921C13.6054 30.8929 13.3481 31.4687 12.8914 31.8933C12.4346 32.3178 11.8157 32.5565 11.1702 32.557ZM27.8298 32.557C27.3478 32.5572 26.8765 32.4243 26.4757 32.1751C26.0749 31.9259 25.7625 31.5716 25.578 31.1571C25.3935 30.7425 25.3453 30.2864 25.4395 29.8463C25.5336 29.4062 25.7659 29.0021 26.1068 28.6849C26.4478 28.3678 26.8822 28.1519 27.355 28.0647C27.8278 27.9774 28.3178 28.0227 28.763 28.1947C29.2081 28.3668 29.5885 28.6579 29.8558 29.0313C30.1232 29.4046 30.2656 29.8434 30.265 30.2921C30.2636 30.8927 30.0065 31.4684 29.5501 31.8929C29.0936 32.3175 28.475 32.5563 27.8298 32.557ZM27.8298 26.5859C27.1972 26.5864 26.5739 26.7276 26.0117 26.9975C25.4495 27.2675 24.9647 27.6586 24.5976 28.1382H14.4024C14.0356 27.6585 13.551 27.2675 12.9888 26.9976C12.4267 26.7278 11.8034 26.587 11.171 26.587C10.5385 26.587 9.91525 26.7278 9.35313 26.9976C8.79101 27.2675 8.30635 27.6585 7.93959 28.1382H6.54255V17.5486H10.7337C10.7969 17.6897 10.8681 17.8276 10.9471 17.9616L13.844 22.8625C14.0807 23.2645 14.4024 23.6177 14.7896 23.9009C15.1768 24.1841 15.6216 24.3915 16.0971 24.5105C17.2186 24.7876 18.3736 24.9296 19.5339 24.9331C20.5925 24.9361 21.6465 24.8055 22.6674 24.545C23.1426 24.4226 23.587 24.2137 23.9748 23.9303C24.3626 23.647 24.6862 23.2947 24.9267 22.8941L27.8483 17.9597C27.9261 17.8263 27.9961 17.689 28.0581 17.5486H32.4574V28.1382H31.0589C30.6921 27.659 30.2078 27.2681 29.6462 26.9982C29.0846 26.7282 28.4619 26.5869 27.8298 26.5859Z" stroke="black" stroke-width="0.6" mask="url(#path-2-outside-1_2750_30339)"/>
<path d="M11.1706 29.4544C10.9933 29.4545 10.8199 29.5035 10.6725 29.5952C10.5251 29.687 10.4102 29.8173 10.3423 29.9698C10.2744 30.1223 10.2565 30.2901 10.291 30.452C10.3255 30.6139 10.4107 30.7627 10.5359 30.8796C10.6612 30.9964 10.8208 31.0761 10.9947 31.1086C11.1686 31.141 11.3489 31.1248 11.5128 31.0619C11.6768 30.9991 11.8171 30.8924 11.9159 30.7554C12.0148 30.6183 12.0679 30.4571 12.0684 30.292C12.0687 30.1821 12.0457 30.0732 12.0008 29.9716C11.9558 29.8699 11.8897 29.7775 11.8063 29.6997C11.7229 29.6219 11.6238 29.5602 11.5147 29.5181C11.4056 29.476 11.2887 29.4543 11.1706 29.4544Z" stroke="black" stroke-width="0.6" mask="url(#path-2-outside-1_2750_30339)"/>
<path d="M27.8302 29.4544C27.6528 29.4542 27.4793 29.503 27.3317 29.5945C27.1841 29.6861 27.0689 29.8163 27.0008 29.9688C26.9326 30.1213 26.9146 30.2891 26.9488 30.4511C26.9831 30.6131 27.0683 30.7621 27.1934 30.8791C27.3186 30.9961 27.4783 31.0759 27.6522 31.1085C27.8261 31.141 28.0065 31.1249 28.1705 31.0621C28.3346 30.9993 28.4749 30.8926 28.5739 30.7555C28.6728 30.6185 28.7259 30.4572 28.7264 30.292C28.7268 30.1822 28.7039 30.0734 28.6591 29.9718C28.6142 29.8702 28.5483 29.7779 28.465 29.7001C28.3818 29.6223 28.2829 29.5605 28.1739 29.5184C28.065 29.4762 27.9482 29.4545 27.8302 29.4544Z" stroke="black" stroke-width="0.6" mask="url(#path-2-outside-1_2750_30339)"/>
</svg>
