<svg width="21" height="20" viewBox="0 0 21 20" fill="none" xmlns="http://www.w3.org/2000/svg">
<path fill-rule="evenodd" clip-rule="evenodd" d="M16.9502 14.9972C16.8677 14.9991 16.785 15 16.7021 15C10.627 15 5.70215 10.0751 5.70215 3.99999C5.70215 3.91709 5.70307 3.8344 5.7049 3.75192C3.87426 5.21851 2.70215 7.47339 2.70215 9.99996C2.70215 14.4182 6.28387 18 10.7021 18C13.2287 18 15.4836 16.8279 16.9502 14.9972ZM18.1682 12.8812C17.6911 12.9593 17.2014 13 16.7021 13C11.7316 13 7.70215 8.97055 7.70215 3.99999C7.70215 3.50074 7.7428 3.01099 7.82097 2.53386C7.95309 1.72745 8.19239 0.957097 8.52376 0.237915C7.66241 0.429276 6.84287 0.731729 6.08097 1.12946C2.8843 2.79821 0.702148 6.14425 0.702148 9.99996C0.702148 15.5228 5.1793 20 10.7021 20C14.5578 20 17.9039 17.8178 19.5726 14.6212C19.9704 13.8593 20.2728 13.0397 20.4642 12.1784C19.745 12.5098 18.9747 12.7491 18.1682 12.8812Z" fill="#242424"/>
</svg>
