<svg width="39" height="39" viewBox="0 0 39 39" fill="none" xmlns="http://www.w3.org/2000/svg">
    <path d="M35.7928 28.6595C35.8236 29.8219 35.5151 30.9224 34.9598 31.8678C34.6513 32.4258 34.2348 32.9373 33.772 33.3558C32.7077 34.3478 31.3039 34.9522 29.7459 34.9987C27.4937 35.0452 25.5038 33.8828 24.4086 32.1004C23.8224 31.1859 23.4676 30.0855 23.4522 28.923C23.4059 26.9701 24.2698 25.2032 25.6581 24.0407C26.707 23.1727 28.0337 22.6303 29.4837 22.5993C32.8928 22.5218 35.7157 25.2341 35.7928 28.6595Z" stroke="black" stroke-width="1.7" stroke-miterlimit="10" stroke-linecap="round" stroke-linejoin="round"/>
    <path d="M27.2161 28.8457L28.7741 30.3335L31.9981 27.2026" stroke="black" stroke-width="1.5" stroke-linecap="round" stroke-linejoin="round"/>
    <path d="M5.20337 12.4316L18.8243 20.3518L32.3526 12.4781" stroke="black" stroke-width="2" stroke-linecap="round" stroke-linejoin="round"/>
    <path d="M18.824 34.3943V20.3364" stroke="black" stroke-width="2" stroke-linecap="round" stroke-linejoin="round"/>
    <path d="M33.6482 15.113V23.8857C33.6482 23.9632 33.6482 24.0251 33.6328 24.1026C32.553 23.1572 31.1647 22.5992 29.6221 22.5992C28.1721 22.5992 26.8301 23.1107 25.7657 23.9632C24.3465 25.0946 23.4518 26.8461 23.4518 28.799C23.4518 29.9614 23.7757 31.0619 24.3465 31.9918C24.4853 32.2398 24.655 32.4723 24.8401 32.6893L22.0172 34.2548C20.2587 35.2467 17.3895 35.2467 15.631 34.2548L7.39363 29.6669C5.52712 28.6285 4 26.0246 4 23.8857V15.113C4 12.9741 5.52712 10.3703 7.39363 9.33181L15.631 4.74397C17.3895 3.75201 20.2587 3.75201 22.0172 4.74397L30.2546 9.33181C32.1211 10.3703 33.6482 12.9741 33.6482 15.113Z" stroke="black" stroke-width="2" stroke-linecap="round" stroke-linejoin="round"/>
</svg>
