<svg width="39" height="39" viewBox="0 0 39 39" fill="none" xmlns="http://www.w3.org/2000/svg">
<path fill-rule="evenodd" clip-rule="evenodd" d="M13.3306 6.04714C13.1842 6.06959 13.0643 6.10336 13.0643 6.12215C13.0643 6.14095 13.018 6.16795 12.9613 6.18216C12.8655 6.20614 12.617 6.42349 12.4667 6.61464C12.4311 6.66001 12.3639 6.79282 12.3176 6.90976C12.2359 7.11584 12.2333 7.2358 12.2333 10.805C12.2333 13.6626 12.2452 14.5129 12.2866 14.6004C12.3159 14.6624 12.3597 14.7562 12.384 14.8088C12.4906 15.0395 12.9442 15.4361 13.1016 15.4361C13.1475 15.4361 13.193 15.46 13.2028 15.4892C13.2289 15.5673 25.7697 15.5673 25.7958 15.4892C25.8056 15.46 25.8511 15.4361 25.897 15.4361C26.0396 15.4361 26.4398 15.111 26.5776 14.8832C26.766 14.5718 26.7653 14.5864 26.7653 10.7583C26.7653 7.23563 26.7627 7.11575 26.681 6.90976C26.6347 6.79282 26.5675 6.66001 26.5319 6.61464C26.3816 6.42349 26.1331 6.20614 26.0373 6.18216C25.9806 6.16795 25.9343 6.14163 25.9343 6.1236C25.9343 6.01121 25.1119 5.99564 19.4443 6.00087C15.9522 6.00415 13.4897 6.02273 13.3306 6.04714ZM23.974 10.7796V12.7995H19.4993H15.0246V10.7796V8.75961H19.4993H23.974V10.7796ZM5.96593 14.6685C5.58622 14.8034 5.36743 14.9738 5.17148 15.2872C4.90428 15.7146 4.95598 16.4465 5.28028 16.8287C5.33078 16.8882 6.10567 17.6699 7.00218 18.5657L8.63224 20.1946V27.0525C8.63224 33.4485 8.63718 33.9234 8.70588 34.1032C8.87528 34.5465 9.2667 34.8602 9.76501 34.9521C10.111 35.016 28.8876 35.016 29.2336 34.9521C29.5431 34.8951 29.78 34.7731 29.9779 34.569C30.1923 34.3478 30.2105 34.3209 30.2932 34.1032C30.3612 33.9239 30.3664 33.431 30.3664 27.0565V20.2026L32.039 18.5243C33.8961 16.6611 33.7814 16.7825 33.8742 16.5816C34.1668 15.9482 33.9303 15.1349 33.3588 14.8089C33.159 14.695 32.8085 14.5856 32.6432 14.5856C32.4362 14.5856 32.1094 14.6898 31.8933 14.8248C31.8072 14.8786 30.9969 15.66 30.0923 16.5614L28.4478 18.2002H19.4993H10.5508L8.87485 16.5311C7.95307 15.6131 7.13305 14.8287 7.05259 14.7881C6.62601 14.5727 6.32791 14.5399 5.96593 14.6685ZM27.6389 26.5989V32.2335H19.4993H11.3597V26.5989V20.9643H19.4993H27.6389V26.5989ZM15.0246 23.7018C14.785 23.7811 14.6268 23.8803 14.4357 24.071C14.1643 24.3418 14.0742 24.5723 14.0696 25.0074C14.0662 25.3275 14.0805 25.4012 14.186 25.6094C14.3392 25.9118 14.5357 26.1068 14.8439 26.2626L15.0886 26.3863H19.4993H23.91L24.1547 26.2626C24.4629 26.1068 24.6594 25.9118 24.8126 25.6094C24.9181 25.4012 24.9324 25.3275 24.929 25.0074C24.9261 24.731 24.9033 24.5959 24.8348 24.449C24.6757 24.1081 24.3139 23.8003 23.9477 23.6942C23.7005 23.6226 15.242 23.6297 15.0246 23.7018Z" fill="black"/>
</svg>
