<svg width="27" height="28" viewBox="0 0 27 28" fill="none" xmlns="http://www.w3.org/2000/svg">
    <g clip-path="url(#clip0_2768_32915)">
        <path fill-rule="evenodd" clip-rule="evenodd" d="M15.6975 8.84408C15.6975 11.9154 13.1842 14.3766 10.048 14.3766C6.91298 14.3766 4.39858 11.9154 4.39858 8.84408C4.39858 5.77279 6.91298 3.31152 10.048 3.31152C13.1842 3.31152 15.6975 5.77279 15.6975 8.84408ZM1.50977 20.6412C1.50977 17.7981 5.44278 17.0868 10.0476 17.0868C14.6774 17.0868 18.5854 17.8226 18.5854 20.6679C18.5854 23.511 14.6524 24.2223 10.0476 24.2223C5.41777 24.2223 1.50977 23.4865 1.50977 20.6412ZM17.9742 8.94389C17.9742 10.5079 17.4946 11.9673 16.6534 13.1796C16.5659 13.3043 16.6432 13.4723 16.7955 13.4991C17.0069 13.5336 17.224 13.5547 17.4457 13.5592C19.6509 13.6159 21.6299 12.2256 22.1767 10.1317C22.9871 7.02475 20.6091 4.23509 17.5798 4.23509C17.2513 4.23509 16.9364 4.26849 16.6295 4.32972C16.5875 4.33862 16.542 4.35866 16.5193 4.39428C16.4897 4.43992 16.5113 4.49892 16.5409 4.53788C17.4514 5.78799 17.9742 7.30973 17.9742 8.94389ZM21.6275 15.7447C23.1098 16.0285 24.0839 16.6063 24.4875 17.4489C24.8296 18.1391 24.8296 18.9406 24.4875 19.6308C23.8702 20.9355 21.8787 21.3551 21.1046 21.4631C20.9443 21.4854 20.8159 21.3518 20.8329 21.1937C21.2285 17.5781 18.0832 15.8638 17.2694 15.4697C17.2353 15.4508 17.2273 15.4241 17.2307 15.4062C17.233 15.3951 17.2478 15.3773 17.2739 15.374C19.0347 15.3406 20.9284 15.5777 21.6275 15.7447Z" fill="#757784"/>
    </g>
    <defs>
        <clipPath id="clip0_2768_32915">
            <rect width="26.67" height="26.67" fill="white" transform="translate(0.0820312 0.632812)"/>
        </clipPath>
    </defs>
</svg>
