<svg width="39" height="39" viewBox="0 0 39 39" fill="none" xmlns="http://www.w3.org/2000/svg">
<path d="M7.68519 34.2001H7.68538C8.45412 34.1994 9.18868 33.8756 9.72858 33.3039C10.2681 32.7327 10.5697 31.9604 10.5704 31.1572V31.157C10.5704 30.5576 10.4025 29.9708 10.087 29.4707C9.77133 28.9705 9.32153 28.5789 8.79309 28.3471C8.26449 28.1153 7.68211 28.0544 7.12011 28.1728C6.55822 28.2911 6.04375 28.5829 5.64107 29.0093C5.2385 29.4355 4.96553 29.9772 4.85503 30.5654C4.74455 31.1535 4.80117 31.7632 5.01814 32.3179C5.23515 32.8726 5.60334 33.3485 6.07787 33.6842C6.55255 34.0201 7.11192 34.2001 7.68519 34.2001ZM6.90561 29.9019C7.13741 29.7379 7.40864 29.6511 7.68506 29.6511C8.0554 29.6516 8.41294 29.8074 8.6785 30.0886C8.94444 30.3702 9.09588 30.7543 9.0963 31.1572C9.09626 31.4574 9.01211 31.75 8.85564 31.998C8.6992 32.2459 8.47801 32.4373 8.2214 32.5499C7.96496 32.6623 7.6835 32.6915 7.41209 32.6344C7.14058 32.5772 6.88953 32.4357 6.69136 32.2259C6.49308 32.016 6.35688 31.7471 6.30159 31.4529C6.24631 31.1586 6.27477 30.8536 6.38297 30.577C6.49114 30.3005 6.67362 30.066 6.90561 29.9019Z" fill="black" stroke="black" stroke-width="0.4"/>
<path d="M19.4996 34.2001H19.4998C20.2686 34.1994 21.0031 33.8756 21.543 33.3039C22.0826 32.7327 22.3841 31.9604 22.3848 31.1572V31.157C22.3848 30.5576 22.217 29.9708 21.9014 29.4707C21.5858 28.9705 21.136 28.5789 20.6075 28.3471C20.0789 28.1153 19.4966 28.0544 18.9346 28.1728C18.3727 28.2911 17.8582 28.5829 17.4555 29.0093C17.053 29.4355 16.78 29.9772 16.6695 30.5654C16.559 31.1535 16.6156 31.7632 16.8326 32.3179C17.0496 32.8726 17.4178 33.3485 17.8923 33.6842C18.367 34.0201 18.9264 34.2001 19.4996 34.2001ZM18.7201 29.9019C18.9519 29.7379 19.2231 29.6511 19.4995 29.6511C19.8699 29.6516 20.2274 29.8074 20.4929 30.0886C20.7589 30.3702 20.9103 30.7543 20.9108 31.1572C20.9107 31.4574 20.8266 31.75 20.6701 31.998C20.5136 32.2459 20.2925 32.4373 20.0359 32.5499C19.7794 32.6623 19.498 32.6915 19.2265 32.6344C18.955 32.5772 18.704 32.4357 18.5058 32.2259C18.3075 32.016 18.1713 31.7471 18.116 31.4529C18.0608 31.1586 18.0892 30.8536 18.1974 30.577C18.3056 30.3005 18.4881 30.066 18.7201 29.9019Z" fill="black" stroke="black" stroke-width="0.4"/>
<path d="M31.3151 34.2001H31.3153C32.084 34.1994 32.8186 33.8756 33.3585 33.3039C33.898 32.7327 34.1996 31.9604 34.2003 31.1572V31.157C34.2003 30.5576 34.0324 29.9708 33.7169 29.4707C33.4012 28.9705 32.9514 28.5789 32.423 28.3471C31.8944 28.1153 31.312 28.0544 30.75 28.1728C30.1881 28.2911 29.6736 28.5829 29.271 29.0093C28.8684 29.4355 28.5954 29.9772 28.4849 30.5654C28.3744 31.1535 28.4311 31.7632 28.648 32.3179C28.865 32.8726 29.2332 33.3485 29.7077 33.6842C30.1824 34.0201 30.7418 34.2001 31.3151 34.2001ZM30.5355 29.9019C30.7673 29.7379 31.0385 29.6511 31.3149 29.6511C31.6853 29.6516 32.0428 29.8074 32.3084 30.0886C32.5743 30.3702 32.7258 30.7543 32.7262 31.1572C32.7261 31.4574 32.642 31.75 32.4855 31.998C32.3291 32.2459 32.1079 32.4373 31.8513 32.5499C31.5948 32.6623 31.3134 32.6915 31.042 32.6344C30.7705 32.5772 30.5194 32.4357 30.3212 32.2259C30.123 32.016 29.9868 31.7471 29.9315 31.4529C29.8762 31.1586 29.9047 30.8536 30.0129 30.577C30.121 30.3005 30.3035 30.066 30.5355 29.9019Z" fill="black" stroke="black" stroke-width="0.4"/>
<path d="M10.9072 31.9255H17.3516C17.5509 31.9255 17.7395 31.8416 17.8767 31.6963C18.0136 31.5514 18.0886 31.3572 18.0886 31.1569C18.0886 30.9566 18.0136 30.7624 17.8767 30.6175C17.7395 30.4722 17.5509 30.3883 17.3516 30.3883H10.9072C10.7079 30.3883 10.5192 30.4722 10.382 30.6175C10.2452 30.7624 10.1701 30.9566 10.1701 31.1569C10.1701 31.3572 10.2452 31.5514 10.382 31.6963C10.5192 31.8416 10.7079 31.9255 10.9072 31.9255Z" fill="black" stroke="black" stroke-width="0.4"/>
<path d="M22.7216 31.9255H29.1661C29.3653 31.9255 29.554 31.8416 29.6912 31.6963C29.8281 31.5514 29.9031 31.3572 29.9031 31.1569C29.9031 30.9566 29.8281 30.7624 29.6912 30.6175C29.554 30.4722 29.3653 30.3883 29.1661 30.3883H22.7216C22.5223 30.3883 22.3337 30.4722 22.1965 30.6175C22.0596 30.7624 21.9846 30.9566 21.9846 31.1569C21.9846 31.3572 22.0596 31.5514 22.1965 31.6963C22.3337 31.8416 22.5223 31.9255 22.7216 31.9255Z" fill="black" stroke="black" stroke-width="0.4"/>
<path d="M19.2013 29.0076C19.2939 29.0563 19.3956 29.0824 19.5001 29.0824L19.4999 28.8824L19.4998 29.0824C19.6042 29.0824 19.706 29.0563 19.7986 29.0076C19.8909 28.959 19.9713 28.8896 20.0369 28.8063C20.1025 28.723 20.1527 28.6265 20.1863 28.5231C20.22 28.4198 20.237 28.3101 20.237 28.2C20.237 28.2 20.237 28.2 20.237 28.1999V22.7412C20.237 22.5206 20.1684 22.3022 20.0368 22.135C19.9043 21.9667 19.713 21.8588 19.4999 21.8588C19.2869 21.8588 19.0955 21.9667 18.963 22.135C18.8315 22.3022 18.7629 22.5206 18.7629 22.7412L18.7629 28.1999C18.7629 28.1999 18.7629 28.1999 18.7629 28.2C18.7629 28.2 18.7629 28.2 18.7629 28.2C18.7628 28.3101 18.7798 28.4198 18.8135 28.5231C18.8472 28.6265 18.8974 28.723 18.9629 28.8063C19.0285 28.8896 19.109 28.959 19.2013 29.0076Z" fill="black" stroke="black" stroke-width="0.4"/>
<path d="M14.2911 13.211L13.9157 13.4301C13.843 13.4707 13.7788 13.5265 13.7272 13.5942C13.6755 13.6619 13.6374 13.74 13.6152 13.8238C13.593 13.9076 13.5872 13.9953 13.5981 14.0815C13.609 14.1678 13.6364 14.2508 13.6786 14.3255L14.7174 16.145C14.808 16.2971 14.9502 16.4068 15.1148 16.4513C15.2794 16.4959 15.4538 16.472 15.6023 16.3846L15.982 16.1632C16.0978 16.0983 16.2288 16.0699 16.3594 16.0811C16.49 16.0924 16.6149 16.143 16.7193 16.2269C17.0934 16.5173 17.5007 16.7565 17.9315 16.9388C18.052 16.9846 18.1566 17.0676 18.2319 17.1771C18.3072 17.2866 18.3495 17.4176 18.3535 17.5529V17.9919C18.3575 18.1691 18.4275 18.3374 18.5483 18.4601C18.6691 18.5828 18.8309 18.65 18.9983 18.647H21.0761C21.2435 18.65 21.4053 18.5828 21.5261 18.4601C21.6469 18.3374 21.717 18.1691 21.7209 17.9919V17.5529C21.7249 17.4176 21.7673 17.2866 21.8425 17.1771C21.9178 17.0676 22.0225 16.9846 22.1429 16.9388C22.5737 16.7565 22.9811 16.5173 23.3552 16.2269C23.4595 16.143 23.5844 16.0924 23.715 16.0811C23.8456 16.0699 23.9766 16.0983 24.0924 16.1632L24.4722 16.3846C24.6206 16.472 24.7951 16.4959 24.9597 16.4513C25.1243 16.4068 25.2664 16.2971 25.357 16.145L26.3959 14.3255C26.4381 14.2508 26.4654 14.1678 26.4763 14.0815C26.4872 13.9953 26.4814 13.9076 26.4592 13.8238C26.437 13.74 26.3989 13.6619 26.3473 13.5942C26.2956 13.5265 26.2314 13.4707 26.1587 13.4301L25.7833 13.211C25.6752 13.1516 25.5868 13.0588 25.5298 12.9448C25.4728 12.8309 25.45 12.7013 25.4645 12.5734C25.5323 12.076 25.5323 11.571 25.4645 11.0737C25.45 10.9457 25.4728 10.8161 25.5298 10.7022C25.5868 10.5883 25.6752 10.4955 25.7833 10.4361L26.1587 10.217C26.2314 10.1764 26.2956 10.1205 26.3473 10.0528C26.3989 9.98515 26.437 9.90703 26.4592 9.82325C26.4814 9.73946 26.4872 9.65178 26.4763 9.56553C26.4654 9.47928 26.4381 9.39629 26.3959 9.32161L25.357 7.50202C25.2664 7.34992 25.1243 7.24031 24.9597 7.19574C24.7951 7.15118 24.6206 7.17505 24.4722 7.26245L24.0924 7.48383C23.9766 7.54873 23.8456 7.57721 23.715 7.56593C23.5844 7.55465 23.4595 7.50406 23.3552 7.42014C22.9811 7.12974 22.5737 6.89054 22.1429 6.70823C22.0225 6.6625 21.9178 6.57947 21.8425 6.46995C21.7673 6.36043 21.7249 6.22948 21.7209 6.09412V5.65515C21.717 5.47798 21.6469 5.30967 21.5261 5.18694C21.4053 5.06421 21.2435 4.99705 21.0761 5.0001H18.9983C18.8309 4.99705 18.6691 5.06421 18.5483 5.18694C18.4275 5.30967 18.3575 5.47798 18.3535 5.65515V6.09412C18.3495 6.22948 18.3072 6.36043 18.2319 6.46995C18.1566 6.57947 18.052 6.6625 17.9315 6.70823C17.5007 6.89054 17.0934 7.12974 16.7193 7.42014C16.6149 7.50406 16.49 7.55465 16.3594 7.56593C16.2288 7.57721 16.0978 7.54873 15.982 7.48383L15.6023 7.26245C15.4538 7.17505 15.2794 7.15118 15.1148 7.19574C14.9502 7.24031 14.808 7.34992 14.7174 7.50202L13.6786 9.32161C13.6364 9.39629 13.609 9.47928 13.5981 9.56553C13.5872 9.65178 13.593 9.73946 13.6152 9.82325C13.6374 9.90703 13.6755 9.98515 13.7272 10.0528C13.7788 10.1205 13.843 10.1764 13.9157 10.217L14.2911 10.4361C14.3992 10.4955 14.4877 10.5883 14.5446 10.7022C14.6016 10.8161 14.6244 10.9457 14.61 11.0737C14.5421 11.571 14.5421 12.076 14.61 12.5734C14.6244 12.7013 14.6016 12.8309 14.5446 12.9448C14.4877 13.0588 14.3992 13.1516 14.2911 13.211ZM20.0401 9.26475C20.5183 9.26475 20.9858 9.41482 21.3835 9.69598C21.7811 9.97714 22.0911 10.3768 22.2741 10.8443C22.4571 11.3119 22.505 11.8264 22.4117 12.3227C22.3184 12.8191 22.0881 13.275 21.7499 13.6329C21.4117 13.9907 20.9809 14.2344 20.5118 14.3332C20.0428 14.4319 19.5566 14.3812 19.1147 14.1875C18.6729 13.9939 18.2952 13.6659 18.0295 13.2451C17.7638 12.8243 17.622 12.3296 17.622 11.8235C17.622 11.1449 17.8768 10.4941 18.3302 10.0142C18.7837 9.53433 19.3988 9.26475 20.0401 9.26475Z" fill="black"/>
</svg>
