<svg width="39" height="39" viewBox="0 0 39 39" fill="none" xmlns="http://www.w3.org/2000/svg">
    <path d="M7 32.6165V11.5307V10.0245C7 6.69598 8.78571 4 14.1429 4L23.1946 4.0002H24.9803C30.3374 4.0002 32 6.6959 32 10.0245V11.5307V32.6165C32 33.8516 30.3215 34.5595 29.1429 33.8214L26.0893 31.8936C25.3929 31.4418 24.3929 31.502 23.7679 32.0292L20.7679 34.5595C20.0715 35.1468 18.9285 35.1468 18.2321 34.5595L15.2679 32.0442C14.625 31.502 13.625 31.4418 12.9107 31.8936L9.8571 33.8214C8.67853 34.5745 7 33.8666 7 32.6165Z" stroke="black" stroke-width="2" stroke-miterlimit="10" stroke-linecap="round" stroke-linejoin="round"/>
    <path d="M13.9753 14.3006L19.9002 17.845L25.7848 14.3214M19.9002 24.1295V17.8382M18.5112 10.8602L14.9281 12.9134C14.1162 13.3781 13.4519 14.5434 13.4519 15.5006V19.4197C13.4519 20.3769 14.1162 21.5422 14.9281 22.0069L18.5112 24.067C19.2761 24.504 20.5309 24.504 21.2958 24.067L24.8789 22.0069C25.6908 21.5422 26.3551 20.3769 26.3551 19.4197V15.5006C26.3551 14.5434 25.6908 13.3781 24.8789 12.9134L21.2958 10.8532C20.5242 10.4163 19.2761 10.4163 18.5112 10.8602Z" stroke="black" stroke-width="1.5" stroke-linecap="round" stroke-linejoin="round"/>
</svg>
