<svg width="38" height="39" viewBox="0 0 38 39" fill="none" xmlns="http://www.w3.org/2000/svg">
    <path d="M27.0638 24.6013H10.97C7.65716 24.6013 5 26.923 5 29.7507C5 32.6082 7.69167 34.9002 10.97 34.9002H27.0293C30.3422 34.9002 32.9993 32.5785 32.9993 29.7507C33.0338 26.923 30.3422 24.6013 27.0638 24.6013ZM27.0638 33.1142H10.97C8.83045 33.1142 7.10502 31.626 7.10502 29.7805C7.10502 27.935 8.83045 26.4468 10.97 26.4468H27.0293C29.1689 26.4468 30.8943 27.935 30.8943 29.7805C30.8943 31.626 29.2034 33.1142 27.0638 33.1142Z" fill="black"/>
    <path d="M11.335 31.5768C12.5012 31.5768 13.4466 30.6981 13.4466 29.6142C13.4466 28.5303 12.5012 27.6516 11.335 27.6516C10.1687 27.6516 9.22332 28.5303 9.22332 29.6142C9.22332 30.6981 10.1687 31.5768 11.335 31.5768Z" fill="black"/>
    <path d="M19.0777 31.5768C20.244 31.5768 21.1894 30.6981 21.1894 29.6142C21.1894 28.5303 20.244 27.6516 19.0777 27.6516C17.9115 27.6516 16.9661 28.5303 16.9661 29.6142C16.9661 30.6981 17.9115 31.5768 19.0777 31.5768Z" fill="black"/>
    <path d="M26.8205 31.5768C27.9867 31.5768 28.9322 30.6981 28.9322 29.6142C28.9322 28.5303 27.9867 27.6516 26.8205 27.6516C25.6543 27.6516 24.7088 28.5303 24.7088 29.6142C24.7088 30.6981 25.6543 31.5768 26.8205 31.5768Z" fill="black"/>
    <path d="M31.05 8.085H31.0501L31.0499 8.08268C30.9427 5.77251 28.9063 3.95 26.3431 3.95H11.551C8.98853 3.95 6.95 5.77244 6.95 8.085V19.01C6.95 21.2283 8.98934 23.05 11.551 23.05H26.449C29.0115 23.05 31.05 21.2276 31.05 18.915V8.085ZM23.5481 13.5V5.95H26.3431C27.6966 5.95 28.7274 6.88256 28.7274 8.085V18.915C28.7274 20.1174 27.6966 21.05 26.3431 21.05H11.551C10.1975 21.05 9.16677 20.1174 9.16677 18.915V8.085C9.16677 6.88256 10.1975 5.95 11.551 5.95H14.4519V13.5C14.4519 13.6999 14.5078 13.8768 14.6205 14.0286C14.7286 14.1741 14.887 14.294 15.0925 14.3897C15.1021 14.4178 15.1227 14.4384 15.1452 14.4524C15.1747 14.4707 15.2118 14.481 15.2471 14.4873C15.3177 14.5 15.4006 14.5 15.4527 14.5H15.4544C15.6768 14.5 15.8968 14.4013 16.1043 14.3081L16.1099 14.3056L16.1102 14.3062L16.1171 14.3016L18.9471 12.42L21.777 14.3016L21.777 14.3017L21.779 14.3029C22.103 14.4967 22.5479 14.6019 22.8888 14.3979C23.2077 14.2071 23.5481 13.9091 23.5481 13.5Z" fill="black" stroke="black" stroke-width="0.1"/>
</svg>
