<svg width="19" height="19" viewBox="0 0 19 19" fill="none" xmlns="http://www.w3.org/2000/svg">
    <path d="M2.52341 1.76153C2.55881 1.76139 2.59421 1.76125 2.63068 1.7611C2.70529 1.761 2.7799 1.76127 2.8545 1.76189C2.96837 1.76269 3.08215 1.7619 3.19602 1.76095C3.26869 1.76105 3.34137 1.76124 3.41404 1.76153C3.46484 1.76108 3.46484 1.76108 3.51667 1.76062C3.72282 1.76364 3.84797 1.78711 4.00779 1.92968C4.11301 2.07445 4.18697 2.21301 4.24915 2.38049C4.26601 2.42545 4.28286 2.4704 4.30023 2.51673C4.31838 2.56602 4.33653 2.61532 4.35467 2.66462C4.37413 2.71684 4.39362 2.76904 4.41313 2.82124C4.45501 2.93345 4.49671 3.04572 4.53826 3.15804C4.60483 3.33795 4.67179 3.51771 4.73881 3.69745C4.82059 3.91682 4.90227 4.13622 4.98383 4.35567C5.12593 4.73793 5.26871 5.11993 5.412 5.50175C5.42737 5.5427 5.42737 5.5427 5.44305 5.58448C5.49454 5.72168 5.54605 5.85887 5.59756 5.99606C5.6905 6.24362 5.78333 6.49121 5.87617 6.7388C5.90731 6.82184 5.93845 6.90488 5.96959 6.98792C6.10083 7.33789 6.23202 7.68788 6.36319 8.03789C6.44218 8.24869 6.5212 8.45948 6.60021 8.67027C6.66377 8.83983 6.7273 9.00939 6.79083 9.17896C6.83061 9.28512 6.8704 9.39129 6.9102 9.49744C6.93637 9.56725 6.96251 9.63706 6.98865 9.70687C7.18102 10.2199 7.37597 10.7319 7.57029 11.2441C11.2074 11.2625 11.2074 11.2625 14.9179 11.2812C14.9424 11.0853 14.9669 10.8894 14.9922 10.6875C15.0212 10.5013 15.051 10.3154 15.0823 10.1295C15.0911 10.0768 15.0999 10.0241 15.1087 9.97134C15.1322 9.83029 15.1559 9.68926 15.1795 9.54823C15.2044 9.40007 15.2291 9.25187 15.2538 9.10369C15.3005 8.82401 15.3473 8.54436 15.3942 8.26472C15.4476 7.94596 15.5008 7.62717 15.5541 7.30838C15.6635 6.65348 15.7731 5.9986 15.8828 5.34374C15.8137 5.34395 15.8137 5.34395 15.7432 5.34416C14.6494 5.34737 13.5557 5.34982 12.462 5.35132C12.3274 5.35151 12.1928 5.3517 12.0581 5.3519C12.018 5.35196 12.018 5.35196 11.9769 5.35202C11.543 5.35266 11.109 5.35383 10.6751 5.3552C10.2298 5.35658 9.78457 5.35741 9.33931 5.35771C9.08921 5.3579 8.83911 5.35834 8.58901 5.35944C8.35368 5.36045 8.11837 5.36076 7.88304 5.36053C7.7966 5.36057 7.71016 5.36087 7.62373 5.36144C7.50582 5.36218 7.38794 5.362 7.27003 5.36159C7.21859 5.36224 7.21859 5.36224 7.16611 5.36291C6.96031 5.36099 6.84293 5.33256 6.67966 5.19531C6.54502 5.05358 6.51972 4.93989 6.51267 4.74999C6.51972 4.5601 6.54502 4.44641 6.67966 4.30468C6.88123 4.13131 7.05176 4.13518 7.30516 4.1374C7.36613 4.13705 7.36613 4.13705 7.42833 4.13669C7.56456 4.1361 7.70078 4.13657 7.83701 4.13704C7.93467 4.13684 8.03232 4.13657 8.12997 4.13625C8.3677 4.13559 8.60542 4.13573 8.84315 4.13616C9.03637 4.1365 9.22959 4.13654 9.4228 4.13638C9.45031 4.13636 9.47782 4.13634 9.50616 4.13631C9.56204 4.13627 9.61792 4.13622 9.67381 4.13617C10.1977 4.13574 10.7216 4.13623 11.2456 4.13703C11.695 4.13769 12.1445 4.13758 12.594 4.13689C13.116 4.1361 13.6381 4.13579 14.1601 4.13624C14.2158 4.13629 14.2715 4.13634 14.3271 4.13638C14.3682 4.13642 14.3682 4.13642 14.4102 4.13645C14.6031 4.13658 14.7961 4.13636 14.9891 4.13601C15.2488 4.13555 15.5086 4.13588 15.7683 4.13674C15.8637 4.13694 15.9592 4.13688 16.0546 4.13655C16.1847 4.13615 16.3147 4.13665 16.4448 4.1374C16.4827 4.13706 16.5206 4.13673 16.5596 4.13639C16.8372 4.13947 16.9607 4.19512 17.1584 4.39282C17.3354 4.78755 17.1851 5.32263 17.1149 5.73475C17.1037 5.80234 17.0925 5.86994 17.0814 5.93754C17.0514 6.11961 17.0208 6.30159 16.9901 6.48355C16.9579 6.67464 16.9262 6.8658 16.8944 7.05695C16.841 7.3776 16.7873 7.69819 16.7333 8.01875C16.6711 8.38889 16.6093 8.7591 16.5478 9.12936C16.4885 9.4865 16.4288 9.84358 16.369 10.2006C16.3436 10.3522 16.3183 10.5038 16.2932 10.6554C16.2635 10.8339 16.2335 11.0123 16.2033 11.1907C16.1923 11.256 16.1814 11.3214 16.1706 11.3867C16.1558 11.4762 16.1407 11.5656 16.1254 11.655C16.1212 11.6806 16.1171 11.7062 16.1128 11.7327C16.0726 11.9638 16.0282 12.1987 15.8434 12.3551C15.7127 12.4468 15.6559 12.4734 15.5001 12.4736C15.4494 12.4738 15.4494 12.4738 15.3976 12.474C15.3416 12.4739 15.3416 12.4739 15.2843 12.4739C15.2448 12.474 15.2053 12.4741 15.1646 12.4742C15.0312 12.4745 14.8979 12.4745 14.7645 12.4746C14.6692 12.4748 14.574 12.475 14.4787 12.4752C14.2731 12.4756 14.0675 12.4759 13.8619 12.4761C13.5368 12.4765 13.2117 12.4773 12.8866 12.4781C12.7753 12.4784 12.6641 12.4787 12.5529 12.4789C12.5112 12.479 12.5112 12.479 12.4687 12.4791C12.1521 12.4799 11.8355 12.4806 11.5189 12.4813C11.49 12.4813 11.461 12.4814 11.4312 12.4815C10.9625 12.4824 10.4939 12.4831 10.0252 12.4838C9.54399 12.4844 9.06279 12.4855 8.5816 12.4869C8.28484 12.4878 7.98808 12.4883 7.69132 12.4884C7.46368 12.4885 7.23604 12.4891 7.0084 12.49C6.91513 12.4903 6.82186 12.4903 6.72858 12.4902C6.60113 12.4901 6.4737 12.4906 6.34625 12.4913C6.30944 12.4911 6.27264 12.4909 6.23471 12.4907C6.01064 12.4928 5.80708 12.5176 5.60349 12.6172C5.4331 12.7918 5.40477 12.9166 5.40751 13.1537C5.42284 13.2923 5.47393 13.3683 5.56638 13.4707C5.74868 13.6062 5.92479 13.6237 6.14707 13.624C6.20973 13.6242 6.20973 13.6242 6.27366 13.6245C6.34188 13.6244 6.34188 13.6244 6.41148 13.6244C6.48542 13.6246 6.55937 13.6248 6.63331 13.625C6.71261 13.6252 6.7919 13.6253 6.8712 13.6254C7.03667 13.6256 7.20214 13.6262 7.36761 13.6269C7.42432 13.6272 7.48103 13.6274 7.53775 13.6276C7.56614 13.6277 7.59454 13.6279 7.62379 13.628C8.00885 13.6295 8.39392 13.6308 8.77898 13.6312C9.03896 13.6315 9.29894 13.6324 9.55892 13.6338C9.6964 13.6345 9.83387 13.635 9.97135 13.6348C10.1247 13.6346 10.278 13.6355 10.4313 13.6366C10.4767 13.6363 10.5221 13.6361 10.5689 13.6358C10.8048 13.6384 10.9548 13.6434 11.1328 13.8047C11.2674 13.9464 11.2927 14.0601 11.2998 14.25C11.2927 14.4399 11.2674 14.5536 11.1328 14.6953C10.922 14.8868 10.708 14.863 10.4338 14.8582C10.388 14.858 10.3422 14.8578 10.295 14.8576C10.149 14.8568 10.0031 14.8549 9.85715 14.853C9.75805 14.8522 9.65895 14.8516 9.55984 14.851C9.31722 14.8494 9.07462 14.8469 8.83201 14.8437C8.844 14.883 8.85599 14.9223 8.86834 14.9628C8.97888 15.3733 8.95757 15.8766 8.75779 16.2539C8.74119 16.2861 8.72459 16.3184 8.70749 16.3516C8.46791 16.7819 8.1071 17.0651 7.63523 17.2164C7.11749 17.3358 6.61248 17.2638 6.14854 17.0054C5.68118 16.7024 5.45393 16.2993 5.33126 15.7689C5.28866 15.5168 5.30449 15.2983 5.36228 15.0478C5.37261 15.0023 5.38295 14.9568 5.39359 14.9098C5.40163 14.8758 5.40966 14.8417 5.41794 14.8066C5.35947 14.7803 5.35947 14.7803 5.2998 14.7534C4.80054 14.5214 4.44852 14.2383 4.23059 13.7161C4.06267 13.2429 4.08068 12.7401 4.28089 12.2781C4.53261 11.8026 4.90175 11.4812 5.41794 11.3184C5.52384 11.2879 5.61689 11.2768 5.727 11.2776C5.75665 11.2777 5.78631 11.2779 5.81687 11.278C5.84749 11.2783 5.8781 11.2786 5.90964 11.2789C5.94083 11.2791 5.97202 11.2793 6.00416 11.2794C6.08089 11.2799 6.15762 11.2805 6.23435 11.2812C6.22219 11.2496 6.21003 11.2179 6.1975 11.1852C5.89991 10.4094 5.60553 9.63241 5.31428 8.85417C5.26084 8.71139 5.20734 8.56864 5.15385 8.42588C5.06429 8.18685 4.97474 7.94781 4.88522 7.70876C4.67614 7.15047 4.46693 6.59223 4.25765 6.03402C4.23646 5.9775 4.21527 5.92099 4.19409 5.86447C3.83665 4.91102 3.4779 3.95807 3.11716 3.00585C3.07507 3.00533 3.07507 3.00533 3.03213 3.0048C2.90428 3.0028 2.77648 2.9997 2.64866 2.99658C2.60451 2.99605 2.56035 2.99552 2.51486 2.99498C2.20233 2.98625 2.05836 2.95578 1.84153 2.72753C1.75254 2.53586 1.75325 2.36014 1.78123 2.15234C1.93636 1.81821 2.18524 1.75853 2.52341 1.76153ZM6.62864 15.1267C6.54685 15.2966 6.53875 15.4377 6.56834 15.623C6.65479 15.8026 6.75987 15.9077 6.93943 15.9941C7.12477 16.0237 7.26589 16.0156 7.43577 15.9338C7.56877 15.8135 7.6666 15.7171 7.69582 15.534C7.70532 15.3231 7.67925 15.1907 7.53318 15.0293C7.37173 14.8832 7.23936 14.8571 7.02843 14.8666C6.84535 14.8959 6.74897 14.9937 6.62864 15.1267Z" fill="black"/>
    <path d="M15.2635 13.9276C15.6439 14.2149 15.9577 14.5804 16.0312 15.0664C16.0788 15.5911 16.0454 16.0693 15.7251 16.509C15.4142 16.8703 15.0294 17.1784 14.5379 17.227C13.9167 17.2567 13.4731 17.1566 12.9896 16.7491C12.6693 16.452 12.4811 16.0703 12.457 15.6358C12.4362 15.0166 12.5722 14.5717 12.9998 14.1108C13.6046 13.5385 14.5739 13.4699 15.2635 13.9276ZM13.7536 15.1267C13.6718 15.2966 13.6637 15.4377 13.6933 15.623C13.7798 15.8026 13.8849 15.9077 14.0644 15.9941C14.2498 16.0237 14.3909 16.0156 14.5608 15.9338C14.6938 15.8135 14.7916 15.7171 14.8208 15.534C14.8303 15.3231 14.8042 15.1907 14.6582 15.0293C14.4967 14.8832 14.3644 14.8572 14.1534 14.8667C13.9703 14.8959 13.874 14.9937 13.7536 15.1267Z" fill="black"/>
</svg>
