<svg width="38" height="39" viewBox="0 0 38 39" fill="none" xmlns="http://www.w3.org/2000/svg">
<mask id="path-2-outside-1_2750_30147" maskUnits="userSpaceOnUse" x="4" y="4" width="30" height="31" fill="black">
<rect fill="white" x="4" y="4" width="30" height="31"/>
<path d="M25.998 7.07143H26.9977C27.5279 7.07143 28.0365 7.28967 28.4115 7.67814C28.7864 8.0666 28.9971 8.59348 28.9971 9.14286V10.7896L28.7072 10.4789C28.614 10.3824 28.5033 10.3058 28.3815 10.2535C28.2597 10.2012 28.1292 10.1743 27.9974 10.1743C27.8656 10.1743 27.735 10.2012 27.6132 10.2535C27.4914 10.3058 27.3808 10.3824 27.2876 10.4789C27.1944 10.5755 27.1204 10.6901 27.07 10.8163C27.0195 10.9425 26.9936 11.0777 26.9936 11.2143C26.9936 11.3509 27.0195 11.4861 27.07 11.6123C27.1204 11.7384 27.1944 11.8531 27.2876 11.9496L29.287 14.0211C29.3799 14.1181 29.4905 14.1952 29.6123 14.2478C29.7341 14.3004 29.8648 14.3274 29.9968 14.3274C30.1288 14.3274 30.2594 14.3004 30.3813 14.2478C30.5031 14.1952 30.6136 14.1181 30.7066 14.0211L32.706 11.9496C32.8942 11.7546 33 11.4901 33 11.2143C33 10.9385 32.8942 10.674 32.706 10.4789C32.5177 10.2839 32.2624 10.1743 31.9962 10.1743C31.73 10.1743 31.4747 10.2839 31.2864 10.4789L30.9965 10.7896V9.14286C30.9965 8.0441 30.5752 6.99035 29.8253 6.21341C29.0753 5.43648 28.0582 5 26.9977 5H25.998C25.7328 5 25.4785 5.10912 25.2911 5.30335C25.1036 5.49759 24.9982 5.76103 24.9982 6.03571C24.9982 6.3104 25.1036 6.57384 25.2911 6.76807C25.4785 6.96231 25.7328 7.07143 25.998 7.07143Z"/>
<path d="M15.0012 31.9286H13.0018C11.9412 31.9286 10.9241 31.4921 10.1742 30.7152C9.42423 29.9382 9.00292 28.8845 9.00292 27.7857V25.1032L9.29284 25.4139C9.38577 25.511 9.49634 25.5881 9.61817 25.6406C9.73999 25.6932 9.87066 25.7203 10.0026 25.7203C10.1346 25.7203 10.2653 25.6932 10.3871 25.6406C10.5089 25.5881 10.6195 25.511 10.7124 25.4139C10.8061 25.3176 10.8805 25.2031 10.9313 25.0769C10.982 24.9507 11.0081 24.8153 11.0081 24.6786C11.0081 24.5418 10.982 24.4065 10.9313 24.2803C10.8805 24.154 10.8061 24.0395 10.7124 23.9432L8.71301 21.8718C8.62007 21.7747 8.5095 21.6977 8.38768 21.6451C8.26586 21.5925 8.13519 21.5654 8.00321 21.5654C7.87124 21.5654 7.74057 21.5925 7.61875 21.6451C7.49693 21.6977 7.38636 21.7747 7.29342 21.8718L5.29401 23.9432C5.10576 24.1382 5 24.4028 5 24.6786C5 24.9544 5.10576 25.2189 5.29401 25.4139C5.48225 25.609 5.73757 25.7185 6.0038 25.7185C6.27002 25.7185 6.52534 25.609 6.71359 25.4139L7.00351 25.1032V27.7857C7.00351 29.4338 7.63546 31.0145 8.76035 32.1799C9.88524 33.3453 11.4109 34 13.0018 34H15.0012C15.2663 34 15.5206 33.8909 15.7081 33.6966C15.8956 33.5024 16.0009 33.239 16.0009 32.9643C16.0009 32.6896 15.8956 32.4262 15.7081 32.2319C15.5206 32.0377 15.2663 31.9286 15.0012 31.9286Z"/>
<path d="M7.0035 19.5H20.9994C21.5297 19.5 22.0383 19.2818 22.4132 18.8933C22.7882 18.5048 22.9988 17.9779 22.9988 17.4286V7.07143C22.9988 6.52205 22.7882 5.99518 22.4132 5.60671C22.0383 5.21824 21.5297 5 20.9994 5H7.0035C6.47323 5 5.96467 5.21824 5.5897 5.60671C5.21474 5.99518 5.00409 6.52205 5.00409 7.07143V17.4286C5.00409 17.9779 5.21474 18.5048 5.5897 18.8933C5.96467 19.2818 6.47323 19.5 7.0035 19.5ZM7.0035 7.07143H20.9994V17.4286H7.0035V7.07143Z"/>
<path d="M14.0015 9.14286C13.4083 9.14286 12.8284 9.32509 12.3352 9.66651C11.842 10.0079 11.4576 10.4932 11.2306 11.0609C11.0036 11.6287 10.9442 12.2534 11.06 12.8562C11.1757 13.4589 11.4613 14.0125 11.8808 14.4471C12.3002 14.8816 12.8346 15.1776 13.4164 15.2974C13.9981 15.4173 14.6012 15.3558 15.1492 15.1206C15.6972 14.8855 16.1656 14.4872 16.4951 13.9762C16.8247 13.4653 17.0006 12.8645 17.0006 12.25C17.0006 11.4259 16.6846 10.6356 16.1222 10.0529C15.5597 9.47022 14.7969 9.14286 14.0015 9.14286ZM14.0015 13.2857C13.8037 13.2857 13.6105 13.225 13.4461 13.1112C13.2817 12.9974 13.1535 12.8356 13.0779 12.6464C13.0022 12.4571 12.9824 12.2489 13.021 12.0479C13.0595 11.847 13.1547 11.6625 13.2946 11.5176C13.4344 11.3728 13.6125 11.2741 13.8064 11.2342C14.0004 11.1942 14.2014 11.2147 14.384 11.2931C14.5667 11.3715 14.7228 11.5043 14.8327 11.6746C14.9425 11.8449 15.0012 12.0452 15.0012 12.25C15.0012 12.5247 14.8958 12.7881 14.7084 12.9824C14.5209 13.1766 14.2666 13.2857 14.0015 13.2857Z"/>
<path d="M32.4461 18.5782L26.4478 15.4711C26.33 15.3977 26.1989 15.3502 26.0626 15.3316C25.9263 15.3131 25.7878 15.3239 25.6556 15.3633C25.5235 15.4027 25.4007 15.47 25.2948 15.5608C25.1889 15.6516 25.1023 15.7641 25.0402 15.8912C24.9782 16.0183 24.9422 16.1573 24.9343 16.2995C24.9265 16.4417 24.947 16.584 24.9947 16.7176C25.0424 16.8512 25.1161 16.9732 25.2113 17.0759C25.3065 17.1786 25.4212 17.2599 25.5481 17.3147L29.7569 19.5L23.9985 22.4829L22.449 21.6854C22.3312 21.6119 22.2001 21.5645 22.0637 21.5459C21.9274 21.5274 21.7889 21.5382 21.6568 21.5776C21.5247 21.617 21.4019 21.6842 21.296 21.7751C21.1901 21.8659 21.1034 21.9784 21.0414 22.1055C20.9794 22.2326 20.9433 22.3716 20.9355 22.5138C20.9276 22.656 20.9482 22.7983 20.9959 22.9319C21.0435 23.0655 21.1173 23.1875 21.2125 23.2902C21.3077 23.3929 21.4223 23.4742 21.5493 23.5289L22.9988 24.285V31.2864L17.0006 28.1793V22.6072C17.0006 22.3325 16.8953 22.069 16.7078 21.8748C16.5203 21.6806 16.266 21.5714 16.0009 21.5714C15.7357 21.5714 15.4815 21.6806 15.294 21.8748C15.1065 22.069 15.0012 22.3325 15.0012 22.6072V28.8214C15.0017 29.0127 15.0534 29.2001 15.1504 29.3628C15.2475 29.5255 15.3861 29.6572 15.551 29.7432L23.5487 33.8861C23.6882 33.9589 23.8423 33.9969 23.9985 33.9969C24.1548 33.9969 24.3089 33.9589 24.4484 33.8861L32.4461 29.7432C32.6109 29.6572 32.7496 29.5255 32.8466 29.3628C32.9437 29.2001 32.9954 29.0127 32.9959 28.8214V19.5C32.9954 19.3088 32.9437 19.1214 32.8466 18.9587C32.7496 18.796 32.6109 18.6643 32.4461 18.5782ZM24.9982 31.2864V24.285L30.9965 21.1779V28.1793L24.9982 31.2864Z"/>
</mask>
<path d="M25.998 7.07143H26.9977C27.5279 7.07143 28.0365 7.28967 28.4115 7.67814C28.7864 8.0666 28.9971 8.59348 28.9971 9.14286V10.7896L28.7072 10.4789C28.614 10.3824 28.5033 10.3058 28.3815 10.2535C28.2597 10.2012 28.1292 10.1743 27.9974 10.1743C27.8656 10.1743 27.735 10.2012 27.6132 10.2535C27.4914 10.3058 27.3808 10.3824 27.2876 10.4789C27.1944 10.5755 27.1204 10.6901 27.07 10.8163C27.0195 10.9425 26.9936 11.0777 26.9936 11.2143C26.9936 11.3509 27.0195 11.4861 27.07 11.6123C27.1204 11.7384 27.1944 11.8531 27.2876 11.9496L29.287 14.0211C29.3799 14.1181 29.4905 14.1952 29.6123 14.2478C29.7341 14.3004 29.8648 14.3274 29.9968 14.3274C30.1288 14.3274 30.2594 14.3004 30.3813 14.2478C30.5031 14.1952 30.6136 14.1181 30.7066 14.0211L32.706 11.9496C32.8942 11.7546 33 11.4901 33 11.2143C33 10.9385 32.8942 10.674 32.706 10.4789C32.5177 10.2839 32.2624 10.1743 31.9962 10.1743C31.73 10.1743 31.4747 10.2839 31.2864 10.4789L30.9965 10.7896V9.14286C30.9965 8.0441 30.5752 6.99035 29.8253 6.21341C29.0753 5.43648 28.0582 5 26.9977 5H25.998C25.7328 5 25.4785 5.10912 25.2911 5.30335C25.1036 5.49759 24.9982 5.76103 24.9982 6.03571C24.9982 6.3104 25.1036 6.57384 25.2911 6.76807C25.4785 6.96231 25.7328 7.07143 25.998 7.07143Z" fill="black"/>
<path d="M15.0012 31.9286H13.0018C11.9412 31.9286 10.9241 31.4921 10.1742 30.7152C9.42423 29.9382 9.00292 28.8845 9.00292 27.7857V25.1032L9.29284 25.4139C9.38577 25.511 9.49634 25.5881 9.61817 25.6406C9.73999 25.6932 9.87066 25.7203 10.0026 25.7203C10.1346 25.7203 10.2653 25.6932 10.3871 25.6406C10.5089 25.5881 10.6195 25.511 10.7124 25.4139C10.8061 25.3176 10.8805 25.2031 10.9313 25.0769C10.982 24.9507 11.0081 24.8153 11.0081 24.6786C11.0081 24.5418 10.982 24.4065 10.9313 24.2803C10.8805 24.154 10.8061 24.0395 10.7124 23.9432L8.71301 21.8718C8.62007 21.7747 8.5095 21.6977 8.38768 21.6451C8.26586 21.5925 8.13519 21.5654 8.00321 21.5654C7.87124 21.5654 7.74057 21.5925 7.61875 21.6451C7.49693 21.6977 7.38636 21.7747 7.29342 21.8718L5.29401 23.9432C5.10576 24.1382 5 24.4028 5 24.6786C5 24.9544 5.10576 25.2189 5.29401 25.4139C5.48225 25.609 5.73757 25.7185 6.0038 25.7185C6.27002 25.7185 6.52534 25.609 6.71359 25.4139L7.00351 25.1032V27.7857C7.00351 29.4338 7.63546 31.0145 8.76035 32.1799C9.88524 33.3453 11.4109 34 13.0018 34H15.0012C15.2663 34 15.5206 33.8909 15.7081 33.6966C15.8956 33.5024 16.0009 33.239 16.0009 32.9643C16.0009 32.6896 15.8956 32.4262 15.7081 32.2319C15.5206 32.0377 15.2663 31.9286 15.0012 31.9286Z" fill="black"/>
<path d="M7.0035 19.5H20.9994C21.5297 19.5 22.0383 19.2818 22.4132 18.8933C22.7882 18.5048 22.9988 17.9779 22.9988 17.4286V7.07143C22.9988 6.52205 22.7882 5.99518 22.4132 5.60671C22.0383 5.21824 21.5297 5 20.9994 5H7.0035C6.47323 5 5.96467 5.21824 5.5897 5.60671C5.21474 5.99518 5.00409 6.52205 5.00409 7.07143V17.4286C5.00409 17.9779 5.21474 18.5048 5.5897 18.8933C5.96467 19.2818 6.47323 19.5 7.0035 19.5ZM7.0035 7.07143H20.9994V17.4286H7.0035V7.07143Z" fill="black"/>
<path d="M14.0015 9.14286C13.4083 9.14286 12.8284 9.32509 12.3352 9.66651C11.842 10.0079 11.4576 10.4932 11.2306 11.0609C11.0036 11.6287 10.9442 12.2534 11.06 12.8562C11.1757 13.4589 11.4613 14.0125 11.8808 14.4471C12.3002 14.8816 12.8346 15.1776 13.4164 15.2974C13.9981 15.4173 14.6012 15.3558 15.1492 15.1206C15.6972 14.8855 16.1656 14.4872 16.4951 13.9762C16.8247 13.4653 17.0006 12.8645 17.0006 12.25C17.0006 11.4259 16.6846 10.6356 16.1222 10.0529C15.5597 9.47022 14.7969 9.14286 14.0015 9.14286ZM14.0015 13.2857C13.8037 13.2857 13.6105 13.225 13.4461 13.1112C13.2817 12.9974 13.1535 12.8356 13.0779 12.6464C13.0022 12.4571 12.9824 12.2489 13.021 12.0479C13.0595 11.847 13.1547 11.6625 13.2946 11.5176C13.4344 11.3728 13.6125 11.2741 13.8064 11.2342C14.0004 11.1942 14.2014 11.2147 14.384 11.2931C14.5667 11.3715 14.7228 11.5043 14.8327 11.6746C14.9425 11.8449 15.0012 12.0452 15.0012 12.25C15.0012 12.5247 14.8958 12.7881 14.7084 12.9824C14.5209 13.1766 14.2666 13.2857 14.0015 13.2857Z" fill="black"/>
<path d="M32.4461 18.5782L26.4478 15.4711C26.33 15.3977 26.1989 15.3502 26.0626 15.3316C25.9263 15.3131 25.7878 15.3239 25.6556 15.3633C25.5235 15.4027 25.4007 15.47 25.2948 15.5608C25.1889 15.6516 25.1023 15.7641 25.0402 15.8912C24.9782 16.0183 24.9422 16.1573 24.9343 16.2995C24.9265 16.4417 24.947 16.584 24.9947 16.7176C25.0424 16.8512 25.1161 16.9732 25.2113 17.0759C25.3065 17.1786 25.4212 17.2599 25.5481 17.3147L29.7569 19.5L23.9985 22.4829L22.449 21.6854C22.3312 21.6119 22.2001 21.5645 22.0637 21.5459C21.9274 21.5274 21.7889 21.5382 21.6568 21.5776C21.5247 21.617 21.4019 21.6842 21.296 21.7751C21.1901 21.8659 21.1034 21.9784 21.0414 22.1055C20.9794 22.2326 20.9433 22.3716 20.9355 22.5138C20.9276 22.656 20.9482 22.7983 20.9959 22.9319C21.0435 23.0655 21.1173 23.1875 21.2125 23.2902C21.3077 23.3929 21.4223 23.4742 21.5493 23.5289L22.9988 24.285V31.2864L17.0006 28.1793V22.6072C17.0006 22.3325 16.8953 22.069 16.7078 21.8748C16.5203 21.6806 16.266 21.5714 16.0009 21.5714C15.7357 21.5714 15.4815 21.6806 15.294 21.8748C15.1065 22.069 15.0012 22.3325 15.0012 22.6072V28.8214C15.0017 29.0127 15.0534 29.2001 15.1504 29.3628C15.2475 29.5255 15.3861 29.6572 15.551 29.7432L23.5487 33.8861C23.6882 33.9589 23.8423 33.9969 23.9985 33.9969C24.1548 33.9969 24.3089 33.9589 24.4484 33.8861L32.4461 29.7432C32.6109 29.6572 32.7496 29.5255 32.8466 29.3628C32.9437 29.2001 32.9954 29.0127 32.9959 28.8214V19.5C32.9954 19.3088 32.9437 19.1214 32.8466 18.9587C32.7496 18.796 32.6109 18.6643 32.4461 18.5782ZM24.9982 31.2864V24.285L30.9965 21.1779V28.1793L24.9982 31.2864Z" fill="black"/>
<path d="M25.998 7.07143H26.9977C27.5279 7.07143 28.0365 7.28967 28.4115 7.67814C28.7864 8.0666 28.9971 8.59348 28.9971 9.14286V10.7896L28.7072 10.4789C28.614 10.3824 28.5033 10.3058 28.3815 10.2535C28.2597 10.2012 28.1292 10.1743 27.9974 10.1743C27.8656 10.1743 27.735 10.2012 27.6132 10.2535C27.4914 10.3058 27.3808 10.3824 27.2876 10.4789C27.1944 10.5755 27.1204 10.6901 27.07 10.8163C27.0195 10.9425 26.9936 11.0777 26.9936 11.2143C26.9936 11.3509 27.0195 11.4861 27.07 11.6123C27.1204 11.7384 27.1944 11.8531 27.2876 11.9496L29.287 14.0211C29.3799 14.1181 29.4905 14.1952 29.6123 14.2478C29.7341 14.3004 29.8648 14.3274 29.9968 14.3274C30.1288 14.3274 30.2594 14.3004 30.3813 14.2478C30.5031 14.1952 30.6136 14.1181 30.7066 14.0211L32.706 11.9496C32.8942 11.7546 33 11.4901 33 11.2143C33 10.9385 32.8942 10.674 32.706 10.4789C32.5177 10.2839 32.2624 10.1743 31.9962 10.1743C31.73 10.1743 31.4747 10.2839 31.2864 10.4789L30.9965 10.7896V9.14286C30.9965 8.0441 30.5752 6.99035 29.8253 6.21341C29.0753 5.43648 28.0582 5 26.9977 5H25.998C25.7328 5 25.4785 5.10912 25.2911 5.30335C25.1036 5.49759 24.9982 5.76103 24.9982 6.03571C24.9982 6.3104 25.1036 6.57384 25.2911 6.76807C25.4785 6.96231 25.7328 7.07143 25.998 7.07143Z" stroke="black" stroke-width="0.2" mask="url(#path-2-outside-1_2750_30147)"/>
<path d="M15.0012 31.9286H13.0018C11.9412 31.9286 10.9241 31.4921 10.1742 30.7152C9.42423 29.9382 9.00292 28.8845 9.00292 27.7857V25.1032L9.29284 25.4139C9.38577 25.511 9.49634 25.5881 9.61817 25.6406C9.73999 25.6932 9.87066 25.7203 10.0026 25.7203C10.1346 25.7203 10.2653 25.6932 10.3871 25.6406C10.5089 25.5881 10.6195 25.511 10.7124 25.4139C10.8061 25.3176 10.8805 25.2031 10.9313 25.0769C10.982 24.9507 11.0081 24.8153 11.0081 24.6786C11.0081 24.5418 10.982 24.4065 10.9313 24.2803C10.8805 24.154 10.8061 24.0395 10.7124 23.9432L8.71301 21.8718C8.62007 21.7747 8.5095 21.6977 8.38768 21.6451C8.26586 21.5925 8.13519 21.5654 8.00321 21.5654C7.87124 21.5654 7.74057 21.5925 7.61875 21.6451C7.49693 21.6977 7.38636 21.7747 7.29342 21.8718L5.29401 23.9432C5.10576 24.1382 5 24.4028 5 24.6786C5 24.9544 5.10576 25.2189 5.29401 25.4139C5.48225 25.609 5.73757 25.7185 6.0038 25.7185C6.27002 25.7185 6.52534 25.609 6.71359 25.4139L7.00351 25.1032V27.7857C7.00351 29.4338 7.63546 31.0145 8.76035 32.1799C9.88524 33.3453 11.4109 34 13.0018 34H15.0012C15.2663 34 15.5206 33.8909 15.7081 33.6966C15.8956 33.5024 16.0009 33.239 16.0009 32.9643C16.0009 32.6896 15.8956 32.4262 15.7081 32.2319C15.5206 32.0377 15.2663 31.9286 15.0012 31.9286Z" stroke="black" stroke-width="0.2" mask="url(#path-2-outside-1_2750_30147)"/>
<path d="M7.0035 19.5H20.9994C21.5297 19.5 22.0383 19.2818 22.4132 18.8933C22.7882 18.5048 22.9988 17.9779 22.9988 17.4286V7.07143C22.9988 6.52205 22.7882 5.99518 22.4132 5.60671C22.0383 5.21824 21.5297 5 20.9994 5H7.0035C6.47323 5 5.96467 5.21824 5.5897 5.60671C5.21474 5.99518 5.00409 6.52205 5.00409 7.07143V17.4286C5.00409 17.9779 5.21474 18.5048 5.5897 18.8933C5.96467 19.2818 6.47323 19.5 7.0035 19.5ZM7.0035 7.07143H20.9994V17.4286H7.0035V7.07143Z" stroke="black" stroke-width="0.2" mask="url(#path-2-outside-1_2750_30147)"/>
<path d="M14.0015 9.14286C13.4083 9.14286 12.8284 9.32509 12.3352 9.66651C11.842 10.0079 11.4576 10.4932 11.2306 11.0609C11.0036 11.6287 10.9442 12.2534 11.06 12.8562C11.1757 13.4589 11.4613 14.0125 11.8808 14.4471C12.3002 14.8816 12.8346 15.1776 13.4164 15.2974C13.9981 15.4173 14.6012 15.3558 15.1492 15.1206C15.6972 14.8855 16.1656 14.4872 16.4951 13.9762C16.8247 13.4653 17.0006 12.8645 17.0006 12.25C17.0006 11.4259 16.6846 10.6356 16.1222 10.0529C15.5597 9.47022 14.7969 9.14286 14.0015 9.14286ZM14.0015 13.2857C13.8037 13.2857 13.6105 13.225 13.4461 13.1112C13.2817 12.9974 13.1535 12.8356 13.0779 12.6464C13.0022 12.4571 12.9824 12.2489 13.021 12.0479C13.0595 11.847 13.1547 11.6625 13.2946 11.5176C13.4344 11.3728 13.6125 11.2741 13.8064 11.2342C14.0004 11.1942 14.2014 11.2147 14.384 11.2931C14.5667 11.3715 14.7228 11.5043 14.8327 11.6746C14.9425 11.8449 15.0012 12.0452 15.0012 12.25C15.0012 12.5247 14.8958 12.7881 14.7084 12.9824C14.5209 13.1766 14.2666 13.2857 14.0015 13.2857Z" stroke="black" stroke-width="0.2" mask="url(#path-2-outside-1_2750_30147)"/>
<path d="M32.4461 18.5782L26.4478 15.4711C26.33 15.3977 26.1989 15.3502 26.0626 15.3316C25.9263 15.3131 25.7878 15.3239 25.6556 15.3633C25.5235 15.4027 25.4007 15.47 25.2948 15.5608C25.1889 15.6516 25.1023 15.7641 25.0402 15.8912C24.9782 16.0183 24.9422 16.1573 24.9343 16.2995C24.9265 16.4417 24.947 16.584 24.9947 16.7176C25.0424 16.8512 25.1161 16.9732 25.2113 17.0759C25.3065 17.1786 25.4212 17.2599 25.5481 17.3147L29.7569 19.5L23.9985 22.4829L22.449 21.6854C22.3312 21.6119 22.2001 21.5645 22.0637 21.5459C21.9274 21.5274 21.7889 21.5382 21.6568 21.5776C21.5247 21.617 21.4019 21.6842 21.296 21.7751C21.1901 21.8659 21.1034 21.9784 21.0414 22.1055C20.9794 22.2326 20.9433 22.3716 20.9355 22.5138C20.9276 22.656 20.9482 22.7983 20.9959 22.9319C21.0435 23.0655 21.1173 23.1875 21.2125 23.2902C21.3077 23.3929 21.4223 23.4742 21.5493 23.5289L22.9988 24.285V31.2864L17.0006 28.1793V22.6072C17.0006 22.3325 16.8953 22.069 16.7078 21.8748C16.5203 21.6806 16.266 21.5714 16.0009 21.5714C15.7357 21.5714 15.4815 21.6806 15.294 21.8748C15.1065 22.069 15.0012 22.3325 15.0012 22.6072V28.8214C15.0017 29.0127 15.0534 29.2001 15.1504 29.3628C15.2475 29.5255 15.3861 29.6572 15.551 29.7432L23.5487 33.8861C23.6882 33.9589 23.8423 33.9969 23.9985 33.9969C24.1548 33.9969 24.3089 33.9589 24.4484 33.8861L32.4461 29.7432C32.6109 29.6572 32.7496 29.5255 32.8466 29.3628C32.9437 29.2001 32.9954 29.0127 32.9959 28.8214V19.5C32.9954 19.3088 32.9437 19.1214 32.8466 18.9587C32.7496 18.796 32.6109 18.6643 32.4461 18.5782ZM24.9982 31.2864V24.285L30.9965 21.1779V28.1793L24.9982 31.2864Z" stroke="black" stroke-width="0.2" mask="url(#path-2-outside-1_2750_30147)"/>
</svg>
