<svg width="450" height="450" viewBox="0 0 512 512" fill="none" xmlns="http://www.w3.org/2000/svg">
<path d="M168.06 31.5461C169.746 31.5472 171.433 31.5466 173.119 31.5443C177.662 31.5432 182.204 31.5665 186.747 31.5946C191.508 31.6197 196.268 31.622 201.029 31.6267C210.028 31.6391 219.026 31.6719 228.025 31.7121C238.277 31.7569 248.528 31.7788 258.78 31.7989C279.853 31.8406 300.927 31.9109 322 32.0002C322.002 33.2845 322.003 34.5689 322.005 35.8922C322.021 48.0435 322.064 60.1945 322.132 72.3457C322.167 78.5916 322.192 84.8372 322.196 91.0832C322.2 97.1199 322.229 103.156 322.274 109.193C322.287 111.487 322.291 113.781 322.287 116.074C322.259 134.257 323.635 148.327 336.875 161.926C348.788 173.142 363.243 175.102 378.926 175.205C379.874 175.215 380.821 175.225 381.797 175.235C384.898 175.267 387.998 175.292 391.098 175.317C393.26 175.337 395.422 175.358 397.584 175.38C403.25 175.435 408.917 175.484 414.584 175.532C420.376 175.583 426.168 175.638 431.959 175.694C443.306 175.801 454.653 175.902 466 176C466.046 208.935 466.081 241.871 466.103 274.806C466.105 278.697 466.108 282.589 466.11 286.48C466.111 287.642 466.111 287.642 466.112 288.827C466.121 301.359 466.136 313.89 466.155 326.421C466.173 339.286 466.185 352.151 466.189 365.017C466.191 372.95 466.2 380.884 466.216 388.818C466.228 394.909 466.229 401 466.227 407.092C466.227 409.585 466.231 412.078 466.239 414.571C466.249 417.983 466.246 421.395 466.241 424.807C466.25 426.276 466.25 426.276 466.259 427.775C466.195 442.59 462.616 455.579 452.188 466.5C441.249 476.578 430.132 480.473 415.394 480.388C414.266 480.393 413.138 480.399 411.976 480.404C408.219 480.418 404.461 480.411 400.704 480.404C398.001 480.408 395.298 480.417 392.595 480.425C386.029 480.442 379.463 480.443 372.896 480.438C367.557 480.434 362.217 480.435 356.878 480.441C355.736 480.442 355.736 480.442 354.57 480.443C353.023 480.444 351.476 480.446 349.929 480.447C335.437 480.461 320.946 480.456 306.455 480.444C293.213 480.434 279.971 480.447 266.729 480.471C253.114 480.496 239.498 480.505 225.882 480.499C218.245 480.495 210.609 480.497 202.972 480.515C196.471 480.53 189.971 480.53 183.471 480.513C180.158 480.504 176.846 480.504 173.533 480.517C169.933 480.531 166.334 480.519 162.734 480.501C161.699 480.511 160.664 480.521 159.597 480.53C146.876 480.403 135.351 475.011 125.875 466.625C118.638 459.049 112.87 447.277 112.88 436.774C112.879 435.716 112.877 434.659 112.876 433.57C112.88 432.415 112.883 431.261 112.887 430.071C112.887 428.852 112.887 427.632 112.886 426.375C112.887 423.035 112.892 419.694 112.899 416.353C112.905 412.861 112.906 409.368 112.907 405.875C112.91 399.263 112.918 392.651 112.928 386.039C112.94 378.511 112.945 370.983 112.95 363.454C112.961 347.969 112.978 332.485 113 317C113.698 317.064 114.397 317.127 115.116 317.193C118.341 317.482 121.567 317.758 124.793 318.035C125.891 318.135 126.989 318.236 128.119 318.339C161.345 321.141 196.035 310.501 221.672 289.024C222.441 288.356 223.209 287.688 224 287C225.246 285.937 225.246 285.937 226.516 284.852C252.882 261.801 268.492 229.106 271.75 194.375C271.852 192.584 271.938 190.793 272 189C272.04 188.237 272.08 187.474 272.121 186.688C273.142 151.165 258.811 116.375 234.66 90.6877C208.208 63.3586 173.68 50.2156 136 49.0002C131.998 48.9377 128.002 48.9308 124 49.0002C135.535 34.2123 150.146 31.3763 168.06 31.5461ZM371.869 279.412C368.867 284.086 369.444 289.416 369.483 294.785C369.476 295.966 369.469 297.148 369.462 298.365C369.447 301.592 369.45 304.819 369.463 308.046C369.473 311.431 369.464 314.815 369.458 318.2C369.45 323.882 369.46 329.565 369.479 335.247C369.501 341.808 369.494 348.369 369.472 354.93C369.453 360.572 369.451 366.215 369.461 371.858C369.468 375.224 369.468 378.589 369.455 381.955C369.445 385.709 369.461 389.461 369.483 393.215C369.475 394.325 369.467 395.435 369.458 396.578C369.526 402.709 369.886 406.345 374 411C378.352 414.938 381.918 415.634 387.602 415.387C392.419 414.61 395.105 411.968 398.313 408.5C400.839 404.758 401.125 401.616 401.141 397.162C401.147 396.191 401.152 395.22 401.158 394.219C401.159 393.159 401.16 392.1 401.162 391.009C401.166 389.888 401.171 388.767 401.177 387.612C401.191 383.902 401.198 380.191 401.204 376.481C401.209 373.902 401.215 371.324 401.221 368.746C401.23 364.029 401.236 359.312 401.239 354.596C401.244 347.664 401.261 340.733 401.29 333.801C401.315 327.788 401.322 321.775 401.324 315.762C401.327 313.208 401.335 310.654 401.348 308.101C401.365 304.527 401.363 300.954 401.357 297.38C401.366 296.327 401.375 295.273 401.385 294.188C401.348 287.725 400.921 282.315 396.465 277.258C387.793 270.826 379.314 270.988 371.869 279.412ZM246 325C242.375 329.571 241.497 332.576 241.483 338.379C241.476 339.092 241.469 339.805 241.462 340.54C241.444 342.881 241.456 345.221 241.469 347.563C241.466 349.199 241.463 350.835 241.458 352.471C241.452 355.894 241.46 359.317 241.479 362.739C241.502 367.118 241.489 371.495 241.465 375.873C241.45 379.25 241.455 382.626 241.465 386.003C241.468 387.617 241.465 389.231 241.455 390.845C241.445 393.104 241.461 395.362 241.483 397.621C241.486 398.904 241.489 400.188 241.492 401.51C242.263 406.802 244.728 409.849 248.625 413.375C253.199 415.577 257.01 415.805 262 415C266.636 412.682 270.863 409.333 272.596 404.255C273.129 401.285 273.144 398.433 273.162 395.415C273.166 394.762 273.171 394.11 273.177 393.437C273.191 391.285 273.198 389.133 273.204 386.981C273.209 385.479 273.215 383.976 273.221 382.474C273.231 379.326 273.237 376.178 273.241 373.03C273.246 369.009 273.27 364.988 273.299 360.966C273.317 357.863 273.322 354.76 273.324 351.657C273.327 350.175 273.335 348.693 273.348 347.211C273.365 345.132 273.363 343.053 273.357 340.974C273.36 339.793 273.364 338.613 273.368 337.397C272.872 332.814 271.574 328.786 268.465 325.258C261.185 319.858 253.268 318.425 246 325ZM307.87 343.332C304.673 348.303 305.431 354.372 305.469 360.063C305.465 361.327 305.461 362.592 305.458 363.895C305.455 366.565 305.46 369.234 305.479 371.903C305.502 375.313 305.489 378.722 305.465 382.131C305.447 385.4 305.459 388.669 305.469 391.938C305.461 393.157 305.453 394.375 305.445 395.631C305.515 402.032 305.6 406.184 310 411C314.352 414.938 317.918 415.634 323.602 415.387C328.419 414.61 331.105 411.968 334.313 408.5C336.895 404.674 337.127 401.437 337.162 396.884C337.171 395.866 337.181 394.847 337.191 393.798C337.195 392.703 337.199 391.609 337.204 390.481C337.209 389.349 337.215 388.217 337.221 387.051C337.23 384.656 337.237 382.261 337.241 379.866C337.25 376.212 337.281 372.558 337.313 368.904C337.319 366.576 337.325 364.247 337.329 361.918C337.341 360.829 337.353 359.741 337.366 358.619C337.347 351.988 337.041 346.451 332.465 341.258C323.764 334.805 315.432 335.056 307.87 343.332ZM179.868 375.336C176.669 380.284 177.425 386.333 177.5 392C177.485 393.163 177.469 394.326 177.454 395.524C177.483 401.953 177.587 406.167 182 411C186.351 414.936 189.918 415.639 195.602 415.383C200.687 414.571 203.267 411.951 206.313 408C209.244 402.789 209.212 398.101 209.25 392.25C209.271 391.477 209.292 390.703 209.313 389.906C209.352 384.025 208.743 377.956 204.548 373.435C199.756 369.351 196.668 368.643 190.539 368.723C185.647 369.257 183.066 371.833 179.868 375.336Z" fill="#757784"/>
<path d="M122 81.0006C122.006 82.7337 122.006 82.7337 122.011 84.5019C122.048 95.4183 122.106 106.334 122.184 117.251C122.224 122.862 122.256 128.473 122.271 134.085C122.286 139.506 122.321 144.926 122.369 150.347C122.383 152.409 122.391 154.472 122.392 156.535C122.395 159.436 122.422 162.336 122.454 165.236C122.449 166.079 122.444 166.922 122.439 167.791C122.572 175.454 124.943 181.854 129.125 188.251C141.675 200.254 156.815 199.314 173.106 199.415C175.041 199.433 176.975 199.453 178.91 199.473C183.969 199.524 189.027 199.564 194.085 199.601C199.261 199.642 204.436 199.693 209.612 199.743C219.741 199.839 229.871 199.924 240 200.001C239.855 201.591 239.706 203.182 239.555 204.772C239.472 205.657 239.39 206.543 239.304 207.456C237.294 224.278 227.034 240.651 216 253.001C215.536 253.606 215.072 254.212 214.594 254.837C200.18 273.557 174.647 284.327 152 288.001C147.24 288.405 142.526 288.479 137.75 288.438C136.487 288.431 135.223 288.423 133.922 288.415C123.845 288.239 114.578 287.14 105 284.001C104.032 283.687 104.032 283.687 103.045 283.367C87.3696 278.098 74.6758 269.538 63.0003 258.001C61.9271 257.036 61.9271 257.036 60.8323 256.051C44.7241 241.229 34.1196 216.757 32.8233 195.035C32.5321 180.247 32.3935 166.17 37.0003 152.001C37.3137 151.03 37.3137 151.03 37.6336 150.041C42.9038 134.368 51.4647 121.674 63.0003 110.001C63.6435 109.285 64.2867 108.57 64.9495 107.833C78.2336 93.3959 102.169 80.7229 122 81.0006Z" fill="#757784"/>
<path d="M353 32C354.426 32.1336 355.851 32.2743 357.276 32.418C358.07 32.4956 358.863 32.5731 359.681 32.6531C374.912 34.9313 385.98 48.6966 395.6 59.4429C397.92 62.0234 400.275 64.5719 402.625 67.125C406.675 71.5371 410.688 75.9805 414.688 80.4375C417.277 83.306 419.886 86.1548 422.5 89C426.594 93.4554 430.654 97.9395 434.692 102.445C436.79 104.767 438.91 107.066 441.037 109.36C461.661 131.666 461.661 131.666 464 144C450.935 144.093 437.87 144.164 424.805 144.207C418.738 144.228 412.672 144.256 406.605 144.302C400.75 144.345 394.895 144.369 389.04 144.38C386.807 144.387 384.573 144.401 382.34 144.423C379.21 144.452 376.082 144.456 372.953 144.454C372.03 144.468 371.107 144.483 370.157 144.498C364.595 144.462 361.412 143.719 357 140C353.896 136.467 352.874 133.47 352.88 128.805C352.879 127.951 352.877 127.097 352.876 126.217C352.88 125.284 352.883 124.35 352.887 123.388C352.887 122.402 352.887 121.417 352.886 120.401C352.887 117.139 352.895 113.876 352.903 110.613C352.905 108.353 352.906 106.093 352.907 103.833C352.911 97.8799 352.921 91.9271 352.932 85.9742C352.942 79.9015 352.947 73.8287 352.952 67.7559C352.962 55.8372 352.979 43.9186 353 32Z" fill="#757784"/>
<path d="M153 81C159.455 81.7173 164.741 82.566 170.75 84.625C171.92 85.0237 171.92 85.0237 173.114 85.4304C185.104 89.6605 195.127 96.0515 205 104C205.768 104.59 206.537 105.181 207.328 105.789C222.854 118.467 234.278 138.645 239 158C239.495 162.95 239.495 162.95 240 168C211.29 168 182.58 168 153 168C153 139.29 153 110.58 153 81Z" fill="#757784"/>
</svg>
