<svg width="33" height="35" viewBox="0 0 33 35" fill="none" xmlns="http://www.w3.org/2000/svg">
    <path d="M16.5 34C20.53 34 24.188 32.3665 26.947 29.677C26.792 28.126 25.862 26.608 24.2035 25.42C19.9875 22.417 13.0435 22.417 8.7965 25.42C7.138 26.608 6.208 28.126 6.053 29.677C8.812 32.3665 12.47 34 16.5 34ZM16.5 34C25.0604 34 32 26.6127 32 17.5C32 8.3873 25.0604 1 16.5 1C7.93959 1 1 8.3873 1 17.5C1 26.6127 7.93959 34 16.5 34ZM16.686 18.787C16.5775 18.7705 16.438 18.7705 16.314 18.787C13.586 18.688 11.416 16.312 11.416 13.3915C11.416 10.405 13.679 7.9795 16.5 7.9795C19.3055 7.9795 21.584 10.405 21.584 13.3915C21.5685 16.312 19.414 18.688 16.686 18.787Z" stroke="black" stroke-width="2" stroke-linecap="round" stroke-linejoin="round"/>
</svg>
