<svg width="13" height="21" viewBox="0 0 13 21" fill="none" xmlns="http://www.w3.org/2000/svg">
    <path fill-rule="evenodd" clip-rule="evenodd" d="M2.17639 1.95302C2.11719 1.72131 2.11271 1.47945 2.16329 1.2458C2.21387 1.01215 2.31818 0.792856 2.4683 0.604582C2.61842 0.416309 2.81039 0.264007 3.02964 0.159247C3.24889 0.0544878 3.48964 2.62077e-05 3.73361 0H8.7852C9.02916 2.62077e-05 9.26992 0.0544878 9.48917 0.159247C9.70842 0.264007 9.90039 0.416309 10.0505 0.604582C10.2006 0.792856 10.3049 1.01215 10.3555 1.2458C10.4061 1.47945 10.4016 1.72131 10.3424 1.95302L9.50976 5.21363L12.4283 14.7377C12.5511 15.138 12.5489 15.565 12.4219 15.964C12.2948 16.363 12.0489 16.7157 11.7155 16.9768L6.92831 20.7256C6.73849 20.8744 6.50257 20.9555 6.2594 20.9555C6.01624 20.9555 5.78032 20.8744 5.5905 20.7256L0.803262 16.9768C0.469932 16.7157 0.223957 16.363 0.0969428 15.964C-0.0300719 15.565 -0.0323244 15.138 0.0904743 14.7377L3.00905 5.21363L2.17639 1.95302ZM4.91517 6.28653H7.60364L8.56686 9.4298H7.32965C7.04581 9.4298 6.77358 9.54018 6.57287 9.73668C6.37216 9.93317 6.2594 10.1997 6.2594 10.4776C6.2594 10.7554 6.37216 11.0219 6.57287 11.2184C6.77358 11.4149 7.04581 11.5253 7.32965 11.5253H9.20901L10.3777 15.3391L6.2594 18.5662L2.14108 15.3391L4.91517 6.28653ZM8.09916 2.09551L7.56404 4.19102H4.95477L4.41964 2.09551H8.09916Z" fill="black"/>
</svg>
