<svg width="23" height="16" viewBox="0 0 23 16" fill="none" xmlns="http://www.w3.org/2000/svg">
    <path d="M4.05239 7.04615H0.633186C0.284934 7.04615 0 7.32308 0 7.66154V15.3846C0 15.7231 0.284934 16 0.633186 16H4.02073C4.36898 16 4.65392 15.7231 4.65392 15.3846V7.66154C4.65392 7.32308 4.40064 7.04615 4.05239 7.04615Z" fill="#757784"/>
    <path d="M11.1757 4.03077H7.75653C7.40828 4.03077 7.12334 4.30769 7.12334 4.64615V15.3846C7.12334 15.7231 7.40828 16 7.75653 16H11.1441C11.4923 16 11.7773 15.7231 11.7773 15.3846V4.64615C11.7773 4.30769 11.4923 4.03077 11.1757 4.03077Z" fill="#757784"/>
    <path d="M22.0032 8C21.2751 7.23077 20.2303 6.76923 19.1539 6.76923H18.0141C17.6342 6.76923 17.286 6.61538 17.0327 6.33846C16.7794 6.06154 16.6528 5.72308 16.7161 5.35385C16.7794 4.70769 17.381 4.21538 18.1091 4.21538H19.4388C19.8504 4.21538 20.167 4.49231 20.262 4.86154C20.3253 5.07692 20.5152 5.23077 20.7368 5.23077H22.2565C22.4148 5.23077 22.5414 5.16923 22.6364 5.07692C22.7314 4.98462 22.763 4.83077 22.763 4.70769C22.6047 3.16923 21.37 1.96923 19.8187 1.78462V0.492307C19.8187 0.215384 19.5971 0 19.3122 0H17.7925C17.5076 0 17.286 0.215384 17.286 0.492307V1.84615C15.3231 2.18462 13.9618 3.93846 14.1517 5.87692C14.3733 7.75385 16.1146 9.23077 18.1724 9.23077H19.1539C19.5338 9.23077 19.882 9.38462 20.1353 9.66154C20.3886 9.93846 20.5152 10.2769 20.4519 10.6462C20.3886 11.2923 19.7871 11.7846 19.0589 11.7846H17.7292C17.3176 11.7846 16.9694 11.5077 16.9061 11.1385C16.8744 10.9231 16.6528 10.7692 16.4312 10.7692H14.9115C14.7532 10.7692 14.6266 10.8308 14.5316 10.9231C14.4366 11.0154 14.405 11.1692 14.405 11.2923C14.5633 12.8308 15.798 14.0308 17.3493 14.2154V15.5077C17.3493 15.7846 17.5709 16 17.8559 16H19.3438C19.6288 16 19.8504 15.7846 19.8504 15.5077V14.1538C21.5283 13.8154 22.8264 12.4923 22.9847 10.8923C23.0796 9.81538 22.7314 8.8 22.0032 8Z" fill="#757784"/>
</svg>
