<svg width="19" height="18" viewBox="0 0 19 18" fill="none" xmlns="http://www.w3.org/2000/svg">
    <path d="M16.4108 6.84182C14.7857 6.84182 14.1214 5.6926 14.9294 4.28301C15.3963 3.46599 15.1179 2.42451 14.3009 1.95764L12.7477 1.06879C12.0384 0.646817 11.1226 0.898208 10.7006 1.60749L10.6019 1.77808C9.79383 3.18766 8.46505 3.18766 7.64803 1.77808L7.54926 1.60749C7.14524 0.898208 6.22946 0.646817 5.52018 1.06879L3.96694 1.95764C3.14992 2.42451 2.87159 3.47497 3.33846 4.29199C4.15548 5.6926 3.49109 6.84182 1.86603 6.84182C0.932287 6.84182 0.160156 7.60497 0.160156 8.54769V10.1279C0.160156 11.0616 0.923309 11.8337 1.86603 11.8337C3.49109 11.8337 4.15548 12.9829 3.33846 14.3925C2.87159 15.2096 3.14992 16.251 3.96694 16.7179L5.52018 17.6068C6.22946 18.0287 7.14524 17.7773 7.56722 17.0681L7.66598 16.8975C8.47403 15.4879 9.80281 15.4879 10.6198 16.8975L10.7186 17.0681C11.1406 17.7773 12.0564 18.0287 12.7656 17.6068L14.3189 16.7179C15.1359 16.251 15.4142 15.2006 14.9474 14.3925C14.1303 12.9829 14.7947 11.8337 16.4198 11.8337C17.3535 11.8337 18.1257 11.0706 18.1257 10.1279V8.54769C18.1167 7.61395 17.3535 6.84182 16.4108 6.84182ZM9.13842 12.2557C7.53131 12.2557 6.22048 10.9449 6.22048 9.33777C6.22048 7.73066 7.53131 6.41984 9.13842 6.41984C10.7455 6.41984 12.0564 7.73066 12.0564 9.33777C12.0564 10.9449 10.7455 12.2557 9.13842 12.2557Z" fill="#757784"/>
</svg>
