<svg width="39" height="39" viewBox="0 0 39 39" fill="none" xmlns="http://www.w3.org/2000/svg">
    <path d="M4.9878 7H25.6158C25.892 7 26.1158 7.22386 26.1158 7.5V11.0095V27.7549M26.1158 27.7549H17.7927M26.1158 27.7549H28.0366M10.75 27.7549H7.83536C7.55922 27.7549 7.33536 27.531 7.33536 27.2549V18.585C7.33536 18.3088 7.1115 18.085 6.83536 18.085H2M12.0305 10.5378H2.42683M10.3232 14.0755H3.92073" stroke="black" stroke-width="2" stroke-linecap="round"/>
    <path d="M26.3293 10.7737H33.1289C33.5342 10.7737 33.8995 11.0184 34.0537 11.3933L36.9249 18.374C36.9745 18.4947 37.0001 18.6239 37.0001 18.7544V26.5191C37.0001 27.0714 36.5524 27.5191 36.0001 27.5191H34.8659" stroke="black" stroke-width="2" stroke-linecap="round"/>
    <path d="M17.7925 27.7546C17.7925 30.0992 16.0727 31.9999 13.9511 31.9999C11.8295 31.9999 10.1096 30.0992 10.1096 27.7546C10.1096 25.41 11.8295 23.5093 13.9511 23.5093C16.0727 23.5093 17.7925 25.41 17.7925 27.7546ZM11.9535 27.7546C11.9535 28.9738 12.8479 29.9622 13.9511 29.9622C15.0543 29.9622 15.9486 28.9738 15.9486 27.7546C15.9486 26.5354 15.0543 25.547 13.9511 25.547C12.8479 25.547 11.9535 26.5354 11.9535 27.7546Z" fill="black"/>
    <path d="M35.2928 27.7546C35.2928 30.0992 33.5729 31.9999 31.4513 31.9999C29.3297 31.9999 27.6099 30.0992 27.6099 27.7546C27.6099 25.41 29.3297 23.5093 31.4513 23.5093C33.5729 23.5093 35.2928 25.41 35.2928 27.7546ZM29.4538 27.7546C29.4538 28.9738 30.3481 29.9622 31.4513 29.9622C32.5545 29.9622 33.4489 28.9738 33.4489 27.7546C33.4489 26.5354 32.5545 25.547 31.4513 25.547C30.3481 25.547 29.4538 26.5354 29.4538 27.7546Z" fill="black"/>
</svg>
