<svg width="10" height="10" viewBox="0 0 10 10" fill="none" xmlns="http://www.w3.org/2000/svg">
    <path d="M5.00911 8.19672C6.76958 8.19672 8.19672 6.76958 8.19672 5.00911C8.19672 3.24864 6.76958 1.82149 5.00911 1.82149C3.24864 1.82149 1.82149 3.24864 1.82149 5.00911C1.82149 6.76958 3.24864 8.19672 5.00911 8.19672Z" fill="#292D32"/>
    <path d="M5.00911 10C4.75865 10 4.55373 9.8133 4.55373 9.56284V9.52641C4.55373 9.27596 4.75865 9.07104 5.00911 9.07104C5.25956 9.07104 5.46448 9.27596 5.46448 9.52641C5.46448 9.77687 5.25956 10 5.00911 10ZM8.26047 8.71585C8.14208 8.71585 8.02823 8.67031 7.93716 8.58379L7.87796 8.52459C7.70036 8.34699 7.70036 8.06011 7.87796 7.88251C8.05556 7.70492 8.34244 7.70492 8.52004 7.88251L8.57924 7.94171C8.75683 8.11931 8.75683 8.40619 8.57924 8.58379C8.49271 8.67031 8.37887 8.71585 8.26047 8.71585ZM1.75774 8.71585C1.63934 8.71585 1.5255 8.67031 1.43443 8.58379C1.25683 8.40619 1.25683 8.11931 1.43443 7.94171L1.49362 7.88251C1.67122 7.70492 1.95811 7.70492 2.1357 7.88251C2.3133 8.06011 2.3133 8.34699 2.1357 8.52459L2.0765 8.58379C1.98998 8.67031 1.87158 8.71585 1.75774 8.71585ZM9.56284 5.46448H9.52641C9.27596 5.46448 9.07104 5.25956 9.07104 5.00911C9.07104 4.75865 9.27596 4.55373 9.52641 4.55373C9.77687 4.55373 10 4.75865 10 5.00911C10 5.25956 9.8133 5.46448 9.56284 5.46448ZM0.491803 5.46448H0.455373C0.204918 5.46448 0 5.25956 0 5.00911C0 4.75865 0.204918 4.55373 0.455373 4.55373C0.705829 4.55373 0.928962 4.75865 0.928962 5.00911C0.928962 5.25956 0.742259 5.46448 0.491803 5.46448ZM8.20128 2.27231C8.08288 2.27231 7.96904 2.22678 7.87796 2.14025C7.70036 1.96266 7.70036 1.67577 7.87796 1.49818L7.93716 1.43898C8.11475 1.26138 8.40164 1.26138 8.57924 1.43898C8.75683 1.61658 8.75683 1.90346 8.57924 2.08106L8.52004 2.14025C8.43352 2.22678 8.31967 2.27231 8.20128 2.27231ZM1.81694 2.27231C1.69854 2.27231 1.5847 2.22678 1.49362 2.14025L1.43443 2.0765C1.25683 1.89891 1.25683 1.61202 1.43443 1.43443C1.61202 1.25683 1.89891 1.25683 2.0765 1.43443L2.1357 1.49362C2.3133 1.67122 2.3133 1.95811 2.1357 2.1357C2.04918 2.22678 1.93078 2.27231 1.81694 2.27231ZM5.00911 0.928962C4.75865 0.928962 4.55373 0.742259 4.55373 0.491803V0.455373C4.55373 0.204918 4.75865 0 5.00911 0C5.25956 0 5.46448 0.204918 5.46448 0.455373C5.46448 0.705829 5.25956 0.928962 5.00911 0.928962Z" fill="#292D32"/>
</svg>
