<svg width="39" height="39" viewBox="0 0 39 39" fill="none" xmlns="http://www.w3.org/2000/svg">
    <path d="M34 36V32.3333C34 30.3884 33.2362 28.5232 31.8765 27.1479C30.5169 25.7726 28.6728 25 26.75 25H12.25C10.3272 25 8.48311 25.7726 7.12348 27.1479C5.76384 28.5232 5 30.3884 5 32.3333V36M19.5 3C17.5772 3 15.7331 3.77262 14.3735 5.14788C13.0139 6.52315 12.25 8.38841 12.25 10.3333C12.25 12.2783 13.0139 14.1435 14.3735 15.5188C15.7331 16.894 17.5772 17.6667 19.5 17.6667C21.4228 17.6667 23.2669 16.894 24.6265 15.5188C25.9862 14.1435 26.75 12.2783 26.75 10.3333C26.75 8.38841 25.9862 6.52315 24.6265 5.14788C23.2669 3.77262 21.4228 3 19.5 3Z" stroke="black" stroke-width="2" stroke-linejoin="round"/>
</svg>
