<svg width="20" height="22" viewBox="0 0 20 22" fill="none" xmlns="http://www.w3.org/2000/svg">
    <path d="M3.70091 7.79829L3.69679 7.80516L3.69382 7.8126C3.50155 8.29379 3.59194 8.89169 4.09423 9.19338L4.09419 9.19345L4.0978 9.19542L8.98249 11.8626V17.3742C8.98249 17.6664 9.08024 17.9178 9.25858 18.0963C9.43693 18.2748 9.68805 18.3727 9.98008 18.3727C10.2721 18.3727 10.5232 18.2748 10.7016 18.0963C10.8799 17.9178 10.9777 17.6664 10.9777 17.3742V11.8626L15.8624 9.19542L15.8624 9.1955L15.8659 9.19338C16.3544 8.89999 16.5613 8.30219 16.2593 7.79829C15.9666 7.30995 15.3704 7.10261 14.8672 7.40347L9.98008 10.072L5.09299 7.40348C4.58982 7.10261 3.99361 7.30995 3.70091 7.79829ZM8.14928 1.39055L8.14864 1.39093L2.84042 4.56807C1.63511 5.22391 0.9 6.62176 0.9 8.01476V14.0079C0.9 15.4011 1.63524 16.799 2.84074 17.4548L8.23928 20.6322L8.23917 20.6323L8.24496 20.6353C8.79338 20.9119 9.34914 21.1 10 21.1C10.6509 21.1 11.2066 20.9119 11.755 20.6353L11.7551 20.6354L11.7607 20.6322L17.1592 17.4548C18.3648 16.799 19.1 15.4011 19.1 14.0079V8.01476C19.1 6.62163 18.3647 5.22365 17.1592 4.56788L11.7607 1.39055C10.6494 0.736483 9.26058 0.736483 8.14928 1.39055ZM16.16 15.7374L16.1593 15.7379L10.7621 18.9144C10.252 19.1706 9.65798 19.1706 9.14789 18.9144L3.75072 15.7379L3.74995 15.7374C3.15361 15.3936 2.81 14.7927 2.81 14.0079V8.01476C2.81 7.31838 3.15554 6.62797 3.74995 6.28527L3.74995 6.28527L3.75072 6.28482L9.13839 3.11387C9.2126 3.09505 9.28195 3.07662 9.34748 3.05921C9.60324 2.99126 9.80063 2.93882 10 2.93882C10.2463 2.93882 10.4973 3.02139 10.7542 3.19421L10.7541 3.19436L10.7593 3.19742L16.1593 6.37563L16.1601 6.37608C16.7564 6.71989 17.1 7.32083 17.1 8.10556V14.0079C17.1 14.7043 16.7545 15.3947 16.16 15.7374Z" fill="black" stroke="black" stroke-width="0.2"/>
</svg>
