<svg width="34" height="34" viewBox="0 0 34 34" fill="none" xmlns="http://www.w3.org/2000/svg">
<path d="M22.1944 16.5279H11.8056C10.7619 16.5279 9.91667 17.3732 9.91667 18.4168V25.9724C9.91667 27.016 10.7619 27.8613 11.8056 27.8613H18.4167C19.4603 27.8613 20.3056 27.016 20.3056 25.9724V25.0279V18.4168C20.3056 17.3732 21.1508 16.5279 22.1944 16.5279Z" fill="#E5E5EA"/>
<path d="M22.1944 16.5279C21.1508 16.5279 20.3056 17.3732 20.3056 18.4168V25.0279H22.1944C23.2381 25.0279 24.0833 24.1827 24.0833 23.139V18.4168C24.0833 17.3732 23.2381 16.5279 22.1944 16.5279Z" fill="#2FDF84"/>
<path d="M13.6945 27.8613H11.8056C10.7667 27.8613 9.91667 27.0113 9.91667 25.9724V18.4168C9.91667 17.3779 10.7667 16.5279 11.8056 16.5279H13.6945C12.6556 16.5279 11.8056 17.3779 11.8056 18.4168V25.9724C11.8056 27.0113 12.6556 27.8613 13.6945 27.8613Z" fill="#D5DBE1"/>
<path d="M23.1389 16.7829C22.5722 17.1135 22.1945 17.7179 22.1945 18.4168V25.0279H20.3056V18.4168C20.3056 17.3779 21.1556 16.5279 22.1945 16.5279C22.5345 16.5279 22.865 16.6224 23.1389 16.7829Z" fill="#00B871"/>
<path d="M25.9722 20.0688H20.3056V18.6522H25.9722C26.6229 18.6522 27.1528 18.1223 27.1528 17.4716V16.9257C27.1528 16.4233 26.8345 15.9756 26.3604 15.8103L17 12.5548L7.63961 15.8103C7.1655 15.9756 6.84722 16.4233 6.84722 16.9257V17.4716C6.84722 18.1223 7.37706 18.6522 8.02778 18.6522H9.91667V20.0688H8.02778C6.59506 20.0688 5.43056 18.9043 5.43056 17.4716V16.9257C5.43056 15.8217 6.13134 14.8357 7.17495 14.4721L16.7677 11.1353C16.9169 11.0825 17.0831 11.0825 17.2323 11.1353L26.8251 14.4721C27.8677 14.8357 28.5694 15.8207 28.5694 16.9257V17.4716C28.5694 18.9043 27.4049 20.0688 25.9722 20.0688Z" fill="#0C0C0C"/>
<path d="M17.7083 11.8059H16.2916V10.7245C16.2916 9.99823 16.727 9.36545 17.3749 9.14823C17.8566 8.98673 18.1805 8.53717 18.1805 8.02812C18.1805 7.37739 17.6507 6.84756 17 6.84756C16.3493 6.84756 15.8194 7.37739 15.8194 8.02812H14.4028C14.4028 6.59539 15.5673 5.43089 17 5.43089C18.4327 5.43089 19.5972 6.59539 19.5972 8.02812C19.5972 9.14634 18.8851 10.1361 17.8254 10.4912C17.7688 10.5111 17.7083 10.6083 17.7083 10.7245V11.8059Z" fill="#0C0C0C"/>
<path d="M18.4167 28.5691H11.8055C10.3728 28.5691 9.20833 27.4046 9.20833 25.9719V18.4163C9.20833 16.9836 10.3728 15.8191 11.8055 15.8191H22.1944C23.6272 15.8191 24.7917 16.9836 24.7917 18.4163V23.1386C24.7917 24.5713 23.6272 25.7358 22.1944 25.7358H21.0139V25.9719C21.0139 27.4046 19.8494 28.5691 18.4167 28.5691ZM11.8055 17.2358C11.1548 17.2358 10.625 17.7656 10.625 18.4163V25.9719C10.625 26.6226 11.1548 27.1524 11.8055 27.1524H18.4167C19.0674 27.1524 19.5972 26.6226 19.5972 25.9719V18.4163C19.5972 17.9913 19.6992 17.5899 19.8815 17.2358H11.8055ZM21.0139 24.3191H22.1944C22.8452 24.3191 23.375 23.7893 23.375 23.1386V18.4163C23.375 17.7656 22.8452 17.2358 22.1944 17.2358C21.5437 17.2358 21.0139 17.7656 21.0139 18.4163V24.3191Z" fill="#0C0C0C"/>
<path d="M30.0645 12.9863C29.2834 12.9863 28.6478 12.3507 28.6478 11.5696C28.6478 10.7885 29.2834 10.1529 30.0645 10.1529C30.8455 10.1529 31.4812 10.7885 31.4812 11.5696C31.4812 12.3507 30.8455 12.9863 30.0645 12.9863ZM30.0645 11.0974C29.8048 11.0974 29.5923 11.3089 29.5923 11.5696C29.5923 11.8303 29.8048 12.0418 30.0645 12.0418C30.3242 12.0418 30.5367 11.8303 30.5367 11.5696C30.5367 11.3089 30.3242 11.0974 30.0645 11.0974Z" fill="#A4AFC1"/>
</svg>
