<svg width="20" height="20" viewBox="0 0 20 20" fill="none" xmlns="http://www.w3.org/2000/svg">
<path d="M13.75 16.75V15.25C13.75 14.4544 13.4339 13.6913 12.8713 13.1287C12.3087 12.5661 11.5456 12.25 10.75 12.25H4.75C3.95435 12.25 3.19129 12.5661 2.62868 13.1287C2.06607 13.6913 1.75 14.4544 1.75 15.25V16.75" stroke="#727276" stroke-width="1.5" stroke-linecap="round" stroke-linejoin="round"/>
<path d="M7.75 3.25C6.95435 3.25 6.19129 3.56607 5.62868 4.12868C5.06607 4.69129 4.75 5.45435 4.75 6.25C4.75 7.04565 5.06607 7.80871 5.62868 8.37132C6.19129 8.93393 6.95435 9.25 7.75 9.25C8.54565 9.25 9.30871 8.93393 9.87132 8.37132C10.4339 7.80871 10.75 7.04565 10.75 6.25C10.75 5.45435 10.4339 4.69129 9.87132 4.12868C9.30871 3.56607 8.54565 3.25 7.75 3.25Z" stroke="#727276" stroke-width="1.5" stroke-linecap="round" stroke-linejoin="round"/>
<path d="M18.25 16.75V15.25C18.2495 14.5853 18.0283 13.9396 17.621 13.4143C17.2138 12.8889 16.6436 12.5137 16 12.3475" stroke="#727276" stroke-width="1.5" stroke-linecap="round" stroke-linejoin="round"/>
<path d="M13 3.34753C13.6453 3.51276 14.2173 3.88806 14.6257 4.41427C15.0342 4.94047 15.2559 5.58766 15.2559 6.25378C15.2559 6.91991 15.0342 7.56709 14.6257 8.0933C14.2173 8.61951 13.6453 8.99481 13 9.16003" stroke="#727276" stroke-width="1.5" stroke-linecap="round" stroke-linejoin="round"/>
</svg>
