<svg width="20" height="20" viewBox="0 0 20 20" fill="none" xmlns="http://www.w3.org/2000/svg">
<path d="M7.5 2.5H4.16667C3.72464 2.5 3.30072 2.67559 2.98816 2.98816C2.67559 3.30072 2.5 3.72464 2.5 4.16667V7.5C2.5 7.94203 2.67559 8.36595 2.98816 8.67851C3.30072 8.99107 3.72464 9.16667 4.16667 9.16667H7.5C7.94203 9.16667 8.36595 8.99107 8.67851 8.67851C8.99107 8.36595 9.16667 7.94203 9.16667 7.5V4.16667C9.16667 3.72464 8.99107 3.30072 8.67851 2.98816C8.36595 2.67559 7.94203 2.5 7.5 2.5ZM4.16667 7.5V4.16667H7.5V7.5H4.16667ZM15.8333 2.5H12.5C12.058 2.5 11.634 2.67559 11.3215 2.98816C11.0089 3.30072 10.8333 3.72464 10.8333 4.16667V7.5C10.8333 7.94203 11.0089 8.36595 11.3215 8.67851C11.634 8.99107 12.058 9.16667 12.5 9.16667H15.8333C16.2754 9.16667 16.6993 8.99107 17.0118 8.67851C17.3244 8.36595 17.5 7.94203 17.5 7.5V4.16667C17.5 3.72464 17.3244 3.30072 17.0118 2.98816C16.6993 2.67559 16.2754 2.5 15.8333 2.5ZM12.5 7.5V4.16667H15.8333V7.5H12.5ZM7.5 10.8333H4.16667C3.72464 10.8333 3.30072 11.0089 2.98816 11.3215C2.67559 11.634 2.5 12.058 2.5 12.5V15.8333C2.5 16.2754 2.67559 16.6993 2.98816 17.0118C3.30072 17.3244 3.72464 17.5 4.16667 17.5H7.5C7.94203 17.5 8.36595 17.3244 8.67851 17.0118C8.99107 16.6993 9.16667 16.2754 9.16667 15.8333V12.5C9.16667 12.058 8.99107 11.634 8.67851 11.3215C8.36595 11.0089 7.94203 10.8333 7.5 10.8333ZM4.16667 15.8333V12.5H7.5V15.8333H4.16667ZM15.8333 10.8333H12.5C12.058 10.8333 11.634 11.0089 11.3215 11.3215C11.0089 11.634 10.8333 12.058 10.8333 12.5V15.8333C10.8333 16.2754 11.0089 16.6993 11.3215 17.0118C11.634 17.3244 12.058 17.5 12.5 17.5H15.8333C16.2754 17.5 16.6993 17.3244 17.0118 17.0118C17.3244 16.6993 17.5 16.2754 17.5 15.8333V12.5C17.5 12.058 17.3244 11.634 17.0118 11.3215C16.6993 11.0089 16.2754 10.8333 15.8333 10.8333ZM12.5 15.8333V12.5H15.8333V15.8333H12.5Z" fill="#727276"/>
</svg>
