<svg width="20" height="20" viewBox="0 0 20 20" fill="none" xmlns="http://www.w3.org/2000/svg">
<path d="M9.99999 1.66669C8.35182 1.66669 6.74065 2.15543 5.37024 3.07111C3.99983 3.98679 2.93173 5.28827 2.301 6.81099C1.67027 8.33371 1.50524 10.0093 1.82678 11.6258C2.14833 13.2423 2.942 14.7271 4.10744 15.8926C5.27287 17.058 6.75773 17.8517 8.37424 18.1732C9.99075 18.4948 11.6663 18.3297 13.189 17.699C14.7117 17.0683 16.0132 16.0002 16.9289 14.6298C17.8446 13.2594 18.3333 11.6482 18.3333 10C18.3333 8.90567 18.1178 7.82204 17.699 6.81099C17.2802 5.79994 16.6664 4.88129 15.8925 4.10746C15.1187 3.33364 14.2001 2.71981 13.189 2.30102C12.178 1.88224 11.0943 1.66669 9.99999 1.66669ZM9.99999 16.6667C8.68145 16.6667 7.39252 16.2757 6.29619 15.5432C5.19986 14.8106 4.34538 13.7694 3.8408 12.5512C3.33621 11.3331 3.20419 9.99263 3.46143 8.69942C3.71866 7.40621 4.3536 6.21833 5.28595 5.28598C6.2183 4.35363 7.40619 3.71869 8.69939 3.46145C9.9926 3.20422 11.333 3.33624 12.5512 3.84082C13.7694 4.34541 14.8106 5.19989 15.5431 6.29622C16.2757 7.39255 16.6667 8.68148 16.6667 10C16.6667 11.7681 15.9643 13.4638 14.714 14.7141C13.4638 15.9643 11.7681 16.6667 9.99999 16.6667Z" fill="#727276"/>
<path d="M10 7.49998C10.4602 7.49998 10.8333 7.12688 10.8333 6.66665C10.8333 6.20641 10.4602 5.83331 10 5.83331C9.53977 5.83331 9.16667 6.20641 9.16667 6.66665C9.16667 7.12688 9.53977 7.49998 10 7.49998Z" fill="#727276"/>
<path d="M10 8.33331C9.77899 8.33331 9.56703 8.42111 9.41075 8.57739C9.25447 8.73367 9.16667 8.94563 9.16667 9.16665V13.3333C9.16667 13.5543 9.25447 13.7663 9.41075 13.9226C9.56703 14.0788 9.77899 14.1666 10 14.1666C10.221 14.1666 10.433 14.0788 10.5893 13.9226C10.7455 13.7663 10.8333 13.5543 10.8333 13.3333V9.16665C10.8333 8.94563 10.7455 8.73367 10.5893 8.57739C10.433 8.42111 10.221 8.33331 10 8.33331Z" fill="#727276"/>
</svg>
