<svg width="20" height="20" viewBox="0 0 20 20" fill="none" xmlns="http://www.w3.org/2000/svg">
<path d="M12.5 13.3333H7.49999C7.27898 13.3333 7.06701 13.4211 6.91073 13.5774C6.75445 13.7337 6.66666 13.9457 6.66666 14.1667C6.66666 14.3877 6.75445 14.5996 6.91073 14.7559C7.06701 14.9122 7.27898 15 7.49999 15H12.5C12.721 15 12.933 14.9122 13.0892 14.7559C13.2455 14.5996 13.3333 14.3877 13.3333 14.1667C13.3333 13.9457 13.2455 13.7337 13.0892 13.5774C12.933 13.4211 12.721 13.3333 12.5 13.3333ZM7.49999 11.6667H9.99999C10.221 11.6667 10.433 11.5789 10.5892 11.4226C10.7455 11.2663 10.8333 11.0543 10.8333 10.8333C10.8333 10.6123 10.7455 10.4004 10.5892 10.2441C10.433 10.0878 10.221 10 9.99999 10H7.49999C7.27898 10 7.06701 10.0878 6.91073 10.2441C6.75445 10.4004 6.66666 10.6123 6.66666 10.8333C6.66666 11.0543 6.75445 11.2663 6.91073 11.4226C7.06701 11.5789 7.27898 11.6667 7.49999 11.6667Z" fill="#003B5B"/>
<path d="M16.45 6.94167L11.9167 1.94167C11.8388 1.85534 11.7436 1.78628 11.6374 1.73892C11.5312 1.69155 11.4163 1.66694 11.3 1.66667H5.46668C5.1898 1.66337 4.91499 1.71464 4.65793 1.81755C4.40087 1.92046 4.1666 2.073 3.96849 2.26646C3.77039 2.45992 3.61234 2.69051 3.50336 2.94506C3.39438 3.1996 3.33661 3.47313 3.33334 3.75V16.25C3.33661 16.5269 3.39438 16.8004 3.50336 17.0549C3.61234 17.3095 3.77039 17.5401 3.96849 17.7335C4.1666 17.927 4.40087 18.0795 4.65793 18.1825C4.91499 18.2854 5.1898 18.3366 5.46668 18.3333H14.5333C14.8102 18.3366 15.085 18.2854 15.3421 18.1825C15.5992 18.0795 15.8334 17.927 16.0315 17.7335C16.2296 17.5401 16.3877 17.3095 16.4967 17.0549C16.6056 16.8004 16.6634 16.5269 16.6667 16.25V7.5C16.6661 7.29347 16.5889 7.0945 16.45 6.94167ZM11.6667 4.16667L13.95 6.66667H12.2833C12.1961 6.6614 12.1107 6.6388 12.0323 6.60019C11.9539 6.56159 11.8839 6.50774 11.8265 6.44181C11.7691 6.37587 11.7254 6.29915 11.6979 6.21615C11.6705 6.13314 11.6599 6.0455 11.6667 5.95834V4.16667ZM14.5333 16.6667H5.46668C5.40866 16.67 5.35054 16.6619 5.29566 16.6428C5.24077 16.6237 5.19021 16.5939 5.14685 16.5552C5.1035 16.5165 5.06821 16.4696 5.04301 16.4172C5.01782 16.3649 5.0032 16.308 5.00001 16.25V3.75C5.0032 3.69197 5.01782 3.63514 5.04301 3.58277C5.06821 3.53039 5.1035 3.48351 5.14685 3.4448C5.19021 3.40609 5.24077 3.37632 5.29566 3.35719C5.35054 3.33807 5.40866 3.32996 5.46668 3.33334H10V5.95834C9.98656 6.57219 10.2165 7.16644 10.6396 7.61139C11.0627 8.05635 11.6446 8.31588 12.2583 8.33334H15V16.25C14.9968 16.308 14.9822 16.3649 14.957 16.4172C14.9318 16.4696 14.8965 16.5165 14.8532 16.5552C14.8098 16.5939 14.7592 16.6237 14.7044 16.6428C14.6495 16.6619 14.5914 16.67 14.5333 16.6667Z" fill="#003B5B"/>
</svg>
