<svg width="16" height="20" viewBox="0 0 16 20" fill="none" xmlns="http://www.w3.org/2000/svg">
<path d="M3.83331 11.3333C3.83331 11.0572 4.05717 10.8333 4.33331 10.8333H11.6666C11.9428 10.8333 12.1666 11.0572 12.1666 11.3333V12C12.1666 12.2761 11.9428 12.5 11.6666 12.5H4.33331C4.05717 12.5 3.83331 12.2761 3.83331 12V11.3333Z" fill="#727276"/>
<path d="M3.83331 8C3.83331 7.72386 4.05717 7.5 4.33331 7.5H9.99998C10.2761 7.5 10.5 7.72386 10.5 8V8.66667C10.5 8.94281 10.2761 9.16667 9.99998 9.16667H4.33331C4.05717 9.16667 3.83331 8.94281 3.83331 8.66667V8Z" fill="#727276"/>
<path d="M3.83331 14.6667C3.83331 14.3905 4.05717 14.1667 4.33331 14.1667H11.6666C11.9428 14.1667 12.1666 14.3905 12.1666 14.6667V15.3333C12.1666 15.6095 11.9428 15.8333 11.6666 15.8333H4.33331C4.05717 15.8333 3.83331 15.6095 3.83331 15.3333V14.6667Z" fill="#727276"/>
<path d="M13.8333 1.66667H12.1667V0.833333C12.1667 0.61232 12.0789 0.400358 11.9226 0.244078C11.7663 0.0877974 11.5543 0 11.3333 0C11.1123 0 10.9004 0.0877974 10.7441 0.244078C10.5878 0.400358 10.5 0.61232 10.5 0.833333V1.66667H8.83333V0.833333C8.83333 0.61232 8.74554 0.400358 8.58926 0.244078C8.43297 0.0877974 8.22101 0 8 0C7.77899 0 7.56702 0.0877974 7.41074 0.244078C7.25446 0.400358 7.16667 0.61232 7.16667 0.833333V1.66667H5.5V0.833333C5.5 0.61232 5.4122 0.400358 5.25592 0.244078C5.09964 0.0877974 4.88768 0 4.66667 0C4.44565 0 4.23369 0.0877974 4.07741 0.244078C3.92113 0.400358 3.83333 0.61232 3.83333 0.833333V1.66667H2.16667C1.2475 1.66667 0.5 2.41333 0.5 3.33333V18.3333C0.5 19.2525 1.2475 20 2.16667 20H13.8333C14.7525 20 15.5 19.2525 15.5 18.3333V3.33333C15.5 2.41333 14.7525 1.66667 13.8333 1.66667ZM2.16667 18.3333V3.33333H3.83333V4.16667C3.83333 4.38768 3.92113 4.59964 4.07741 4.75592C4.23369 4.9122 4.44565 5 4.66667 5C4.88768 5 5.09964 4.9122 5.25592 4.75592C5.4122 4.59964 5.5 4.38768 5.5 4.16667V3.33333H7.16667V4.16667C7.16667 4.38768 7.25446 4.59964 7.41074 4.75592C7.56702 4.9122 7.77899 5 8 5C8.22101 5 8.43297 4.9122 8.58926 4.75592C8.74554 4.59964 8.83333 4.38768 8.83333 4.16667V3.33333H10.5V4.16667C10.5 4.38768 10.5878 4.59964 10.7441 4.75592C10.9004 4.9122 11.1123 5 11.3333 5C11.5543 5 11.7663 4.9122 11.9226 4.75592C12.0789 4.59964 12.1667 4.38768 12.1667 4.16667V3.33333H13.8333L13.8342 18.3333H2.16667Z" fill="#727276"/>
</svg>
