<svg width="20" height="20" viewBox="0 0 20 20" fill="none" xmlns="http://www.w3.org/2000/svg">
<path d="M16.1935 10.8167C16.2268 10.55 16.2518 10.2833 16.2518 10C16.2518 9.71667 16.2268 9.45001 16.1935 9.18334L17.9518 7.80834C18.1102 7.68334 18.1518 7.45834 18.0518 7.275L16.3852 4.39167C16.3102 4.25834 16.1685 4.18334 16.0185 4.18334C15.9685 4.18334 15.9185 4.19167 15.8768 4.20834L13.8018 5.04167C13.3685 4.70834 12.9018 4.43334 12.3935 4.22501L12.0768 2.01667C12.0518 1.81667 11.8768 1.66667 11.6685 1.66667H8.33515C8.12682 1.66667 7.95182 1.81667 7.92682 2.01667L7.61015 4.22501C7.10182 4.43334 6.63515 4.71667 6.20182 5.04167L4.12682 4.20834C4.07682 4.19167 4.02682 4.18334 3.97682 4.18334C3.83515 4.18334 3.69349 4.25834 3.61849 4.39167L1.95182 7.275C1.84349 7.45834 1.89349 7.68334 2.05182 7.80834L3.81015 9.18334C3.77682 9.45001 3.75182 9.72501 3.75182 10C3.75182 10.275 3.77682 10.55 3.81015 10.8167L2.05182 12.1917C1.89349 12.3167 1.85182 12.5417 1.95182 12.725L3.61849 15.6083C3.69349 15.7417 3.83515 15.8167 3.98515 15.8167C4.03515 15.8167 4.08515 15.8083 4.12682 15.7917L6.20182 14.9583C6.63515 15.2917 7.10182 15.5667 7.61015 15.775L7.92682 17.9833C7.95182 18.1833 8.12682 18.3333 8.33515 18.3333H11.6685C11.8768 18.3333 12.0518 18.1833 12.0768 17.9833L12.3935 15.775C12.9018 15.5667 13.3685 15.2833 13.8018 14.9583L15.8768 15.7917C15.9268 15.8083 15.9768 15.8167 16.0268 15.8167C16.1685 15.8167 16.3102 15.7417 16.3852 15.6083L18.0518 12.725C18.1518 12.5417 18.1102 12.3167 17.9518 12.1917L16.1935 10.8167ZM14.5435 9.39167C14.5768 9.65001 14.5852 9.82501 14.5852 10C14.5852 10.175 14.5685 10.3583 14.5435 10.6083L14.4268 11.55L15.1685 12.1333L16.0685 12.8333L15.4852 13.8417L14.4268 13.4167L13.5602 13.0667L12.8102 13.6333C12.4518 13.9 12.1102 14.1 11.7685 14.2417L10.8852 14.6L10.7518 15.5417L10.5852 16.6667H9.41849L9.12682 14.6L8.24349 14.2417C7.88515 14.0917 7.55182 13.9 7.21849 13.65L6.46015 13.0667L5.57682 13.425L4.51849 13.85L3.93515 12.8417L4.83515 12.1417L5.57682 11.5583L5.46015 10.6167C5.43515 10.3583 5.41849 10.1667 5.41849 10C5.41849 9.83334 5.43515 9.64167 5.46015 9.39167L5.57682 8.45001L4.83515 7.86667L3.93515 7.16667L4.51849 6.15834L5.57682 6.58334L6.44349 6.93334L7.19349 6.36667C7.55182 6.10001 7.89349 5.90001 8.23515 5.75834L9.11849 5.40001L9.25182 4.45834L9.41849 3.33334H10.5768L10.8685 5.40001L11.7518 5.75834C12.1102 5.90834 12.4435 6.10001 12.7768 6.35001L13.5352 6.93334L14.4185 6.57501L15.4768 6.15001L16.0602 7.15834L15.1685 7.86667L14.4268 8.45001L14.5435 9.39167ZM10.0018 6.66667C8.16015 6.66667 6.66849 8.15834 6.66849 10C6.66849 11.8417 8.16015 13.3333 10.0018 13.3333C11.8435 13.3333 13.3352 11.8417 13.3352 10C13.3352 8.15834 11.8435 6.66667 10.0018 6.66667ZM10.0018 11.6667C9.08515 11.6667 8.33515 10.9167 8.33515 10C8.33515 9.08334 9.08515 8.33334 10.0018 8.33334C10.9185 8.33334 11.6685 9.08334 11.6685 10C11.6685 10.9167 10.9185 11.6667 10.0018 11.6667Z" fill="#727276"/>
</svg>
